MFile 1 2 960
MTrk
0 TimeSig 4/4 24 8
0 KeySig 0 major
0 Tempo 857142
0 Meta SeqName "Ode to Joy"
0 Meta Text "Beethoven"
1 Meta TrkEnd
TrkEnd
MTrk
0 PrCh ch=1 p=0
0 Par ch=1 c=121 v=0
0 Par ch=1 c=64 v=0
0 Par ch=1 c=91 v=43
0 Par ch=1 c=10 v=48
0 Par ch=1 c=7 v=127
0 On ch=1 n=60 v=88
0 On ch=1 n=64 v=88
0 Par ch=1 c=121 v=0
0 Par ch=1 c=64 v=0
0 Par ch=1 c=91 v=43
0 Par ch=1 c=10 v=48
0 Par ch=1 c=7 v=127
0 On ch=1 n=48 v=87
0 On ch=1 n=55 v=87
960 Off ch=1 n=64 v=0
960 On ch=1 n=64 v=85
979 Off ch=1 n=60 v=0
1920 On ch=1 n=65 v=105
1939 Off ch=1 n=64 v=0
2880 On ch=1 n=67 v=110
2899 Off ch=1 n=65 v=0
3840 Off ch=1 n=67 v=0
3840 On ch=1 n=67 v=94
3840 Off ch=1 n=48 v=0
3840 Off ch=1 n=55 v=0
3840 On ch=1 n=55 v=93
4800 On ch=1 n=65 v=87
4819 Off ch=1 n=67 v=0
5760 On ch=1 n=64 v=92
5760 Off ch=1 n=55 v=0
5760 On ch=1 n=55 v=101
5779 Off ch=1 n=65 v=0
6720 On ch=1 n=62 v=88
6739 Off ch=1 n=64 v=0
7680 On ch=1 n=60 v=87
7680 Off ch=1 n=55 v=0
7680 On ch=1 n=48 v=100
7680 On ch=1 n=52 v=100
7680 On ch=1 n=55 v=100
7699 Off ch=1 n=62 v=0
8640 Off ch=1 n=60 v=0
8640 On ch=1 n=60 v=101
9600 On ch=1 n=62 v=109
9619 Off ch=1 n=60 v=0
10560 On ch=1 n=64 v=103
10579 Off ch=1 n=62 v=0
11520 Off ch=1 n=64 v=0
11520 On ch=1 n=64 v=103
11520 Off ch=1 n=48 v=0
11520 Off ch=1 n=52 v=0
11520 Off ch=1 n=55 v=0
11520 On ch=1 n=55 v=100
12960 On ch=1 n=62 v=100
12986 Off ch=1 n=64 v=0
13440 Off ch=1 n=62 v=0
13440 On ch=1 n=59 v=95
13440 On ch=1 n=62 v=95
13440 Off ch=1 n=55 v=0
13440 On ch=1 n=55 v=95
15263 Off ch=1 n=59 v=0
15263 Off ch=1 n=62 v=0
15360 On ch=1 n=60 v=100
15360 On ch=1 n=64 v=100
15360 Off ch=1 n=55 v=0
15360 On ch=1 n=48 v=97
15360 On ch=1 n=55 v=97
16320 Off ch=1 n=64 v=0
16320 On ch=1 n=64 v=103
16339 Off ch=1 n=60 v=0
17280 On ch=1 n=65 v=101
17299 Off ch=1 n=64 v=0
18240 On ch=1 n=67 v=110
18259 Off ch=1 n=65 v=0
19200 Off ch=1 n=67 v=0
19200 On ch=1 n=67 v=99
19200 Off ch=1 n=48 v=0
19200 Off ch=1 n=55 v=0
19200 On ch=1 n=55 v=102
20160 On ch=1 n=65 v=97
20179 Off ch=1 n=67 v=0
21120 On ch=1 n=64 v=96
21120 Off ch=1 n=55 v=0
21120 On ch=1 n=55 v=98
21139 Off ch=1 n=65 v=0
22080 On ch=1 n=62 v=87
22099 Off ch=1 n=64 v=0
23040 On ch=1 n=60 v=90
23040 Off ch=1 n=55 v=0
23040 On ch=1 n=48 v=97
23040 On ch=1 n=52 v=97
23040 On ch=1 n=55 v=97
23059 Off ch=1 n=62 v=0
24000 Off ch=1 n=60 v=0
24000 On ch=1 n=60 v=97
24960 On ch=1 n=62 v=104
24979 Off ch=1 n=60 v=0
25920 On ch=1 n=64 v=103
25939 Off ch=1 n=62 v=0
26880 On ch=1 n=62 v=99
26880 Off ch=1 n=48 v=0
26880 Off ch=1 n=52 v=0
26880 Off ch=1 n=55 v=0
26880 On ch=1 n=55 v=97
26899 Off ch=1 n=64 v=0
28320 On ch=1 n=60 v=91
28346 Off ch=1 n=62 v=0
28800 Off ch=1 n=60 v=0
28800 On ch=1 n=60 v=97
28800 Off ch=1 n=55 v=0
28800 On ch=1 n=48 v=92
30623 Off ch=1 n=60 v=0
30720 On ch=1 n=62 v=65
30720 Off ch=1 n=48 v=0
30720 On ch=1 n=55 v=62
31680 Off ch=1 n=62 v=0
31680 On ch=1 n=62 v=59
32640 On ch=1 n=64 v=65
32659 Off ch=1 n=62 v=0
33600 On ch=1 n=60 v=54
33619 Off ch=1 n=64 v=0
34560 On ch=1 n=62 v=59
34560 Off ch=1 n=55 v=0
34560 On ch=1 n=55 v=57
34579 Off ch=1 n=60 v=0
35520 On ch=1 n=64 v=66
35539 Off ch=1 n=62 v=0
36000 On ch=1 n=65 v=64
36008 Off ch=1 n=64 v=0
36480 On ch=1 n=64 v=59
36480 Off ch=1 n=55 v=0
36480 On ch=1 n=55 v=61
36488 Off ch=1 n=65 v=0
37440 On ch=1 n=60 v=50
37459 Off ch=1 n=64 v=0
38400 On ch=1 n=62 v=67
38400 Off ch=1 n=55 v=0
38400 On ch=1 n=55 v=58
38419 Off ch=1 n=60 v=0
39360 On ch=1 n=64 v=69
39379 Off ch=1 n=62 v=0
39840 On ch=1 n=65 v=65
39848 Off ch=1 n=64 v=0
40320 On ch=1 n=64 v=63
40320 Off ch=1 n=55 v=0
40320 On ch=1 n=56 v=62
40328 Off ch=1 n=65 v=0
41280 On ch=1 n=62 v=58
41299 Off ch=1 n=64 v=0
42240 On ch=1 n=60 v=55
42240 Off ch=1 n=56 v=0
42240 On ch=1 n=57 v=60
42259 Off ch=1 n=62 v=0
43200 On ch=1 n=62 v=63
43200 Off ch=1 n=57 v=0
43200 On ch=1 n=54 v=59
43219 Off ch=1 n=60 v=0
44111 Off ch=1 n=62 v=0
44160 Off ch=1 n=54 v=0
44160 On ch=1 n=55 v=60
45120 On ch=1 n=64 v=86
46080 Off ch=1 n=55 v=0
46080 On ch=1 n=60 v=108
47040 Off ch=1 n=64 v=0
47040 On ch=1 n=64 v=95
48000 On ch=1 n=65 v=98
48000 Off ch=1 n=60 v=0
48000 On ch=1 n=58 v=101
48019 Off ch=1 n=64 v=0
48960 On ch=1 n=67 v=105
48979 Off ch=1 n=65 v=0
49920 Off ch=1 n=67 v=0
49920 On ch=1 n=67 v=98
49920 Off ch=1 n=58 v=0
49920 On ch=1 n=57 v=94
50880 On ch=1 n=65 v=88
50899 Off ch=1 n=67 v=0
51840 On ch=1 n=64 v=94
51840 Off ch=1 n=57 v=0
51840 On ch=1 n=53 v=95
51859 Off ch=1 n=65 v=0
52800 On ch=1 n=62 v=90
52819 Off ch=1 n=64 v=0
53760 On ch=1 n=60 v=94
53760 Off ch=1 n=53 v=0
53760 On ch=1 n=52 v=95
53779 Off ch=1 n=62 v=0
54720 Off ch=1 n=60 v=0
54720 On ch=1 n=60 v=96
54720 Off ch=1 n=52 v=0
54720 On ch=1 n=52 v=97
55680 On ch=1 n=62 v=100
55680 Off ch=1 n=52 v=0
55680 On ch=1 n=55 v=96
55699 Off ch=1 n=60 v=0
56640 On ch=1 n=64 v=105
56640 Off ch=1 n=55 v=0
56640 On ch=1 n=60 v=112
56659 Off ch=1 n=62 v=0
57600 On ch=1 n=62 v=100
57600 Off ch=1 n=60 v=0
57600 On ch=1 n=55 v=94
57619 Off ch=1 n=64 v=0
59040 On ch=1 n=60 v=88
59066 Off ch=1 n=62 v=0
59520 Off ch=1 n=60 v=0
59520 On ch=1 n=60 v=96
59520 Off ch=1 n=55 v=0
59520 On ch=1 n=48 v=97
59520 On ch=1 n=52 v=97
59520 On ch=1 n=55 v=97
61343 Off ch=1 n=60 v=0
61440 Off ch=1 n=48 v=0
61440 Off ch=1 n=52 v=0
61440 Off ch=1 n=55 v=0
61441 Meta TrkEnd
TrkEnd