MFile 1 14 192
MTrk
0 Tempo 769230
0 TimeSig 2/4 24 8
56832 Tempo 389610
78720 Tempo 769230
262143 Meta TrkEnd
TrkEnd
MTrk
0 Meta Text "Lead Vox"
170 Par ch=6 c=121 v=0
242 Par ch=6 c=0 v=0
244 Par ch=6 c=32 v=0
246 PrCh ch=6 p=60
248 Par ch=6 c=7 v=123
248 Par ch=6 c=10 v=64
248 Par ch=6 c=11 v=100
250 Par ch=6 c=91 v=127
250 Par ch=6 c=93 v=60
13056 On ch=6 n=72 v=121
13056 On ch=6 n=74 v=119
13078 Off ch=6 n=72 v=121
13716 Off ch=6 n=74 v=119
13728 On ch=6 n=70 v=121
13824 Off ch=6 n=70 v=121
13824 On ch=6 n=72 v=122
13914 Off ch=6 n=72 v=122
13920 On ch=6 n=74 v=117
13968 On ch=6 n=73 v=118
14004 Off ch=6 n=73 v=118
14454 Off ch=6 n=74 v=117
14496 On ch=6 n=74 v=123
14590 Off ch=6 n=74 v=123
14592 On ch=6 n=75 v=123
14688 Off ch=6 n=75 v=123
14688 On ch=6 n=77 v=122
14736 On ch=6 n=75 v=121
14738 Off ch=6 n=77 v=122
14832 Off ch=6 n=75 v=121
14832 On ch=6 n=74 v=120
14916 Off ch=6 n=74 v=120
14928 On ch=6 n=72 v=120
15238 Off ch=6 n=72 v=120
15264 On ch=6 n=72 v=120
15312 On ch=6 n=74 v=122
15328 Off ch=6 n=72 v=120
15360 On ch=6 n=75 v=121
15382 Off ch=6 n=74 v=122
15452 Off ch=6 n=75 v=121
15456 On ch=6 n=77 v=121
15504 On ch=6 n=75 v=120
15524 Off ch=6 n=77 v=121
15584 Off ch=6 n=75 v=120
15600 On ch=6 n=74 v=120
15648 On ch=6 n=72 v=118
15676 Off ch=6 n=74 v=120
16106 Off ch=6 n=72 v=118
16128 On ch=6 n=73 v=122
16128 On ch=6 n=74 v=123
16138 Off ch=6 n=73 v=122
16204 Off ch=6 n=74 v=123
16224 On ch=6 n=74 v=122
16416 On ch=6 n=72 v=120
16428 Off ch=6 n=74 v=122
16462 Off ch=6 n=72 v=120
16464 On ch=6 n=70 v=120
16506 Off ch=6 n=70 v=120
16512 On ch=6 n=72 v=118
16560 On ch=6 n=74 v=118
16576 Off ch=6 n=72 v=118
16618 Off ch=6 n=74 v=118
16800 On ch=6 n=77 v=123
16876 Off ch=6 n=77 v=123
16896 On ch=6 n=80 v=122
16896 On ch=6 n=81 v=122
16910 Off ch=6 n=80 v=122
17030 Off ch=6 n=81 v=122
17040 On ch=6 n=79 v=120
17568 On ch=6 n=78 v=122
17576 Off ch=6 n=79 v=120
17608 Off ch=6 n=78 v=122
17616 On ch=6 n=79 v=122
17664 Off ch=6 n=79 v=122
17664 On ch=6 n=82 v=123
17744 Off ch=6 n=82 v=123
17760 On ch=6 n=82 v=122
17804 Off ch=6 n=82 v=122
17808 On ch=6 n=82 v=122
17996 Off ch=6 n=82 v=122
18000 On ch=6 n=81 v=120
18000 On ch=6 n=82 v=119
18018 Off ch=6 n=81 v=120
18142 Off ch=6 n=82 v=119
18144 On ch=6 n=79 v=123
18230 Off ch=6 n=79 v=123
18240 On ch=6 n=74 v=123
18240 On ch=6 n=75 v=123
18264 Off ch=6 n=75 v=123
18336 On ch=6 n=72 v=123
18368 Off ch=6 n=74 v=123
18824 Off ch=6 n=72 v=123
19200 On ch=6 n=78 v=123
19200 On ch=6 n=79 v=123
19216 Off ch=6 n=78 v=123
19772 Off ch=6 n=79 v=123
19776 On ch=6 n=77 v=123
19872 On ch=6 n=79 v=122
19882 Off ch=6 n=77 v=123
19920 On ch=6 n=80 v=121
19928 Off ch=6 n=79 v=122
19968 On ch=6 n=79 v=122
19972 Off ch=6 n=80 v=121
20538 Off ch=6 n=79 v=122
20640 On ch=6 n=79 v=123
20724 Off ch=6 n=79 v=123
20736 On ch=6 n=79 v=123
20736 On ch=6 n=80 v=119
20766 Off ch=6 n=79 v=123
20870 Off ch=6 n=80 v=119
20880 On ch=6 n=79 v=123
20946 Off ch=6 n=79 v=123
20976 On ch=6 n=79 v=123
21024 On ch=6 n=77 v=122
21032 Off ch=6 n=79 v=123
21080 Off ch=6 n=77 v=122
21120 On ch=6 n=77 v=123
21456 On ch=6 n=70 v=123
21474 Off ch=6 n=77 v=123
21500 Off ch=6 n=70 v=123
21504 On ch=6 n=70 v=123
21586 Off ch=6 n=70 v=123
21600 On ch=6 n=77 v=122
21658 Off ch=6 n=77 v=122
21696 On ch=6 n=77 v=123
21786 Off ch=6 n=77 v=123
21792 On ch=6 n=79 v=123
21848 Off ch=6 n=79 v=123
21888 On ch=6 n=79 v=123
21984 On ch=6 n=80 v=122
21992 Off ch=6 n=79 v=123
22058 Off ch=6 n=80 v=122
22080 On ch=6 n=80 v=122
22176 On ch=6 n=82 v=122
22180 Off ch=6 n=80 v=122
22272 On ch=6 n=80 v=119
22278 Off ch=6 n=82 v=122
22362 Off ch=6 n=80 v=119
22368 On ch=6 n=79 v=118
22540 Off ch=6 n=79 v=118
22560 On ch=6 n=77 v=123
22608 Off ch=6 n=77 v=123
22608 On ch=6 n=75 v=122
22646 Off ch=6 n=75 v=122
22656 On ch=6 n=77 v=119
22944 On ch=6 n=75 v=123
22952 Off ch=6 n=77 v=119
22992 On ch=6 n=74 v=116
23004 Off ch=6 n=75 v=123
23040 Off ch=6 n=74 v=116
23040 On ch=6 n=75 v=119
23328 On ch=6 n=70 v=121
23340 Off ch=6 n=75 v=119
23356 Off ch=6 n=70 v=121
23376 On ch=6 n=70 v=122
23418 Off ch=6 n=70 v=122
23424 On ch=6 n=71 v=122
23508 Off ch=6 n=71 v=122
23520 On ch=6 n=73 v=119
23568 On ch=6 n=71 v=120
23582 Off ch=6 n=73 v=119
23616 On ch=6 n=73 v=119
23630 Off ch=6 n=71 v=120
23658 Off ch=6 n=73 v=119
23664 On ch=6 n=71 v=119
23698 Off ch=6 n=71 v=119
23712 On ch=6 n=73 v=119
23746 Off ch=6 n=73 v=119
23760 On ch=6 n=71 v=121
23794 Off ch=6 n=71 v=121
23808 On ch=6 n=70 v=120
24240 Off ch=6 n=70 v=120
43296 On ch=6 n=88 v=121
43314 Off ch=6 n=88 v=121
43344 On ch=6 n=88 v=120
43364 Off ch=6 n=88 v=120
43392 On ch=6 n=93 v=122
43472 Off ch=6 n=93 v=122
43488 On ch=6 n=88 v=120
43508 Off ch=6 n=88 v=120
43536 On ch=6 n=88 v=122
43558 Off ch=6 n=88 v=122
43584 On ch=6 n=93 v=122
43670 Off ch=6 n=93 v=122
43680 On ch=6 n=88 v=121
43702 Off ch=6 n=88 v=121
43728 On ch=6 n=88 v=120
43756 Off ch=6 n=88 v=120
43776 On ch=6 n=87 v=121
43800 Off ch=6 n=87 v=121
43824 On ch=6 n=87 v=119
43852 Off ch=6 n=87 v=119
43872 On ch=6 n=88 v=121
43910 Off ch=6 n=88 v=121
43968 On ch=6 n=90 v=121
44016 Off ch=6 n=90 v=121
44064 On ch=6 n=88 v=122
44104 Off ch=6 n=88 v=122
46176 On ch=6 n=84 v=119
46206 Off ch=6 n=84 v=119
46224 On ch=6 n=84 v=119
46248 Off ch=6 n=84 v=119
46272 On ch=6 n=84 v=119
46320 On ch=6 n=81 v=119
46416 On ch=6 n=77 v=119
46512 On ch=6 n=74 v=120
46574 Off ch=6 n=84 v=119
46608 On ch=6 n=72 v=120
46704 Off ch=6 n=81 v=119
46714 Off ch=6 n=77 v=119
46718 Off ch=6 n=74 v=120
46734 Off ch=6 n=72 v=120
52752 On ch=6 n=84 v=121
52848 On ch=6 n=80 v=120
52944 On ch=6 n=77 v=120
53040 On ch=6 n=75 v=121
53144 Off ch=6 n=84 v=121
53150 Off ch=6 n=80 v=120
53160 Off ch=6 n=77 v=120
53170 Off ch=6 n=75 v=121
53232 On ch=6 n=60 v=122
53298 Off ch=6 n=60 v=122
53328 On ch=6 n=59 v=122
53388 Off ch=6 n=59 v=122
53424 On ch=6 n=56 v=123
53424 On ch=6 n=65 v=123
53472 Off ch=6 n=65 v=123
53496 Off ch=6 n=56 v=123
53520 On ch=6 n=55 v=123
53520 On ch=6 n=62 v=123
53582 Off ch=6 n=55 v=123
53616 Off ch=6 n=62 v=123
53616 On ch=6 n=53 v=123
53616 On ch=6 n=68 v=123
53664 Off ch=6 n=68 v=123
53676 Off ch=6 n=53 v=123
53712 On ch=6 n=50 v=123
53712 On ch=6 n=67 v=123
53760 Off ch=6 n=67 v=123
53774 Off ch=6 n=50 v=123
53808 On ch=6 n=48 v=122
53808 On ch=6 n=72 v=123
53904 Off ch=6 n=72 v=123
53906 Off ch=6 n=48 v=122
82560 On ch=6 n=80 v=121
82648 Off ch=6 n=80 v=121
82656 On ch=6 n=79 v=122
82752 On ch=6 n=75 v=120
82762 Off ch=6 n=79 v=122
82846 Off ch=6 n=75 v=120
82848 On ch=6 n=67 v=121
82896 On ch=6 n=70 v=119
82908 Off ch=6 n=67 v=121
83314 Off ch=6 n=70 v=119
83328 On ch=6 n=79 v=121
83424 On ch=6 n=77 v=120
83434 Off ch=6 n=79 v=121
83520 On ch=6 n=75 v=119
83530 Off ch=6 n=77 v=120
83616 On ch=6 n=74 v=119
83632 Off ch=6 n=75 v=119
83664 On ch=6 n=70 v=120
83674 Off ch=6 n=74 v=119
84092 Off ch=6 n=70 v=120
84096 On ch=6 n=79 v=120
84188 Off ch=6 n=79 v=120
84192 On ch=6 n=75 v=118
84288 On ch=6 n=77 v=119
84290 Off ch=6 n=75 v=118
84384 On ch=6 n=79 v=119
84400 Off ch=6 n=77 v=119
84432 On ch=6 n=75 v=118
84438 Off ch=6 n=79 v=119
84528 Off ch=6 n=75 v=118
84528 On ch=6 n=71 v=117
85224 Off ch=6 n=71 v=117
85248 On ch=6 n=78 v=117
85248 On ch=6 n=79 v=121
85274 Off ch=6 n=78 v=117
85344 Off ch=6 n=79 v=121
85344 On ch=6 n=77 v=120
85430 Off ch=6 n=77 v=120
85440 On ch=6 n=77 v=121
85536 On ch=6 n=75 v=118
85552 Off ch=6 n=77 v=121
85618 Off ch=6 n=75 v=118
85632 On ch=6 n=75 v=119
85728 Off ch=6 n=75 v=119
85728 On ch=6 n=72 v=118
85920 On ch=6 n=74 v=120
85934 Off ch=6 n=72 v=118
86014 Off ch=6 n=74 v=120
86016 On ch=6 n=75 v=120
87186 Off ch=6 n=75 v=120
92928 Par ch=6 c=120 v=0
92930 Par ch=6 c=123 v=0
92930 Meta TrkEnd
TrkEnd
MTrk
0 Meta Text "Lead Vox 2"
168 Par ch=5 c=121 v=0
232 Par ch=5 c=0 v=0
234 Par ch=5 c=32 v=0
236 PrCh ch=5 p=65
238 Par ch=5 c=7 v=123
238 Par ch=5 c=10 v=64
238 Par ch=5 c=11 v=110
240 Par ch=5 c=91 v=127
240 Par ch=5 c=93 v=20
26494 On ch=5 n=62 v=122
26564 Pb ch=5 v=6400
26572 Pb ch=5 v=1792
26580 Pb ch=5 v=512
26588 Pb ch=5 v=8192
26950 Pb ch=5 v=7808
26962 Pb ch=5 v=8192
27042 Par ch=5 c=1 v=20
27058 Par ch=5 c=1 v=60
27074 Par ch=5 c=1 v=76
27090 Par ch=5 c=1 v=82
27106 Par ch=5 c=1 v=100
27122 Par ch=5 c=1 v=73
27130 Par ch=5 c=0 v=40
27138 Par ch=5 c=1 v=0
27168 Off ch=5 n=62 v=122
27172 On ch=5 n=58 v=123
27242 Off ch=5 n=58 v=123
27260 On ch=5 n=60 v=123
27344 Off ch=5 n=60 v=123
27350 On ch=5 n=62 v=123
27392 Pb ch=5 v=5376
27400 Pb ch=5 v=3456
27410 Pb ch=5 v=5120
27418 Pb ch=5 v=8192
27588 Par ch=5 c=1 v=11
27604 Par ch=5 c=1 v=28
27620 Par ch=5 c=1 v=41
27636 Par ch=5 c=1 v=53
27652 Par ch=5 c=1 v=75
27670 Par ch=5 c=1 v=77
27702 Par ch=5 c=1 v=86
27718 Par ch=5 c=1 v=96
27752 Par ch=5 c=1 v=101
27770 Par ch=5 c=1 v=97
27786 Par ch=5 c=1 v=61
27802 Par ch=5 c=1 v=0
27806 Off ch=5 n=62 v=123
27938 On ch=5 n=62 v=122
28022 Off ch=5 n=62 v=122
28032 On ch=5 n=63 v=122
28122 Off ch=5 n=63 v=122
28130 On ch=5 n=65 v=122
28176 On ch=5 n=63 v=123
28198 Off ch=5 n=65 v=122
28272 Off ch=5 n=63 v=123
28272 On ch=5 n=62 v=122
28326 Off ch=5 n=62 v=122
28328 On ch=5 n=60 v=122
28470 Par ch=5 c=1 v=1
28486 Par ch=5 c=1 v=33
28502 Par ch=5 c=1 v=51
28520 Par ch=5 c=1 v=76
28536 Par ch=5 c=1 v=103
28552 Par ch=5 c=1 v=121
28568 Par ch=5 c=1 v=107
28584 Par ch=5 c=1 v=65
28586 Off ch=5 n=60 v=122
28600 Par ch=5 c=1 v=0
28698 On ch=5 n=60 v=122
28748 On ch=5 n=62 v=122
28760 Off ch=5 n=60 v=122
28798 Off ch=5 n=62 v=122
28802 On ch=5 n=63 v=122
28880 Off ch=5 n=63 v=122
28888 On ch=5 n=65 v=122
28948 On ch=5 n=63 v=122
28958 Off ch=5 n=65 v=122
29022 On ch=5 n=62 v=122
29026 Off ch=5 n=63 v=122
29070 Off ch=5 n=62 v=122
29072 Pb ch=5 v=7936
29080 Pb ch=5 v=6400
29088 Pb ch=5 v=5248
29090 On ch=5 n=62 v=122
29096 Pb ch=5 v=3584
29106 Pb ch=5 v=3712
29114 Pb ch=5 v=8192
29178 Off ch=5 n=62 v=122
29178 On ch=5 n=60 v=122
29560 Off ch=5 n=60 v=122
29570 On ch=5 n=62 v=122
29644 Pb ch=5 v=6784
29652 Pb ch=5 v=4992
29660 Pb ch=5 v=4608
29668 Pb ch=5 v=8192
29856 On ch=5 n=60 v=122
29864 Off ch=5 n=62 v=122
29902 Off ch=5 n=60 v=122
29902 On ch=5 n=58 v=122
29938 Off ch=5 n=58 v=122
29948 On ch=5 n=60 v=122
30002 Off ch=5 n=60 v=122
30004 On ch=5 n=62 v=122
30038 Off ch=5 n=62 v=122
30236 On ch=5 n=65 v=122
30268 Off ch=5 n=65 v=122
30332 On ch=5 n=67 v=122
30350 Pb ch=5 v=10922
30358 Pb ch=5 v=14042
30366 Pb ch=5 v=16382
30462 Pb ch=5 v=15602
30470 Pb ch=5 v=12742
30478 Pb ch=5 v=8192
30498 Off ch=5 n=67 v=122
30498 On ch=5 n=65 v=122
30518 On ch=5 n=67 v=122
30526 Off ch=5 n=65 v=122
30728 Par ch=5 c=1 v=9
30744 Par ch=5 c=1 v=27
30760 Par ch=5 c=1 v=51
30776 Par ch=5 c=1 v=74
30792 Par ch=5 c=1 v=80
30808 Par ch=5 c=1 v=91
30824 Par ch=5 c=1 v=115
30840 Par ch=5 c=1 v=126
30856 Par ch=5 c=1 v=116
30872 Par ch=5 c=1 v=78
30888 Par ch=5 c=1 v=0
30890 Off ch=5 n=67 v=122
30994 On ch=5 n=65 v=122
31044 On ch=5 n=67 v=122
31060 Off ch=5 n=65 v=122
31098 Off ch=5 n=67 v=122
31114 On ch=5 n=70 v=122
31192 Off ch=5 n=70 v=122
31218 On ch=5 n=70 v=122
31264 Off ch=5 n=70 v=122
31306 On ch=5 n=70 v=122
31352 Off ch=5 n=70 v=122
31370 On ch=5 n=70 v=122
31420 Off ch=5 n=70 v=122
31448 On ch=5 n=70 v=122
31456 Pb ch=5 v=6528
31464 Pb ch=5 v=5504
31476 Pb ch=5 v=5760
31484 Pb ch=5 v=8564
31614 On ch=5 n=67 v=122
31626 Off ch=5 n=70 v=122
31678 Off ch=5 n=67 v=122
31682 On ch=5 n=62 v=122
31728 Pb ch=5 v=12659
31776 Pb ch=5 v=8936
31814 Pb ch=5 v=8634
31824 Pb ch=5 v=8564
31826 On ch=5 n=60 v=122
31838 Off ch=5 n=62 v=122
32164 Par ch=5 c=1 v=12
32180 Par ch=5 c=1 v=38
32196 Par ch=5 c=1 v=55
32212 Par ch=5 c=1 v=71
32228 Par ch=5 c=1 v=83
32244 Par ch=5 c=1 v=97
32260 Par ch=5 c=1 v=109
32276 Par ch=5 c=1 v=119
32292 Par ch=5 c=1 v=127
32354 Off ch=5 n=60 v=122
32362 Par ch=5 c=1 v=126
32378 Par ch=5 c=1 v=68
32394 Par ch=5 c=1 v=0
32642 On ch=5 n=67 v=123
32720 Pb ch=5 v=6272
32728 Pb ch=5 v=4468
32742 Pb ch=5 v=5026
32750 Pb ch=5 v=5324
32758 Pb ch=5 v=8564
32950 Par ch=5 c=1 v=12
32966 Par ch=5 c=1 v=32
32982 Par ch=5 c=1 v=45
32998 Par ch=5 c=1 v=53
33014 Par ch=5 c=1 v=65
33030 Par ch=5 c=1 v=77
33046 Par ch=5 c=1 v=88
33062 Par ch=5 c=1 v=96
33078 Par ch=5 c=1 v=101
33094 Par ch=5 c=1 v=101
33134 Par ch=5 c=1 v=103
33154 Par ch=5 c=1 v=101
33170 Par ch=5 c=1 v=94
33186 Par ch=5 c=1 v=86
33202 Par ch=5 c=1 v=65
33214 Off ch=5 n=67 v=123
33218 On ch=5 n=65 v=123
33218 Par ch=5 c=1 v=0
33314 On ch=5 n=67 v=123
33322 Off ch=5 n=65 v=123
33348 Pb ch=5 v=9362
33356 Pb ch=5 v=10272
33364 Pb ch=5 v=10922
33372 Pb ch=5 v=11832
33380 Pb ch=5 v=12742
33388 Pb ch=5 v=13522
33396 Pb ch=5 v=13392
33404 Pb ch=5 v=10662
33412 Pb ch=5 v=8192
33620 Par ch=5 c=1 v=1
33638 Par ch=5 c=1 v=7
33654 Par ch=5 c=1 v=15
33672 Par ch=5 c=1 v=22
33690 Par ch=5 c=1 v=28
33708 Par ch=5 c=1 v=36
33724 Par ch=5 c=1 v=46
33740 Par ch=5 c=1 v=60
33756 Par ch=5 c=1 v=65
33772 Par ch=5 c=1 v=68
33788 Par ch=5 c=1 v=78
33804 Par ch=5 c=1 v=94
33820 Par ch=5 c=1 v=109
33836 Par ch=5 c=1 v=114
33860 Par ch=5 c=1 v=108
33876 Par ch=5 c=1 v=94
33892 Par ch=5 c=1 v=83
33910 Par ch=5 c=1 v=51
33926 Par ch=5 c=1 v=0
33950 Off ch=5 n=67 v=123
34074 On ch=5 n=67 v=112
34098 On ch=5 n=72 v=117
34112 Off ch=5 n=67 v=112
34122 On ch=5 n=75 v=123
34132 Off ch=5 n=72 v=117
34146 On ch=5 n=79 v=123
34156 Off ch=5 n=75 v=123
34198 Pb ch=5 v=9102
34206 Pb ch=5 v=10704
34214 Pb ch=5 v=11123
34224 Pb ch=5 v=11542
34232 Pb ch=5 v=11442
34240 Pb ch=5 v=11571
34248 Pb ch=5 v=11915
34320 Pb ch=5 v=10792
34328 Pb ch=5 v=8192
34384 Off ch=5 n=79 v=123
34404 On ch=5 n=79 v=123
34462 On ch=5 n=77 v=123
34466 Off ch=5 n=79 v=123
34508 Off ch=5 n=77 v=123
34528 On ch=5 n=77 v=123
34640 Par ch=5 c=1 v=33
34656 Par ch=5 c=1 v=59
34672 Par ch=5 c=1 v=74
34688 Par ch=5 c=1 v=85
34704 Par ch=5 c=1 v=99
34720 Par ch=5 c=1 v=112
34736 Par ch=5 c=1 v=120
34766 Par ch=5 c=1 v=126
34784 Par ch=5 c=1 v=125
34800 Par ch=5 c=1 v=96
34816 Par ch=5 c=1 v=50
34832 Par ch=5 c=1 v=0
34844 Off ch=5 n=77 v=123
34884 On ch=5 n=70 v=123
34930 Off ch=5 n=70 v=123
34952 On ch=5 n=70 v=123
35030 Off ch=5 n=70 v=123
35040 On ch=5 n=77 v=123
35114 Off ch=5 n=77 v=123
35138 On ch=5 n=77 v=123
35226 Off ch=5 n=77 v=123
35236 On ch=5 n=79 v=123
35314 Off ch=5 n=79 v=123
35336 On ch=5 n=79 v=123
35420 Off ch=5 n=79 v=123
35430 On ch=5 n=80 v=123
35502 Off ch=5 n=80 v=123
35526 On ch=5 n=80 v=123
35606 Pb ch=5 v=8582
35614 Pb ch=5 v=10792
35622 Pb ch=5 v=13522
35630 Pb ch=5 v=16382
35682 Pb ch=5 v=15992
35690 Pb ch=5 v=15342
35698 Pb ch=5 v=14562
35706 Pb ch=5 v=12222
35714 Pb ch=5 v=8192
35798 On ch=5 n=79 v=123
35804 Off ch=5 n=80 v=123
35850 Par ch=5 c=1 v=2
35866 Par ch=5 c=1 v=17
35882 Par ch=5 c=1 v=24
35898 Par ch=5 c=1 v=31
35916 Par ch=5 c=1 v=45
35932 Par ch=5 c=1 v=62
35948 Par ch=5 c=1 v=86
35964 Par ch=5 c=1 v=98
35982 Par ch=5 c=1 v=106
35998 Par ch=5 c=1 v=120
36014 Par ch=5 c=1 v=127
36168 Off ch=5 n=79 v=123
36372 Par ch=5 c=1 v=119
36560 Par ch=5 c=1 v=123
36684 Par ch=5 c=1 v=125
36718 Par ch=5 c=1 v=127
36788 Par ch=5 c=1 v=124
36806 Par ch=5 c=1 v=120
36824 Par ch=5 c=1 v=107
36840 Par ch=5 c=1 v=66
36856 Par ch=5 c=1 v=0
60390 Pb ch=5 v=7424
60398 Pb ch=5 v=6144
60406 Pb ch=5 v=4608
60410 On ch=5 n=70 v=122
60414 Pb ch=5 v=3072
60422 Pb ch=5 v=3200
60432 Pb ch=5 v=4480
60442 Pb ch=5 v=7040
60450 Pb ch=5 v=8192
60522 Off ch=5 n=70 v=122
60556 On ch=5 n=70 v=122
60642 Off ch=5 n=70 v=122
60692 On ch=5 n=70 v=123
60694 Pb ch=5 v=6144
60702 Pb ch=5 v=3584
60710 Pb ch=5 v=2304
60722 Pb ch=5 v=3328
60732 Pb ch=5 v=8192
60740 Pb ch=5 v=8192
60816 On ch=5 n=69 v=119
60822 Off ch=5 n=70 v=123
60908 Off ch=5 n=69 v=119
60942 On ch=5 n=69 v=118
61022 Off ch=5 n=69 v=118
61046 Pb ch=5 v=7552
61054 Pb ch=5 v=5632
61062 Pb ch=5 v=3584
61064 On ch=5 n=69 v=122
61072 Pb ch=5 v=3584
61082 Pb ch=5 v=5376
61090 Pb ch=5 v=8192
61188 Off ch=5 n=69 v=122
61198 On ch=5 n=67 v=123
61284 Off ch=5 n=67 v=123
61322 On ch=5 n=67 v=122
61390 Off ch=5 n=67 v=122
61420 Pb ch=5 v=5888
61430 On ch=5 n=67 v=120
61430 Pb ch=5 v=2560
61438 Pb ch=5 v=0
61448 Pb ch=5 v=128
61456 Pb ch=5 v=2560
61464 Pb ch=5 v=6784
61472 Pb ch=5 v=8192
61480 Pb ch=5 v=8192
61616 Off ch=5 n=67 v=120
61626 On ch=5 n=65 v=123
61804 Pb ch=5 v=5376
61810 Off ch=5 n=65 v=123
61812 Pb ch=5 v=2304
61816 On ch=5 n=64 v=123
61820 Pb ch=5 v=0
61854 Pb ch=5 v=384
61862 Pb ch=5 v=4992
61872 Pb ch=5 v=9752
61880 Pb ch=5 v=6272
61888 Pb ch=5 v=8842
61896 Pb ch=5 v=8192
61956 Off ch=5 n=64 v=123
61966 On ch=5 n=65 v=123
62016 Off ch=5 n=65 v=123
62032 On ch=5 n=67 v=122
62034 On ch=5 n=65 v=113
62048 Off ch=5 n=65 v=113
62234 Par ch=5 c=1 v=11
62252 Par ch=5 c=1 v=35
62268 Par ch=5 c=1 v=53
62284 Par ch=5 c=1 v=75
62300 Par ch=5 c=1 v=96
62316 Par ch=5 c=1 v=110
62334 Par ch=5 c=1 v=124
62356 Par ch=5 c=1 v=127
62526 Par ch=5 c=1 v=121
62544 Par ch=5 c=1 v=108
62560 Par ch=5 c=1 v=89
62568 Off ch=5 n=67 v=122
62576 Par ch=5 c=1 v=51
62592 Par ch=5 c=1 v=0
63058 Par ch=5 c=1 v=2
63098 Par ch=5 c=1 v=0
63416 Pb ch=5 v=7552
63424 Pb ch=5 v=6912
63434 Pb ch=5 v=5760
63442 Pb ch=5 v=5248
63456 Pb ch=5 v=5760
63464 Pb ch=5 v=8192
63470 On ch=5 n=70 v=123
63558 Off ch=5 n=70 v=123
63606 On ch=5 n=70 v=120
63688 Off ch=5 n=70 v=120
63722 Pb ch=5 v=7808
63730 Pb ch=5 v=6656
63738 Pb ch=5 v=5248
63746 Pb ch=5 v=4480
63748 On ch=5 n=70 v=122
63754 Pb ch=5 v=4480
63762 Pb ch=5 v=7552
63770 Pb ch=5 v=8192
63882 On ch=5 n=69 v=119
63888 Off ch=5 n=70 v=122
63978 Off ch=5 n=69 v=119
64032 On ch=5 n=69 v=123
64050 On ch=5 n=67 v=81
64070 Off ch=5 n=67 v=81
64106 Off ch=5 n=69 v=123
64124 Pb ch=5 v=7808
64132 Pb ch=5 v=6784
64140 Pb ch=5 v=5632
64148 Pb ch=5 v=4480
64150 On ch=5 n=69 v=120
64156 Pb ch=5 v=4352
64164 Pb ch=5 v=7552
64172 Pb ch=5 v=8192
64180 Pb ch=5 v=8192
64276 On ch=5 n=67 v=122
64286 Off ch=5 n=69 v=120
64358 Off ch=5 n=67 v=122
64390 On ch=5 n=67 v=120
64486 Off ch=5 n=67 v=120
64502 Pb ch=5 v=7424
64510 Pb ch=5 v=5632
64520 Pb ch=5 v=4096
64526 On ch=5 n=67 v=122
64528 Pb ch=5 v=3200
64540 Pb ch=5 v=3328
64548 Pb ch=5 v=6528
64556 Pb ch=5 v=8842
64564 Pb ch=5 v=8192
64704 Off ch=5 n=67 v=122
64714 On ch=5 n=65 v=123
64876 Pb ch=5 v=7552
64878 Off ch=5 n=65 v=123
64884 Pb ch=5 v=5120
64892 Pb ch=5 v=2304
64894 On ch=5 n=70 v=123
64902 Pb ch=5 v=0
64916 Pb ch=5 v=4352
64924 Pb ch=5 v=8842
64934 Pb ch=5 v=8192
65058 Off ch=5 n=70 v=123
65062 On ch=5 n=67 v=122
65110 Off ch=5 n=67 v=122
65114 On ch=5 n=65 v=123
65302 Pb ch=5 v=7424
65310 Pb ch=5 v=6400
65318 Pb ch=5 v=5632
65326 Pb ch=5 v=5504
65334 Pb ch=5 v=5760
65342 Pb ch=5 v=6272
65350 Pb ch=5 v=8192
65662 Off ch=5 n=65 v=123
65662 Pb ch=5 v=4224
65670 Pb ch=5 v=2304
65678 Pb ch=5 v=512
65682 On ch=5 n=70 v=122
65688 On ch=5 n=69 v=115
65690 Pb ch=5 v=768
65700 Pb ch=5 v=3968
65710 Pb ch=5 v=9102
65718 Off ch=5 n=69 v=115
65720 Pb ch=5 v=8192
65728 Pb ch=5 v=8192
66436 On ch=5 n=69 v=116
66456 Off ch=5 n=70 v=122
66614 Off ch=5 n=69 v=116
66614 On ch=5 n=67 v=123
66928 Pb ch=5 v=8192
66936 Pb ch=5 v=10662
66944 Pb ch=5 v=12092
66952 Pb ch=5 v=13782
66962 Pb ch=5 v=15602
66970 Pb ch=5 v=16382
67014 Pb ch=5 v=15602
67022 Pb ch=5 v=12872
67030 Pb ch=5 v=8192
67136 Off ch=5 n=67 v=123
67302 Pb ch=5 v=7808
67312 Pb ch=5 v=4992
67320 Pb ch=5 v=2560
67326 On ch=5 n=70 v=122
67328 Pb ch=5 v=0
67340 Pb ch=5 v=512
67348 Pb ch=5 v=6272
67356 Pb ch=5 v=10402
67364 Pb ch=5 v=6272
67372 Pb ch=5 v=8452
67380 Pb ch=5 v=8192
67430 Off ch=5 n=70 v=122
67462 On ch=5 n=70 v=123
67568 Off ch=5 n=70 v=123
67576 Pb ch=5 v=7808
67584 Pb ch=5 v=6144
67592 Pb ch=5 v=4736
67600 On ch=5 n=70 v=123
67600 Pb ch=5 v=3712
67618 Pb ch=5 v=7040
67626 Pb ch=5 v=8192
67634 Pb ch=5 v=8192
67686 Off ch=5 n=70 v=123
67722 On ch=5 n=70 v=119
67814 Off ch=5 n=70 v=119
67850 On ch=5 n=70 v=122
67980 On ch=5 n=69 v=120
67984 Off ch=5 n=70 v=122
68152 Pb ch=5 v=7808
68160 Pb ch=5 v=6528
68168 Off ch=5 n=69 v=120
68168 Pb ch=5 v=5888
68170 On ch=5 n=67 v=123
68176 Pb ch=5 v=6016
68184 Pb ch=5 v=8192
68476 Pb ch=5 v=10402
68484 Pb ch=5 v=11832
68492 Pb ch=5 v=12872
68500 Pb ch=5 v=12872
68508 Pb ch=5 v=11312
68510 Off ch=5 n=67 v=123
68516 Pb ch=5 v=8192
68524 Pb ch=5 v=8192
68726 On ch=5 n=65 v=123
68840 Off ch=5 n=65 v=123
68862 On ch=5 n=65 v=120
68938 Off ch=5 n=65 v=120
68994 On ch=5 n=65 v=122
69034 Off ch=5 n=65 v=122
69062 On ch=5 n=65 v=122
69082 On ch=5 n=64 v=81
69086 Off ch=5 n=64 v=81
69102 Off ch=5 n=65 v=122
69128 On ch=5 n=67 v=122
69136 Pb ch=5 v=6912
69144 Pb ch=5 v=3328
69154 Pb ch=5 v=0
69164 Pb ch=5 v=1920
69172 Pb ch=5 v=13652
69180 Pb ch=5 v=7424
69188 Pb ch=5 v=8192
69196 Pb ch=5 v=9232
69204 Pb ch=5 v=7168
69212 Pb ch=5 v=8192
69220 Pb ch=5 v=8192
69516 Off ch=5 n=67 v=122
69518 On ch=5 n=65 v=118
69614 Off ch=5 n=65 v=118
69642 On ch=5 n=65 v=119
69696 Off ch=5 n=65 v=119
69734 On ch=5 n=65 v=122
69778 Off ch=5 n=65 v=122
69804 On ch=5 n=65 v=122
69882 Off ch=5 n=65 v=122
69904 Pb ch=5 v=6400
69912 Pb ch=5 v=3712
69916 On ch=5 n=67 v=123
69924 Pb ch=5 v=6912
69932 Pb ch=5 v=8192
70040 On ch=5 n=65 v=123
70054 Off ch=5 n=67 v=123
70152 Off ch=5 n=65 v=123
70160 On ch=5 n=64 v=123
70262 Off ch=5 n=64 v=123
70280 On ch=5 n=65 v=122
70412 Off ch=5 n=65 v=122
70412 On ch=5 n=62 v=120
70458 On ch=5 n=60 v=119
70478 Off ch=5 n=62 v=120
70670 Pb ch=5 v=7808
70678 Pb ch=5 v=7424
70694 Pb ch=5 v=8192
70832 Pb ch=5 v=7296
70844 Pb ch=5 v=7552
70854 Pb ch=5 v=8192
70944 Pb ch=5 v=6400
70952 Pb ch=5 v=4608
70960 Pb ch=5 v=3456
70970 Pb ch=5 v=7424
70978 Pb ch=5 v=8192
71076 On ch=5 n=59 v=109
71092 Off ch=5 n=60 v=119
71100 On ch=5 n=57 v=110
71104 Off ch=5 n=59 v=109
71116 Off ch=5 n=57 v=110
71122 On ch=5 n=55 v=104
71134 Off ch=5 n=55 v=104
73342 On ch=5 n=66 v=122
73406 Off ch=5 n=66 v=122
78768 On ch=5 n=51 v=115
78816 On ch=5 n=55 v=116
78842 Off ch=5 n=51 v=115
78864 On ch=5 n=58 v=115
78868 Off ch=5 n=55 v=116
78912 On ch=5 n=63 v=114
78916 Off ch=5 n=58 v=115
79134 Off ch=5 n=63 v=114
79152 On ch=5 n=50 v=112
79200 On ch=5 n=53 v=115
79216 Off ch=5 n=50 v=112
79248 On ch=5 n=58 v=113
79262 Off ch=5 n=53 v=115
79296 On ch=5 n=62 v=114
79304 Off ch=5 n=58 v=113
79516 Off ch=5 n=62 v=114
79536 On ch=5 n=48 v=113
79584 On ch=5 n=51 v=113
79592 Off ch=5 n=48 v=113
79632 Off ch=5 n=51 v=113
79632 On ch=5 n=55 v=114
79680 On ch=5 n=58 v=113
79686 Off ch=5 n=55 v=114
79692 Pb ch=5 v=9492
79700 Pb ch=5 v=11832
79708 Pb ch=5 v=14302
79716 Pb ch=5 v=16382
79862 Off ch=5 n=58 v=113
79898 Pb ch=5 v=12872
79906 Pb ch=5 v=8192
80640 On ch=5 n=62 v=122
80826 Off ch=5 n=62 v=122
80832 On ch=5 n=63 v=115
80922 Off ch=5 n=63 v=115
80928 On ch=5 n=67 v=115
81024 Off ch=5 n=67 v=115
81024 On ch=5 n=66 v=123
81216 On ch=5 n=67 v=123
81226 Off ch=5 n=66 v=123
81312 On ch=5 n=69 v=122
81316 Off ch=5 n=67 v=123
81408 On ch=5 n=70 v=122
81420 Off ch=5 n=69 v=122
81792 On ch=5 n=60 v=122
81794 Off ch=5 n=70 v=122
82066 Off ch=5 n=60 v=122
82080 On ch=5 n=60 v=117
82128 On ch=5 n=62 v=114
82136 Off ch=5 n=60 v=117
82176 On ch=5 n=58 v=116
82188 Off ch=5 n=62 v=114
82496 Off ch=5 n=58 v=116
92928 Par ch=5 c=120 v=0
92930 Par ch=5 c=123 v=0
92930 Meta TrkEnd
TrkEnd
MTrk
0 Meta Text "Piano"
160 Par ch=1 c=121 v=0
192 Par ch=1 c=0 v=0
194 Par ch=1 c=32 v=0
196 PrCh ch=1 p=0
198 Par ch=1 c=7 v=123
198 Par ch=1 c=10 v=64
198 Par ch=1 c=11 v=110
200 Par ch=1 c=91 v=127
200 Par ch=1 c=93 v=0
3840 On ch=1 n=46 v=120
3840 On ch=1 n=53 v=123
3840 On ch=1 n=58 v=123
3840 On ch=1 n=61 v=123
3840 On ch=1 n=65 v=122
3922 Off ch=1 n=58 v=123
3936 On ch=1 n=58 v=95
3944 Off ch=1 n=65 v=122
3960 Off ch=1 n=61 v=123
4032 On ch=1 n=61 v=121
4032 On ch=1 n=65 v=122
4042 Off ch=1 n=58 v=95
4120 Off ch=1 n=65 v=122
4128 On ch=1 n=58 v=104
4144 Off ch=1 n=61 v=121
4224 On ch=1 n=61 v=121
4224 On ch=1 n=65 v=122
4236 Off ch=1 n=58 v=104
4320 Off ch=1 n=65 v=122
4320 On ch=1 n=58 v=109
4338 Off ch=1 n=61 v=121
4416 On ch=1 n=61 v=120
4416 On ch=1 n=65 v=120
4436 Off ch=1 n=58 v=109
4502 Off ch=1 n=53 v=123
4512 On ch=1 n=58 v=116
4520 Off ch=1 n=65 v=120
4528 Off ch=1 n=61 v=120
4552 Off ch=1 n=58 v=116
4600 Off ch=1 n=46 v=120
4608 On ch=1 n=49 v=123
4608 On ch=1 n=56 v=122
4608 On ch=1 n=59 v=123
4608 On ch=1 n=61 v=123
4608 On ch=1 n=65 v=123
4680 Off ch=1 n=59 v=123
4704 On ch=1 n=59 v=118
4708 Off ch=1 n=61 v=123
4720 Off ch=1 n=65 v=123
4800 On ch=1 n=61 v=122
4800 On ch=1 n=65 v=123
4820 Off ch=1 n=59 v=118
4896 On ch=1 n=59 v=110
4902 Off ch=1 n=65 v=123
4912 Off ch=1 n=61 v=122
4992 On ch=1 n=61 v=121
4992 On ch=1 n=65 v=118
5002 Off ch=1 n=59 v=110
5088 On ch=1 n=59 v=117
5096 Off ch=1 n=65 v=118
5104 Off ch=1 n=61 v=121
5184 On ch=1 n=61 v=120
5184 On ch=1 n=65 v=122
5196 Off ch=1 n=59 v=117
5274 Off ch=1 n=65 v=122
5280 On ch=1 n=59 v=117
5312 Off ch=1 n=61 v=120
5314 Off ch=1 n=56 v=122
5324 Off ch=1 n=59 v=117
5376 On ch=1 n=42 v=121
5376 On ch=1 n=54 v=118
5376 On ch=1 n=61 v=123
5376 On ch=1 n=66 v=118
5376 On ch=1 n=70 v=121
5472 On ch=1 n=58 v=116
5484 Off ch=1 n=70 v=121
5494 Off ch=1 n=66 v=118
5496 Off ch=1 n=61 v=123
5568 On ch=1 n=61 v=122
5568 On ch=1 n=66 v=121
5568 On ch=1 n=70 v=121
5578 Off ch=1 n=58 v=116
5660 Off ch=1 n=70 v=121
5664 Off ch=1 n=66 v=121
5664 On ch=1 n=58 v=117
5672 Off ch=1 n=61 v=122
5760 On ch=1 n=61 v=121
5760 On ch=1 n=66 v=122
5760 On ch=1 n=70 v=123
5772 Off ch=1 n=58 v=117
5856 On ch=1 n=58 v=116
5862 Off ch=1 n=70 v=123
5874 Off ch=1 n=66 v=122
5876 Off ch=1 n=61 v=121
5952 On ch=1 n=61 v=120
5952 On ch=1 n=66 v=119
5952 On ch=1 n=70 v=121
5966 Off ch=1 n=58 v=116
6048 On ch=1 n=58 v=115
6052 Off ch=1 n=70 v=121
6058 Off ch=1 n=66 v=119
6058 Off ch=1 n=61 v=120
6138 Off ch=1 n=54 v=118
6142 Off ch=1 n=49 v=123
6144 On ch=1 n=51 v=123
6144 On ch=1 n=63 v=123
6144 On ch=1 n=66 v=122
6144 On ch=1 n=70 v=123
6146 Off ch=1 n=42 v=121
6152 Off ch=1 n=58 v=115
6236 Off ch=1 n=70 v=123
6240 On ch=1 n=58 v=109
6248 Off ch=1 n=66 v=122
6262 Off ch=1 n=63 v=123
6336 On ch=1 n=63 v=122
6336 On ch=1 n=66 v=119
6336 On ch=1 n=70 v=122
6346 Off ch=1 n=58 v=109
6428 Off ch=1 n=70 v=122
6432 On ch=1 n=58 v=115
6438 Off ch=1 n=66 v=119
6444 Off ch=1 n=63 v=122
6528 On ch=1 n=63 v=122
6528 On ch=1 n=66 v=120
6528 On ch=1 n=70 v=120
6540 Off ch=1 n=58 v=115
6600 Off ch=1 n=70 v=120
6624 Off ch=1 n=66 v=120
6624 On ch=1 n=58 v=108
6636 Off ch=1 n=63 v=122
6720 On ch=1 n=63 v=121
6720 On ch=1 n=66 v=117
6720 On ch=1 n=70 v=122
6730 Off ch=1 n=58 v=108
6788 Off ch=1 n=66 v=117
6816 On ch=1 n=58 v=115
6824 Off ch=1 n=63 v=121
6862 Off ch=1 n=58 v=115
6904 Off ch=1 n=70 v=122
6912 On ch=1 n=44 v=109
6912 On ch=1 n=56 v=122
6912 On ch=1 n=60 v=119
6912 On ch=1 n=63 v=122
6912 On ch=1 n=68 v=123
6924 Off ch=1 n=51 v=123
6972 Off ch=1 n=60 v=119
7008 Off ch=1 n=68 v=123
7008 On ch=1 n=51 v=120
7008 On ch=1 n=60 v=119
7014 Off ch=1 n=63 v=122
7022 Off ch=1 n=56 v=122
7102 Off ch=1 n=51 v=120
7104 On ch=1 n=56 v=123
7104 On ch=1 n=63 v=122
7104 On ch=1 n=70 v=123
7118 Off ch=1 n=60 v=119
7192 Off ch=1 n=63 v=122
7200 On ch=1 n=51 v=119
7200 On ch=1 n=60 v=114
7200 On ch=1 n=68 v=119
7206 Off ch=1 n=56 v=123
7210 Off ch=1 n=70 v=123
7248 On ch=1 n=66 v=113
7262 Off ch=1 n=68 v=119
7296 On ch=1 n=63 v=115
7314 Off ch=1 n=66 v=113
7346 Off ch=1 n=44 v=109
7450 Off ch=1 n=63 v=115
7460 Off ch=1 n=51 v=119
7462 Off ch=1 n=60 v=114
7488 On ch=1 n=65 v=121
7580 Off ch=1 n=65 v=121
7584 On ch=1 n=66 v=117
7678 Off ch=1 n=66 v=117
7680 On ch=1 n=47 v=117
7680 On ch=1 n=54 v=122
7680 On ch=1 n=59 v=123
7680 On ch=1 n=63 v=121
7680 On ch=1 n=66 v=122
7680 On ch=1 n=71 v=123
7682 Off ch=1 n=66 v=122
7742 Off ch=1 n=71 v=123
7746 Off ch=1 n=63 v=121
7748 Off ch=1 n=47 v=117
7750 Off ch=1 n=59 v=123
7776 On ch=1 n=47 v=113
7776 On ch=1 n=59 v=122
7776 On ch=1 n=63 v=123
7776 On ch=1 n=66 v=122
7776 On ch=1 n=71 v=122
7828 Off ch=1 n=59 v=122
7830 Off ch=1 n=47 v=113
7832 Off ch=1 n=54 v=122
7842 Off ch=1 n=66 v=122
7854 Off ch=1 n=63 v=123
7862 Off ch=1 n=71 v=122
7872 On ch=1 n=46 v=117
7872 On ch=1 n=53 v=123
7872 On ch=1 n=58 v=123
7872 On ch=1 n=62 v=123
7872 On ch=1 n=65 v=123
7872 On ch=1 n=70 v=123
7926 Off ch=1 n=70 v=123
7930 Off ch=1 n=62 v=123
7942 Off ch=1 n=58 v=123
7942 Off ch=1 n=53 v=123
7944 Off ch=1 n=65 v=123
7962 Off ch=1 n=46 v=117
8064 On ch=1 n=45 v=120
8064 On ch=1 n=52 v=123
8064 On ch=1 n=57 v=123
8064 On ch=1 n=61 v=113
8064 On ch=1 n=64 v=123
8064 On ch=1 n=69 v=117
8130 Off ch=1 n=69 v=117
8130 Off ch=1 n=61 v=113
8132 Off ch=1 n=57 v=123
8136 Off ch=1 n=45 v=120
8140 Off ch=1 n=64 v=123
8148 Off ch=1 n=52 v=123
8160 On ch=1 n=45 v=117
8160 On ch=1 n=52 v=117
8160 On ch=1 n=57 v=122
8160 On ch=1 n=61 v=123
8160 On ch=1 n=64 v=123
8160 On ch=1 n=69 v=120
8196 Off ch=1 n=45 v=117
8202 Off ch=1 n=64 v=123
8210 Off ch=1 n=57 v=122
8222 Off ch=1 n=52 v=117
8226 Off ch=1 n=69 v=120
8234 Off ch=1 n=61 v=123
8256 On ch=1 n=46 v=118
8256 On ch=1 n=53 v=123
8256 On ch=1 n=58 v=123
8256 On ch=1 n=62 v=123
8256 On ch=1 n=65 v=123
8256 On ch=1 n=70 v=123
8314 Off ch=1 n=62 v=123
8332 Off ch=1 n=46 v=118
8334 Off ch=1 n=65 v=123
8336 Off ch=1 n=53 v=123
8340 Off ch=1 n=70 v=123
8348 Off ch=1 n=58 v=123
8448 On ch=1 n=47 v=119
8448 On ch=1 n=54 v=121
8448 On ch=1 n=59 v=123
8448 On ch=1 n=63 v=122
8448 On ch=1 n=66 v=119
8448 On ch=1 n=71 v=123
8506 Off ch=1 n=63 v=122
8514 Off ch=1 n=71 v=123
8514 Off ch=1 n=59 v=123
8518 Off ch=1 n=47 v=119
8528 Off ch=1 n=66 v=119
8544 On ch=1 n=47 v=117
8544 On ch=1 n=59 v=123
8544 On ch=1 n=63 v=121
8544 On ch=1 n=66 v=119
8544 On ch=1 n=71 v=123
8594 Off ch=1 n=59 v=123
8594 Off ch=1 n=47 v=117
8600 Off ch=1 n=66 v=119
8600 Off ch=1 n=54 v=121
8608 Off ch=1 n=63 v=121
8620 Off ch=1 n=71 v=123
8640 On ch=1 n=46 v=18
8640 On ch=1 n=53 v=121
8640 On ch=1 n=58 v=123
8640 On ch=1 n=62 v=123
8640 On ch=1 n=65 v=123
8640 On ch=1 n=70 v=121
8698 Off ch=1 n=62 v=123
8712 Off ch=1 n=70 v=121
8728 Off ch=1 n=53 v=121
8734 Off ch=1 n=58 v=123
8738 Off ch=1 n=65 v=123
8750 Off ch=1 n=46 v=18
8832 On ch=1 n=45 v=117
8832 On ch=1 n=52 v=121
8832 On ch=1 n=57 v=120
8832 On ch=1 n=61 v=122
8832 On ch=1 n=64 v=123
8832 On ch=1 n=69 v=117
8882 Off ch=1 n=61 v=122
8890 Off ch=1 n=57 v=120
8896 Off ch=1 n=69 v=117
8898 Off ch=1 n=64 v=123
8928 On ch=1 n=57 v=116
8928 On ch=1 n=61 v=120
8928 On ch=1 n=64 v=119
8928 On ch=1 n=69 v=116
8954 Off ch=1 n=45 v=117
8966 Off ch=1 n=64 v=119
8980 Off ch=1 n=52 v=121
8982 Off ch=1 n=57 v=116
9008 Off ch=1 n=69 v=116
9008 Off ch=1 n=61 v=120
9024 On ch=1 n=46 v=112
9024 On ch=1 n=53 v=122
9024 On ch=1 n=58 v=122
9024 On ch=1 n=62 v=121
9024 On ch=1 n=65 v=122
9024 On ch=1 n=70 v=122
9152 Off ch=1 n=62 v=121
9162 Off ch=1 n=58 v=122
9196 Off ch=1 n=46 v=112
9210 Off ch=1 n=65 v=122
9210 Off ch=1 n=53 v=122
9216 On ch=1 n=51 v=123
9216 On ch=1 n=58 v=123
9216 On ch=1 n=63 v=122
9216 On ch=1 n=67 v=123
9226 Off ch=1 n=70 v=122
9280 Off ch=1 n=63 v=122
9312 On ch=1 n=63 v=118
9338 Off ch=1 n=67 v=123
9350 Off ch=1 n=58 v=123
9408 On ch=1 n=58 v=123
9408 On ch=1 n=67 v=122
9408 On ch=1 n=70 v=122
9418 Off ch=1 n=63 v=118
9422 Off ch=1 n=51 v=123
9496 Off ch=1 n=70 v=122
9504 On ch=1 n=51 v=122
9504 On ch=1 n=63 v=118
9510 Off ch=1 n=58 v=123
9588 Off ch=1 n=63 v=118
9598 Off ch=1 n=67 v=122
9600 On ch=1 n=50 v=121
9600 On ch=1 n=58 v=121
9600 On ch=1 n=62 v=122
9600 On ch=1 n=65 v=123
9604 Off ch=1 n=51 v=122
9662 Off ch=1 n=62 v=122
9696 On ch=1 n=62 v=121
9714 Off ch=1 n=65 v=123
9748 Off ch=1 n=58 v=121
9792 On ch=1 n=58 v=122
9792 On ch=1 n=65 v=123
9792 On ch=1 n=70 v=120
9794 Off ch=1 n=50 v=121
9804 Off ch=1 n=62 v=121
9888 On ch=1 n=50 v=120
9888 On ch=1 n=62 v=121
9896 Off ch=1 n=58 v=122
9898 Off ch=1 n=65 v=123
9930 Off ch=1 n=62 v=121
9972 Off ch=1 n=70 v=120
9984 On ch=1 n=49 v=122
9984 On ch=1 n=58 v=123
9984 On ch=1 n=61 v=123
9984 On ch=1 n=64 v=123
9984 On ch=1 n=67 v=123
9994 Off ch=1 n=50 v=120
10042 Off ch=1 n=61 v=123
10080 On ch=1 n=61 v=120
10102 Off ch=1 n=64 v=123
10104 Off ch=1 n=67 v=123
10164 Off ch=1 n=58 v=123
10176 On ch=1 n=64 v=123
10176 On ch=1 n=67 v=122
10248 Off ch=1 n=61 v=120
10266 Off ch=1 n=64 v=123
10272 On ch=1 n=58 v=122
10272 On ch=1 n=61 v=118
10272 On ch=1 n=70 v=122
10342 Off ch=1 n=67 v=122
10344 Off ch=1 n=58 v=122
10348 Off ch=1 n=61 v=118
10356 Off ch=1 n=70 v=122
10368 On ch=1 n=48 v=117
10368 On ch=1 n=57 v=123
10368 On ch=1 n=60 v=123
10368 On ch=1 n=65 v=123
10368 On ch=1 n=69 v=123
10386 Off ch=1 n=49 v=122
10426 Off ch=1 n=60 v=123
10464 On ch=1 n=60 v=112
10490 Off ch=1 n=65 v=123
10496 Off ch=1 n=69 v=123
10560 On ch=1 n=65 v=123
10560 On ch=1 n=69 v=122
10586 Off ch=1 n=60 v=112
10632 Off ch=1 n=57 v=123
10656 On ch=1 n=60 v=117
10662 Off ch=1 n=48 v=117
10676 Off ch=1 n=65 v=123
10752 On ch=1 n=41 v=120
10752 On ch=1 n=63 v=123
10752 On ch=1 n=67 v=123
10752 On ch=1 n=72 v=122
10848 On ch=1 n=48 v=119
10944 On ch=1 n=57 v=123
10964 Off ch=1 n=60 v=117
11040 Off ch=1 n=69 v=122
11040 On ch=1 n=60 v=119
11100 Off ch=1 n=63 v=123
11118 Off ch=1 n=72 v=122
11128 Off ch=1 n=67 v=123
11136 On ch=1 n=63 v=18
11136 On ch=1 n=69 v=117
11136 On ch=1 n=72 v=121
11144 Off ch=1 n=69 v=117
11254 Off ch=1 n=57 v=123
11272 Off ch=1 n=60 v=119
11288 Off ch=1 n=72 v=121
11316 Off ch=1 n=41 v=120
11318 Off ch=1 n=63 v=18
11328 On ch=1 n=57 v=122
11330 Off ch=1 n=48 v=119
11504 Off ch=1 n=57 v=122
11520 On ch=1 n=34 v=121
11520 On ch=1 n=46 v=123
11520 On ch=1 n=58 v=119
11616 On ch=1 n=53 v=115
11650 Off ch=1 n=58 v=119
11712 On ch=1 n=58 v=117
11808 On ch=1 n=62 v=115
11904 On ch=1 n=67 v=116
11904 On ch=1 n=79 v=116
11934 Off ch=1 n=53 v=115
12000 On ch=1 n=53 v=101
12096 On ch=1 n=65 v=117
12096 On ch=1 n=77 v=118
12108 Off ch=1 n=53 v=101
12130 Off ch=1 n=62 v=115
12192 On ch=1 n=53 v=107
12198 Off ch=1 n=58 v=117
12234 Off ch=1 n=34 v=121
12270 Off ch=1 n=65 v=117
12278 Off ch=1 n=77 v=118
12288 On ch=1 n=34 v=123
12288 On ch=1 n=58 v=118
12288 On ch=1 n=62 v=123
12300 Off ch=1 n=53 v=107
12306 Off ch=1 n=79 v=116
12384 On ch=1 n=53 v=104
12400 Off ch=1 n=62 v=123
12402 Off ch=1 n=58 v=118
12480 On ch=1 n=58 v=113
12576 On ch=1 n=62 v=116
12584 Off ch=1 n=67 v=116
12672 On ch=1 n=67 v=116
12672 On ch=1 n=79 v=116
12694 Off ch=1 n=53 v=104
12768 On ch=1 n=53 v=108
12798 Off ch=1 n=62 v=116
12864 On ch=1 n=65 v=118
12864 On ch=1 n=77 v=118
12888 Off ch=1 n=53 v=108
12956 Off ch=1 n=58 v=113
12960 On ch=1 n=53 v=115
12986 Off ch=1 n=34 v=123
12988 Off ch=1 n=46 v=123
13046 Off ch=1 n=77 v=118
13046 Off ch=1 n=65 v=118
13056 On ch=1 n=34 v=123
13056 On ch=1 n=46 v=123
13056 On ch=1 n=58 v=122
13056 On ch=1 n=62 v=122
13062 Off ch=1 n=53 v=115
13074 Off ch=1 n=79 v=116
13074 Off ch=1 n=67 v=116
13138 Off ch=1 n=58 v=122
13152 On ch=1 n=53 v=113
13248 On ch=1 n=58 v=115
13250 Off ch=1 n=62 v=122
13344 On ch=1 n=62 v=115
13440 On ch=1 n=67 v=117
13440 On ch=1 n=79 v=116
13450 Off ch=1 n=53 v=113
13536 On ch=1 n=53 v=115
13632 On ch=1 n=65 v=120
13632 On ch=1 n=77 v=118
13640 Off ch=1 n=62 v=115
13686 Off ch=1 n=53 v=115
13728 On ch=1 n=53 v=114
13734 Off ch=1 n=58 v=115
13814 Off ch=1 n=77 v=118
13820 Off ch=1 n=46 v=123
13824 On ch=1 n=43 v=122
13824 On ch=1 n=58 v=120
13824 On ch=1 n=62 v=123
13826 Off ch=1 n=34 v=123
13828 Off ch=1 n=53 v=114
13832 Off ch=1 n=65 v=120
13840 Off ch=1 n=67 v=117
13842 Off ch=1 n=79 v=116
13920 On ch=1 n=55 v=116
13934 Off ch=1 n=58 v=120
14016 On ch=1 n=58 v=117
14036 Off ch=1 n=62 v=123
14112 On ch=1 n=62 v=118
14208 On ch=1 n=69 v=117
14208 On ch=1 n=81 v=116
14250 Off ch=1 n=55 v=116
14304 On ch=1 n=55 v=117
14312 Off ch=1 n=69 v=117
14400 On ch=1 n=67 v=121
14400 On ch=1 n=79 v=118
14404 Off ch=1 n=62 v=118
14496 On ch=1 n=62 v=117
14518 Off ch=1 n=58 v=117
14528 Off ch=1 n=62 v=117
14582 Off ch=1 n=79 v=118
14584 Off ch=1 n=55 v=117
14592 On ch=1 n=36 v=123
14592 On ch=1 n=48 v=123
14592 On ch=1 n=60 v=123
14592 On ch=1 n=63 v=123
14596 Off ch=1 n=43 v=122
14610 Off ch=1 n=81 v=116
14612 Off ch=1 n=67 v=121
14680 Off ch=1 n=60 v=123
14688 On ch=1 n=60 v=119
14728 Off ch=1 n=63 v=123
14784 On ch=1 n=63 v=117
14880 On ch=1 n=67 v=109
14976 On ch=1 n=74 v=116
14976 On ch=1 n=86 v=116
15004 Off ch=1 n=60 v=119
15072 On ch=1 n=60 v=119
15086 Off ch=1 n=74 v=116
15168 On ch=1 n=72 v=121
15168 On ch=1 n=84 v=118
15184 Off ch=1 n=67 v=109
15230 Off ch=1 n=63 v=117
15264 On ch=1 n=63 v=121
15304 Off ch=1 n=48 v=123
15314 Off ch=1 n=36 v=123
15350 Off ch=1 n=84 v=118
15360 On ch=1 n=36 v=123
15360 On ch=1 n=48 v=123
15360 On ch=1 n=67 v=123
15372 Off ch=1 n=60 v=119
15378 Off ch=1 n=86 v=116
15446 Off ch=1 n=63 v=121
15456 On ch=1 n=60 v=114
15472 Off ch=1 n=36 v=123
15504 On ch=1 n=36 v=99
15542 Off ch=1 n=67 v=123
15552 On ch=1 n=63 v=118
15562 Off ch=1 n=36 v=99
15642 Off ch=1 n=60 v=114
15648 Off ch=1 n=63 v=118
15648 On ch=1 n=67 v=117
15728 Off ch=1 n=72 v=121
15736 Off ch=1 n=48 v=123
15738 Off ch=1 n=67 v=117
15744 On ch=1 n=41 v=113
15744 On ch=1 n=53 v=121
15744 On ch=1 n=69 v=123
15840 On ch=1 n=63 v=117
15936 On ch=1 n=65 v=119
16020 Off ch=1 n=63 v=117
16020 Off ch=1 n=69 v=123
16032 On ch=1 n=72 v=119
16042 Off ch=1 n=65 v=119
16060 Off ch=1 n=72 v=119
16128 Off ch=1 n=53 v=121
16128 On ch=1 n=46 v=121
16128 On ch=1 n=58 v=119
16128 On ch=1 n=62 v=122
16136 Off ch=1 n=41 v=113
16224 On ch=1 n=53 v=113
16242 Off ch=1 n=58 v=119
16320 On ch=1 n=58 v=118
16340 Off ch=1 n=62 v=122
16416 On ch=1 n=62 v=120
16512 On ch=1 n=67 v=120
16512 On ch=1 n=79 v=116
16526 Off ch=1 n=53 v=113
16608 On ch=1 n=53 v=116
16700 Off ch=1 n=62 v=120
16704 On ch=1 n=65 v=119
16704 On ch=1 n=77 v=118
16716 Off ch=1 n=53 v=116
16800 On ch=1 n=53 v=112
16804 Off ch=1 n=58 v=118
16886 Off ch=1 n=53 v=112
16886 Off ch=1 n=77 v=118
16892 Off ch=1 n=65 v=119
16896 On ch=1 n=43 v=120
16896 On ch=1 n=58 v=122
16896 On ch=1 n=62 v=123
16898 Off ch=1 n=46 v=121
16914 Off ch=1 n=79 v=116
16914 Off ch=1 n=67 v=120
16992 On ch=1 n=55 v=117
17008 Off ch=1 n=58 v=122
17088 On ch=1 n=58 v=121
17122 Off ch=1 n=62 v=123
17184 On ch=1 n=62 v=120
17280 On ch=1 n=69 v=117
17280 On ch=1 n=81 v=116
17290 Off ch=1 n=55 v=117
17376 On ch=1 n=55 v=121
17382 Off ch=1 n=69 v=117
17472 On ch=1 n=67 v=120
17472 On ch=1 n=79 v=118
17480 Off ch=1 n=55 v=121
17506 Off ch=1 n=62 v=120
17552 Off ch=1 n=58 v=121
17568 On ch=1 n=55 v=117
17654 Off ch=1 n=55 v=117
17654 Off ch=1 n=79 v=118
17664 On ch=1 n=48 v=123
17664 On ch=1 n=60 v=123
17664 On ch=1 n=63 v=122
17668 Off ch=1 n=43 v=120
17682 Off ch=1 n=81 v=116
17760 On ch=1 n=55 v=117
17776 Off ch=1 n=60 v=123
17782 Off ch=1 n=63 v=122
17856 On ch=1 n=60 v=118
17946 Off ch=1 n=55 v=117
17952 On ch=1 n=47 v=122
17952 On ch=1 n=55 v=119
17952 On ch=1 n=63 v=121
17978 Off ch=1 n=60 v=118
18010 Off ch=1 n=48 v=123
18012 Off ch=1 n=47 v=122
18014 Off ch=1 n=63 v=121
18040 Off ch=1 n=55 v=119
18048 On ch=1 n=46 v=123
18048 On ch=1 n=58 v=123
18048 On ch=1 n=63 v=122
18066 Off ch=1 n=67 v=120
18096 On ch=1 n=67 v=18
18140 Off ch=1 n=58 v=123
18144 On ch=1 n=55 v=117
18162 Off ch=1 n=63 v=122
18232 Off ch=1 n=46 v=123
18240 On ch=1 n=45 v=123
18240 On ch=1 n=57 v=123
18240 On ch=1 n=63 v=123
18250 Off ch=1 n=67 v=18
18254 Off ch=1 n=55 v=117
18332 Off ch=1 n=57 v=123
18336 On ch=1 n=55 v=118
18374 Off ch=1 n=63 v=123
18432 Off ch=1 n=55 v=118
18432 On ch=1 n=44 v=123
18432 On ch=1 n=58 v=123
18432 On ch=1 n=63 v=123
18434 Off ch=1 n=45 v=123
18528 Off ch=1 n=58 v=123
18528 On ch=1 n=56 v=120
18576 Off ch=1 n=63 v=123
18614 Off ch=1 n=56 v=120
18624 On ch=1 n=60 v=121
18624 On ch=1 n=63 v=120
18720 On ch=1 n=56 v=116
18746 Off ch=1 n=63 v=120
18806 Off ch=1 n=44 v=123
18810 Off ch=1 n=56 v=116
18816 Off ch=1 n=60 v=121
18816 On ch=1 n=43 v=122
18816 On ch=1 n=58 v=123
18816 On ch=1 n=63 v=123
18912 On ch=1 n=55 v=113
18914 Off ch=1 n=58 v=123
18980 Off ch=1 n=55 v=113
18980 Off ch=1 n=63 v=123
19008 On ch=1 n=41 v=122
19008 On ch=1 n=56 v=123
19008 On ch=1 n=63 v=123
19016 Off ch=1 n=43 v=122
19104 On ch=1 n=53 v=117
19112 Off ch=1 n=56 v=123
19144 Off ch=1 n=63 v=123
19194 Off ch=1 n=53 v=117
19198 Off ch=1 n=41 v=122
19200 On ch=1 n=39 v=123
19200 On ch=1 n=51 v=122
19200 On ch=1 n=58 v=123
19200 On ch=1 n=63 v=123
19200 On ch=1 n=67 v=123
19296 On ch=1 n=55 v=93
19312 Off ch=1 n=67 v=123
19316 Off ch=1 n=58 v=123
19324 Off ch=1 n=63 v=123
19392 On ch=1 n=58 v=123
19392 On ch=1 n=63 v=122
19392 On ch=1 n=67 v=123
19410 Off ch=1 n=55 v=93
19488 On ch=1 n=55 v=117
19492 Off ch=1 n=67 v=123
19510 Off ch=1 n=58 v=123
19518 Off ch=1 n=63 v=122
19584 On ch=1 n=58 v=122
19584 On ch=1 n=63 v=121
19584 On ch=1 n=67 v=123
19600 Off ch=1 n=55 v=117
19678 Off ch=1 n=67 v=123
19680 On ch=1 n=55 v=118
19696 Off ch=1 n=58 v=122
19734 Off ch=1 n=63 v=121
19758 Off ch=1 n=55 v=118
19764 Off ch=1 n=51 v=122
19776 On ch=1 n=38 v=122
19776 On ch=1 n=50 v=123
19776 On ch=1 n=58 v=123
19776 On ch=1 n=62 v=123
19776 On ch=1 n=65 v=123
19786 Off ch=1 n=39 v=123
19862 Off ch=1 n=62 v=123
19872 Off ch=1 n=58 v=123
19872 On ch=1 n=53 v=117
19940 Off ch=1 n=50 v=123
19954 Off ch=1 n=53 v=117
19964 Off ch=1 n=38 v=122
19968 On ch=1 n=36 v=123
19968 On ch=1 n=48 v=123
19968 On ch=1 n=60 v=123
19968 On ch=1 n=63 v=123
19978 Off ch=1 n=65 v=123
20032 Off ch=1 n=60 v=123
20064 On ch=1 n=60 v=116
20080 Off ch=1 n=63 v=123
20160 On ch=1 n=63 v=121
20176 Off ch=1 n=60 v=116
20256 On ch=1 n=67 v=117
20322 Off ch=1 n=63 v=121
20352 On ch=1 n=62 v=119
20352 On ch=1 n=74 v=118
20358 Off ch=1 n=67 v=117
20448 On ch=1 n=63 v=119
20452 Off ch=1 n=62 v=119
20482 Off ch=1 n=74 v=118
20544 On ch=1 n=60 v=116
20544 On ch=1 n=72 v=122
20604 Off ch=1 n=36 v=123
20626 Off ch=1 n=48 v=123
20640 On ch=1 n=67 v=114
20712 Off ch=1 n=63 v=119
20720 Off ch=1 n=67 v=114
20736 On ch=1 n=41 v=120
20736 On ch=1 n=53 v=123
20736 On ch=1 n=65 v=122
20736 On ch=1 n=68 v=123
20776 Off ch=1 n=60 v=116
20832 On ch=1 n=60 v=120
20836 Off ch=1 n=68 v=123
20844 Off ch=1 n=72 v=122
20880 Off ch=1 n=65 v=122
20928 On ch=1 n=65 v=123
20928 On ch=1 n=68 v=121
20928 On ch=1 n=72 v=120
20938 Off ch=1 n=60 v=120
20980 Off ch=1 n=53 v=123
21004 Off ch=1 n=65 v=123
21024 On ch=1 n=40 v=121
21024 On ch=1 n=52 v=115
21024 On ch=1 n=60 v=112
21024 On ch=1 n=64 v=122
21036 Off ch=1 n=41 v=120
21078 Off ch=1 n=52 v=115
21088 Off ch=1 n=64 v=122
21090 Off ch=1 n=68 v=121
21120 On ch=1 n=39 v=122
21120 On ch=1 n=51 v=123
21120 On ch=1 n=63 v=123
21120 On ch=1 n=68 v=123
21126 Off ch=1 n=40 v=121
21186 Off ch=1 n=60 v=112
21216 On ch=1 n=60 v=95
21230 Off ch=1 n=63 v=123
21252 Off ch=1 n=68 v=123
21262 Off ch=1 n=72 v=120
21288 Off ch=1 n=51 v=123
21312 On ch=1 n=38 v=122
21312 On ch=1 n=50 v=123
21312 On ch=1 n=62 v=123
21312 On ch=1 n=68 v=123
21312 On ch=1 n=72 v=123
21322 Off ch=1 n=60 v=95
21334 Off ch=1 n=39 v=122
21392 Off ch=1 n=50 v=123
21406 Off ch=1 n=68 v=123
21408 On ch=1 n=60 v=110
21410 Off ch=1 n=72 v=123
21434 Off ch=1 n=62 v=123
21486 Off ch=1 n=60 v=110
21494 Off ch=1 n=38 v=122
21504 On ch=1 n=34 v=121
21504 On ch=1 n=46 v=123
21504 On ch=1 n=62 v=123
21504 On ch=1 n=66 v=18
21504 On ch=1 n=70 v=122
21564 Off ch=1 n=66 v=18
21600 On ch=1 n=58 v=107
21620 Off ch=1 n=62 v=123
21696 On ch=1 n=62 v=123
21696 On ch=1 n=65 v=123
21710 Off ch=1 n=58 v=107
21792 On ch=1 n=58 v=105
21804 Off ch=1 n=65 v=123
21808 Off ch=1 n=70 v=122
21810 Off ch=1 n=62 v=123
21888 On ch=1 n=62 v=122
21888 On ch=1 n=65 v=122
21888 On ch=1 n=70 v=120
21894 Off ch=1 n=58 v=105
21984 On ch=1 n=58 v=117
22006 Off ch=1 n=62 v=122
22012 Off ch=1 n=65 v=122
22028 Off ch=1 n=70 v=120
22080 On ch=1 n=62 v=122
22080 On ch=1 n=65 v=122
22080 On ch=1 n=70 v=117
22130 Off ch=1 n=70 v=117
22158 Off ch=1 n=62 v=122
22162 Off ch=1 n=65 v=122
22182 Off ch=1 n=34 v=121
22194 Off ch=1 n=46 v=123
22272 On ch=1 n=39 v=121
22272 On ch=1 n=51 v=122
22272 On ch=1 n=63 v=122
22272 On ch=1 n=67 v=123
22318 Off ch=1 n=58 v=117
22362 Off ch=1 n=67 v=123
22368 On ch=1 n=58 v=102
22464 On ch=1 n=67 v=117
22554 Off ch=1 n=63 v=122
22560 On ch=1 n=65 v=114
22582 Off ch=1 n=67 v=117
22606 Off ch=1 n=65 v=114
22608 On ch=1 n=63 v=115
22620 Off ch=1 n=58 v=102
22622 Off ch=1 n=51 v=122
22656 On ch=1 n=38 v=119
22656 On ch=1 n=50 v=119
22656 On ch=1 n=58 v=123
22656 On ch=1 n=62 v=123
22656 On ch=1 n=65 v=123
22662 Off ch=1 n=39 v=121
22668 Off ch=1 n=63 v=115
22716 Off ch=1 n=58 v=123
22752 On ch=1 n=58 v=93
22776 Off ch=1 n=65 v=123
22780 Off ch=1 n=62 v=123
22848 On ch=1 n=62 v=117
22848 On ch=1 n=65 v=117
22928 Off ch=1 n=62 v=117
22944 On ch=1 n=63 v=107
22966 Off ch=1 n=65 v=117
22986 Off ch=1 n=58 v=93
22992 On ch=1 n=62 v=115
22998 Off ch=1 n=63 v=107
23012 Off ch=1 n=50 v=119
23040 Off ch=1 n=62 v=115
23040 On ch=1 n=36 v=119
23040 On ch=1 n=48 v=121
23040 On ch=1 n=60 v=122
23040 On ch=1 n=63 v=118
23048 Off ch=1 n=38 v=119
23136 On ch=1 n=55 v=63
23156 Off ch=1 n=60 v=122
23158 Off ch=1 n=63 v=118
23232 On ch=1 n=60 v=117
23232 On ch=1 n=63 v=117
23248 Off ch=1 n=55 v=63
23326 Off ch=1 n=60 v=117
23328 On ch=1 n=55 v=112
23344 Off ch=1 n=63 v=117
23418 Off ch=1 n=55 v=112
23424 On ch=1 n=44 v=122
23424 On ch=1 n=59 v=122
23424 On ch=1 n=63 v=117
23426 Off ch=1 n=48 v=121
23428 Off ch=1 n=36 v=119
23520 On ch=1 n=56 v=107
23538 Off ch=1 n=63 v=117
23540 Off ch=1 n=59 v=122
23616 On ch=1 n=59 v=121
23616 On ch=1 n=63 v=117
23624 Off ch=1 n=56 v=107
23712 On ch=1 n=56 v=109
23786 Off ch=1 n=44 v=122
23790 Off ch=1 n=56 v=109
23802 Off ch=1 n=59 v=121
23808 On ch=1 n=39 v=121
23808 On ch=1 n=51 v=117
23826 Off ch=1 n=63 v=117
23904 On ch=1 n=63 v=114
24000 On ch=1 n=67 v=117
24090 Off ch=1 n=67 v=117
24096 On ch=1 n=70 v=120
24190 Off ch=1 n=70 v=120
24192 On ch=1 n=68 v=121
24192 On ch=1 n=72 v=116
24288 On ch=1 n=75 v=112
24292 Off ch=1 n=72 v=116
24310 Off ch=1 n=68 v=121
24384 On ch=1 n=67 v=116
24384 On ch=1 n=70 v=118
24392 Off ch=1 n=75 v=112
24480 On ch=1 n=75 v=116
24494 Off ch=1 n=67 v=116
24504 Off ch=1 n=70 v=118
24576 On ch=1 n=66 v=108
24576 On ch=1 n=69 v=118
24586 Off ch=1 n=75 v=116
24672 On ch=1 n=75 v=119
24674 Off ch=1 n=69 v=118
24692 Off ch=1 n=66 v=108
24768 On ch=1 n=65 v=119
24768 On ch=1 n=68 v=120
24772 Off ch=1 n=75 v=119
24864 On ch=1 n=75 v=121
24892 Off ch=1 n=68 v=120
24920 Off ch=1 n=65 v=119
24930 Off ch=1 n=63 v=114
24934 Off ch=1 n=75 v=121
24950 Off ch=1 n=39 v=121
24954 Off ch=1 n=51 v=117
24960 On ch=1 n=34 v=121
24960 On ch=1 n=46 v=123
24960 On ch=1 n=58 v=119
25056 On ch=1 n=53 v=115
25090 Off ch=1 n=58 v=119
25152 On ch=1 n=58 v=117
25248 On ch=1 n=62 v=115
25344 On ch=1 n=67 v=116
25344 On ch=1 n=79 v=116
25374 Off ch=1 n=53 v=115
25440 On ch=1 n=53 v=101
25536 On ch=1 n=65 v=117
25536 On ch=1 n=77 v=118
25548 Off ch=1 n=53 v=101
25570 Off ch=1 n=62 v=115
25632 On ch=1 n=53 v=107
25638 Off ch=1 n=58 v=117
25674 Off ch=1 n=34 v=121
25710 Off ch=1 n=65 v=117
25718 Off ch=1 n=77 v=118
25728 On ch=1 n=34 v=123
25728 On ch=1 n=58 v=118
25728 On ch=1 n=62 v=123
25740 Off ch=1 n=53 v=107
25746 Off ch=1 n=79 v=116
25824 On ch=1 n=53 v=104
25840 Off ch=1 n=62 v=123
25842 Off ch=1 n=58 v=118
25920 On ch=1 n=58 v=113
26016 On ch=1 n=62 v=116
26024 Off ch=1 n=67 v=116
26112 On ch=1 n=67 v=116
26112 On ch=1 n=79 v=116
26134 Off ch=1 n=53 v=104
26208 On ch=1 n=53 v=108
26238 Off ch=1 n=62 v=116
26304 On ch=1 n=65 v=118
26304 On ch=1 n=77 v=118
26328 Off ch=1 n=53 v=108
26396 Off ch=1 n=58 v=113
26400 On ch=1 n=53 v=115
26426 Off ch=1 n=34 v=123
26428 Off ch=1 n=46 v=123
26486 Off ch=1 n=77 v=118
26486 Off ch=1 n=65 v=118
26496 On ch=1 n=34 v=123
26496 On ch=1 n=46 v=123
26496 On ch=1 n=58 v=122
26496 On ch=1 n=62 v=122
26502 Off ch=1 n=53 v=115
26514 Off ch=1 n=79 v=116
26514 Off ch=1 n=67 v=116
26578 Off ch=1 n=58 v=122
26592 On ch=1 n=53 v=113
26688 On ch=1 n=58 v=115
26690 Off ch=1 n=62 v=122
26784 On ch=1 n=62 v=115
26880 On ch=1 n=67 v=117
26880 On ch=1 n=79 v=116
26890 Off ch=1 n=53 v=113
26976 On ch=1 n=53 v=115
27072 On ch=1 n=65 v=120
27072 On ch=1 n=77 v=118
27080 Off ch=1 n=62 v=115
27126 Off ch=1 n=53 v=115
27168 On ch=1 n=53 v=114
27174 Off ch=1 n=58 v=115
27254 Off ch=1 n=77 v=118
27260 Off ch=1 n=46 v=123
27264 On ch=1 n=43 v=122
27264 On ch=1 n=58 v=120
27264 On ch=1 n=62 v=123
27266 Off ch=1 n=34 v=123
27268 Off ch=1 n=53 v=114
27272 Off ch=1 n=65 v=120
27280 Off ch=1 n=67 v=117
27282 Off ch=1 n=79 v=116
27360 On ch=1 n=55 v=116
27374 Off ch=1 n=58 v=120
27456 On ch=1 n=58 v=117
27476 Off ch=1 n=62 v=123
27552 On ch=1 n=62 v=118
27648 On ch=1 n=69 v=117
27648 On ch=1 n=81 v=116
27690 Off ch=1 n=55 v=116
27744 On ch=1 n=55 v=117
27752 Off ch=1 n=69 v=117
27840 On ch=1 n=67 v=121
27840 On ch=1 n=79 v=118
27844 Off ch=1 n=62 v=118
27936 On ch=1 n=62 v=117
27958 Off ch=1 n=58 v=117
27968 Off ch=1 n=62 v=117
28022 Off ch=1 n=79 v=118
28024 Off ch=1 n=55 v=117
28032 On ch=1 n=36 v=123
28032 On ch=1 n=48 v=123
28032 On ch=1 n=60 v=123
28032 On ch=1 n=63 v=123
28036 Off ch=1 n=43 v=122
28050 Off ch=1 n=81 v=116
28052 Off ch=1 n=67 v=121
28120 Off ch=1 n=60 v=123
28128 On ch=1 n=60 v=119
28168 Off ch=1 n=63 v=123
28224 On ch=1 n=63 v=117
28320 On ch=1 n=67 v=109
28416 On ch=1 n=74 v=116
28416 On ch=1 n=86 v=116
28444 Off ch=1 n=60 v=119
28512 On ch=1 n=60 v=119
28526 Off ch=1 n=74 v=116
28608 On ch=1 n=72 v=121
28608 On ch=1 n=84 v=118
28624 Off ch=1 n=67 v=109
28670 Off ch=1 n=63 v=117
28704 On ch=1 n=63 v=121
28744 Off ch=1 n=48 v=123
28754 Off ch=1 n=36 v=123
28790 Off ch=1 n=84 v=118
28800 On ch=1 n=36 v=123
28800 On ch=1 n=48 v=123
28800 On ch=1 n=67 v=123
28812 Off ch=1 n=60 v=119
28818 Off ch=1 n=86 v=116
28886 Off ch=1 n=63 v=121
28896 On ch=1 n=60 v=114
28912 Off ch=1 n=36 v=123
28944 On ch=1 n=36 v=99
28982 Off ch=1 n=67 v=123
28992 On ch=1 n=63 v=118
29002 Off ch=1 n=36 v=99
29082 Off ch=1 n=60 v=114
29088 Off ch=1 n=63 v=118
29088 On ch=1 n=67 v=117
29168 Off ch=1 n=72 v=121
29176 Off ch=1 n=48 v=123
29178 Off ch=1 n=67 v=117
29184 On ch=1 n=41 v=113
29184 On ch=1 n=53 v=121
29184 On ch=1 n=69 v=123
29280 On ch=1 n=63 v=117
29376 On ch=1 n=65 v=119
29460 Off ch=1 n=63 v=117
29460 Off ch=1 n=69 v=123
29472 On ch=1 n=72 v=119
29482 Off ch=1 n=65 v=119
29500 Off ch=1 n=72 v=119
29568 Off ch=1 n=53 v=121
29568 On ch=1 n=46 v=121
29568 On ch=1 n=58 v=119
29568 On ch=1 n=62 v=122
29576 Off ch=1 n=41 v=113
29664 On ch=1 n=53 v=113
29682 Off ch=1 n=58 v=119
29760 On ch=1 n=58 v=118
29780 Off ch=1 n=62 v=122
29856 On ch=1 n=62 v=120
29952 On ch=1 n=67 v=120
29952 On ch=1 n=79 v=116
29966 Off ch=1 n=53 v=113
30048 On ch=1 n=53 v=116
30140 Off ch=1 n=62 v=120
30144 On ch=1 n=65 v=119
30144 On ch=1 n=77 v=118
30156 Off ch=1 n=53 v=116
30240 On ch=1 n=53 v=112
30244 Off ch=1 n=58 v=118
30326 Off ch=1 n=53 v=112
30326 Off ch=1 n=77 v=118
30332 Off ch=1 n=65 v=119
30336 On ch=1 n=43 v=120
30336 On ch=1 n=58 v=122
30336 On ch=1 n=62 v=123
30338 Off ch=1 n=46 v=121
30354 Off ch=1 n=79 v=116
30354 Off ch=1 n=67 v=120
30358 On ch=1 n=60 v=109
30360 Off ch=1 n=60 v=109
30432 On ch=1 n=55 v=117
30448 Off ch=1 n=58 v=122
30528 On ch=1 n=58 v=121
30562 Off ch=1 n=62 v=123
30624 On ch=1 n=62 v=120
30720 On ch=1 n=69 v=117
30720 On ch=1 n=81 v=116
30730 Off ch=1 n=55 v=117
30816 On ch=1 n=55 v=121
30822 Off ch=1 n=69 v=117
30912 On ch=1 n=67 v=120
30912 On ch=1 n=79 v=118
30920 Off ch=1 n=55 v=121
30946 Off ch=1 n=62 v=120
30992 Off ch=1 n=58 v=121
31008 On ch=1 n=55 v=117
31094 Off ch=1 n=55 v=117
31094 Off ch=1 n=79 v=118
31104 On ch=1 n=48 v=123
31104 On ch=1 n=60 v=123
31104 On ch=1 n=63 v=122
31108 Off ch=1 n=43 v=120
31122 Off ch=1 n=81 v=116
31200 On ch=1 n=55 v=117
31216 Off ch=1 n=60 v=123
31222 Off ch=1 n=63 v=122
31296 On ch=1 n=60 v=118
31386 Off ch=1 n=55 v=117
31392 On ch=1 n=47 v=122
31392 On ch=1 n=55 v=119
31392 On ch=1 n=63 v=121
31418 Off ch=1 n=60 v=118
31450 Off ch=1 n=48 v=123
31452 Off ch=1 n=47 v=122
31454 Off ch=1 n=63 v=121
31480 Off ch=1 n=55 v=119
31488 On ch=1 n=46 v=123
31488 On ch=1 n=58 v=123
31488 On ch=1 n=63 v=122
31506 Off ch=1 n=67 v=120
31536 On ch=1 n=67 v=18
31580 Off ch=1 n=58 v=123
31584 On ch=1 n=55 v=117
31602 Off ch=1 n=63 v=122
31672 Off ch=1 n=46 v=123
31680 On ch=1 n=45 v=123
31680 On ch=1 n=57 v=123
31680 On ch=1 n=63 v=123
31690 Off ch=1 n=67 v=18
31694 Off ch=1 n=55 v=117
31772 Off ch=1 n=57 v=123
31776 On ch=1 n=55 v=118
31814 Off ch=1 n=63 v=123
31872 Off ch=1 n=55 v=118
31872 On ch=1 n=44 v=123
31872 On ch=1 n=58 v=123
31872 On ch=1 n=63 v=123
31874 Off ch=1 n=45 v=123
31968 Off ch=1 n=58 v=123
31968 On ch=1 n=56 v=120
32016 Off ch=1 n=63 v=123
32054 Off ch=1 n=56 v=120
32064 On ch=1 n=60 v=121
32064 On ch=1 n=63 v=120
32160 On ch=1 n=56 v=116
32186 Off ch=1 n=63 v=120
32246 Off ch=1 n=44 v=123
32250 Off ch=1 n=56 v=116
32256 Off ch=1 n=60 v=121
32256 On ch=1 n=43 v=122
32256 On ch=1 n=58 v=123
32256 On ch=1 n=63 v=123
32352 On ch=1 n=55 v=113
32354 Off ch=1 n=58 v=123
32420 Off ch=1 n=55 v=113
32420 Off ch=1 n=63 v=123
32448 On ch=1 n=41 v=122
32448 On ch=1 n=56 v=123
32448 On ch=1 n=63 v=123
32456 Off ch=1 n=43 v=122
32544 On ch=1 n=53 v=117
32552 Off ch=1 n=56 v=123
32584 Off ch=1 n=63 v=123
32634 Off ch=1 n=53 v=117
32638 Off ch=1 n=41 v=122
32640 On ch=1 n=39 v=123
32640 On ch=1 n=51 v=122
32640 On ch=1 n=58 v=123
32640 On ch=1 n=63 v=123
32640 On ch=1 n=67 v=123
32736 On ch=1 n=55 v=93
32752 Off ch=1 n=67 v=123
32756 Off ch=1 n=58 v=123
32764 Off ch=1 n=63 v=123
32832 On ch=1 n=58 v=123
32832 On ch=1 n=63 v=122
32832 On ch=1 n=67 v=123
32850 Off ch=1 n=55 v=93
32928 On ch=1 n=55 v=117
32932 Off ch=1 n=67 v=123
32950 Off ch=1 n=58 v=123
32958 Off ch=1 n=63 v=122
33024 On ch=1 n=58 v=122
33024 On ch=1 n=63 v=121
33024 On ch=1 n=67 v=123
33040 Off ch=1 n=55 v=117
33118 Off ch=1 n=67 v=123
33120 On ch=1 n=55 v=118
33136 Off ch=1 n=58 v=122
33174 Off ch=1 n=63 v=121
33198 Off ch=1 n=55 v=118
33204 Off ch=1 n=51 v=122
33216 On ch=1 n=38 v=122
33216 On ch=1 n=50 v=123
33216 On ch=1 n=58 v=123
33216 On ch=1 n=62 v=123
33216 On ch=1 n=65 v=123
33226 Off ch=1 n=39 v=123
33302 Off ch=1 n=62 v=123
33312 Off ch=1 n=58 v=123
33312 On ch=1 n=53 v=117
33380 Off ch=1 n=50 v=123
33394 Off ch=1 n=53 v=117
33404 Off ch=1 n=38 v=122
33408 On ch=1 n=36 v=123
33408 On ch=1 n=48 v=123
33408 On ch=1 n=60 v=123
33408 On ch=1 n=63 v=123
33418 Off ch=1 n=65 v=123
33472 Off ch=1 n=60 v=123
33504 On ch=1 n=60 v=116
33520 Off ch=1 n=63 v=123
33600 On ch=1 n=63 v=121
33616 Off ch=1 n=60 v=116
33696 On ch=1 n=67 v=117
33762 Off ch=1 n=63 v=121
33792 On ch=1 n=62 v=119
33792 On ch=1 n=74 v=118
33798 Off ch=1 n=67 v=117
33888 On ch=1 n=63 v=119
33892 Off ch=1 n=62 v=119
33922 Off ch=1 n=74 v=118
33984 On ch=1 n=60 v=116
33984 On ch=1 n=72 v=122
34044 Off ch=1 n=36 v=123
34066 Off ch=1 n=48 v=123
34080 On ch=1 n=67 v=114
34152 Off ch=1 n=63 v=119
34160 Off ch=1 n=67 v=114
34176 On ch=1 n=41 v=120
34176 On ch=1 n=53 v=123
34176 On ch=1 n=65 v=122
34176 On ch=1 n=68 v=123
34216 Off ch=1 n=60 v=116
34272 On ch=1 n=60 v=120
34276 Off ch=1 n=68 v=123
34284 Off ch=1 n=72 v=122
34320 Off ch=1 n=65 v=122
34368 On ch=1 n=65 v=123
34368 On ch=1 n=68 v=121
34368 On ch=1 n=72 v=120
34378 Off ch=1 n=60 v=120
34420 Off ch=1 n=53 v=123
34444 Off ch=1 n=65 v=123
34464 On ch=1 n=40 v=121
34464 On ch=1 n=52 v=115
34464 On ch=1 n=60 v=112
34464 On ch=1 n=64 v=122
34476 Off ch=1 n=41 v=120
34518 Off ch=1 n=52 v=115
34528 Off ch=1 n=64 v=122
34530 Off ch=1 n=68 v=121
34560 On ch=1 n=39 v=122
34560 On ch=1 n=51 v=123
34560 On ch=1 n=63 v=123
34560 On ch=1 n=68 v=123
34566 Off ch=1 n=40 v=121
34626 Off ch=1 n=60 v=112
34656 On ch=1 n=60 v=95
34670 Off ch=1 n=63 v=123
34692 Off ch=1 n=68 v=123
34702 Off ch=1 n=72 v=120
34728 Off ch=1 n=51 v=123
34752 On ch=1 n=38 v=122
34752 On ch=1 n=50 v=123
34752 On ch=1 n=62 v=123
34752 On ch=1 n=68 v=123
34752 On ch=1 n=72 v=123
34762 Off ch=1 n=60 v=95
34774 Off ch=1 n=39 v=122
34832 Off ch=1 n=50 v=123
34846 Off ch=1 n=68 v=123
34848 On ch=1 n=60 v=110
34850 Off ch=1 n=72 v=123
34874 Off ch=1 n=62 v=123
34926 Off ch=1 n=60 v=110
34934 Off ch=1 n=38 v=122
34944 On ch=1 n=34 v=121
34944 On ch=1 n=46 v=123
34944 On ch=1 n=62 v=123
34944 On ch=1 n=66 v=18
34944 On ch=1 n=70 v=122
35004 Off ch=1 n=66 v=18
35040 On ch=1 n=58 v=107
35060 Off ch=1 n=62 v=123
35136 On ch=1 n=62 v=123
35136 On ch=1 n=65 v=123
35150 Off ch=1 n=58 v=107
35232 On ch=1 n=58 v=105
35244 Off ch=1 n=65 v=123
35248 Off ch=1 n=70 v=122
35250 Off ch=1 n=62 v=123
35328 On ch=1 n=62 v=122
35328 On ch=1 n=65 v=122
35328 On ch=1 n=70 v=120
35334 Off ch=1 n=58 v=105
35424 On ch=1 n=58 v=117
35446 Off ch=1 n=62 v=122
35452 Off ch=1 n=65 v=122
35468 Off ch=1 n=70 v=120
35520 On ch=1 n=62 v=122
35520 On ch=1 n=65 v=122
35520 On ch=1 n=70 v=117
35570 Off ch=1 n=70 v=117
35598 Off ch=1 n=62 v=122
35602 Off ch=1 n=65 v=122
35622 Off ch=1 n=34 v=121
35634 Off ch=1 n=46 v=123
35710 Off ch=1 n=58 v=117
35712 On ch=1 n=39 v=122
35712 On ch=1 n=51 v=123
35712 On ch=1 n=58 v=123
35712 On ch=1 n=63 v=122
35712 On ch=1 n=67 v=122
35758 Off ch=1 n=58 v=123
35846 Off ch=1 n=51 v=123
35890 Off ch=1 n=67 v=122
35904 On ch=1 n=51 v=123
35904 On ch=1 n=58 v=122
35904 On ch=1 n=67 v=122
36000 Off ch=1 n=63 v=122
36000 On ch=1 n=65 v=122
36008 Off ch=1 n=67 v=122
36048 On ch=1 n=63 v=112
36052 Off ch=1 n=65 v=122
36074 Off ch=1 n=39 v=122
36082 Off ch=1 n=58 v=122
36090 Off ch=1 n=63 v=112
36094 Off ch=1 n=51 v=123
36096 On ch=1 n=38 v=123
36096 On ch=1 n=58 v=102
36096 On ch=1 n=62 v=123
36096 On ch=1 n=65 v=123
36096 On ch=1 n=70 v=122
36288 On ch=1 n=50 v=122
36338 Off ch=1 n=62 v=123
36352 Off ch=1 n=58 v=102
36362 Off ch=1 n=65 v=123
36376 Off ch=1 n=70 v=122
36384 On ch=1 n=67 v=122
36442 Off ch=1 n=38 v=123
36464 Off ch=1 n=67 v=122
36480 On ch=1 n=36 v=123
36480 On ch=1 n=60 v=122
36480 On ch=1 n=63 v=122
36480 On ch=1 n=67 v=123
36480 On ch=1 n=72 v=122
36486 Off ch=1 n=50 v=122
36672 On ch=1 n=48 v=121
36824 Off ch=1 n=60 v=122
36830 Off ch=1 n=72 v=122
36832 Off ch=1 n=36 v=123
36834 Off ch=1 n=63 v=122
36836 Off ch=1 n=67 v=123
36864 On ch=1 n=36 v=123
36864 On ch=1 n=60 v=123
36864 On ch=1 n=63 v=123
36864 On ch=1 n=67 v=123
36864 On ch=1 n=72 v=123
36928 Off ch=1 n=60 v=123
36952 Off ch=1 n=63 v=123
36960 On ch=1 n=62 v=122
36980 Off ch=1 n=67 v=123
37006 Off ch=1 n=62 v=122
37008 On ch=1 n=63 v=119
37016 Off ch=1 n=48 v=121
37024 Off ch=1 n=72 v=123
37056 On ch=1 n=48 v=121
37056 On ch=1 n=60 v=123
37056 On ch=1 n=67 v=123
37056 On ch=1 n=72 v=122
37112 Off ch=1 n=60 v=123
37134 Off ch=1 n=63 v=119
37152 On ch=1 n=62 v=119
37162 Off ch=1 n=67 v=123
37196 Off ch=1 n=36 v=123
37200 On ch=1 n=43 v=118
37200 On ch=1 n=63 v=114
37214 Off ch=1 n=62 v=119
37224 Off ch=1 n=43 v=118
37232 Off ch=1 n=63 v=114
37234 Off ch=1 n=48 v=121
37248 On ch=1 n=41 v=122
37248 On ch=1 n=65 v=121
37248 On ch=1 n=68 v=121
37440 On ch=1 n=53 v=122
37502 Off ch=1 n=72 v=122
37512 Off ch=1 n=53 v=122
37514 Off ch=1 n=65 v=121
37514 Off ch=1 n=41 v=122
37536 On ch=1 n=40 v=123
37536 On ch=1 n=52 v=122
37536 On ch=1 n=60 v=123
37536 On ch=1 n=64 v=123
37536 On ch=1 n=72 v=123
37602 Off ch=1 n=64 v=123
37620 Off ch=1 n=72 v=123
37626 Off ch=1 n=68 v=121
37632 On ch=1 n=39 v=123
37632 On ch=1 n=63 v=123
37632 On ch=1 n=68 v=123
37632 On ch=1 n=72 v=123
37636 Off ch=1 n=52 v=122
37638 Off ch=1 n=40 v=123
37782 Off ch=1 n=72 v=123
37784 Off ch=1 n=63 v=123
37806 Off ch=1 n=60 v=123
37824 On ch=1 n=50 v=123
37824 On ch=1 n=60 v=123
37824 On ch=1 n=62 v=123
37824 On ch=1 n=72 v=123
37836 Off ch=1 n=39 v=123
37902 Off ch=1 n=72 v=123
37922 Off ch=1 n=50 v=123
37924 Off ch=1 n=60 v=123
37962 Off ch=1 n=68 v=123
37996 Off ch=1 n=62 v=123
38016 On ch=1 n=34 v=123
38016 On ch=1 n=46 v=123
38016 On ch=1 n=58 v=123
38016 On ch=1 n=62 v=123
38016 On ch=1 n=65 v=123
38016 On ch=1 n=70 v=123
38158 Off ch=1 n=46 v=123
38208 On ch=1 n=46 v=120
38212 Off ch=1 n=34 v=123
38264 Off ch=1 n=58 v=123
38304 On ch=1 n=34 v=119
38304 On ch=1 n=58 v=118
38382 Off ch=1 n=34 v=119
38386 Off ch=1 n=62 v=123
38400 On ch=1 n=34 v=117
38400 On ch=1 n=62 v=120
38430 Off ch=1 n=65 v=123
38496 On ch=1 n=65 v=120
38522 Off ch=1 n=70 v=123
38540 Off ch=1 n=46 v=120
38578 Off ch=1 n=58 v=118
38592 On ch=1 n=46 v=122
38592 On ch=1 n=58 v=120
38592 On ch=1 n=70 v=120
38604 Off ch=1 n=65 v=120
38606 Off ch=1 n=34 v=117
38632 Off ch=1 n=62 v=120
38640 On ch=1 n=65 v=107
38688 On ch=1 n=34 v=116
38718 Off ch=1 n=34 v=116
38740 Off ch=1 n=46 v=122
38750 Off ch=1 n=70 v=120
38756 Off ch=1 n=58 v=120
38778 Off ch=1 n=65 v=107
38784 On ch=1 n=39 v=123
38784 On ch=1 n=58 v=123
38784 On ch=1 n=63 v=123
38784 On ch=1 n=67 v=123
38784 On ch=1 n=70 v=123
38976 On ch=1 n=51 v=120
39030 Off ch=1 n=58 v=123
39036 Off ch=1 n=39 v=123
39038 Off ch=1 n=70 v=123
39042 Off ch=1 n=67 v=123
39054 Off ch=1 n=63 v=123
39072 On ch=1 n=39 v=122
39072 On ch=1 n=58 v=123
39072 On ch=1 n=63 v=120
39072 On ch=1 n=67 v=120
39072 On ch=1 n=70 v=122
39148 Off ch=1 n=39 v=122
39158 Off ch=1 n=63 v=120
39162 Off ch=1 n=67 v=120
39168 On ch=1 n=38 v=121
39168 On ch=1 n=62 v=123
39168 On ch=1 n=65 v=123
39170 Off ch=1 n=51 v=120
39250 Off ch=1 n=58 v=123
39264 On ch=1 n=58 v=117
39272 Off ch=1 n=62 v=123
39312 On ch=1 n=62 v=110
39326 Off ch=1 n=65 v=123
39360 On ch=1 n=50 v=123
39378 Off ch=1 n=58 v=117
39380 Off ch=1 n=38 v=121
39394 Off ch=1 n=70 v=122
39408 On ch=1 n=58 v=122
39408 On ch=1 n=65 v=123
39408 On ch=1 n=70 v=122
39456 On ch=1 n=43 v=116
39460 Off ch=1 n=62 v=110
39472 Off ch=1 n=65 v=123
39500 Off ch=1 n=70 v=122
39504 On ch=1 n=67 v=112
39516 Off ch=1 n=67 v=112
39516 Off ch=1 n=58 v=122
39552 Off ch=1 n=50 v=123
39552 On ch=1 n=36 v=123
39552 On ch=1 n=60 v=123
39552 On ch=1 n=63 v=123
39552 On ch=1 n=67 v=123
39552 On ch=1 n=72 v=123
39554 Off ch=1 n=43 v=116
39744 On ch=1 n=48 v=122
39756 Off ch=1 n=60 v=123
39816 Off ch=1 n=63 v=123
39840 On ch=1 n=62 v=117
39846 Off ch=1 n=67 v=123
39886 Off ch=1 n=62 v=117
39888 On ch=1 n=63 v=116
39892 Off ch=1 n=72 v=123
39916 Off ch=1 n=36 v=123
39936 On ch=1 n=36 v=121
39936 On ch=1 n=60 v=122
39936 On ch=1 n=67 v=122
39936 On ch=1 n=72 v=123
39954 Off ch=1 n=63 v=116
40004 Off ch=1 n=60 v=122
40032 On ch=1 n=62 v=120
40056 Off ch=1 n=48 v=122
40080 Off ch=1 n=62 v=120
40080 On ch=1 n=63 v=122
40096 Off ch=1 n=67 v=122
40100 Off ch=1 n=72 v=123
40128 On ch=1 n=48 v=122
40128 On ch=1 n=60 v=123
40128 On ch=1 n=67 v=123
40128 On ch=1 n=72 v=123
40130 Off ch=1 n=63 v=122
40178 Off ch=1 n=60 v=123
40190 Off ch=1 n=36 v=121
40224 On ch=1 n=62 v=114
40242 Off ch=1 n=67 v=123
40270 Off ch=1 n=48 v=122
40272 On ch=1 n=43 v=119
40272 On ch=1 n=63 v=117
40280 Off ch=1 n=72 v=123
40284 Off ch=1 n=62 v=114
40296 Off ch=1 n=43 v=119
40304 Off ch=1 n=63 v=117
40320 On ch=1 n=41 v=119
40320 On ch=1 n=60 v=123
40320 On ch=1 n=65 v=123
40320 On ch=1 n=68 v=122
40320 On ch=1 n=72 v=123
40480 Off ch=1 n=60 v=123
40508 Off ch=1 n=65 v=123
40512 On ch=1 n=53 v=123
40514 Off ch=1 n=72 v=123
40518 Off ch=1 n=68 v=122
40608 Off ch=1 n=41 v=119
40608 On ch=1 n=65 v=122
40608 On ch=1 n=77 v=121
40614 Off ch=1 n=53 v=123
40630 Off ch=1 n=65 v=122
40632 Off ch=1 n=77 v=121
40656 On ch=1 n=52 v=120
40656 On ch=1 n=67 v=123
40656 On ch=1 n=79 v=123
40664 Off ch=1 n=52 v=120
40674 Off ch=1 n=67 v=123
40682 Off ch=1 n=79 v=123
40704 On ch=1 n=51 v=122
40704 On ch=1 n=63 v=123
40704 On ch=1 n=68 v=122
40704 On ch=1 n=80 v=123
40790 Off ch=1 n=68 v=122
40812 Off ch=1 n=80 v=123
40816 Off ch=1 n=63 v=123
40824 Off ch=1 n=51 v=122
40896 On ch=1 n=50 v=121
40896 On ch=1 n=62 v=123
40896 On ch=1 n=77 v=123
40896 On ch=1 n=89 v=122
40986 Off ch=1 n=89 v=122
40988 Off ch=1 n=77 v=123
40998 Off ch=1 n=50 v=121
41000 Off ch=1 n=62 v=123
41088 On ch=1 n=49 v=123
41088 On ch=1 n=61 v=123
41088 On ch=1 n=68 v=123
41088 On ch=1 n=80 v=122
41290 Off ch=1 n=68 v=123
41298 Off ch=1 n=80 v=122
41328 Off ch=1 n=61 v=118
41328 On ch=1 n=61 v=118
41328 On ch=1 n=73 v=118
41328 On ch=1 n=85 v=118
41358 Off ch=1 n=85 v=118
41358 Off ch=1 n=73 v=118
41392 Off ch=1 n=49 v=123
41400 On ch=1 n=48 v=117
41400 On ch=1 n=60 v=121
41400 On ch=1 n=73 v=123
41400 On ch=1 n=85 v=123
41440 Off ch=1 n=85 v=123
41440 Off ch=1 n=73 v=123
41452 Off ch=1 n=60 v=121
41452 Off ch=1 n=48 v=117
41472 On ch=1 n=47 v=123
41472 On ch=1 n=59 v=123
41472 On ch=1 n=73 v=123
41472 On ch=1 n=85 v=122
41564 Off ch=1 n=85 v=122
41568 Off ch=1 n=61 v=123
41576 Off ch=1 n=73 v=123
41600 Off ch=1 n=47 v=123
41606 Off ch=1 n=59 v=123
41664 On ch=1 n=46 v=120
41664 On ch=1 n=58 v=123
41664 On ch=1 n=61 v=123
41664 On ch=1 n=73 v=123
41762 Off ch=1 n=73 v=123
41762 Off ch=1 n=58 v=123
41770 Off ch=1 n=61 v=123
41776 Off ch=1 n=46 v=120
41856 On ch=1 n=33 v=123
41856 On ch=1 n=45 v=123
41856 On ch=1 n=69 v=123
41856 On ch=1 n=76 v=123
41856 On ch=1 n=81 v=123
41884 Off ch=1 n=69 v=123
41886 Off ch=1 n=76 v=123
41888 Off ch=1 n=81 v=123
41902 Off ch=1 n=33 v=123
41904 Off ch=1 n=45 v=123
41952 On ch=1 n=57 v=120
41952 On ch=1 n=61 v=122
41952 On ch=1 n=64 v=122
41968 Off ch=1 n=57 v=120
41974 Off ch=1 n=64 v=122
41974 Off ch=1 n=61 v=122
42048 On ch=1 n=57 v=121
42048 On ch=1 n=61 v=119
42048 On ch=1 n=64 v=122
42066 Off ch=1 n=61 v=119
42066 Off ch=1 n=57 v=121
42072 Off ch=1 n=64 v=122
42144 On ch=1 n=57 v=121
42144 On ch=1 n=61 v=121
42144 On ch=1 n=64 v=123
42166 Off ch=1 n=57 v=121
42168 Off ch=1 n=61 v=121
42172 Off ch=1 n=64 v=123
42240 On ch=1 n=57 v=120
42240 On ch=1 n=61 v=120
42240 On ch=1 n=64 v=120
42262 Off ch=1 n=57 v=120
42266 Off ch=1 n=61 v=120
42268 Off ch=1 n=64 v=120
42336 On ch=1 n=57 v=121
42336 On ch=1 n=61 v=119
42336 On ch=1 n=64 v=118
42358 Off ch=1 n=61 v=119
42358 Off ch=1 n=57 v=121
42364 Off ch=1 n=64 v=118
42432 On ch=1 n=57 v=115
42432 On ch=1 n=61 v=118
42432 On ch=1 n=64 v=119
42450 Off ch=1 n=57 v=115
42456 Off ch=1 n=64 v=119
42456 Off ch=1 n=61 v=118
42528 On ch=1 n=57 v=118
42528 On ch=1 n=61 v=118
42528 On ch=1 n=64 v=120
42548 Off ch=1 n=57 v=118
42552 Off ch=1 n=61 v=118
42554 Off ch=1 n=64 v=120
42624 On ch=1 n=57 v=122
42624 On ch=1 n=62 v=123
42624 On ch=1 n=66 v=122
42646 Off ch=1 n=57 v=122
42656 Off ch=1 n=62 v=123
42660 Off ch=1 n=66 v=122
42720 On ch=1 n=57 v=122
42720 On ch=1 n=61 v=121
42720 On ch=1 n=64 v=123
42738 Off ch=1 n=57 v=122
42742 Off ch=1 n=64 v=123
42742 Off ch=1 n=61 v=121
42768 On ch=1 n=57 v=117
42768 On ch=1 n=61 v=121
42768 On ch=1 n=64 v=118
42780 Off ch=1 n=57 v=117
42790 Off ch=1 n=64 v=118
42790 Off ch=1 n=61 v=121
42816 On ch=1 n=57 v=122
42816 On ch=1 n=60 v=122
42816 On ch=1 n=63 v=122
42844 Off ch=1 n=60 v=122
42844 Off ch=1 n=57 v=122
42856 Off ch=1 n=63 v=122
42912 On ch=1 n=57 v=123
42912 On ch=1 n=61 v=123
42912 On ch=1 n=64 v=123
42938 Off ch=1 n=57 v=123
42944 Off ch=1 n=64 v=123
42946 Off ch=1 n=61 v=123
43008 On ch=1 n=57 v=123
43008 On ch=1 n=62 v=123
43008 On ch=1 n=66 v=122
43030 Off ch=1 n=57 v=123
43036 Off ch=1 n=62 v=123
43042 Off ch=1 n=66 v=122
43104 On ch=1 n=57 v=122
43104 On ch=1 n=61 v=123
43104 On ch=1 n=64 v=122
43122 Off ch=1 n=61 v=123
43122 Off ch=1 n=57 v=122
43126 Off ch=1 n=64 v=122
43152 On ch=1 n=57 v=118
43152 On ch=1 n=61 v=119
43152 On ch=1 n=64 v=122
43164 Off ch=1 n=57 v=118
43170 Off ch=1 n=64 v=122
43170 Off ch=1 n=61 v=119
43200 On ch=1 n=57 v=121
43200 On ch=1 n=60 v=123
43200 On ch=1 n=63 v=123
43252 Off ch=1 n=60 v=123
43254 Off ch=1 n=57 v=121
43260 Off ch=1 n=63 v=123
43296 On ch=1 n=57 v=120
43296 On ch=1 n=61 v=121
43296 On ch=1 n=64 v=123
43312 Off ch=1 n=64 v=123
43316 Off ch=1 n=61 v=121
43316 Off ch=1 n=57 v=120
43344 On ch=1 n=57 v=118
43344 On ch=1 n=61 v=121
43344 On ch=1 n=64 v=123
43366 Off ch=1 n=57 v=118
43368 Off ch=1 n=64 v=123
43370 Off ch=1 n=61 v=121
43392 On ch=1 n=57 v=123
43392 On ch=1 n=62 v=123
43392 On ch=1 n=66 v=123
43392 On ch=1 n=69 v=123
43442 Off ch=1 n=57 v=123
43448 Off ch=1 n=69 v=123
43454 Off ch=1 n=62 v=123
43460 Off ch=1 n=66 v=123
43488 On ch=1 n=57 v=115
43488 On ch=1 n=61 v=118
43488 On ch=1 n=64 v=118
43500 Off ch=1 n=64 v=118
43502 Off ch=1 n=57 v=115
43506 Off ch=1 n=61 v=118
43536 On ch=1 n=57 v=113
43536 On ch=1 n=61 v=118
43536 On ch=1 n=64 v=123
43558 Off ch=1 n=57 v=113
43566 Off ch=1 n=61 v=118
43570 Off ch=1 n=64 v=123
43584 On ch=1 n=57 v=123
43584 On ch=1 n=62 v=123
43584 On ch=1 n=66 v=123
43584 On ch=1 n=69 v=123
43650 Off ch=1 n=57 v=123
43652 Off ch=1 n=69 v=123
43652 Off ch=1 n=62 v=123
43662 Off ch=1 n=66 v=123
43680 On ch=1 n=57 v=117
43680 On ch=1 n=61 v=121
43680 On ch=1 n=64 v=122
43696 Off ch=1 n=57 v=117
43698 Off ch=1 n=64 v=122
43700 Off ch=1 n=61 v=121
43728 On ch=1 n=57 v=117
43728 On ch=1 n=61 v=121
43728 On ch=1 n=64 v=122
43728 On ch=1 n=69 v=122
43750 Off ch=1 n=64 v=122
43752 Off ch=1 n=57 v=117
43754 Off ch=1 n=61 v=121
43758 Off ch=1 n=69 v=122
43776 On ch=1 n=57 v=121
43776 On ch=1 n=60 v=121
43776 On ch=1 n=63 v=123
43776 On ch=1 n=69 v=123
43794 Off ch=1 n=57 v=121
43798 Off ch=1 n=69 v=123
43800 Off ch=1 n=60 v=121
43802 Off ch=1 n=63 v=123
43824 On ch=1 n=57 v=122
43824 On ch=1 n=60 v=117
43824 On ch=1 n=63 v=122
43824 On ch=1 n=69 v=122
43846 Off ch=1 n=60 v=117
43846 Off ch=1 n=57 v=122
43848 Off ch=1 n=69 v=122
43852 Off ch=1 n=63 v=122
43872 On ch=1 n=57 v=123
43872 On ch=1 n=61 v=123
43872 On ch=1 n=64 v=123
43872 On ch=1 n=69 v=121
43896 Off ch=1 n=69 v=121
43904 Off ch=1 n=57 v=123
43908 Off ch=1 n=64 v=123
43910 Off ch=1 n=61 v=123
43968 On ch=1 n=57 v=123
43968 On ch=1 n=62 v=122
43968 On ch=1 n=66 v=122
43968 On ch=1 n=69 v=123
44004 Off ch=1 n=57 v=123
44008 Off ch=1 n=62 v=122
44014 Off ch=1 n=69 v=123
44022 Off ch=1 n=66 v=122
44064 On ch=1 n=57 v=123
44064 On ch=1 n=61 v=123
44064 On ch=1 n=64 v=123
44064 On ch=1 n=69 v=123
44108 Off ch=1 n=64 v=123
44108 Off ch=1 n=61 v=123
44108 Off ch=1 n=57 v=123
44114 Off ch=1 n=69 v=123
44160 On ch=1 n=48 v=120
44160 On ch=1 n=55 v=123
44160 On ch=1 n=60 v=123
44160 On ch=1 n=64 v=123
44160 On ch=1 n=67 v=123
44176 Off ch=1 n=64 v=123
44176 Off ch=1 n=60 v=123
44178 Off ch=1 n=67 v=123
44180 Off ch=1 n=48 v=120
44182 Off ch=1 n=55 v=123
44200 On ch=1 n=55 v=119
44202 On ch=1 n=48 v=118
44202 On ch=1 n=60 v=123
44202 On ch=1 n=67 v=123
44204 On ch=1 n=64 v=123
44224 Off ch=1 n=60 v=123
44228 Off ch=1 n=64 v=123
44228 Off ch=1 n=48 v=118
44230 Off ch=1 n=67 v=123
44232 Off ch=1 n=55 v=119
44250 On ch=1 n=60 v=122
44252 On ch=1 n=48 v=123
44252 On ch=1 n=55 v=121
44252 On ch=1 n=67 v=123
44254 On ch=1 n=64 v=123
44274 Off ch=1 n=60 v=122
44276 Off ch=1 n=64 v=123
44278 Off ch=1 n=67 v=123
44280 Off ch=1 n=48 v=123
44282 Off ch=1 n=55 v=121
44296 On ch=1 n=48 v=109
44298 On ch=1 n=55 v=122
44298 On ch=1 n=60 v=122
44298 On ch=1 n=67 v=123
44300 On ch=1 n=64 v=122
44324 Off ch=1 n=60 v=122
44326 Off ch=1 n=67 v=123
44328 Off ch=1 n=55 v=122
44332 Off ch=1 n=64 v=122
44334 Off ch=1 n=48 v=109
44350 On ch=1 n=47 v=120
44352 On ch=1 n=55 v=123
44352 On ch=1 n=59 v=123
44352 On ch=1 n=62 v=123
44352 On ch=1 n=67 v=123
44386 Off ch=1 n=47 v=120
44388 Off ch=1 n=55 v=123
44390 Off ch=1 n=59 v=123
44392 Off ch=1 n=67 v=123
44392 Off ch=1 n=62 v=123
44444 On ch=1 n=47 v=120
44446 On ch=1 n=55 v=123
44446 On ch=1 n=67 v=123
44448 On ch=1 n=59 v=123
44448 On ch=1 n=62 v=123
44478 Off ch=1 n=59 v=123
44484 Off ch=1 n=67 v=123
44486 Off ch=1 n=55 v=123
44492 Off ch=1 n=62 v=123
44492 Off ch=1 n=47 v=120
44540 On ch=1 n=53 v=123
44544 On ch=1 n=46 v=122
44544 On ch=1 n=58 v=123
44544 On ch=1 n=62 v=123
44546 On ch=1 n=65 v=123
44568 Off ch=1 n=62 v=123
44570 Off ch=1 n=58 v=123
44572 Off ch=1 n=53 v=123
44574 Off ch=1 n=65 v=123
44574 Off ch=1 n=46 v=122
44584 On ch=1 n=62 v=115
44586 On ch=1 n=53 v=122
44586 On ch=1 n=58 v=120
44588 On ch=1 n=46 v=121
44588 On ch=1 n=65 v=123
44612 Off ch=1 n=62 v=115
44616 Off ch=1 n=65 v=123
44616 Off ch=1 n=46 v=121
44616 Off ch=1 n=58 v=120
44618 Off ch=1 n=53 v=122
44632 On ch=1 n=62 v=123
44634 On ch=1 n=53 v=122
44634 On ch=1 n=58 v=123
44634 On ch=1 n=65 v=113
44638 On ch=1 n=46 v=120
44660 Off ch=1 n=62 v=123
44664 Off ch=1 n=46 v=120
44664 Off ch=1 n=58 v=123
44666 Off ch=1 n=65 v=113
44680 On ch=1 n=58 v=122
44680 On ch=1 n=62 v=123
44682 On ch=1 n=65 v=117
44684 On ch=1 n=46 v=121
44684 On ch=1 n=66 v=120
44704 Off ch=1 n=53 v=122
44706 Off ch=1 n=62 v=123
44708 Off ch=1 n=66 v=120
44712 Off ch=1 n=65 v=117
44712 Off ch=1 n=58 v=122
44722 Off ch=1 n=46 v=121
44732 On ch=1 n=66 v=123
44734 On ch=1 n=50 v=122
44734 On ch=1 n=54 v=123
44734 On ch=1 n=60 v=123
44734 On ch=1 n=62 v=123
44780 Off ch=1 n=60 v=123
44784 Off ch=1 n=54 v=123
44784 Off ch=1 n=66 v=123
44788 Off ch=1 n=50 v=122
44790 Off ch=1 n=62 v=123
44836 On ch=1 n=50 v=122
44836 On ch=1 n=54 v=123
44838 On ch=1 n=60 v=123
44838 On ch=1 n=62 v=123
44838 On ch=1 n=66 v=123
44880 Off ch=1 n=60 v=123
44882 Off ch=1 n=54 v=123
44886 Off ch=1 n=62 v=123
44890 Off ch=1 n=50 v=122
44892 Off ch=1 n=66 v=123
44930 On ch=1 n=50 v=123
44930 On ch=1 n=67 v=123
44932 On ch=1 n=43 v=123
44932 On ch=1 n=55 v=123
44932 On ch=1 n=59 v=123
44932 On ch=1 n=62 v=123
44940 On ch=1 n=66 v=101
44946 Off ch=1 n=66 v=101
44994 Off ch=1 n=62 v=123
44996 Off ch=1 n=59 v=123
44998 Off ch=1 n=67 v=123
45000 Off ch=1 n=55 v=123
45000 Off ch=1 n=43 v=123
45002 Off ch=1 n=50 v=123
46752 On ch=1 n=61 v=113
46752 On ch=1 n=65 v=113
46752 On ch=1 n=68 v=113
46752 On ch=1 n=73 v=113
46774 Off ch=1 n=68 v=113
46776 Off ch=1 n=73 v=113
46776 Off ch=1 n=65 v=113
46782 Off ch=1 n=61 v=113
46848 On ch=1 n=60 v=114
46848 On ch=1 n=64 v=114
46848 On ch=1 n=67 v=114
46848 On ch=1 n=72 v=114
46864 Off ch=1 n=67 v=114
46864 Off ch=1 n=64 v=114
46868 Off ch=1 n=72 v=114
46868 Off ch=1 n=60 v=114
46896 On ch=1 n=60 v=114
46896 On ch=1 n=64 v=114
46896 On ch=1 n=67 v=114
46896 On ch=1 n=72 v=114
46912 Off ch=1 n=64 v=114
46914 Off ch=1 n=72 v=114
46914 Off ch=1 n=67 v=114
46916 Off ch=1 n=60 v=114
46944 On ch=1 n=59 v=114
46944 On ch=1 n=63 v=114
46944 On ch=1 n=66 v=114
46944 On ch=1 n=71 v=114
46962 Off ch=1 n=63 v=114
46972 Off ch=1 n=59 v=114
46974 Off ch=1 n=71 v=114
46976 Off ch=1 n=66 v=114
47040 On ch=1 n=60 v=114
47040 On ch=1 n=64 v=114
47040 On ch=1 n=67 v=114
47040 On ch=1 n=72 v=114
47060 Off ch=1 n=64 v=114
47070 Off ch=1 n=72 v=114
47072 Off ch=1 n=67 v=114
47080 Off ch=1 n=60 v=114
47136 On ch=1 n=61 v=114
47136 On ch=1 n=65 v=114
47136 On ch=1 n=68 v=114
47136 On ch=1 n=73 v=114
47162 Off ch=1 n=68 v=114
47162 Off ch=1 n=65 v=114
47166 Off ch=1 n=73 v=114
47174 Off ch=1 n=61 v=114
47232 On ch=1 n=60 v=114
47232 On ch=1 n=64 v=114
47232 On ch=1 n=67 v=114
47232 On ch=1 n=72 v=114
47246 Off ch=1 n=64 v=114
47250 Off ch=1 n=67 v=114
47252 Off ch=1 n=60 v=114
47256 Off ch=1 n=72 v=114
47280 On ch=1 n=60 v=114
47280 On ch=1 n=64 v=114
47280 On ch=1 n=67 v=114
47280 On ch=1 n=72 v=114
47290 Off ch=1 n=64 v=114
47302 Off ch=1 n=72 v=114
47302 Off ch=1 n=67 v=114
47302 Off ch=1 n=60 v=114
47328 On ch=1 n=59 v=114
47328 On ch=1 n=63 v=114
47328 On ch=1 n=66 v=114
47328 On ch=1 n=71 v=114
47376 Off ch=1 n=63 v=114
47384 Off ch=1 n=71 v=114
47384 Off ch=1 n=66 v=114
47414 Off ch=1 n=59 v=114
47424 On ch=1 n=60 v=122
47424 On ch=1 n=64 v=122
47424 On ch=1 n=67 v=120
47424 On ch=1 n=72 v=120
47462 Off ch=1 n=60 v=122
47486 Off ch=1 n=64 v=122
47488 Off ch=1 n=72 v=120
47520 Off ch=1 n=67 v=120
47520 On ch=1 n=41 v=117
47520 On ch=1 n=53 v=123
47520 On ch=1 n=65 v=123
47520 On ch=1 n=70 v=123
47520 On ch=1 n=74 v=121
47564 Off ch=1 n=53 v=123
47574 Off ch=1 n=41 v=117
47576 Off ch=1 n=65 v=123
47594 Off ch=1 n=70 v=123
47596 Off ch=1 n=74 v=121
47616 On ch=1 n=41 v=122
47616 On ch=1 n=53 v=114
47616 On ch=1 n=65 v=123
47616 On ch=1 n=69 v=123
47616 On ch=1 n=72 v=123
47634 Off ch=1 n=53 v=114
47636 Off ch=1 n=69 v=123
47636 Off ch=1 n=65 v=123
47638 Off ch=1 n=41 v=122
47640 Off ch=1 n=72 v=123
47664 On ch=1 n=41 v=116
47664 On ch=1 n=53 v=118
47664 On ch=1 n=65 v=117
47664 On ch=1 n=69 v=121
47664 On ch=1 n=72 v=116
47676 Off ch=1 n=65 v=117
47678 Off ch=1 n=69 v=121
47682 Off ch=1 n=41 v=116
47686 Off ch=1 n=53 v=118
47690 Off ch=1 n=72 v=116
47712 On ch=1 n=41 v=118
47712 On ch=1 n=53 v=123
47712 On ch=1 n=65 v=120
47712 On ch=1 n=68 v=122
47712 On ch=1 n=71 v=117
47770 Off ch=1 n=65 v=120
47772 Off ch=1 n=41 v=118
47774 Off ch=1 n=68 v=122
47774 Off ch=1 n=53 v=123
47784 Off ch=1 n=71 v=117
47808 On ch=1 n=41 v=117
47808 On ch=1 n=53 v=123
47808 On ch=1 n=65 v=123
47808 On ch=1 n=69 v=123
47808 On ch=1 n=72 v=123
47872 Off ch=1 n=65 v=123
47874 Off ch=1 n=41 v=117
47876 Off ch=1 n=53 v=123
47878 Off ch=1 n=69 v=123
47884 Off ch=1 n=72 v=123
47904 On ch=1 n=41 v=105
47904 On ch=1 n=53 v=119
47904 On ch=1 n=65 v=123
47904 On ch=1 n=70 v=123
47904 On ch=1 n=74 v=118
47918 Off ch=1 n=70 v=123
47920 Off ch=1 n=74 v=118
47920 Off ch=1 n=65 v=123
47920 Off ch=1 n=41 v=105
47922 Off ch=1 n=53 v=119
47952 On ch=1 n=41 v=117
47952 On ch=1 n=53 v=120
47952 On ch=1 n=65 v=120
47952 On ch=1 n=70 v=120
47952 On ch=1 n=74 v=120
47962 Off ch=1 n=74 v=120
47964 Off ch=1 n=65 v=120
47966 Off ch=1 n=41 v=117
47970 Off ch=1 n=53 v=120
47974 Off ch=1 n=70 v=120
48000 On ch=1 n=41 v=120
48000 On ch=1 n=53 v=120
48000 On ch=1 n=65 v=122
48000 On ch=1 n=69 v=122
48000 On ch=1 n=72 v=117
48056 Off ch=1 n=69 v=122
48060 Off ch=1 n=41 v=120
48066 Off ch=1 n=65 v=122
48068 Off ch=1 n=72 v=117
48068 Off ch=1 n=53 v=120
48096 On ch=1 n=41 v=117
48096 On ch=1 n=53 v=120
48096 On ch=1 n=65 v=114
48096 On ch=1 n=68 v=122
48096 On ch=1 n=71 v=117
48108 Off ch=1 n=71 v=117
48114 Off ch=1 n=65 v=114
48114 Off ch=1 n=41 v=117
48118 Off ch=1 n=53 v=120
48120 Off ch=1 n=68 v=122
48144 On ch=1 n=41 v=114
48144 On ch=1 n=53 v=122
48144 On ch=1 n=65 v=93
48144 On ch=1 n=68 v=110
48144 On ch=1 n=71 v=115
48166 Off ch=1 n=65 v=93
48166 Off ch=1 n=41 v=114
48170 Off ch=1 n=53 v=122
48172 Off ch=1 n=68 v=110
48174 Off ch=1 n=71 v=115
48192 On ch=1 n=41 v=119
48192 On ch=1 n=53 v=123
48192 On ch=1 n=65 v=123
48192 On ch=1 n=69 v=123
48192 On ch=1 n=72 v=123
48228 Off ch=1 n=69 v=123
48230 Off ch=1 n=72 v=123
48230 Off ch=1 n=41 v=119
48240 Off ch=1 n=53 v=123
48244 Off ch=1 n=65 v=123
48288 On ch=1 n=46 v=121
48288 On ch=1 n=58 v=122
48288 On ch=1 n=65 v=123
48288 On ch=1 n=70 v=123
48288 On ch=1 n=74 v=121
48342 Off ch=1 n=65 v=123
48346 Off ch=1 n=74 v=121
48350 Off ch=1 n=70 v=123
48354 Off ch=1 n=46 v=121
48360 Off ch=1 n=58 v=122
48384 On ch=1 n=46 v=119
48384 On ch=1 n=58 v=123
48384 On ch=1 n=65 v=123
48384 On ch=1 n=70 v=122
48384 On ch=1 n=74 v=122
48432 On ch=1 n=76 v=117
48444 Off ch=1 n=74 v=122
48446 Off ch=1 n=70 v=122
48450 Off ch=1 n=65 v=123
48452 Off ch=1 n=58 v=123
48454 Off ch=1 n=46 v=119
48462 Off ch=1 n=76 v=117
48480 On ch=1 n=45 v=123
48480 On ch=1 n=57 v=122
48480 On ch=1 n=65 v=122
48480 On ch=1 n=69 v=123
48480 On ch=1 n=72 v=123
48510 Off ch=1 n=72 v=123
48512 Off ch=1 n=69 v=123
48512 Off ch=1 n=57 v=122
48512 Off ch=1 n=45 v=123
48514 Off ch=1 n=65 v=122
48576 On ch=1 n=45 v=123
48576 On ch=1 n=57 v=123
48576 On ch=1 n=65 v=123
48576 On ch=1 n=69 v=123
48576 On ch=1 n=72 v=123
48598 Off ch=1 n=65 v=123
48618 Off ch=1 n=72 v=123
48622 Off ch=1 n=69 v=123
48624 On ch=1 n=65 v=122
48636 Off ch=1 n=57 v=123
48648 Off ch=1 n=45 v=123
48672 On ch=1 n=43 v=123
48672 On ch=1 n=55 v=120
48672 On ch=1 n=67 v=122
48672 On ch=1 n=71 v=123
48708 Off ch=1 n=71 v=123
48710 Off ch=1 n=55 v=120
48710 Off ch=1 n=43 v=123
48710 Off ch=1 n=65 v=122
48712 Off ch=1 n=67 v=122
48768 On ch=1 n=43 v=123
48768 On ch=1 n=55 v=123
48768 On ch=1 n=65 v=123
48768 On ch=1 n=67 v=123
48768 On ch=1 n=71 v=118
48788 Off ch=1 n=67 v=123
48790 Off ch=1 n=43 v=123
48792 Off ch=1 n=65 v=123
48794 Off ch=1 n=71 v=118
48796 Off ch=1 n=55 v=123
48816 On ch=1 n=43 v=113
48816 On ch=1 n=55 v=123
48816 On ch=1 n=65 v=121
48816 On ch=1 n=67 v=122
48816 On ch=1 n=71 v=115
48836 Off ch=1 n=65 v=121
48840 Off ch=1 n=67 v=122
48850 Off ch=1 n=71 v=115
48862 Off ch=1 n=43 v=113
48864 Off ch=1 n=55 v=123
48864 On ch=1 n=48 v=122
48864 On ch=1 n=60 v=122
48864 On ch=1 n=67 v=123
48864 On ch=1 n=72 v=122
48890 Off ch=1 n=60 v=122
48904 Off ch=1 n=67 v=123
48914 Off ch=1 n=72 v=122
48936 Off ch=1 n=48 v=122
48960 On ch=1 n=72 v=123
48980 Off ch=1 n=72 v=123
49008 On ch=1 n=72 v=121
49048 Off ch=1 n=72 v=121
49056 On ch=1 n=70 v=122
49056 On ch=1 n=74 v=119
49092 Off ch=1 n=74 v=119
49104 On ch=1 n=77 v=117
49150 Off ch=1 n=77 v=117
49152 Off ch=1 n=70 v=122
49152 On ch=1 n=69 v=123
49152 On ch=1 n=72 v=121
49200 Off ch=1 n=72 v=121
49200 On ch=1 n=77 v=121
49232 Off ch=1 n=69 v=123
49248 On ch=1 n=68 v=118
49248 On ch=1 n=71 v=118
49250 Off ch=1 n=77 v=121
49292 Off ch=1 n=71 v=118
49296 On ch=1 n=77 v=118
49344 Off ch=1 n=68 v=118
49344 On ch=1 n=67 v=122
49344 On ch=1 n=70 v=123
49348 Off ch=1 n=77 v=118
49388 Off ch=1 n=67 v=122
49392 On ch=1 n=77 v=120
49398 Off ch=1 n=70 v=123
49410 Off ch=1 n=77 v=120
49440 On ch=1 n=61 v=123
49440 On ch=1 n=65 v=120
49440 On ch=1 n=68 v=122
49440 On ch=1 n=73 v=120
49454 Off ch=1 n=65 v=120
49458 Off ch=1 n=68 v=122
49462 Off ch=1 n=73 v=120
49474 Off ch=1 n=61 v=123
49488 On ch=1 n=61 v=123
49488 On ch=1 n=65 v=120
49488 On ch=1 n=68 v=122
49488 On ch=1 n=73 v=120
49502 Off ch=1 n=65 v=120
49506 Off ch=1 n=68 v=122
49510 Off ch=1 n=73 v=120
49522 Off ch=1 n=61 v=123
49536 On ch=1 n=60 v=123
49536 On ch=1 n=64 v=119
49536 On ch=1 n=67 v=119
49536 On ch=1 n=72 v=112
49552 Off ch=1 n=64 v=119
49554 Off ch=1 n=72 v=112
49554 Off ch=1 n=67 v=119
49556 Off ch=1 n=60 v=123
49632 On ch=1 n=59 v=117
49632 On ch=1 n=63 v=117
49632 On ch=1 n=66 v=117
49632 On ch=1 n=71 v=112
49646 Off ch=1 n=63 v=117
49650 Off ch=1 n=59 v=117
49652 Off ch=1 n=71 v=112
49656 Off ch=1 n=66 v=117
49680 On ch=1 n=59 v=117
49680 On ch=1 n=63 v=95
49680 On ch=1 n=66 v=109
49680 On ch=1 n=71 v=102
49704 Off ch=1 n=63 v=95
49706 Off ch=1 n=71 v=102
49706 Off ch=1 n=66 v=109
49728 Off ch=1 n=59 v=117
49728 On ch=1 n=60 v=122
49728 On ch=1 n=64 v=118
49728 On ch=1 n=67 v=113
49728 On ch=1 n=72 v=116
49748 Off ch=1 n=64 v=118
49750 Off ch=1 n=67 v=113
49752 Off ch=1 n=72 v=116
49758 Off ch=1 n=60 v=122
49824 On ch=1 n=61 v=119
49824 On ch=1 n=65 v=115
49824 On ch=1 n=68 v=120
49824 On ch=1 n=73 v=118
49842 Off ch=1 n=65 v=115
49844 Off ch=1 n=68 v=120
49848 Off ch=1 n=61 v=119
49850 Off ch=1 n=73 v=118
49872 On ch=1 n=61 v=117
49872 On ch=1 n=65 v=107
49872 On ch=1 n=68 v=120
49872 On ch=1 n=73 v=120
49882 Off ch=1 n=65 v=107
49890 Off ch=1 n=73 v=120
49892 Off ch=1 n=68 v=120
49906 Off ch=1 n=61 v=117
49920 On ch=1 n=60 v=118
49920 On ch=1 n=64 v=121
49920 On ch=1 n=67 v=117
49920 On ch=1 n=72 v=117
49934 Off ch=1 n=67 v=117
49936 Off ch=1 n=64 v=121
49938 Off ch=1 n=72 v=117
49938 Off ch=1 n=60 v=118
49968 On ch=1 n=60 v=112
49968 On ch=1 n=67 v=108
49968 On ch=1 n=72 v=105
49986 Off ch=1 n=72 v=105
49988 Off ch=1 n=67 v=108
50008 Off ch=1 n=60 v=112
50016 On ch=1 n=59 v=120
50016 On ch=1 n=63 v=123
50016 On ch=1 n=66 v=113
50016 On ch=1 n=71 v=119
50036 Off ch=1 n=66 v=113
50060 Off ch=1 n=63 v=123
50066 Off ch=1 n=71 v=119
50100 Off ch=1 n=59 v=120
50112 On ch=1 n=48 v=123
50112 On ch=1 n=60 v=123
50112 On ch=1 n=64 v=123
50112 On ch=1 n=67 v=123
50112 On ch=1 n=72 v=123
50132 Off ch=1 n=67 v=123
50132 Off ch=1 n=64 v=123
50136 Off ch=1 n=60 v=123
50142 Off ch=1 n=72 v=123
50160 Off ch=1 n=48 v=123
50208 On ch=1 n=41 v=123
50208 On ch=1 n=53 v=123
50208 On ch=1 n=65 v=123
50208 On ch=1 n=69 v=123
50208 On ch=1 n=72 v=123
50208 On ch=1 n=77 v=123
50230 Off ch=1 n=69 v=123
50232 Off ch=1 n=53 v=123
50236 Off ch=1 n=77 v=123
50236 Off ch=1 n=72 v=123
50238 Off ch=1 n=65 v=123
50242 Off ch=1 n=41 v=123
50304 On ch=1 n=36 v=123
50304 On ch=1 n=48 v=123
50304 On ch=1 n=64 v=123
50304 On ch=1 n=67 v=123
50304 On ch=1 n=72 v=123
50318 Off ch=1 n=64 v=123
50322 Off ch=1 n=67 v=123
50326 Off ch=1 n=48 v=123
50332 Off ch=1 n=72 v=123
50338 Off ch=1 n=36 v=123
50400 On ch=1 n=29 v=123
50400 On ch=1 n=41 v=123
50400 On ch=1 n=65 v=123
50400 On ch=1 n=69 v=123
50400 On ch=1 n=72 v=123
50400 On ch=1 n=77 v=123
50504 Off ch=1 n=77 v=123
50506 Off ch=1 n=72 v=123
50510 Off ch=1 n=69 v=123
50512 Off ch=1 n=65 v=123
50536 Off ch=1 n=29 v=123
50542 Off ch=1 n=41 v=123
50544 On ch=1 n=60 v=117
50544 On ch=1 n=64 v=117
50544 On ch=1 n=67 v=117
50558 Off ch=1 n=64 v=117
50558 Off ch=1 n=60 v=117
50562 Off ch=1 n=67 v=117
50592 On ch=1 n=60 v=118
50592 On ch=1 n=64 v=118
50592 On ch=1 n=67 v=118
50602 Off ch=1 n=60 v=118
50632 Off ch=1 n=67 v=118
50640 Off ch=1 n=64 v=118
50640 On ch=1 n=60 v=116
50640 On ch=1 n=65 v=116
50640 On ch=1 n=69 v=116
50658 Off ch=1 n=60 v=116
50688 Off ch=1 n=65 v=116
50688 On ch=1 n=60 v=117
50688 On ch=1 n=67 v=117
50688 On ch=1 n=70 v=117
50698 Off ch=1 n=69 v=116
50702 Off ch=1 n=70 v=117
50730 Off ch=1 n=60 v=117
50736 Off ch=1 n=67 v=117
50736 On ch=1 n=65 v=118
50736 On ch=1 n=69 v=118
50784 Off ch=1 n=65 v=118
50784 On ch=1 n=64 v=123
50784 On ch=1 n=67 v=123
50792 Off ch=1 n=67 v=123
50800 Off ch=1 n=69 v=118
50832 Off ch=1 n=64 v=123
50832 On ch=1 n=41 v=123
50832 On ch=1 n=53 v=123
50832 On ch=1 n=65 v=123
50832 On ch=1 n=69 v=123
50832 On ch=1 n=72 v=123
50832 On ch=1 n=77 v=123
50848 Off ch=1 n=65 v=123
50852 Off ch=1 n=69 v=123
50856 Off ch=1 n=77 v=123
50856 Off ch=1 n=72 v=123
50862 Off ch=1 n=53 v=123
50864 Off ch=1 n=41 v=123
50880 On ch=1 n=41 v=120
50880 On ch=1 n=53 v=123
50880 On ch=1 n=65 v=123
50880 On ch=1 n=69 v=123
50880 On ch=1 n=72 v=123
50880 On ch=1 n=77 v=123
50898 Off ch=1 n=65 v=123
50900 Off ch=1 n=69 v=123
50902 Off ch=1 n=77 v=123
50904 Off ch=1 n=72 v=123
50908 Off ch=1 n=41 v=120
50910 Off ch=1 n=53 v=123
50928 On ch=1 n=41 v=123
50928 On ch=1 n=53 v=123
50928 On ch=1 n=65 v=123
50928 On ch=1 n=69 v=123
50928 On ch=1 n=72 v=123
50928 On ch=1 n=77 v=123
50998 Off ch=1 n=77 v=123
51000 Off ch=1 n=72 v=123
51006 Off ch=1 n=69 v=123
51006 Off ch=1 n=65 v=123
51006 Off ch=1 n=53 v=123
51020 Off ch=1 n=41 v=123
51072 On ch=1 n=36 v=123
51072 On ch=1 n=48 v=123
51072 On ch=1 n=60 v=123
51072 On ch=1 n=64 v=123
51072 On ch=1 n=67 v=123
51072 On ch=1 n=72 v=123
51092 Off ch=1 n=60 v=123
51096 Off ch=1 n=64 v=123
51100 Off ch=1 n=67 v=123
51104 Off ch=1 n=48 v=123
51108 Off ch=1 n=72 v=123
51112 Off ch=1 n=36 v=123
51168 On ch=1 n=29 v=123
51168 On ch=1 n=41 v=123
51168 On ch=1 n=65 v=123
51168 On ch=1 n=69 v=123
51168 On ch=1 n=72 v=123
51168 On ch=1 n=77 v=123
51184 Off ch=1 n=41 v=123
51192 Off ch=1 n=29 v=123
51194 Off ch=1 n=65 v=123
51196 Off ch=1 n=77 v=123
51196 Off ch=1 n=72 v=123
51200 Off ch=1 n=69 v=123
51264 On ch=1 n=36 v=123
51264 On ch=1 n=48 v=123
51264 On ch=1 n=60 v=123
51264 On ch=1 n=64 v=123
51264 On ch=1 n=67 v=123
51264 On ch=1 n=72 v=123
51278 Off ch=1 n=64 v=123
51278 Off ch=1 n=60 v=123
51282 Off ch=1 n=67 v=123
51286 Off ch=1 n=48 v=123
51290 Off ch=1 n=36 v=123
51294 Off ch=1 n=72 v=123
51360 On ch=1 n=29 v=123
51360 On ch=1 n=41 v=123
51360 On ch=1 n=65 v=123
51360 On ch=1 n=69 v=123
51360 On ch=1 n=72 v=123
51360 On ch=1 n=77 v=123
51448 Off ch=1 n=77 v=123
51454 Off ch=1 n=72 v=123
51460 Off ch=1 n=69 v=123
51462 Off ch=1 n=65 v=123
51480 Off ch=1 n=41 v=123
51482 Off ch=1 n=29 v=123
51504 On ch=1 n=60 v=113
51504 On ch=1 n=64 v=113
51504 On ch=1 n=67 v=113
51524 Off ch=1 n=60 v=113
51526 Off ch=1 n=64 v=113
51534 Off ch=1 n=67 v=113
51552 On ch=1 n=64 v=113
51552 On ch=1 n=67 v=113
51582 Off ch=1 n=64 v=113
51594 Off ch=1 n=67 v=113
51600 On ch=1 n=65 v=113
51600 On ch=1 n=69 v=113
51634 Off ch=1 n=65 v=113
51638 Off ch=1 n=69 v=113
51648 On ch=1 n=60 v=113
51648 On ch=1 n=67 v=113
51648 On ch=1 n=70 v=113
51660 Off ch=1 n=60 v=113
51670 Off ch=1 n=70 v=113
51676 Off ch=1 n=67 v=113
51696 On ch=1 n=65 v=113
51696 On ch=1 n=69 v=113
51740 Off ch=1 n=65 v=113
51744 On ch=1 n=64 v=113
51744 On ch=1 n=67 v=113
51758 Off ch=1 n=67 v=113
51758 Off ch=1 n=69 v=113
51792 Off ch=1 n=64 v=113
51792 On ch=1 n=29 v=123
51792 On ch=1 n=41 v=123
51792 On ch=1 n=65 v=123
51792 On ch=1 n=69 v=123
51792 On ch=1 n=72 v=123
51792 On ch=1 n=77 v=123
51806 Off ch=1 n=65 v=123
51808 Off ch=1 n=69 v=123
51812 Off ch=1 n=72 v=123
51818 Off ch=1 n=41 v=123
51820 Off ch=1 n=77 v=123
51826 Off ch=1 n=29 v=123
51840 On ch=1 n=29 v=123
51840 On ch=1 n=41 v=123
51840 On ch=1 n=65 v=123
51840 On ch=1 n=69 v=123
51840 On ch=1 n=72 v=123
51840 On ch=1 n=77 v=123
51858 Off ch=1 n=77 v=123
51858 Off ch=1 n=72 v=123
51858 Off ch=1 n=69 v=123
51860 Off ch=1 n=65 v=123
51880 Off ch=1 n=29 v=123
51884 Off ch=1 n=41 v=123
51888 On ch=1 n=60 v=112
51888 On ch=1 n=64 v=112
51888 On ch=1 n=67 v=112
51908 Off ch=1 n=60 v=112
51910 Off ch=1 n=64 v=112
51918 Off ch=1 n=67 v=112
51936 On ch=1 n=64 v=112
51936 On ch=1 n=67 v=112
51966 Off ch=1 n=64 v=112
51978 Off ch=1 n=67 v=112
51984 On ch=1 n=65 v=112
51984 On ch=1 n=69 v=112
52018 Off ch=1 n=65 v=112
52022 Off ch=1 n=69 v=112
52032 On ch=1 n=60 v=112
52032 On ch=1 n=67 v=112
52032 On ch=1 n=70 v=112
52044 Off ch=1 n=60 v=112
52054 Off ch=1 n=70 v=112
52060 Off ch=1 n=67 v=112
52080 On ch=1 n=65 v=112
52080 On ch=1 n=69 v=112
52124 Off ch=1 n=65 v=112
52128 On ch=1 n=64 v=112
52128 On ch=1 n=67 v=112
52142 Off ch=1 n=67 v=112
52142 Off ch=1 n=69 v=112
52176 Off ch=1 n=64 v=112
52176 On ch=1 n=29 v=123
52176 On ch=1 n=41 v=123
52176 On ch=1 n=65 v=123
52176 On ch=1 n=69 v=123
52176 On ch=1 n=77 v=123
52192 Off ch=1 n=65 v=123
52198 Off ch=1 n=69 v=123
52200 Off ch=1 n=77 v=123
52204 Off ch=1 n=41 v=123
52206 Off ch=1 n=29 v=123
52224 On ch=1 n=29 v=123
52224 On ch=1 n=41 v=123
52224 On ch=1 n=65 v=123
52224 On ch=1 n=69 v=123
52224 On ch=1 n=77 v=123
52244 Off ch=1 n=65 v=123
52250 Off ch=1 n=69 v=123
52252 Off ch=1 n=77 v=123
52258 Off ch=1 n=41 v=123
52258 Off ch=1 n=29 v=123
52272 On ch=1 n=60 v=112
52272 On ch=1 n=64 v=112
52272 On ch=1 n=67 v=112
52292 Off ch=1 n=60 v=112
52294 Off ch=1 n=64 v=112
52302 Off ch=1 n=67 v=112
52320 On ch=1 n=64 v=112
52320 On ch=1 n=67 v=112
52350 Off ch=1 n=64 v=112
52362 Off ch=1 n=67 v=112
52368 On ch=1 n=65 v=112
52368 On ch=1 n=69 v=112
52402 Off ch=1 n=65 v=112
52406 Off ch=1 n=69 v=112
52416 On ch=1 n=60 v=112
52416 On ch=1 n=67 v=112
52416 On ch=1 n=70 v=112
52428 Off ch=1 n=60 v=112
52438 Off ch=1 n=70 v=112
52444 Off ch=1 n=67 v=112
52464 On ch=1 n=65 v=112
52464 On ch=1 n=69 v=112
52508 Off ch=1 n=65 v=112
52512 On ch=1 n=64 v=112
52512 On ch=1 n=67 v=112
52526 Off ch=1 n=67 v=112
52526 Off ch=1 n=69 v=112
52560 Off ch=1 n=64 v=112
52560 On ch=1 n=65 v=123
52608 Off ch=1 n=65 v=123
52608 On ch=1 n=77 v=123
52640 Off ch=1 n=77 v=123
52656 On ch=1 n=77 v=121
52704 On ch=1 n=75 v=122
52752 On ch=1 n=72 v=123
52784 Off ch=1 n=77 v=121
52848 On ch=1 n=68 v=123
52944 On ch=1 n=65 v=123
53040 On ch=1 n=63 v=123
53210 Off ch=1 n=65 v=123
53214 Off ch=1 n=68 v=123
53220 Off ch=1 n=72 v=123
53226 Off ch=1 n=63 v=123
53228 Off ch=1 n=75 v=122
53232 On ch=1 n=48 v=123
53232 On ch=1 n=60 v=123
53232 On ch=1 n=72 v=123
53232 On ch=1 n=84 v=123
53276 Off ch=1 n=60 v=123
53280 Off ch=1 n=72 v=123
53280 Off ch=1 n=48 v=123
53282 Off ch=1 n=84 v=123
53328 On ch=1 n=47 v=123
53328 On ch=1 n=59 v=123
53328 On ch=1 n=71 v=123
53328 On ch=1 n=83 v=123
53356 Off ch=1 n=71 v=123
53370 Off ch=1 n=59 v=123
53376 Off ch=1 n=83 v=123
53376 Off ch=1 n=47 v=123
53424 On ch=1 n=51 v=123
53424 On ch=1 n=63 v=123
53424 On ch=1 n=75 v=123
53424 On ch=1 n=87 v=123
53470 Off ch=1 n=75 v=123
53472 Off ch=1 n=51 v=123
53474 Off ch=1 n=87 v=123
53488 Off ch=1 n=63 v=123
53520 On ch=1 n=50 v=123
53520 On ch=1 n=62 v=123
53520 On ch=1 n=74 v=123
53520 On ch=1 n=86 v=123
53544 Off ch=1 n=74 v=123
53562 Off ch=1 n=86 v=123
53562 Off ch=1 n=62 v=123
53568 Off ch=1 n=50 v=123
53616 On ch=1 n=56 v=123
53616 On ch=1 n=68 v=123
53616 On ch=1 n=80 v=123
53616 On ch=1 n=92 v=123
53644 Off ch=1 n=80 v=123
53648 Off ch=1 n=68 v=123
53662 Off ch=1 n=92 v=123
53664 Off ch=1 n=56 v=123
53712 On ch=1 n=55 v=123
53712 On ch=1 n=67 v=123
53712 On ch=1 n=79 v=123
53712 On ch=1 n=91 v=123
53738 Off ch=1 n=79 v=123
53752 Off ch=1 n=91 v=123
53756 Off ch=1 n=67 v=123
53760 Off ch=1 n=55 v=123
53808 On ch=1 n=48 v=123
53808 On ch=1 n=60 v=123
53808 On ch=1 n=72 v=123
53808 On ch=1 n=84 v=123
53808 On ch=1 n=96 v=123
53856 Off ch=1 n=48 v=123
53862 Off ch=1 n=84 v=123
53864 Off ch=1 n=60 v=123
53868 Off ch=1 n=96 v=123
53870 Off ch=1 n=72 v=123
54288 On ch=1 n=72 v=123
54288 On ch=1 n=76 v=121
54310 Off ch=1 n=72 v=123
54316 Off ch=1 n=76 v=121
54336 On ch=1 n=72 v=123
54336 On ch=1 n=76 v=116
54364 Off ch=1 n=72 v=123
54366 Off ch=1 n=76 v=116
54384 On ch=1 n=74 v=123
54384 On ch=1 n=77 v=122
54406 Off ch=1 n=74 v=123
54420 Off ch=1 n=77 v=122
54432 On ch=1 n=72 v=118
54432 On ch=1 n=76 v=122
54460 Off ch=1 n=72 v=118
54466 Off ch=1 n=76 v=122
54480 On ch=1 n=71 v=123
54480 On ch=1 n=74 v=120
54500 Off ch=1 n=74 v=120
54500 Off ch=1 n=71 v=123
54528 On ch=1 n=69 v=123
54528 On ch=1 n=72 v=123
54550 Off ch=1 n=72 v=123
54550 Off ch=1 n=69 v=123
54576 On ch=1 n=67 v=123
54576 On ch=1 n=71 v=123
54610 Off ch=1 n=71 v=123
54610 Off ch=1 n=67 v=123
54672 On ch=1 n=62 v=123
54672 On ch=1 n=67 v=123
54672 On ch=1 n=71 v=123
54708 Off ch=1 n=62 v=123
54742 Off ch=1 n=67 v=123
54756 Off ch=1 n=71 v=123
54768 On ch=1 n=48 v=119
54768 On ch=1 n=55 v=123
54768 On ch=1 n=60 v=123
54768 On ch=1 n=64 v=123
54768 On ch=1 n=67 v=123
54768 On ch=1 n=72 v=122
54872 Off ch=1 n=64 v=123
54880 Off ch=1 n=72 v=122
54880 Off ch=1 n=67 v=123
54882 Off ch=1 n=60 v=123
54882 Off ch=1 n=48 v=119
54888 Off ch=1 n=55 v=123
54912 On ch=1 n=48 v=121
54912 On ch=1 n=55 v=117
54912 On ch=1 n=60 v=123
54912 On ch=1 n=64 v=123
54912 On ch=1 n=67 v=123
54912 On ch=1 n=72 v=122
54934 Off ch=1 n=64 v=123
54934 Off ch=1 n=48 v=121
54948 Off ch=1 n=60 v=123
54950 Off ch=1 n=72 v=122
54952 Off ch=1 n=67 v=123
54958 Off ch=1 n=55 v=117
54960 On ch=1 n=53 v=122
54960 On ch=1 n=60 v=121
54960 On ch=1 n=65 v=123
54960 On ch=1 n=69 v=123
54960 On ch=1 n=72 v=122
54992 Off ch=1 n=65 v=123
54996 Off ch=1 n=72 v=122
55000 Off ch=1 n=69 v=123
55002 Off ch=1 n=53 v=122
55004 Off ch=1 n=60 v=121
55056 On ch=1 n=53 v=119
55056 On ch=1 n=60 v=122
55056 On ch=1 n=65 v=123
55056 On ch=1 n=69 v=123
55056 On ch=1 n=72 v=123
55076 Off ch=1 n=65 v=123
55078 Off ch=1 n=69 v=123
55082 Off ch=1 n=60 v=122
55084 Off ch=1 n=53 v=119
55086 Off ch=1 n=72 v=123
55104 On ch=1 n=53 v=119
55104 On ch=1 n=60 v=119
55104 On ch=1 n=65 v=122
55104 On ch=1 n=69 v=123
55104 On ch=1 n=72 v=122
55124 Off ch=1 n=65 v=122
55132 Off ch=1 n=60 v=119
55134 Off ch=1 n=69 v=123
55140 Off ch=1 n=72 v=122
55144 Off ch=1 n=53 v=119
55152 On ch=1 n=52 v=123
55152 On ch=1 n=59 v=123
55152 On ch=1 n=64 v=123
55152 On ch=1 n=68 v=122
55152 On ch=1 n=71 v=123
55174 Off ch=1 n=64 v=123
55180 Off ch=1 n=68 v=122
55180 Off ch=1 n=59 v=123
55180 Off ch=1 n=52 v=123
55184 Off ch=1 n=71 v=123
55200 On ch=1 n=52 v=113
55200 On ch=1 n=59 v=123
55200 On ch=1 n=64 v=121
55200 On ch=1 n=68 v=123
55200 On ch=1 n=71 v=120
55224 Off ch=1 n=64 v=121
55226 Off ch=1 n=59 v=123
55226 Off ch=1 n=52 v=113
55228 Off ch=1 n=71 v=120
55230 Off ch=1 n=68 v=123
55248 On ch=1 n=52 v=112
55248 On ch=1 n=59 v=122
55248 On ch=1 n=64 v=123
55248 On ch=1 n=68 v=122
55248 On ch=1 n=71 v=122
55268 Off ch=1 n=64 v=123
55270 Off ch=1 n=59 v=122
55270 Off ch=1 n=52 v=112
55272 Off ch=1 n=71 v=122
55272 Off ch=1 n=68 v=122
55296 On ch=1 n=52 v=122
55296 On ch=1 n=59 v=123
55296 On ch=1 n=64 v=123
55296 On ch=1 n=68 v=123
55296 On ch=1 n=71 v=121
55316 Off ch=1 n=59 v=123
55320 Off ch=1 n=64 v=123
55324 Off ch=1 n=52 v=122
55330 Off ch=1 n=71 v=121
55330 Off ch=1 n=68 v=123
55344 On ch=1 n=45 v=123
55344 On ch=1 n=57 v=123
55344 On ch=1 n=64 v=123
55344 On ch=1 n=69 v=123
55344 On ch=1 n=72 v=122
55382 Off ch=1 n=69 v=123
55384 Off ch=1 n=72 v=122
55388 Off ch=1 n=64 v=123
55388 Off ch=1 n=45 v=123
55392 Off ch=1 n=57 v=123
55440 On ch=1 n=45 v=122
55440 On ch=1 n=57 v=123
55440 On ch=1 n=64 v=123
55440 On ch=1 n=69 v=123
55440 On ch=1 n=72 v=123
55462 Off ch=1 n=45 v=122
55470 Off ch=1 n=69 v=123
55470 Off ch=1 n=64 v=123
55472 Off ch=1 n=57 v=123
55476 Off ch=1 n=72 v=123
55536 On ch=1 n=48 v=121
55536 On ch=1 n=58 v=123
55536 On ch=1 n=60 v=123
55536 On ch=1 n=64 v=123
55536 On ch=1 n=67 v=123
55536 On ch=1 n=70 v=123
55822 Off ch=1 n=48 v=121
55840 Off ch=1 n=58 v=123
55888 Off ch=1 n=60 v=123
55892 Off ch=1 n=67 v=123
55898 Off ch=1 n=64 v=123
55908 Off ch=1 n=70 v=123
55920 On ch=1 n=52 v=123
55920 On ch=1 n=58 v=123
55920 On ch=1 n=60 v=123
55920 On ch=1 n=64 v=123
55920 On ch=1 n=67 v=123
55920 On ch=1 n=70 v=123
55920 On ch=1 n=72 v=123
56208 Off ch=1 n=64 v=123
56212 Off ch=1 n=67 v=123
56216 Off ch=1 n=52 v=123
56222 Off ch=1 n=72 v=123
56222 Off ch=1 n=60 v=123
56224 Off ch=1 n=70 v=123
56226 Off ch=1 n=58 v=123
56304 On ch=1 n=55 v=123
56304 On ch=1 n=58 v=123
56304 On ch=1 n=60 v=123
56304 On ch=1 n=64 v=123
56304 On ch=1 n=67 v=123
56304 On ch=1 n=70 v=123
56304 On ch=1 n=72 v=123
56304 On ch=1 n=76 v=123
56596 Off ch=1 n=67 v=123
56596 Off ch=1 n=60 v=123
56598 Off ch=1 n=55 v=123
56600 Off ch=1 n=70 v=123
56606 Off ch=1 n=72 v=123
56610 Off ch=1 n=64 v=123
56612 Off ch=1 n=76 v=123
56612 Off ch=1 n=58 v=123
56688 On ch=1 n=60 v=123
56688 On ch=1 n=67 v=123
56688 On ch=1 n=70 v=123
56688 On ch=1 n=72 v=123
56688 On ch=1 n=76 v=123
56688 On ch=1 n=82 v=123
56688 On ch=1 n=84 v=123
57186 Off ch=1 n=72 v=123
57188 Off ch=1 n=82 v=123
57188 Off ch=1 n=76 v=123
57190 Off ch=1 n=84 v=123
57192 Off ch=1 n=67 v=123
57194 Off ch=1 n=70 v=123
57196 Off ch=1 n=60 v=123
57216 On ch=1 n=65 v=123
57344 On ch=1 n=57 v=123
57348 Off ch=1 n=65 v=123
57472 On ch=1 n=58 v=122
57478 Off ch=1 n=57 v=123
57568 Par ch=1 c=91 v=60
57584 Off ch=1 n=58 v=122
57600 On ch=1 n=59 v=123
57704 Off ch=1 n=59 v=123
57728 On ch=1 n=60 v=122
57780 Off ch=1 n=60 v=122
57792 On ch=1 n=62 v=123
57844 Off ch=1 n=62 v=123
57856 On ch=1 n=64 v=123
57916 Off ch=1 n=64 v=123
57920 On ch=1 n=65 v=122
57968 Off ch=1 n=65 v=122
57984 On ch=1 n=65 v=122
58112 On ch=1 n=57 v=123
58116 Off ch=1 n=65 v=122
58240 On ch=1 n=58 v=122
58248 Off ch=1 n=57 v=123
58362 Off ch=1 n=58 v=122
58368 On ch=1 n=59 v=123
58432 On ch=1 n=60 v=123
58450 Off ch=1 n=59 v=123
58478 Off ch=1 n=60 v=123
58496 On ch=1 n=62 v=123
58560 On ch=1 n=60 v=123
58580 Off ch=1 n=62 v=123
58724 Off ch=1 n=60 v=123
58752 On ch=1 n=65 v=123
58880 On ch=1 n=57 v=123
58890 Off ch=1 n=65 v=123
59008 On ch=1 n=58 v=122
59010 Off ch=1 n=57 v=123
59118 Off ch=1 n=58 v=122
59136 On ch=1 n=59 v=123
59252 Off ch=1 n=59 v=123
59264 On ch=1 n=60 v=123
59318 Off ch=1 n=60 v=123
59328 On ch=1 n=62 v=123
59386 Off ch=1 n=62 v=123
59392 On ch=1 n=64 v=122
59456 On ch=1 n=65 v=122
59476 Off ch=1 n=64 v=122
59502 Off ch=1 n=65 v=122
59520 On ch=1 n=67 v=123
59648 Off ch=1 n=67 v=123
59648 On ch=1 n=59 v=123
59776 On ch=1 n=60 v=123
59784 Off ch=1 n=59 v=123
59886 Off ch=1 n=60 v=123
59904 On ch=1 n=61 v=122
59954 Off ch=1 n=61 v=122
59968 On ch=1 n=62 v=123
60026 Off ch=1 n=62 v=123
60032 On ch=1 n=64 v=123
60084 Off ch=1 n=64 v=123
60096 On ch=1 n=62 v=123
60176 Off ch=1 n=62 v=123
60288 On ch=1 n=60 v=123
60288 On ch=1 n=67 v=123
60288 On ch=1 n=72 v=123
61230 Off ch=1 n=72 v=123
61276 Off ch=1 n=67 v=123
61376 Off ch=1 n=60 v=123
61440 On ch=1 n=60 v=123
61440 On ch=1 n=65 v=123
61440 On ch=1 n=69 v=123
61440 On ch=1 n=72 v=123
61756 Off ch=1 n=72 v=123
61778 Off ch=1 n=65 v=123
61790 Off ch=1 n=69 v=123
61802 Off ch=1 n=60 v=123
61824 On ch=1 n=60 v=123
61824 On ch=1 n=64 v=123
61824 On ch=1 n=67 v=123
61824 On ch=1 n=72 v=123
62508 Off ch=1 n=67 v=123
62524 Off ch=1 n=64 v=123
62552 Off ch=1 n=60 v=123
62564 Off ch=1 n=72 v=123
62592 On ch=1 n=55 v=122
62592 On ch=1 n=67 v=123
62656 On ch=1 n=58 v=122
62656 On ch=1 n=70 v=122
62664 Off ch=1 n=67 v=123
62670 Off ch=1 n=55 v=122
62710 Off ch=1 n=70 v=122
62720 On ch=1 n=60 v=122
62720 On ch=1 n=72 v=122
62728 Off ch=1 n=58 v=122
62756 Off ch=1 n=72 v=122
62762 Off ch=1 n=60 v=122
62784 On ch=1 n=60 v=117
62784 On ch=1 n=72 v=123
62848 On ch=1 n=58 v=123
62848 On ch=1 n=70 v=123
62854 Off ch=1 n=72 v=123
62864 Off ch=1 n=60 v=117
62894 Off ch=1 n=70 v=123
62912 On ch=1 n=63 v=123
62912 On ch=1 n=67 v=123
62912 On ch=1 n=70 v=123
62912 On ch=1 n=75 v=122
62916 Off ch=1 n=58 v=123
63288 Off ch=1 n=67 v=123
63320 Off ch=1 n=70 v=123
63320 Off ch=1 n=63 v=123
63324 Off ch=1 n=75 v=122
63360 On ch=1 n=60 v=123
63360 On ch=1 n=67 v=123
63360 On ch=1 n=72 v=123
64456 Off ch=1 n=72 v=123
64464 Off ch=1 n=67 v=123
64476 Off ch=1 n=60 v=123
64512 On ch=1 n=53 v=122
64512 On ch=1 n=60 v=123
64512 On ch=1 n=65 v=123
64512 On ch=1 n=69 v=123
64512 On ch=1 n=72 v=123
64782 Off ch=1 n=53 v=122
64814 Off ch=1 n=65 v=123
64840 Off ch=1 n=72 v=123
64844 Off ch=1 n=69 v=123
64848 Off ch=1 n=60 v=123
64896 On ch=1 n=58 v=123
64896 On ch=1 n=62 v=123
64896 On ch=1 n=65 v=123
64896 On ch=1 n=70 v=123
64896 On ch=1 n=74 v=123
65580 Off ch=1 n=65 v=123
65598 Off ch=1 n=62 v=123
65604 Off ch=1 n=74 v=123
65634 Off ch=1 n=70 v=123
65664 On ch=1 n=55 v=122
65664 On ch=1 n=62 v=123
65664 On ch=1 n=67 v=123
65664 On ch=1 n=70 v=123
65664 On ch=1 n=74 v=123
65674 Off ch=1 n=58 v=123
66312 Off ch=1 n=74 v=123
66364 Off ch=1 n=67 v=123
66370 Off ch=1 n=70 v=123
66382 Off ch=1 n=55 v=122
66388 Off ch=1 n=62 v=123
66432 On ch=1 n=60 v=123
66432 On ch=1 n=64 v=123
66432 On ch=1 n=67 v=123
66432 On ch=1 n=72 v=123
66432 On ch=1 n=76 v=123
67108 Off ch=1 n=64 v=123
67138 Off ch=1 n=67 v=123
67168 Off ch=1 n=76 v=123
67174 Off ch=1 n=72 v=123
67200 Off ch=1 n=60 v=123
67200 On ch=1 n=55 v=123
67200 On ch=1 n=62 v=123
67200 On ch=1 n=65 v=123
67200 On ch=1 n=70 v=123
67200 On ch=1 n=74 v=123
67876 Off ch=1 n=65 v=123
67930 Off ch=1 n=55 v=123
67932 Off ch=1 n=74 v=123
67940 Off ch=1 n=70 v=123
67948 Off ch=1 n=62 v=123
67968 On ch=1 n=60 v=123
67968 On ch=1 n=64 v=123
67968 On ch=1 n=67 v=123
67968 On ch=1 n=72 v=123
67968 On ch=1 n=76 v=123
68674 Off ch=1 n=67 v=123
68692 Off ch=1 n=76 v=123
68696 Off ch=1 n=64 v=123
68702 Off ch=1 n=72 v=123
68726 Off ch=1 n=60 v=123
68736 On ch=1 n=55 v=121
68736 On ch=1 n=62 v=123
68736 On ch=1 n=65 v=123
68736 On ch=1 n=70 v=123
68736 On ch=1 n=74 v=123
69010 Off ch=1 n=65 v=123
69088 Off ch=1 n=70 v=123
69096 Off ch=1 n=74 v=123
69108 Off ch=1 n=55 v=121
69114 Off ch=1 n=62 v=123
69120 On ch=1 n=60 v=123
69120 On ch=1 n=64 v=123
69120 On ch=1 n=67 v=123
69120 On ch=1 n=72 v=123
69120 On ch=1 n=76 v=122
69444 Off ch=1 n=67 v=123
69464 Off ch=1 n=76 v=122
69478 Off ch=1 n=64 v=123
69488 Off ch=1 n=72 v=123
69504 Off ch=1 n=60 v=123
69504 On ch=1 n=55 v=123
69504 On ch=1 n=62 v=123
69504 On ch=1 n=65 v=123
69504 On ch=1 n=70 v=123
69504 On ch=1 n=74 v=123
69804 Off ch=1 n=65 v=123
69852 Off ch=1 n=74 v=123
69858 Off ch=1 n=70 v=123
69866 Off ch=1 n=62 v=123
69868 Off ch=1 n=55 v=123
69888 On ch=1 n=60 v=123
69888 On ch=1 n=64 v=123
69888 On ch=1 n=67 v=123
69888 On ch=1 n=72 v=123
69888 On ch=1 n=76 v=121
70194 Off ch=1 n=64 v=123
70214 Off ch=1 n=76 v=121
70220 Off ch=1 n=67 v=123
70246 Off ch=1 n=72 v=123
70268 Off ch=1 n=60 v=123
70272 On ch=1 n=65 v=123
70272 On ch=1 n=77 v=123
70396 Off ch=1 n=77 v=123
70396 Off ch=1 n=65 v=123
70400 On ch=1 n=57 v=123
70400 On ch=1 n=69 v=123
70524 Off ch=1 n=69 v=123
70524 Off ch=1 n=57 v=123
70528 On ch=1 n=58 v=122
70528 On ch=1 n=70 v=122
70652 Off ch=1 n=70 v=122
70652 Off ch=1 n=58 v=122
70656 On ch=1 n=59 v=123
70656 On ch=1 n=71 v=123
70784 On ch=1 n=60 v=120
70784 On ch=1 n=72 v=120
70800 Off ch=1 n=71 v=123
70800 Off ch=1 n=59 v=123
70848 On ch=1 n=62 v=121
70848 On ch=1 n=74 v=121
70864 Off ch=1 n=72 v=120
70864 Off ch=1 n=60 v=120
70912 On ch=1 n=64 v=122
70912 On ch=1 n=76 v=122
70914 Off ch=1 n=74 v=121
70914 Off ch=1 n=62 v=121
70976 On ch=1 n=65 v=123
70976 On ch=1 n=77 v=123
70998 Off ch=1 n=76 v=122
70998 Off ch=1 n=64 v=122
71022 Off ch=1 n=77 v=123
71022 Off ch=1 n=65 v=123
71040 On ch=1 n=65 v=123
71040 On ch=1 n=77 v=123
71164 Off ch=1 n=77 v=123
71164 Off ch=1 n=65 v=123
71168 On ch=1 n=57 v=123
71168 On ch=1 n=69 v=123
71296 On ch=1 n=58 v=122
71296 On ch=1 n=70 v=122
71302 Off ch=1 n=69 v=123
71302 Off ch=1 n=57 v=123
71414 Off ch=1 n=70 v=122
71414 Off ch=1 n=58 v=122
71424 On ch=1 n=59 v=122
71424 On ch=1 n=71 v=122
71488 On ch=1 n=60 v=120
71488 On ch=1 n=72 v=120
71494 Off ch=1 n=71 v=122
71494 Off ch=1 n=59 v=122
71542 Off ch=1 n=72 v=120
71542 Off ch=1 n=60 v=120
71552 On ch=1 n=62 v=123
71552 On ch=1 n=74 v=123
71616 On ch=1 n=60 v=123
71616 On ch=1 n=72 v=123
71620 Off ch=1 n=74 v=123
71620 Off ch=1 n=62 v=123
71794 Off ch=1 n=72 v=123
71794 Off ch=1 n=60 v=123
71808 On ch=1 n=65 v=123
71808 On ch=1 n=77 v=123
71936 On ch=1 n=57 v=123
71936 On ch=1 n=69 v=123
71944 Off ch=1 n=77 v=123
71944 Off ch=1 n=65 v=123
72064 On ch=1 n=58 v=123
72064 On ch=1 n=70 v=123
72068 Off ch=1 n=69 v=123
72068 Off ch=1 n=57 v=123
72186 Off ch=1 n=70 v=123
72186 Off ch=1 n=58 v=123
72192 On ch=1 n=59 v=123
72192 On ch=1 n=71 v=123
72320 On ch=1 n=60 v=119
72320 On ch=1 n=72 v=119
72326 Off ch=1 n=71 v=123
72326 Off ch=1 n=59 v=123
72384 On ch=1 n=62 v=120
72384 On ch=1 n=74 v=120
72386 Off ch=1 n=72 v=119
72386 Off ch=1 n=60 v=119
72440 Off ch=1 n=74 v=120
72440 Off ch=1 n=62 v=120
72448 On ch=1 n=64 v=121
72448 On ch=1 n=76 v=121
72512 On ch=1 n=65 v=121
72512 On ch=1 n=77 v=121
72546 Off ch=1 n=76 v=121
72546 Off ch=1 n=64 v=121
72556 Off ch=1 n=77 v=121
72556 Off ch=1 n=65 v=121
72576 On ch=1 n=67 v=123
72576 On ch=1 n=79 v=123
72700 Off ch=1 n=79 v=123
72700 Off ch=1 n=67 v=123
72704 On ch=1 n=59 v=123
72704 On ch=1 n=71 v=123
72832 On ch=1 n=60 v=122
72832 On ch=1 n=72 v=122
72866 Off ch=1 n=71 v=123
72866 Off ch=1 n=59 v=123
72956 Off ch=1 n=72 v=122
72956 Off ch=1 n=60 v=122
72960 On ch=1 n=62 v=122
72960 On ch=1 n=74 v=122
73074 Off ch=1 n=74 v=122
73074 Off ch=1 n=62 v=122
73088 On ch=1 n=63 v=120
73088 On ch=1 n=75 v=120
73148 Off ch=1 n=75 v=120
73148 Off ch=1 n=63 v=120
73152 On ch=1 n=64 v=123
73152 On ch=1 n=76 v=123
73216 Off ch=1 n=76 v=123
73216 Off ch=1 n=64 v=123
73216 On ch=1 n=65 v=119
73216 On ch=1 n=77 v=119
73262 Off ch=1 n=77 v=119
73262 Off ch=1 n=65 v=119
73280 On ch=1 n=67 v=122
73280 On ch=1 n=79 v=122
73340 Off ch=1 n=79 v=122
73340 Off ch=1 n=67 v=122
73344 On ch=1 n=66 v=122
73344 On ch=1 n=78 v=122
73408 On ch=1 n=68 v=122
73408 On ch=1 n=80 v=122
73428 Off ch=1 n=78 v=122
73428 Off ch=1 n=66 v=122
73472 On ch=1 n=70 v=123
73472 On ch=1 n=82 v=123
73474 Off ch=1 n=80 v=122
73474 Off ch=1 n=68 v=122
73526 Off ch=1 n=82 v=123
73526 Off ch=1 n=70 v=123
73600 On ch=1 n=68 v=122
73600 On ch=1 n=80 v=122
73664 On ch=1 n=70 v=121
73664 On ch=1 n=82 v=121
73668 Off ch=1 n=80 v=122
73668 Off ch=1 n=68 v=122
73728 On ch=1 n=72 v=123
73728 On ch=1 n=84 v=123
73734 Off ch=1 n=82 v=121
73734 Off ch=1 n=70 v=121
73804 Off ch=1 n=84 v=123
73804 Off ch=1 n=72 v=123
73920 On ch=1 n=70 v=122
73920 On ch=1 n=82 v=122
73978 Off ch=1 n=82 v=122
73978 Off ch=1 n=70 v=122
73984 On ch=1 n=72 v=122
73984 On ch=1 n=84 v=122
74048 On ch=1 n=74 v=121
74048 On ch=1 n=86 v=121
74064 Par ch=1 c=91 v=127
74066 Off ch=1 n=84 v=122
74066 Off ch=1 n=72 v=122
74086 Off ch=1 n=86 v=121
74086 Off ch=1 n=74 v=121
74112 On ch=1 n=47 v=123
74112 On ch=1 n=59 v=123
74112 On ch=1 n=66 v=123
74112 On ch=1 n=71 v=123
74112 On ch=1 n=75 v=123
74112 On ch=1 n=78 v=123
74654 Off ch=1 n=75 v=123
74664 Off ch=1 n=71 v=123
74672 Off ch=1 n=78 v=123
74698 Off ch=1 n=66 v=123
74708 Off ch=1 n=47 v=123
74714 Off ch=1 n=59 v=123
74880 On ch=1 n=44 v=123
74880 On ch=1 n=56 v=123
74880 On ch=1 n=63 v=123
74880 On ch=1 n=68 v=123
74880 On ch=1 n=72 v=123
74880 On ch=1 n=75 v=123
75422 Off ch=1 n=72 v=123
75428 Off ch=1 n=63 v=123
75434 Off ch=1 n=68 v=123
75464 Off ch=1 n=75 v=123
75490 Off ch=1 n=56 v=123
75492 Off ch=1 n=44 v=123
75648 On ch=1 n=46 v=123
75648 On ch=1 n=58 v=123
75648 On ch=1 n=65 v=123
75648 On ch=1 n=70 v=123
75648 On ch=1 n=74 v=123
75648 On ch=1 n=77 v=123
77568 Off ch=1 n=77 v=123
77568 Off ch=1 n=74 v=123
77568 Off ch=1 n=70 v=123
77568 Off ch=1 n=65 v=123
77568 Off ch=1 n=58 v=123
77568 Off ch=1 n=46 v=123
77664 On ch=1 n=46 v=115
77664 On ch=1 n=58 v=115
77760 Off ch=1 n=58 v=115
77760 Off ch=1 n=46 v=115
77760 On ch=1 n=45 v=117
77760 On ch=1 n=57 v=117
77856 Off ch=1 n=57 v=117
77856 Off ch=1 n=45 v=117
77856 On ch=1 n=46 v=118
77856 On ch=1 n=58 v=118
77952 Off ch=1 n=58 v=118
77952 Off ch=1 n=46 v=118
77952 On ch=1 n=48 v=119
77952 On ch=1 n=60 v=119
78048 Off ch=1 n=60 v=119
78048 Off ch=1 n=48 v=119
78048 On ch=1 n=46 v=120
78048 On ch=1 n=58 v=120
78144 Off ch=1 n=58 v=120
78144 Off ch=1 n=46 v=120
78144 On ch=1 n=50 v=122
78144 On ch=1 n=62 v=122
78240 Off ch=1 n=62 v=122
78240 Off ch=1 n=50 v=122
78240 On ch=1 n=46 v=123
78240 On ch=1 n=58 v=123
78336 Off ch=1 n=58 v=123
78336 Off ch=1 n=46 v=123
78336 On ch=1 n=51 v=123
78336 On ch=1 n=63 v=123
78432 Off ch=1 n=63 v=123
78432 Off ch=1 n=51 v=123
78432 On ch=1 n=46 v=123
78432 On ch=1 n=58 v=123
78528 Off ch=1 n=58 v=123
78528 Off ch=1 n=46 v=123
78528 On ch=1 n=53 v=123
78528 On ch=1 n=65 v=123
78624 Off ch=1 n=65 v=123
78624 Off ch=1 n=53 v=123
78624 On ch=1 n=46 v=123
78624 On ch=1 n=58 v=123
78720 Off ch=1 n=58 v=123
78720 Off ch=1 n=46 v=123
78720 On ch=1 n=51 v=123
78720 On ch=1 n=55 v=123
78720 On ch=1 n=58 v=123
78720 On ch=1 n=63 v=123
78720 On ch=1 n=67 v=123
78726 Off ch=1 n=67 v=123
78726 Off ch=1 n=63 v=123
78726 On ch=1 n=75 v=122
78728 Off ch=1 n=51 v=123
78728 On ch=1 n=63 v=123
78728 On ch=1 n=67 v=123
78730 On ch=1 n=51 v=123
78730 On ch=1 n=58 v=123
78730 On ch=1 n=70 v=123
78816 Off ch=1 n=58 v=123
78876 Off ch=1 n=58 v=123
78906 Off ch=1 n=55 v=123
78912 On ch=1 n=58 v=123
78944 Off ch=1 n=75 v=122
78946 Off ch=1 n=63 v=123
78948 Off ch=1 n=67 v=123
78950 Off ch=1 n=70 v=123
78954 Off ch=1 n=58 v=123
78958 Off ch=1 n=51 v=123
78960 On ch=1 n=63 v=123
78960 On ch=1 n=67 v=123
78960 On ch=1 n=70 v=121
78960 On ch=1 n=75 v=122
79008 Off ch=1 n=63 v=123
79008 On ch=1 n=51 v=122
79010 Off ch=1 n=67 v=123
79028 Off ch=1 n=75 v=122
79038 Off ch=1 n=70 v=121
79096 Off ch=1 n=51 v=122
79104 On ch=1 n=50 v=123
79104 On ch=1 n=58 v=123
79104 On ch=1 n=62 v=123
79104 On ch=1 n=65 v=123
79104 On ch=1 n=70 v=123
79104 On ch=1 n=74 v=122
79220 Off ch=1 n=58 v=123
79296 On ch=1 n=58 v=122
79304 Off ch=1 n=62 v=123
79310 Off ch=1 n=74 v=122
79314 Off ch=1 n=65 v=123
79320 Off ch=1 n=70 v=123
79342 Off ch=1 n=50 v=123
79344 On ch=1 n=62 v=123
79344 On ch=1 n=65 v=123
79344 On ch=1 n=70 v=122
79344 On ch=1 n=74 v=120
79392 On ch=1 n=50 v=117
79398 Off ch=1 n=74 v=120
79398 Off ch=1 n=65 v=123
79402 Off ch=1 n=70 v=122
79424 Off ch=1 n=62 v=123
79448 Off ch=1 n=58 v=122
79452 Off ch=1 n=50 v=117
79488 On ch=1 n=48 v=122
79488 On ch=1 n=55 v=123
79488 On ch=1 n=60 v=123
79488 On ch=1 n=63 v=123
79488 On ch=1 n=67 v=123
79488 On ch=1 n=72 v=122
79616 Off ch=1 n=55 v=123
79680 On ch=1 n=55 v=123
79684 Off ch=1 n=60 v=123
79690 Off ch=1 n=48 v=122
79728 On ch=1 n=60 v=120
79776 On ch=1 n=48 v=118
79788 Off ch=1 n=72 v=122
79794 Off ch=1 n=67 v=123
79802 Off ch=1 n=63 v=123
79812 Off ch=1 n=60 v=120
79818 Off ch=1 n=48 v=118
79822 Off ch=1 n=55 v=123
79872 On ch=1 n=43 v=123
79872 On ch=1 n=55 v=123
79872 On ch=1 n=59 v=123
79872 On ch=1 n=62 v=123
79872 On ch=1 n=67 v=123
80044 Off ch=1 n=59 v=123
80052 Off ch=1 n=55 v=123
80054 Off ch=1 n=67 v=123
80060 Off ch=1 n=43 v=123
80064 On ch=1 n=48 v=123
80064 On ch=1 n=55 v=123
80064 On ch=1 n=60 v=123
80064 On ch=1 n=63 v=123
80064 On ch=1 n=67 v=123
80076 Off ch=1 n=62 v=123
80138 Off ch=1 n=67 v=123
80148 Off ch=1 n=55 v=123
80150 Off ch=1 n=48 v=123
80152 Off ch=1 n=63 v=123
80152 Off ch=1 n=60 v=123
80256 On ch=1 n=43 v=123
80256 On ch=1 n=55 v=123
80256 On ch=1 n=59 v=123
80256 On ch=1 n=62 v=123
80256 On ch=1 n=67 v=122
80406 Off ch=1 n=59 v=123
80440 Off ch=1 n=55 v=123
80442 Off ch=1 n=67 v=122
80448 On ch=1 n=48 v=123
80448 On ch=1 n=55 v=123
80448 On ch=1 n=60 v=123
80448 On ch=1 n=63 v=123
80448 On ch=1 n=67 v=123
80454 Off ch=1 n=62 v=123
80456 Off ch=1 n=43 v=123
80520 Off ch=1 n=48 v=123
80526 Off ch=1 n=55 v=123
80532 Off ch=1 n=60 v=123
80542 Off ch=1 n=63 v=123
80550 Off ch=1 n=67 v=123
80640 On ch=1 n=46 v=120
80640 On ch=1 n=53 v=123
80640 On ch=1 n=56 v=123
80640 On ch=1 n=58 v=123
80640 On ch=1 n=62 v=123
80640 On ch=1 n=65 v=123
80790 Off ch=1 n=58 v=123
80810 Off ch=1 n=56 v=123
80820 Off ch=1 n=65 v=123
80824 Off ch=1 n=62 v=123
80826 Off ch=1 n=53 v=123
80830 Off ch=1 n=46 v=120
80832 On ch=1 n=51 v=123
80832 On ch=1 n=55 v=123
80832 On ch=1 n=58 v=123
80832 On ch=1 n=63 v=122
80832 On ch=1 n=67 v=123
81006 Off ch=1 n=58 v=123
81012 Off ch=1 n=67 v=123
81020 Off ch=1 n=63 v=122
81020 Off ch=1 n=55 v=123
81020 Off ch=1 n=51 v=123
81024 On ch=1 n=50 v=122
81024 On ch=1 n=60 v=123
81024 On ch=1 n=62 v=123
81024 On ch=1 n=66 v=122
81216 On ch=1 n=67 v=122
81238 Off ch=1 n=66 v=122
81290 Off ch=1 n=67 v=122
81312 On ch=1 n=69 v=123
81366 Off ch=1 n=60 v=123
81376 Off ch=1 n=69 v=123
81408 On ch=1 n=43 v=122
81408 On ch=1 n=58 v=122
81408 On ch=1 n=67 v=121
81408 On ch=1 n=70 v=121
81426 Off ch=1 n=50 v=122
81504 On ch=1 n=50 v=122
81600 On ch=1 n=55 v=123
81622 Off ch=1 n=58 v=122
81696 On ch=1 n=58 v=110
81708 Off ch=1 n=43 v=122
81782 Off ch=1 n=58 v=110
81792 Off ch=1 n=50 v=122
81792 On ch=1 n=44 v=123
81794 Off ch=1 n=67 v=121
81796 Off ch=1 n=55 v=123
81798 Off ch=1 n=62 v=123
81800 Off ch=1 n=70 v=121
81888 On ch=1 n=51 v=121
81984 On ch=1 n=56 v=123
81984 On ch=1 n=60 v=123
81984 On ch=1 n=63 v=123
81984 On ch=1 n=68 v=120
82136 Off ch=1 n=60 v=123
82154 Off ch=1 n=51 v=121
82170 Off ch=1 n=63 v=123
82176 On ch=1 n=51 v=122
82176 On ch=1 n=58 v=117
82176 On ch=1 n=63 v=115
82176 On ch=1 n=67 v=119
82178 Off ch=1 n=56 v=123
82190 Off ch=1 n=68 v=120
82190 Off ch=1 n=44 v=123
82266 Off ch=1 n=51 v=122
82272 On ch=1 n=51 v=109
82362 Off ch=1 n=67 v=119
82364 Off ch=1 n=58 v=117
82368 On ch=1 n=58 v=115
82438 Off ch=1 n=58 v=115
82452 Off ch=1 n=63 v=115
82460 Off ch=1 n=51 v=109
82560 On ch=1 n=48 v=122
82560 On ch=1 n=67 v=123
82560 On ch=1 n=72 v=122
82656 On ch=1 n=55 v=117
82656 On ch=1 n=63 v=120
82666 Off ch=1 n=72 v=122
82682 Off ch=1 n=67 v=123
82752 On ch=1 n=60 v=123
82752 On ch=1 n=67 v=123
82752 On ch=1 n=72 v=122
82754 Off ch=1 n=55 v=117
82764 Off ch=1 n=63 v=120
82846 Off ch=1 n=60 v=123
82848 On ch=1 n=55 v=122
82848 On ch=1 n=63 v=121
82850 Off ch=1 n=48 v=122
82856 Off ch=1 n=67 v=123
82938 Off ch=1 n=55 v=122
82940 Off ch=1 n=63 v=121
82944 On ch=1 n=43 v=121
82944 On ch=1 n=67 v=121
82944 On ch=1 n=70 v=122
82956 Off ch=1 n=72 v=122
83040 On ch=1 n=50 v=114
83040 On ch=1 n=62 v=116
83058 Off ch=1 n=67 v=121
83092 Off ch=1 n=70 v=122
83136 On ch=1 n=55 v=122
83136 On ch=1 n=67 v=123
83136 On ch=1 n=70 v=122
83148 Off ch=1 n=50 v=114
83214 Off ch=1 n=62 v=116
83232 On ch=1 n=50 v=114
83232 On ch=1 n=62 v=122
83236 Off ch=1 n=43 v=121
83270 Off ch=1 n=50 v=114
83294 Off ch=1 n=62 v=122
83322 Off ch=1 n=55 v=122
83328 On ch=1 n=48 v=121
83328 On ch=1 n=63 v=123
83328 On ch=1 n=72 v=122
83334 Off ch=1 n=70 v=122
83424 On ch=1 n=55 v=119
83458 Off ch=1 n=72 v=122
83476 Off ch=1 n=67 v=123
83520 On ch=1 n=60 v=123
83520 On ch=1 n=67 v=123
83520 On ch=1 n=72 v=122
83526 Off ch=1 n=55 v=119
83526 Off ch=1 n=63 v=123
83614 Off ch=1 n=60 v=123
83616 On ch=1 n=55 v=121
83616 On ch=1 n=63 v=121
83620 Off ch=1 n=48 v=121
83630 Off ch=1 n=67 v=123
83650 Off ch=1 n=55 v=121
83696 Off ch=1 n=63 v=121
83712 On ch=1 n=43 v=123
83712 On ch=1 n=62 v=118
83712 On ch=1 n=67 v=122
83712 On ch=1 n=70 v=122
83730 Off ch=1 n=72 v=122
83994 Off ch=1 n=43 v=123
84040 Off ch=1 n=62 v=118
84070 Off ch=1 n=67 v=122
84096 On ch=1 n=48 v=121
84096 On ch=1 n=63 v=123
84096 On ch=1 n=67 v=120
84096 On ch=1 n=72 v=123
84106 Off ch=1 n=70 v=122
84246 Off ch=1 n=67 v=120
84288 On ch=1 n=67 v=18
84332 Off ch=1 n=72 v=123
84384 On ch=1 n=72 v=18
84416 Off ch=1 n=72 v=18
84450 Off ch=1 n=63 v=123
84458 Off ch=1 n=67 v=18
84480 On ch=1 n=44 v=122
84480 On ch=1 n=56 v=120
84480 On ch=1 n=59 v=123
84480 On ch=1 n=63 v=122
84480 On ch=1 n=68 v=122
84504 Off ch=1 n=48 v=121
85156 Off ch=1 n=59 v=123
85202 Off ch=1 n=63 v=122
85208 Off ch=1 n=68 v=122
85244 Off ch=1 n=56 v=120
85248 On ch=1 n=46 v=123
85248 On ch=1 n=60 v=123
85248 On ch=1 n=63 v=122
85248 On ch=1 n=68 v=123
85262 Off ch=1 n=44 v=122
85420 Off ch=1 n=68 v=123
85434 Off ch=1 n=63 v=122
85440 On ch=1 n=63 v=117
85440 On ch=1 n=68 v=120
85478 Off ch=1 n=60 v=123
85536 On ch=1 n=58 v=118
85540 Off ch=1 n=63 v=117
85562 Off ch=1 n=68 v=120
85632 On ch=1 n=60 v=119
85632 On ch=1 n=63 v=118
85632 On ch=1 n=68 v=118
85650 Off ch=1 n=58 v=118
85776 On ch=1 n=58 v=18
85938 Off ch=1 n=58 v=18
85940 Off ch=1 n=68 v=118
85964 Off ch=1 n=63 v=118
85988 Off ch=1 n=60 v=119
86010 Off ch=1 n=46 v=123
86016 On ch=1 n=39 v=117
86016 On ch=1 n=58 v=119
86016 On ch=1 n=63 v=121
86016 On ch=1 n=67 v=122
86112 Off ch=1 n=58 v=119
86112 On ch=1 n=46 v=119
86168 Off ch=1 n=63 v=121
86176 Off ch=1 n=67 v=122
86208 On ch=1 n=51 v=122
86208 On ch=1 n=67 v=123
86214 Off ch=1 n=46 v=119
86216 Off ch=1 n=39 v=117
86304 On ch=1 n=70 v=122
86308 Off ch=1 n=67 v=123
86362 Off ch=1 n=51 v=122
86400 On ch=1 n=56 v=122
86400 On ch=1 n=63 v=117
86400 On ch=1 n=68 v=122
86400 On ch=1 n=72 v=120
86412 Off ch=1 n=70 v=122
86496 On ch=1 n=70 v=123
86496 On ch=1 n=74 v=118
86510 Off ch=1 n=72 v=120
86520 Off ch=1 n=68 v=122
86592 On ch=1 n=68 v=120
86592 On ch=1 n=72 v=121
86594 Off ch=1 n=74 v=118
86606 Off ch=1 n=70 v=123
86688 On ch=1 n=74 v=118
86752 Off ch=1 n=68 v=120
86782 Off ch=1 n=72 v=121
86784 On ch=1 n=55 v=117
86784 On ch=1 n=67 v=122
86784 On ch=1 n=70 v=121
86792 Off ch=1 n=74 v=118
86806 Off ch=1 n=63 v=117
86816 Off ch=1 n=56 v=122
86880 On ch=1 n=63 v=121
86908 Off ch=1 n=67 v=122
86914 Off ch=1 n=70 v=121
86976 On ch=1 n=67 v=121
87068 Off ch=1 n=67 v=121
87072 On ch=1 n=70 v=120
87132 Off ch=1 n=63 v=121
87168 Off ch=1 n=70 v=120
87168 Off ch=1 n=55 v=117
87168 On ch=1 n=54 v=121
87168 On ch=1 n=66 v=122
87168 On ch=1 n=69 v=122
87168 On ch=1 n=72 v=119
87264 On ch=1 n=74 v=117
87278 Off ch=1 n=72 v=119
87358 Off ch=1 n=74 v=117
87360 On ch=1 n=72 v=117
87456 On ch=1 n=74 v=118
87466 Off ch=1 n=69 v=122
87468 Off ch=1 n=72 v=117
87476 Off ch=1 n=66 v=122
87552 On ch=1 n=53 v=120
87552 On ch=1 n=65 v=121
87552 On ch=1 n=70 v=122
87556 Off ch=1 n=74 v=118
87566 Off ch=1 n=54 v=121
87648 On ch=1 n=62 v=122
87658 Off ch=1 n=65 v=121
87744 On ch=1 n=65 v=116
87766 Off ch=1 n=70 v=122
87824 Off ch=1 n=62 v=122
87840 On ch=1 n=70 v=120
87898 Off ch=1 n=65 v=116
87910 Off ch=1 n=70 v=120
87936 On ch=1 n=61 v=121
87936 On ch=1 n=65 v=122
87936 On ch=1 n=70 v=123
88032 On ch=1 n=68 v=118
88054 Off ch=1 n=70 v=123
88100 Off ch=1 n=68 v=118
88128 On ch=1 n=68 v=121
88224 Off ch=1 n=65 v=122
88224 On ch=1 n=67 v=117
88226 Off ch=1 n=68 v=121
88254 Off ch=1 n=61 v=121
88276 Off ch=1 n=67 v=117
88320 On ch=1 n=52 v=115
88320 On ch=1 n=60 v=117
88320 On ch=1 n=64 v=115
88320 On ch=1 n=67 v=121
88336 Off ch=1 n=53 v=120
88394 Off ch=1 n=60 v=117
88416 On ch=1 n=60 v=114
88446 Off ch=1 n=64 v=115
88512 On ch=1 n=64 v=122
88530 Off ch=1 n=67 v=121
88608 On ch=1 n=70 v=117
88662 Off ch=1 n=70 v=117
88704 On ch=1 n=70 v=120
88800 On ch=1 n=68 v=118
88820 Off ch=1 n=70 v=120
88864 Off ch=1 n=68 v=118
88896 On ch=1 n=68 v=115
88966 Off ch=1 n=68 v=115
88970 Off ch=1 n=52 v=115
88992 On ch=1 n=67 v=115
89032 Off ch=1 n=60 v=114
89060 Off ch=1 n=67 v=115
89088 On ch=1 n=36 v=123
89088 On ch=1 n=48 v=120
89088 On ch=1 n=60 v=121
89088 On ch=1 n=67 v=123
89096 Off ch=1 n=64 v=122
89184 Off ch=1 n=60 v=121
89184 On ch=1 n=64 v=122
89188 Off ch=1 n=36 v=123
89280 On ch=1 n=60 v=101
89288 Off ch=1 n=64 v=122
89376 On ch=1 n=58 v=122
89450 Off ch=1 n=60 v=101
89462 Off ch=1 n=58 v=122
89472 Off ch=1 n=48 v=120
89472 On ch=1 n=53 v=123
89472 On ch=1 n=57 v=123
89472 On ch=1 n=60 v=123
89472 On ch=1 n=65 v=123
89560 On ch=1 n=48 v=115
89568 Off ch=1 n=65 v=123
89568 Off ch=1 n=60 v=123
89568 Off ch=1 n=57 v=123
89568 Off ch=1 n=53 v=123
89660 Off ch=1 n=48 v=115
89660 On ch=1 n=53 v=120
89662 Off ch=1 n=67 v=123
89664 On ch=1 n=65 v=120
89770 On ch=1 n=48 v=102
89790 Off ch=1 n=53 v=120
89862 On ch=1 n=62 v=118
89864 On ch=1 n=46 v=119
89864 On ch=1 n=53 v=117
89864 On ch=1 n=58 v=122
89866 Off ch=1 n=65 v=120
89876 Off ch=1 n=48 v=102
89982 Off ch=1 n=62 v=118
89992 On ch=1 n=62 v=105
90078 On ch=1 n=57 v=109
90080 On ch=1 n=60 v=121
90082 On ch=1 n=45 v=120
90086 Off ch=1 n=62 v=105
90090 Off ch=1 n=58 v=122
90092 Off ch=1 n=46 v=119
90168 Off ch=1 n=57 v=109
90186 Off ch=1 n=60 v=121
90206 On ch=1 n=60 v=119
90208 On ch=1 n=57 v=119
90296 Off ch=1 n=57 v=119
90320 Off ch=1 n=60 v=119
90328 On ch=1 n=59 v=114
90330 On ch=1 n=44 v=117
90332 On ch=1 n=56 v=122
90342 Off ch=1 n=45 v=120
90494 On ch=1 n=65 v=119
90654 Off ch=1 n=59 v=114
90676 Off ch=1 n=56 v=122
90680 On ch=1 n=55 v=115
90682 On ch=1 n=43 v=122
90682 On ch=1 n=58 v=122
90706 Off ch=1 n=44 v=117
90728 Off ch=1 n=65 v=119
90906 On ch=1 n=65 v=119
91342 Off ch=1 n=65 v=119
91342 Off ch=1 n=53 v=117
91344 Off ch=1 n=55 v=115
91344 On ch=1 n=41 v=122
91348 Off ch=1 n=58 v=122
91354 Off ch=1 n=43 v=122
91356 On ch=1 n=53 v=122
91368 On ch=1 n=57 v=122
91380 On ch=1 n=60 v=122
91392 On ch=1 n=65 v=123
92496 Off ch=1 n=41 v=122
92532 Off ch=1 n=60 v=122
92556 Off ch=1 n=53 v=122
92568 Off ch=1 n=57 v=122
92640 Off ch=1 n=65 v=123
92928 Par ch=1 c=120 v=0
92930 Par ch=1 c=123 v=0
92930 Meta TrkEnd
TrkEnd
MTrk
0 Meta Text "Bass"
162 Par ch=2 c=121 v=0
202 Par ch=2 c=0 v=0
204 Par ch=2 c=32 v=0
206 PrCh ch=2 p=33
208 Par ch=2 c=7 v=123
208 Par ch=2 c=10 v=64
208 Par ch=2 c=11 v=110
210 Par ch=2 c=91 v=0
210 Par ch=2 c=93 v=60
19212 On ch=2 n=39 v=125
19458 Off ch=2 n=39 v=125
19500 On ch=2 n=39 v=125
19530 Off ch=2 n=39 v=125
19596 On ch=2 n=39 v=125
19788 Off ch=2 n=39 v=125
19788 On ch=2 n=34 v=125
19980 On ch=2 n=36 v=125
19986 Off ch=2 n=34 v=125
20196 Off ch=2 n=36 v=125
20268 On ch=2 n=36 v=125
20300 Off ch=2 n=36 v=125
20364 On ch=2 n=36 v=125
20556 On ch=2 n=31 v=125
20564 Off ch=2 n=36 v=125
20652 On ch=2 n=30 v=125
20658 Off ch=2 n=31 v=125
20748 On ch=2 n=29 v=125
20760 Off ch=2 n=30 v=125
21032 Off ch=2 n=29 v=125
21036 On ch=2 n=40 v=125
21132 On ch=2 n=39 v=125
21144 Off ch=2 n=40 v=125
21324 On ch=2 n=38 v=125
21334 Off ch=2 n=39 v=125
21446 Off ch=2 n=38 v=125
21468 On ch=2 n=36 v=119
21516 On ch=2 n=34 v=125
21540 Off ch=2 n=36 v=119
21762 Off ch=2 n=34 v=125
21804 On ch=2 n=34 v=121
21850 Off ch=2 n=34 v=121
21900 On ch=2 n=34 v=125
21958 Off ch=2 n=34 v=125
21996 On ch=2 n=34 v=125
22072 Off ch=2 n=34 v=125
22092 On ch=2 n=34 v=125
22140 Off ch=2 n=34 v=125
22140 On ch=2 n=36 v=125
22188 Off ch=2 n=36 v=125
22188 On ch=2 n=38 v=125
22280 On ch=2 n=39 v=125
22282 Off ch=2 n=38 v=125
22358 Off ch=2 n=39 v=125
22376 On ch=2 n=39 v=125
22420 Off ch=2 n=39 v=125
22472 On ch=2 n=39 v=125
22534 Off ch=2 n=39 v=125
22568 On ch=2 n=39 v=125
22662 Off ch=2 n=39 v=125
22664 On ch=2 n=38 v=125
22714 Off ch=2 n=38 v=125
22760 On ch=2 n=38 v=125
22816 Off ch=2 n=38 v=125
22856 On ch=2 n=38 v=125
22906 Off ch=2 n=38 v=125
22952 On ch=2 n=38 v=125
23048 Off ch=2 n=38 v=125
23052 On ch=2 n=36 v=125
23120 Off ch=2 n=36 v=125
23148 On ch=2 n=36 v=125
23212 Off ch=2 n=36 v=125
23244 On ch=2 n=36 v=125
23334 Off ch=2 n=36 v=125
23340 On ch=2 n=31 v=125
23434 Off ch=2 n=31 v=125
23436 On ch=2 n=32 v=125
23820 On ch=2 n=27 v=125
23820 On ch=2 n=39 v=125
23830 Off ch=2 n=32 v=125
24840 Off ch=2 n=39 v=125
24844 Off ch=2 n=27 v=125
24960 On ch=2 n=34 v=125
25198 Off ch=2 n=34 v=125
25252 On ch=2 n=34 v=122
25290 Off ch=2 n=34 v=122
25342 On ch=2 n=34 v=124
25674 Off ch=2 n=34 v=124
25726 On ch=2 n=34 v=125
25952 Off ch=2 n=34 v=125
26014 On ch=2 n=34 v=125
26052 Off ch=2 n=34 v=125
26110 On ch=2 n=34 v=125
26302 On ch=2 n=29 v=123
26310 Off ch=2 n=34 v=125
26494 Off ch=2 n=29 v=123
26494 On ch=2 n=34 v=125
26716 Off ch=2 n=34 v=125
26782 On ch=2 n=34 v=122
26822 Off ch=2 n=34 v=122
26878 On ch=2 n=34 v=125
27260 Off ch=2 n=34 v=125
27262 On ch=2 n=31 v=125
27482 Off ch=2 n=31 v=125
27550 On ch=2 n=31 v=123
27596 Off ch=2 n=31 v=123
27646 On ch=2 n=31 v=124
28030 On ch=2 n=36 v=124
28040 Off ch=2 n=31 v=124
28244 Off ch=2 n=36 v=124
28318 On ch=2 n=36 v=122
28356 Off ch=2 n=36 v=122
28414 On ch=2 n=36 v=125
28700 Off ch=2 n=36 v=125
28702 On ch=2 n=31 v=123
28798 On ch=2 n=36 v=125
28808 Off ch=2 n=31 v=123
29080 Off ch=2 n=36 v=125
29086 On ch=2 n=31 v=123
29134 On ch=2 n=30 v=120
29140 Off ch=2 n=31 v=123
29182 On ch=2 n=29 v=125
29194 Off ch=2 n=30 v=120
29372 Off ch=2 n=29 v=125
29374 On ch=2 n=29 v=125
29566 Off ch=2 n=29 v=125
29566 On ch=2 n=34 v=125
29808 Off ch=2 n=34 v=125
29854 On ch=2 n=34 v=121
29926 Off ch=2 n=34 v=121
29950 On ch=2 n=34 v=125
30324 Off ch=2 n=34 v=125
30334 On ch=2 n=31 v=125
30520 Off ch=2 n=31 v=125
30526 On ch=2 n=34 v=124
30622 On ch=2 n=38 v=122
30628 Off ch=2 n=34 v=124
30718 On ch=2 n=43 v=125
30722 Off ch=2 n=38 v=122
31004 Off ch=2 n=43 v=125
31006 On ch=2 n=38 v=125
31102 On ch=2 n=36 v=124
31122 Off ch=2 n=38 v=125
31390 On ch=2 n=35 v=125
31392 Off ch=2 n=36 v=124
31482 Off ch=2 n=35 v=125
31486 On ch=2 n=34 v=125
31678 On ch=2 n=33 v=125
31682 Off ch=2 n=34 v=125
31866 Off ch=2 n=33 v=125
31870 On ch=2 n=32 v=125
32254 On ch=2 n=31 v=124
32264 Off ch=2 n=32 v=125
32440 Off ch=2 n=31 v=124
32446 On ch=2 n=34 v=121
32638 On ch=2 n=39 v=125
32644 Off ch=2 n=34 v=121
32808 Off ch=2 n=39 v=125
32830 On ch=2 n=39 v=123
32876 Off ch=2 n=39 v=123
32926 On ch=2 n=39 v=123
32972 Off ch=2 n=39 v=123
33022 On ch=2 n=39 v=124
33072 Off ch=2 n=39 v=124
33118 On ch=2 n=39 v=123
33200 Off ch=2 n=39 v=123
33214 On ch=2 n=38 v=124
33282 Off ch=2 n=38 v=124
33310 On ch=2 n=38 v=123
33388 Off ch=2 n=38 v=123
33406 On ch=2 n=36 v=123
33460 Off ch=2 n=36 v=123
33502 On ch=2 n=36 v=122
33540 Off ch=2 n=36 v=122
33598 On ch=2 n=36 v=123
33682 Off ch=2 n=36 v=123
33694 On ch=2 n=31 v=125
33758 Off ch=2 n=31 v=125
33790 On ch=2 n=36 v=123
33866 Off ch=2 n=36 v=123
33886 On ch=2 n=36 v=121
33952 Off ch=2 n=36 v=121
33982 On ch=2 n=36 v=123
34008 Off ch=2 n=36 v=123
34030 On ch=2 n=36 v=122
34076 Off ch=2 n=36 v=122
34078 On ch=2 n=31 v=122
34126 On ch=2 n=30 v=125
34128 Off ch=2 n=31 v=122
34172 Off ch=2 n=30 v=125
34174 On ch=2 n=29 v=123
34256 Off ch=2 n=29 v=123
34270 On ch=2 n=29 v=122
34324 Off ch=2 n=29 v=122
34366 On ch=2 n=29 v=120
34446 Off ch=2 n=29 v=120
34462 On ch=2 n=41 v=125
34502 Off ch=2 n=41 v=125
34510 On ch=2 n=40 v=125
34558 On ch=2 n=39 v=125
34564 Off ch=2 n=40 v=125
34636 Off ch=2 n=39 v=125
34654 On ch=2 n=39 v=120
34750 On ch=2 n=38 v=125
34752 Off ch=2 n=39 v=120
34818 Off ch=2 n=38 v=125
34846 On ch=2 n=38 v=125
34894 On ch=2 n=36 v=121
34904 Off ch=2 n=38 v=125
34942 Off ch=2 n=36 v=121
34942 On ch=2 n=34 v=125
35024 Off ch=2 n=34 v=125
35038 On ch=2 n=34 v=121
35086 Off ch=2 n=34 v=121
35134 On ch=2 n=34 v=122
35188 Off ch=2 n=34 v=122
35230 On ch=2 n=34 v=123
35278 Off ch=2 n=34 v=123
35326 On ch=2 n=34 v=125
35386 Off ch=2 n=34 v=125
35422 On ch=2 n=34 v=125
35476 Off ch=2 n=34 v=125
35518 On ch=2 n=34 v=123
35564 Off ch=2 n=34 v=123
35566 On ch=2 n=36 v=124
35614 On ch=2 n=38 v=125
35618 Off ch=2 n=36 v=124
35690 Off ch=2 n=38 v=125
35710 On ch=2 n=39 v=122
35946 Off ch=2 n=39 v=122
35998 On ch=2 n=39 v=120
36088 Off ch=2 n=39 v=120
36094 On ch=2 n=38 v=123
36320 Off ch=2 n=38 v=123
36382 On ch=2 n=38 v=124
36478 Off ch=2 n=38 v=124
36478 On ch=2 n=36 v=122
36724 Off ch=2 n=36 v=122
36766 On ch=2 n=36 v=119
36802 Off ch=2 n=36 v=119
36862 On ch=2 n=36 v=122
37054 Off ch=2 n=36 v=122
37054 On ch=2 n=31 v=122
37150 On ch=2 n=30 v=120
37154 Off ch=2 n=31 v=122
37246 On ch=2 n=29 v=123
37250 Off ch=2 n=30 v=120
37530 Off ch=2 n=29 v=123
37534 On ch=2 n=41 v=122
37582 On ch=2 n=40 v=121
37588 Off ch=2 n=41 v=122
37630 On ch=2 n=39 v=123
37644 Off ch=2 n=40 v=121
37812 Off ch=2 n=39 v=123
37822 On ch=2 n=38 v=125
38014 On ch=2 n=34 v=125
38024 Off ch=2 n=38 v=125
38272 Off ch=2 n=34 v=125
38302 On ch=2 n=34 v=119
38346 Off ch=2 n=34 v=119
38398 On ch=2 n=34 v=123
38638 On ch=2 n=36 v=121
38642 Off ch=2 n=34 v=123
38686 On ch=2 n=38 v=124
38688 Off ch=2 n=36 v=121
38782 On ch=2 n=39 v=123
38788 Off ch=2 n=38 v=124
38944 Off ch=2 n=39 v=123
38974 On ch=2 n=39 v=119
39028 Off ch=2 n=39 v=119
39070 On ch=2 n=39 v=122
39166 On ch=2 n=38 v=125
39168 Off ch=2 n=39 v=122
39346 Off ch=2 n=38 v=125
39358 On ch=2 n=38 v=121
39388 Off ch=2 n=38 v=121
39454 On ch=2 n=38 v=125
39550 On ch=2 n=36 v=125
39566 Off ch=2 n=38 v=125
39822 Off ch=2 n=36 v=125
39838 On ch=2 n=31 v=121
39886 On ch=2 n=34 v=122
39902 Off ch=2 n=31 v=121
39930 Off ch=2 n=34 v=122
39934 On ch=2 n=36 v=124
40126 On ch=2 n=31 v=122
40128 Off ch=2 n=36 v=124
40222 On ch=2 n=30 v=122
40230 Off ch=2 n=31 v=122
40312 Off ch=2 n=30 v=122
40318 On ch=2 n=29 v=124
40602 Off ch=2 n=29 v=124
40606 On ch=2 n=41 v=125
40654 On ch=2 n=40 v=121
40662 Off ch=2 n=41 v=125
40702 On ch=2 n=39 v=125
40712 Off ch=2 n=40 v=121
40886 Off ch=2 n=39 v=125
40894 On ch=2 n=38 v=125
41086 Off ch=2 n=38 v=125
41086 On ch=2 n=37 v=125
41326 Off ch=2 n=37 v=123
41326 On ch=2 n=37 v=123
41398 On ch=2 n=36 v=125
41470 On ch=2 n=35 v=125
41478 Off ch=2 n=36 v=125
41566 Off ch=2 n=37 v=125
41662 Off ch=2 n=35 v=125
41662 On ch=2 n=34 v=125
41846 Off ch=2 n=34 v=125
41854 On ch=2 n=33 v=125
41922 Off ch=2 n=33 v=125
43294 On ch=2 n=37 v=125
43322 Off ch=2 n=37 v=125
43342 On ch=2 n=37 v=124
43380 Off ch=2 n=37 v=124
43390 On ch=2 n=38 v=125
43472 Off ch=2 n=38 v=125
43486 On ch=2 n=37 v=124
43510 Off ch=2 n=37 v=124
43534 On ch=2 n=37 v=125
43562 Off ch=2 n=37 v=125
43582 On ch=2 n=38 v=125
43660 Off ch=2 n=38 v=125
43678 On ch=2 n=37 v=125
43702 Off ch=2 n=37 v=125
43726 On ch=2 n=37 v=125
43762 Off ch=2 n=37 v=125
43774 On ch=2 n=36 v=123
43804 Off ch=2 n=36 v=123
43822 On ch=2 n=36 v=122
43860 Off ch=2 n=36 v=122
43870 On ch=2 n=37 v=125
43914 Off ch=2 n=37 v=125
43966 On ch=2 n=38 v=125
44028 Off ch=2 n=38 v=125
44062 On ch=2 n=37 v=125
44108 Off ch=2 n=37 v=125
44158 On ch=2 n=36 v=125
44188 Off ch=2 n=36 v=125
44206 On ch=2 n=36 v=120
44236 Off ch=2 n=36 v=120
44254 On ch=2 n=36 v=116
44294 Off ch=2 n=36 v=116
44302 On ch=2 n=31 v=125
44338 Off ch=2 n=31 v=125
44350 On ch=2 n=35 v=125
44400 Off ch=2 n=35 v=125
44446 On ch=2 n=35 v=125
44494 Off ch=2 n=35 v=125
44542 On ch=2 n=34 v=125
44590 Off ch=2 n=34 v=125
44590 On ch=2 n=33 v=125
44622 Off ch=2 n=33 v=125
44638 On ch=2 n=32 v=125
44682 Off ch=2 n=32 v=125
44686 On ch=2 n=31 v=125
44722 Off ch=2 n=31 v=125
44734 On ch=2 n=30 v=125
44798 Off ch=2 n=30 v=125
44830 On ch=2 n=26 v=125
44830 On ch=2 n=28 v=125
44844 Off ch=2 n=28 v=125
44888 Off ch=2 n=26 v=125
44926 On ch=2 n=31 v=125
44994 Off ch=2 n=31 v=125
47518 On ch=2 n=29 v=125
47582 Off ch=2 n=29 v=125
47614 On ch=2 n=29 v=125
47636 Off ch=2 n=29 v=125
47662 On ch=2 n=29 v=124
47682 Off ch=2 n=29 v=124
47710 On ch=2 n=29 v=125
47784 Off ch=2 n=29 v=125
47806 On ch=2 n=29 v=125
47876 Off ch=2 n=29 v=125
47902 On ch=2 n=29 v=125
47924 Off ch=2 n=29 v=125
47950 On ch=2 n=29 v=123
47974 Off ch=2 n=29 v=123
47998 On ch=2 n=29 v=125
48072 Off ch=2 n=29 v=125
48094 On ch=2 n=29 v=125
48120 Off ch=2 n=29 v=125
48142 On ch=2 n=29 v=122
48174 Off ch=2 n=29 v=122
48190 On ch=2 n=29 v=125
48280 Off ch=2 n=29 v=125
48286 On ch=2 n=34 v=125
48358 Off ch=2 n=34 v=125
48382 On ch=2 n=34 v=125
48414 Off ch=2 n=34 v=125
48430 On ch=2 n=34 v=119
48470 Off ch=2 n=34 v=119
48478 On ch=2 n=33 v=125
48542 Off ch=2 n=33 v=125
48574 On ch=2 n=33 v=125
48602 Off ch=2 n=33 v=125
48622 On ch=2 n=33 v=123
48660 Off ch=2 n=33 v=123
48670 On ch=2 n=31 v=125
48748 Off ch=2 n=31 v=125
48766 On ch=2 n=31 v=123
48788 Off ch=2 n=31 v=123
48814 On ch=2 n=31 v=123
48862 On ch=2 n=36 v=125
48864 Off ch=2 n=31 v=123
48934 Off ch=2 n=36 v=125
49438 On ch=2 n=37 v=118
49468 Off ch=2 n=37 v=118
49486 On ch=2 n=37 v=106
49528 Off ch=2 n=37 v=106
49534 On ch=2 n=36 v=121
49570 Off ch=2 n=36 v=121
49630 On ch=2 n=35 v=116
49654 Off ch=2 n=35 v=116
49678 On ch=2 n=35 v=111
49720 Off ch=2 n=35 v=111
49726 On ch=2 n=36 v=118
49774 Off ch=2 n=36 v=118
49822 On ch=2 n=37 v=118
49840 Off ch=2 n=37 v=118
49870 On ch=2 n=37 v=118
49900 Off ch=2 n=37 v=118
49918 On ch=2 n=36 v=117
49948 Off ch=2 n=36 v=117
49966 On ch=2 n=36 v=114
50014 Off ch=2 n=36 v=114
50014 On ch=2 n=35 v=120
50098 Off ch=2 n=35 v=120
50110 On ch=2 n=36 v=125
50150 Off ch=2 n=36 v=125
50206 On ch=2 n=29 v=125
50248 Off ch=2 n=29 v=125
50302 On ch=2 n=36 v=125
50352 Off ch=2 n=36 v=125
50398 On ch=2 n=29 v=125
50398 On ch=2 n=41 v=125
50526 Off ch=2 n=41 v=125
50536 Off ch=2 n=29 v=125
50830 On ch=2 n=29 v=125
50830 On ch=2 n=41 v=125
50856 Off ch=2 n=41 v=125
50856 Off ch=2 n=29 v=125
50878 On ch=2 n=29 v=124
50878 On ch=2 n=41 v=125
50902 Off ch=2 n=41 v=125
50904 Off ch=2 n=29 v=124
50926 On ch=2 n=29 v=125
50926 On ch=2 n=41 v=125
51042 Off ch=2 n=41 v=125
51070 On ch=2 n=36 v=125
51074 Off ch=2 n=29 v=125
51118 Off ch=2 n=36 v=125
51166 On ch=2 n=29 v=125
51166 On ch=2 n=41 v=125
51214 Off ch=2 n=29 v=125
51226 Off ch=2 n=41 v=125
51262 On ch=2 n=36 v=125
51306 Off ch=2 n=36 v=125
51358 On ch=2 n=29 v=125
51358 On ch=2 n=41 v=125
51490 Off ch=2 n=41 v=125
51492 Off ch=2 n=29 v=125
51790 On ch=2 n=29 v=123
51790 On ch=2 n=41 v=125
51814 Off ch=2 n=41 v=125
51814 Off ch=2 n=29 v=123
51838 On ch=2 n=29 v=124
51838 On ch=2 n=41 v=125
51862 Off ch=2 n=41 v=125
51862 Off ch=2 n=29 v=124
51886 On ch=2 n=29 v=125
51886 On ch=2 n=41 v=125
51952 Off ch=2 n=29 v=125
51958 Off ch=2 n=41 v=125
52174 On ch=2 n=29 v=125
52174 On ch=2 n=41 v=125
52200 Off ch=2 n=29 v=125
52202 Off ch=2 n=41 v=125
52222 On ch=2 n=29 v=125
52222 On ch=2 n=41 v=125
52246 Off ch=2 n=41 v=125
52248 Off ch=2 n=29 v=125
52270 On ch=2 n=29 v=125
52270 On ch=2 n=41 v=125
52348 Off ch=2 n=41 v=125
52352 Off ch=2 n=29 v=125
53230 On ch=2 n=43 v=125
53306 Off ch=2 n=43 v=125
53330 On ch=2 n=41 v=125
53408 Off ch=2 n=41 v=125
53422 On ch=2 n=38 v=125
53482 Off ch=2 n=38 v=125
53518 On ch=2 n=35 v=125
53590 Off ch=2 n=35 v=125
53614 On ch=2 n=32 v=125
53680 Off ch=2 n=32 v=125
53708 On ch=2 n=31 v=125
53770 Off ch=2 n=31 v=125
53806 On ch=2 n=36 v=98
53810 On ch=2 n=24 v=125
53854 Off ch=2 n=24 v=125
53898 Off ch=2 n=36 v=98
54286 On ch=2 n=43 v=121
54308 Off ch=2 n=43 v=121
54334 On ch=2 n=43 v=123
54360 Off ch=2 n=43 v=123
54382 On ch=2 n=45 v=121
54408 Off ch=2 n=45 v=121
54430 On ch=2 n=43 v=122
54452 Off ch=2 n=43 v=122
54478 On ch=2 n=41 v=125
54500 Off ch=2 n=41 v=125
54526 On ch=2 n=40 v=122
54552 Off ch=2 n=40 v=122
54574 On ch=2 n=38 v=121
54650 Off ch=2 n=38 v=121
54766 On ch=2 n=36 v=123
54766 On ch=2 n=38 v=110
54788 Off ch=2 n=38 v=110
54884 Off ch=2 n=36 v=123
54910 On ch=2 n=36 v=122
54954 Off ch=2 n=36 v=122
54958 On ch=2 n=33 v=121
55052 Off ch=2 n=33 v=121
55054 On ch=2 n=33 v=120
55076 Off ch=2 n=33 v=120
55102 On ch=2 n=33 v=118
55128 Off ch=2 n=33 v=118
55150 On ch=2 n=35 v=124
55262 Off ch=2 n=35 v=124
55294 On ch=2 n=35 v=124
55328 Off ch=2 n=35 v=124
55342 On ch=2 n=40 v=123
55456 Off ch=2 n=40 v=123
55486 On ch=2 n=40 v=123
55530 Off ch=2 n=40 v=123
55534 On ch=2 n=36 v=123
55788 Off ch=2 n=36 v=123
55822 On ch=2 n=36 v=123
55886 Off ch=2 n=36 v=123
55918 On ch=2 n=36 v=122
56230 Off ch=2 n=36 v=122
56254 On ch=2 n=36 v=122
56280 Off ch=2 n=36 v=122
56302 On ch=2 n=36 v=123
56350 Off ch=2 n=36 v=123
57214 On ch=2 n=41 v=125
57340 Off ch=2 n=41 v=125
57342 On ch=2 n=33 v=124
57456 Off ch=2 n=33 v=124
57470 On ch=2 n=34 v=124
57590 Off ch=2 n=34 v=124
57598 On ch=2 n=35 v=125
57726 On ch=2 n=36 v=124
57730 Off ch=2 n=35 v=125
57790 On ch=2 n=38 v=119
57800 Off ch=2 n=36 v=124
57848 Off ch=2 n=38 v=119
57854 On ch=2 n=40 v=120
57904 Off ch=2 n=40 v=120
57918 On ch=2 n=41 v=123
57952 Off ch=2 n=41 v=123
57982 On ch=2 n=41 v=124
58110 On ch=2 n=33 v=124
58122 Off ch=2 n=41 v=124
58238 On ch=2 n=34 v=121
58260 Off ch=2 n=33 v=124
58336 Off ch=2 n=34 v=121
58366 On ch=2 n=35 v=121
58426 Off ch=2 n=35 v=121
58430 On ch=2 n=36 v=118
58482 Off ch=2 n=36 v=118
58494 On ch=2 n=38 v=118
58556 Off ch=2 n=38 v=118
58558 On ch=2 n=36 v=124
58750 On ch=2 n=41 v=125
58760 Off ch=2 n=36 v=124
58878 On ch=2 n=33 v=123
58880 Off ch=2 n=41 v=125
59006 On ch=2 n=34 v=124
59010 Off ch=2 n=33 v=123
59130 Off ch=2 n=34 v=124
59134 On ch=2 n=35 v=125
59252 Off ch=2 n=35 v=125
59262 On ch=2 n=36 v=122
59326 On ch=2 n=38 v=122
59332 Off ch=2 n=36 v=122
59380 Off ch=2 n=38 v=122
59390 On ch=2 n=40 v=122
59436 Off ch=2 n=40 v=122
59454 On ch=2 n=41 v=119
59492 Off ch=2 n=41 v=119
59518 On ch=2 n=43 v=125
59646 Off ch=2 n=43 v=125
59646 On ch=2 n=35 v=125
59774 On ch=2 n=36 v=121
59810 Off ch=2 n=35 v=125
59868 Off ch=2 n=36 v=121
59902 On ch=2 n=37 v=119
59960 Off ch=2 n=37 v=119
59966 On ch=2 n=38 v=122
60016 Off ch=2 n=38 v=122
60030 On ch=2 n=40 v=122
60094 On ch=2 n=38 v=125
60096 Off ch=2 n=40 v=122
60274 Off ch=2 n=38 v=125
60286 On ch=2 n=36 v=125
60368 Off ch=2 n=36 v=125
60414 On ch=2 n=36 v=119
60448 Off ch=2 n=36 v=119
60478 On ch=2 n=36 v=120
60578 Off ch=2 n=36 v=120
60606 On ch=2 n=36 v=104
60630 Off ch=2 n=36 v=104
60670 On ch=2 n=36 v=114
60766 Off ch=2 n=36 v=114
60798 On ch=2 n=36 v=119
60822 Off ch=2 n=36 v=119
60862 On ch=2 n=36 v=122
60964 Off ch=2 n=36 v=122
60990 On ch=2 n=36 v=110
61018 Off ch=2 n=36 v=110
61054 On ch=2 n=36 v=116
61144 Off ch=2 n=36 v=116
61182 On ch=2 n=36 v=120
61216 Off ch=2 n=36 v=120
61246 On ch=2 n=36 v=121
61316 Off ch=2 n=36 v=121
61374 On ch=2 n=36 v=116
61434 Off ch=2 n=36 v=116
61438 On ch=2 n=29 v=125
61604 Off ch=2 n=29 v=125
61630 On ch=2 n=29 v=125
61810 Off ch=2 n=29 v=125
61822 On ch=2 n=36 v=123
61902 Off ch=2 n=36 v=123
61950 On ch=2 n=36 v=111
61986 Off ch=2 n=36 v=111
62014 On ch=2 n=36 v=112
62078 Off ch=2 n=36 v=112
62142 On ch=2 n=36 v=121
62184 Off ch=2 n=36 v=121
62206 On ch=2 n=36 v=115
62298 Off ch=2 n=36 v=115
62334 On ch=2 n=36 v=114
62368 Off ch=2 n=36 v=114
62398 On ch=2 n=36 v=119
62490 Off ch=2 n=36 v=119
62526 On ch=2 n=36 v=110
62590 On ch=2 n=31 v=120
62596 Off ch=2 n=36 v=110
62638 Off ch=2 n=31 v=120
62654 On ch=2 n=34 v=120
62702 Off ch=2 n=34 v=120
62718 On ch=2 n=36 v=114
62750 Off ch=2 n=36 v=114
62782 On ch=2 n=36 v=124
62844 Off ch=2 n=36 v=124
62846 On ch=2 n=34 v=123
62888 Off ch=2 n=34 v=123
62910 On ch=2 n=39 v=125
63230 On ch=2 n=34 v=123
63240 Off ch=2 n=39 v=125
63274 Off ch=2 n=34 v=123
63294 On ch=2 n=35 v=121
63338 Off ch=2 n=35 v=121
63358 On ch=2 n=36 v=120
63452 Off ch=2 n=36 v=120
63486 On ch=2 n=36 v=116
63508 Off ch=2 n=36 v=116
63550 On ch=2 n=36 v=119
63642 Off ch=2 n=36 v=119
63678 On ch=2 n=36 v=111
63718 Off ch=2 n=36 v=111
63742 On ch=2 n=36 v=113
63832 Off ch=2 n=36 v=113
63870 On ch=2 n=36 v=115
63906 Off ch=2 n=36 v=115
63934 On ch=2 n=36 v=114
63984 Off ch=2 n=36 v=114
63998 On ch=2 n=34 v=119
64034 Off ch=2 n=34 v=119
64062 On ch=2 n=35 v=112
64090 Off ch=2 n=35 v=112
64126 On ch=2 n=36 v=123
64218 Off ch=2 n=36 v=123
64254 On ch=2 n=36 v=112
64292 Off ch=2 n=36 v=112
64318 On ch=2 n=36 v=116
64410 Off ch=2 n=36 v=116
64446 On ch=2 n=36 v=122
64502 Off ch=2 n=36 v=122
64510 On ch=2 n=29 v=123
64608 Off ch=2 n=29 v=123
64638 On ch=2 n=29 v=119
64686 Off ch=2 n=29 v=119
64702 On ch=2 n=29 v=123
64790 Off ch=2 n=29 v=123
64830 On ch=2 n=29 v=112
64876 Off ch=2 n=29 v=112
64894 On ch=2 n=34 v=122
64968 Off ch=2 n=34 v=122
65022 On ch=2 n=34 v=118
65072 Off ch=2 n=34 v=118
65086 On ch=2 n=34 v=121
65168 Off ch=2 n=34 v=121
65214 On ch=2 n=34 v=121
65264 Off ch=2 n=34 v=121
65278 On ch=2 n=34 v=121
65340 Off ch=2 n=34 v=121
65406 On ch=2 n=34 v=121
65448 Off ch=2 n=34 v=121
65470 On ch=2 n=34 v=124
65516 Off ch=2 n=34 v=124
65534 On ch=2 n=34 v=122
65578 Off ch=2 n=34 v=122
65598 On ch=2 n=33 v=120
65660 Off ch=2 n=33 v=120
65662 On ch=2 n=31 v=123
65764 Off ch=2 n=31 v=123
65790 On ch=2 n=31 v=121
65822 Off ch=2 n=31 v=121
65854 On ch=2 n=31 v=119
65942 Off ch=2 n=31 v=119
65982 On ch=2 n=31 v=117
66024 Off ch=2 n=31 v=117
66046 On ch=2 n=31 v=119
66130 Off ch=2 n=31 v=119
66174 On ch=2 n=31 v=116
66216 Off ch=2 n=31 v=116
66238 On ch=2 n=31 v=115
66288 Off ch=2 n=31 v=115
66302 On ch=2 n=34 v=115
66352 Off ch=2 n=34 v=115
66366 On ch=2 n=35 v=112
66418 Off ch=2 n=35 v=112
66430 On ch=2 n=36 v=119
66532 Off ch=2 n=36 v=119
66558 On ch=2 n=36 v=120
66586 Off ch=2 n=36 v=120
66622 On ch=2 n=36 v=113
66712 Off ch=2 n=36 v=113
66750 On ch=2 n=36 v=114
66786 Off ch=2 n=36 v=114
66814 On ch=2 n=36 v=118
66898 Off ch=2 n=36 v=118
66942 On ch=2 n=36 v=104
66970 Off ch=2 n=36 v=104
67006 On ch=2 n=36 v=112
67110 Off ch=2 n=36 v=112
67134 On ch=2 n=36 v=121
67198 Off ch=2 n=36 v=121
67198 On ch=2 n=31 v=123
67274 Off ch=2 n=31 v=123
67326 On ch=2 n=31 v=92
67360 Off ch=2 n=31 v=92
67390 On ch=2 n=31 v=122
67468 Off ch=2 n=31 v=122
67518 On ch=2 n=31 v=115
67558 Off ch=2 n=31 v=115
67582 On ch=2 n=31 v=118
67660 Off ch=2 n=31 v=118
67710 On ch=2 n=31 v=114
67746 Off ch=2 n=31 v=114
67774 On ch=2 n=31 v=120
67826 Off ch=2 n=31 v=120
67838 On ch=2 n=34 v=119
67886 Off ch=2 n=34 v=119
67902 On ch=2 n=35 v=106
67950 Off ch=2 n=35 v=106
67966 On ch=2 n=36 v=120
68052 Off ch=2 n=36 v=120
68094 On ch=2 n=36 v=112
68128 Off ch=2 n=36 v=112
68158 On ch=2 n=36 v=118
68240 Off ch=2 n=36 v=118
68286 On ch=2 n=36 v=115
68320 Off ch=2 n=36 v=115
68350 On ch=2 n=36 v=116
68430 Off ch=2 n=36 v=116
68478 On ch=2 n=36 v=114
68526 Off ch=2 n=36 v=114
68542 On ch=2 n=36 v=118
68608 Off ch=2 n=36 v=118
68670 On ch=2 n=36 v=113
68726 Off ch=2 n=36 v=113
68734 On ch=2 n=31 v=125
69118 Off ch=2 n=31 v=125
69118 On ch=2 n=36 v=123
69502 Off ch=2 n=36 v=123
69502 On ch=2 n=31 v=125
69886 Off ch=2 n=31 v=125
69886 On ch=2 n=36 v=121
70142 Off ch=2 n=36 v=121
70174 On ch=2 n=31 v=118
70230 Off ch=2 n=31 v=118
70270 On ch=2 n=41 v=124
70394 Off ch=2 n=41 v=124
70398 On ch=2 n=33 v=124
70524 Off ch=2 n=33 v=124
70526 On ch=2 n=34 v=123
70642 Off ch=2 n=34 v=123
70654 On ch=2 n=35 v=125
70772 Off ch=2 n=35 v=125
70782 On ch=2 n=36 v=122
70846 On ch=2 n=38 v=119
70852 Off ch=2 n=36 v=122
70906 Off ch=2 n=38 v=119
70910 On ch=2 n=40 v=120
70974 On ch=2 n=41 v=123
70986 Off ch=2 n=40 v=120
71012 Off ch=2 n=41 v=123
71038 On ch=2 n=41 v=125
71166 On ch=2 n=33 v=125
71176 Off ch=2 n=41 v=125
71308 Off ch=2 n=33 v=125
71310 On ch=2 n=34 v=123
71422 Off ch=2 n=34 v=123
71422 On ch=2 n=35 v=123
71486 On ch=2 n=36 v=119
71492 Off ch=2 n=35 v=123
71540 Off ch=2 n=36 v=119
71550 On ch=2 n=38 v=124
71614 On ch=2 n=36 v=124
71630 Off ch=2 n=38 v=124
71794 Off ch=2 n=36 v=124
71806 On ch=2 n=41 v=125
71934 On ch=2 n=33 v=125
71942 Off ch=2 n=41 v=125
72062 On ch=2 n=34 v=120
72076 Off ch=2 n=33 v=125
72178 Off ch=2 n=34 v=120
72190 On ch=2 n=35 v=125
72314 Off ch=2 n=35 v=125
72318 On ch=2 n=36 v=124
72382 On ch=2 n=38 v=119
72388 Off ch=2 n=36 v=124
72438 Off ch=2 n=38 v=119
72446 On ch=2 n=40 v=114
72502 Off ch=2 n=40 v=114
72510 On ch=2 n=41 v=121
72544 Off ch=2 n=41 v=121
72574 On ch=2 n=43 v=125
72694 Off ch=2 n=43 v=125
72702 On ch=2 n=35 v=124
72830 On ch=2 n=36 v=123
72872 Off ch=2 n=35 v=124
72938 Off ch=2 n=36 v=123
72958 On ch=2 n=38 v=123
73066 Off ch=2 n=38 v=123
73086 On ch=2 n=39 v=123
73150 On ch=2 n=40 v=120
73164 Off ch=2 n=39 v=123
73210 Off ch=2 n=40 v=120
73214 On ch=2 n=41 v=125
73278 On ch=2 n=43 v=120
73288 Off ch=2 n=41 v=125
73336 Off ch=2 n=43 v=120
73342 On ch=2 n=42 v=125
73406 On ch=2 n=44 v=125
73408 Off ch=2 n=42 v=125
73470 On ch=2 n=46 v=125
73480 Off ch=2 n=44 v=125
73528 Off ch=2 n=46 v=125
73598 On ch=2 n=44 v=125
73658 Off ch=2 n=44 v=125
73662 On ch=2 n=46 v=125
73722 Off ch=2 n=46 v=125
73726 On ch=2 n=48 v=123
73802 Off ch=2 n=48 v=123
73918 On ch=2 n=46 v=125
73976 Off ch=2 n=46 v=125
73982 On ch=2 n=48 v=121
74046 On ch=2 n=50 v=125
74052 Off ch=2 n=48 v=121
74080 Off ch=2 n=50 v=125
74110 On ch=2 n=35 v=125
74866 Off ch=2 n=35 v=125
74878 On ch=2 n=32 v=125
75634 Off ch=2 n=32 v=125
75646 On ch=2 n=34 v=125
77098 Off ch=2 n=34 v=125
78718 On ch=2 n=39 v=125
78944 Off ch=2 n=39 v=125
79006 On ch=2 n=39 v=125
79102 On ch=2 n=38 v=125
79104 Off ch=2 n=39 v=125
79332 Off ch=2 n=38 v=125
79390 On ch=2 n=38 v=125
79486 Off ch=2 n=38 v=125
79486 On ch=2 n=36 v=125
79732 Off ch=2 n=36 v=125
79774 On ch=2 n=36 v=125
79864 Off ch=2 n=36 v=125
79870 On ch=2 n=31 v=125
80052 Off ch=2 n=31 v=125
80062 On ch=2 n=36 v=125
80168 Off ch=2 n=36 v=125
80254 On ch=2 n=35 v=125
80442 Off ch=2 n=35 v=125
80446 On ch=2 n=36 v=125
80636 Off ch=2 n=36 v=125
80638 On ch=2 n=34 v=125
80814 Off ch=2 n=34 v=125
80830 On ch=2 n=39 v=125
81020 Off ch=2 n=39 v=125
81022 On ch=2 n=38 v=125
81214 On ch=2 n=34 v=125
81234 Off ch=2 n=38 v=125
81310 On ch=2 n=33 v=125
81316 Off ch=2 n=34 v=125
81406 On ch=2 n=31 v=125
81410 Off ch=2 n=33 v=125
81502 On ch=2 n=38 v=122
81516 Off ch=2 n=31 v=125
81598 On ch=2 n=43 v=125
81606 Off ch=2 n=38 v=122
81686 Off ch=2 n=43 v=125
81694 On ch=2 n=31 v=125
81786 Off ch=2 n=31 v=125
81790 On ch=2 n=32 v=125
82062 Off ch=2 n=32 v=125
82078 On ch=2 n=32 v=125
82162 Off ch=2 n=32 v=125
82174 On ch=2 n=39 v=125
82512 Off ch=2 n=39 v=125
82558 On ch=2 n=36 v=123
82806 Off ch=2 n=36 v=123
82846 On ch=2 n=36 v=119
82936 Off ch=2 n=36 v=119
82942 On ch=2 n=31 v=123
83230 On ch=2 n=34 v=120
83236 Off ch=2 n=31 v=123
83326 On ch=2 n=36 v=125
83330 Off ch=2 n=34 v=120
83602 Off ch=2 n=36 v=125
83614 On ch=2 n=36 v=123
83698 Off ch=2 n=36 v=123
83710 On ch=2 n=31 v=125
83998 On ch=2 n=34 v=117
84016 Off ch=2 n=31 v=125
84094 On ch=2 n=36 v=125
84098 Off ch=2 n=34 v=117
84464 Off ch=2 n=36 v=125
84478 On ch=2 n=32 v=123
85246 On ch=2 n=34 v=125
85264 Off ch=2 n=32 v=123
86014 Off ch=2 n=34 v=125
86014 On ch=2 n=39 v=124
87366 Off ch=2 n=39 v=124
88606 On ch=2 n=46 v=112
88670 Off ch=2 n=46 v=112
88702 On ch=2 n=46 v=114
88798 On ch=2 n=44 v=118
88812 Off ch=2 n=46 v=114
88990 On ch=2 n=43 v=119
89008 Off ch=2 n=44 v=118
89058 Off ch=2 n=43 v=119
89086 On ch=2 n=43 v=120
89182 Off ch=2 n=43 v=120
89182 On ch=2 n=40 v=119
89260 Off ch=2 n=40 v=119
89278 On ch=2 n=36 v=120
89374 On ch=2 n=34 v=120
89378 Off ch=2 n=36 v=120
89470 On ch=2 n=33 v=120
89478 Off ch=2 n=34 v=120
89838 Off ch=2 n=33 v=120
92928 Par ch=2 c=120 v=0
92930 Par ch=2 c=123 v=0
92930 Meta TrkEnd
TrkEnd
MTrk
0 Meta Text "Strings"
164 Par ch=3 c=121 v=0
212 Par ch=3 c=0 v=0
214 Par ch=3 c=32 v=0
216 PrCh ch=3 p=48
218 Par ch=3 c=7 v=123
218 Par ch=3 c=10 v=100
218 Par ch=3 c=11 v=80
220 Par ch=3 c=91 v=127
220 Par ch=3 c=93 v=20
3840 On ch=3 n=65 v=104
4000 Off ch=3 n=65 v=104
4032 On ch=3 n=65 v=111
4114 Off ch=3 n=65 v=111
4128 On ch=3 n=65 v=110
4494 Off ch=3 n=65 v=110
4512 On ch=3 n=65 v=111
4596 Off ch=3 n=65 v=111
4608 On ch=3 n=65 v=117
4690 Off ch=3 n=65 v=117
4704 On ch=3 n=65 v=116
4800 Off ch=3 n=65 v=116
4800 On ch=3 n=66 v=115
4896 On ch=3 n=68 v=113
4906 Off ch=3 n=66 v=115
5088 On ch=3 n=61 v=103
5096 Off ch=3 n=68 v=113
5280 On ch=3 n=70 v=101
5300 Off ch=3 n=61 v=103
5998 Off ch=3 n=70 v=101
6144 On ch=3 n=70 v=107
6144 On ch=3 n=82 v=47
6328 Off ch=3 n=82 v=47
6336 On ch=3 n=82 v=104
6426 Off ch=3 n=70 v=107
6432 On ch=3 n=70 v=117
6612 Off ch=3 n=70 v=117
6624 On ch=3 n=70 v=115
6912 Off ch=3 n=70 v=115
6912 On ch=3 n=68 v=111
6912 On ch=3 n=80 v=76
6916 Off ch=3 n=82 v=104
6988 Off ch=3 n=68 v=111
6990 Off ch=3 n=80 v=76
7008 On ch=3 n=68 v=116
7008 On ch=3 n=80 v=110
7104 On ch=3 n=70 v=117
7104 On ch=3 n=82 v=112
7114 Off ch=3 n=68 v=116
7116 Off ch=3 n=80 v=110
7200 Off ch=3 n=70 v=117
7200 On ch=3 n=68 v=111
7200 On ch=3 n=80 v=112
7216 Off ch=3 n=82 v=112
7248 On ch=3 n=66 v=113
7248 On ch=3 n=78 v=108
7256 Off ch=3 n=80 v=112
7258 Off ch=3 n=68 v=111
7294 Off ch=3 n=78 v=108
7294 Off ch=3 n=66 v=113
7296 On ch=3 n=63 v=116
7296 On ch=3 n=75 v=118
7372 Off ch=3 n=75 v=118
7378 Off ch=3 n=63 v=116
7488 On ch=3 n=65 v=83
7584 On ch=3 n=66 v=112
7610 Off ch=3 n=65 v=83
7680 On ch=3 n=71 v=115
7692 Off ch=3 n=66 v=112
7756 Off ch=3 n=71 v=115
7776 On ch=3 n=71 v=114
7872 On ch=3 n=70 v=116
7878 Off ch=3 n=71 v=114
7944 Off ch=3 n=70 v=116
8064 On ch=3 n=69 v=111
8140 Off ch=3 n=69 v=111
8160 On ch=3 n=69 v=118
8256 Off ch=3 n=69 v=118
8256 On ch=3 n=70 v=117
8344 Off ch=3 n=70 v=117
8448 On ch=3 n=71 v=110
8526 Off ch=3 n=71 v=110
8544 On ch=3 n=71 v=118
8640 Off ch=3 n=71 v=118
8640 On ch=3 n=70 v=117
8750 Off ch=3 n=70 v=117
8832 On ch=3 n=69 v=115
8906 Off ch=3 n=69 v=115
8928 On ch=3 n=69 v=115
8984 Off ch=3 n=69 v=115
9024 On ch=3 n=70 v=113
9264 Off ch=3 n=70 v=113
9312 On ch=3 n=67 v=76
9382 Off ch=3 n=67 v=76
9408 On ch=3 n=67 v=117
9488 Off ch=3 n=67 v=117
9504 On ch=3 n=67 v=118
9600 On ch=3 n=65 v=115
9624 Off ch=3 n=67 v=118
9790 Off ch=3 n=65 v=115
9792 On ch=3 n=70 v=112
9984 On ch=3 n=64 v=115
9992 Off ch=3 n=70 v=112
10066 Off ch=3 n=64 v=115
10080 On ch=3 n=64 v=117
10158 Off ch=3 n=64 v=117
10176 On ch=3 n=64 v=117
10258 Off ch=3 n=64 v=117
10272 On ch=3 n=65 v=110
10366 Off ch=3 n=65 v=110
10368 On ch=3 n=65 v=117
10560 On ch=3 n=60 v=113
10572 Off ch=3 n=65 v=117
10652 Off ch=3 n=60 v=113
10656 On ch=3 n=63 v=110
10752 On ch=3 n=65 v=103
10752 On ch=3 n=69 v=104
11160 Off ch=3 n=65 v=103
11166 Off ch=3 n=69 v=104
11184 Off ch=3 n=63 v=110
11328 On ch=3 n=57 v=98
11520 On ch=3 n=58 v=89
11526 Off ch=3 n=57 v=98
12944 Off ch=3 n=58 v=89
19200 On ch=3 n=75 v=80
19200 On ch=3 n=82 v=92
19776 On ch=3 n=74 v=101
19796 Off ch=3 n=75 v=80
19968 Off ch=3 n=74 v=101
19968 On ch=3 n=72 v=91
19968 On ch=3 n=75 v=80
19968 On ch=3 n=79 v=69
19968 On ch=3 n=84 v=91
19974 Off ch=3 n=82 v=92
20352 On ch=3 n=77 v=100
20524 Off ch=3 n=77 v=100
20544 On ch=3 n=82 v=95
20732 Off ch=3 n=82 v=95
20732 Off ch=3 n=79 v=69
20736 Off ch=3 n=75 v=80
20736 On ch=3 n=77 v=98
20736 On ch=3 n=80 v=96
20928 On ch=3 n=76 v=96
20956 Off ch=3 n=77 v=98
21102 Off ch=3 n=76 v=96
21120 On ch=3 n=75 v=92
21312 On ch=3 n=74 v=99
21328 Off ch=3 n=75 v=92
21424 Off ch=3 n=72 v=91
21502 Off ch=3 n=74 v=99
21504 On ch=3 n=70 v=92
21504 On ch=3 n=74 v=86
21504 On ch=3 n=77 v=74
21504 On ch=3 n=82 v=88
21520 Off ch=3 n=74 v=86
21520 Off ch=3 n=84 v=91
21526 Off ch=3 n=80 v=96
22080 On ch=3 n=80 v=90
22272 On ch=3 n=75 v=90
22272 On ch=3 n=79 v=92
22278 Off ch=3 n=80 v=90
22290 Off ch=3 n=77 v=74
22366 Off ch=3 n=75 v=90
22368 On ch=3 n=75 v=18
22638 Off ch=3 n=75 v=18
22646 Off ch=3 n=79 v=92
22656 On ch=3 n=74 v=98
22656 On ch=3 n=77 v=73
23030 Off ch=3 n=70 v=92
23040 On ch=3 n=72 v=91
23040 On ch=3 n=75 v=83
23042 Off ch=3 n=74 v=98
23048 Off ch=3 n=82 v=88
23062 Off ch=3 n=77 v=73
23424 On ch=3 n=68 v=67
23424 On ch=3 n=71 v=92
23438 Off ch=3 n=72 v=91
23746 Off ch=3 n=71 v=92
23808 On ch=3 n=63 v=63
23808 On ch=3 n=70 v=77
23824 Off ch=3 n=75 v=83
23838 Off ch=3 n=68 v=67
24170 Off ch=3 n=63 v=63
24190 Off ch=3 n=70 v=77
24192 On ch=3 n=68 v=76
24192 On ch=3 n=72 v=60
24192 On ch=3 n=75 v=18
24192 On ch=3 n=80 v=51
24378 Off ch=3 n=75 v=18
24382 Off ch=3 n=80 v=51
24384 On ch=3 n=67 v=96
24384 On ch=3 n=70 v=90
24390 Off ch=3 n=68 v=76
24392 Off ch=3 n=72 v=60
24576 On ch=3 n=66 v=63
24576 On ch=3 n=69 v=63
24588 Off ch=3 n=70 v=90
24598 Off ch=3 n=67 v=96
24708 Off ch=3 n=69 v=63
24768 On ch=3 n=65 v=97
24768 On ch=3 n=68 v=88
24776 Off ch=3 n=66 v=63
24910 Off ch=3 n=68 v=88
24952 Off ch=3 n=65 v=97
32640 On ch=3 n=70 v=97
32640 On ch=3 n=75 v=86
33216 Off ch=3 n=70 v=97
33216 On ch=3 n=74 v=100
33216 On ch=3 n=77 v=102
33220 Off ch=3 n=75 v=86
33408 On ch=3 n=72 v=98
33408 On ch=3 n=75 v=92
33418 Off ch=3 n=77 v=102
33420 Off ch=3 n=74 v=100
33600 On ch=3 n=79 v=98
33792 On ch=3 n=69 v=92
33792 On ch=3 n=71 v=77
33792 On ch=3 n=74 v=95
33798 Off ch=3 n=72 v=98
33800 Off ch=3 n=75 v=92
33804 Off ch=3 n=69 v=92
33966 Off ch=3 n=71 v=77
33970 Off ch=3 n=74 v=95
33984 On ch=3 n=72 v=99
33984 On ch=3 n=75 v=92
34176 On ch=3 n=68 v=99
34176 On ch=3 n=77 v=98
34186 Off ch=3 n=79 v=98
34188 Off ch=3 n=75 v=92
34196 Off ch=3 n=72 v=99
34560 Off ch=3 n=68 v=99
34560 On ch=3 n=67 v=104
34752 On ch=3 n=68 v=100
34760 Off ch=3 n=67 v=104
34944 On ch=3 n=70 v=95
34944 On ch=3 n=74 v=96
34948 Off ch=3 n=68 v=100
34952 Off ch=3 n=77 v=98
35328 On ch=3 n=72 v=100
35328 On ch=3 n=75 v=96
35346 Off ch=3 n=70 v=95
35348 Off ch=3 n=74 v=96
35518 Off ch=3 n=72 v=100
35520 On ch=3 n=74 v=95
35520 On ch=3 n=77 v=96
35524 Off ch=3 n=75 v=96
35712 On ch=3 n=75 v=98
35712 On ch=3 n=79 v=102
35714 Off ch=3 n=74 v=95
35720 Off ch=3 n=77 v=96
35902 Off ch=3 n=75 v=98
35904 On ch=3 n=70 v=87
35904 On ch=3 n=75 v=74
36082 Off ch=3 n=75 v=74
36096 On ch=3 n=77 v=89
36108 Off ch=3 n=79 v=102
36288 On ch=3 n=65 v=82
36288 On ch=3 n=74 v=89
36308 Off ch=3 n=77 v=89
36308 Off ch=3 n=70 v=87
36472 Off ch=3 n=74 v=89
36478 Off ch=3 n=65 v=82
36480 On ch=3 n=67 v=89
36480 On ch=3 n=75 v=77
36672 On ch=3 n=72 v=77
36672 On ch=3 n=79 v=92
36682 Off ch=3 n=75 v=77
36684 Off ch=3 n=67 v=89
36864 On ch=3 n=75 v=86
36864 On ch=3 n=84 v=78
36868 Off ch=3 n=79 v=92
36876 Off ch=3 n=72 v=77
37052 Off ch=3 n=84 v=78
37056 On ch=3 n=79 v=84
37244 Off ch=3 n=79 v=84
37244 Off ch=3 n=75 v=86
37248 On ch=3 n=77 v=89
37248 On ch=3 n=80 v=84
37440 On ch=3 n=76 v=94
37452 Off ch=3 n=77 v=89
37632 On ch=3 n=75 v=84
37634 Off ch=3 n=76 v=94
37824 On ch=3 n=74 v=87
37836 Off ch=3 n=75 v=84
38008 Off ch=3 n=74 v=87
38016 On ch=3 n=70 v=84
38016 On ch=3 n=82 v=83
38024 Off ch=3 n=80 v=84
38208 On ch=3 n=72 v=97
38208 On ch=3 n=75 v=89
38208 On ch=3 n=76 v=89
38240 Off ch=3 n=76 v=89
38248 Off ch=3 n=75 v=89
38250 Off ch=3 n=70 v=84
38256 On ch=3 n=75 v=42
38360 Off ch=3 n=75 v=42
38382 Off ch=3 n=72 v=97
38400 On ch=3 n=74 v=92
38400 On ch=3 n=77 v=89
38592 On ch=3 n=80 v=82
38608 Off ch=3 n=82 v=83
38780 Off ch=3 n=77 v=89
38782 Off ch=3 n=74 v=92
38784 On ch=3 n=75 v=83
38784 On ch=3 n=79 v=88
38786 Off ch=3 n=80 v=82
38976 On ch=3 n=82 v=90
38992 Off ch=3 n=79 v=88
39168 Off ch=3 n=82 v=90
39168 Off ch=3 n=75 v=83
39168 On ch=3 n=74 v=92
39168 On ch=3 n=77 v=78
39360 On ch=3 n=82 v=78
39542 Off ch=3 n=82 v=78
39552 On ch=3 n=72 v=89
39552 On ch=3 n=75 v=86
39562 Off ch=3 n=77 v=78
39572 Off ch=3 n=74 v=92
39744 On ch=3 n=82 v=87
39932 Off ch=3 n=75 v=86
39936 Off ch=3 n=82 v=87
39936 On ch=3 n=70 v=81
39936 On ch=3 n=74 v=74
39936 On ch=3 n=77 v=78
39938 Off ch=3 n=72 v=89
40126 Off ch=3 n=70 v=81
40128 On ch=3 n=72 v=74
40128 On ch=3 n=75 v=90
40128 On ch=3 n=82 v=74
40144 Off ch=3 n=77 v=78
40154 Off ch=3 n=82 v=74
40160 Off ch=3 n=74 v=74
40320 Off ch=3 n=72 v=81
40320 Off ch=3 n=75 v=90
40320 On ch=3 n=65 v=81
40320 On ch=3 n=72 v=81
40320 On ch=3 n=77 v=81
40320 On ch=3 n=80 v=81
40512 Off ch=3 n=72 v=74
40560 Off ch=3 n=77 v=81
40560 Off ch=3 n=65 v=81
40584 Off ch=3 n=80 v=81
40608 On ch=3 n=53 v=100
40608 On ch=3 n=65 v=100
40608 On ch=3 n=77 v=100
40608 On ch=3 n=89 v=92
40632 Off ch=3 n=77 v=100
40632 Off ch=3 n=65 v=100
40632 Off ch=3 n=53 v=100
40638 Off ch=3 n=89 v=92
40656 On ch=3 n=52 v=100
40656 On ch=3 n=64 v=100
40656 On ch=3 n=79 v=100
40656 On ch=3 n=91 v=100
40680 Off ch=3 n=91 v=100
40680 Off ch=3 n=79 v=100
40680 Off ch=3 n=64 v=100
40680 Off ch=3 n=52 v=100
40704 On ch=3 n=51 v=100
40704 On ch=3 n=63 v=100
40704 On ch=3 n=68 v=100
40704 On ch=3 n=75 v=100
40704 On ch=3 n=80 v=100
40704 On ch=3 n=92 v=100
40800 Off ch=3 n=51 v=100
40814 Off ch=3 n=68 v=100
40824 Off ch=3 n=80 v=100
40830 Off ch=3 n=63 v=100
40862 Off ch=3 n=75 v=100
40864 Off ch=3 n=92 v=100
40896 On ch=3 n=50 v=95
40896 On ch=3 n=62 v=90
40896 On ch=3 n=77 v=104
40896 On ch=3 n=89 v=103
41004 Off ch=3 n=89 v=103
41014 Off ch=3 n=77 v=104
41024 Off ch=3 n=50 v=95
41030 Off ch=3 n=62 v=90
41088 On ch=3 n=49 v=97
41088 On ch=3 n=61 v=104
41088 On ch=3 n=68 v=103
41088 On ch=3 n=80 v=98
41288 Off ch=3 n=68 v=103
41292 Off ch=3 n=80 v=98
41328 On ch=3 n=73 v=100
41328 On ch=3 n=85 v=102
41356 Off ch=3 n=61 v=104
41362 Off ch=3 n=85 v=102
41362 Off ch=3 n=73 v=100
41364 Off ch=3 n=49 v=97
41424 On ch=3 n=48 v=92
41424 On ch=3 n=60 v=89
41424 On ch=3 n=73 v=100
41424 On ch=3 n=85 v=100
41458 Off ch=3 n=85 v=100
41462 Off ch=3 n=60 v=89
41464 Off ch=3 n=73 v=100
41468 Off ch=3 n=48 v=92
41472 On ch=3 n=47 v=95
41472 On ch=3 n=59 v=100
41472 On ch=3 n=73 v=104
41472 On ch=3 n=85 v=103
41566 Off ch=3 n=85 v=103
41580 Off ch=3 n=73 v=104
41584 Off ch=3 n=47 v=95
41592 Off ch=3 n=59 v=100
41664 On ch=3 n=46 v=102
41664 On ch=3 n=58 v=102
41664 On ch=3 n=61 v=104
41664 On ch=3 n=73 v=100
41780 Off ch=3 n=61 v=104
41780 Off ch=3 n=46 v=102
41784 Off ch=3 n=73 v=100
41788 Off ch=3 n=58 v=102
41856 On ch=3 n=33 v=119
41856 On ch=3 n=45 v=122
41856 On ch=3 n=57 v=121
41912 Off ch=3 n=57 v=121
41912 Off ch=3 n=33 v=119
41920 Off ch=3 n=45 v=122
43296 On ch=3 n=64 v=119
43296 On ch=3 n=69 v=114
43296 On ch=3 n=73 v=112
43296 On ch=3 n=76 v=115
43296 On ch=3 n=81 v=96
43312 Off ch=3 n=81 v=96
43316 Off ch=3 n=76 v=115
43318 Off ch=3 n=73 v=112
43318 Off ch=3 n=69 v=114
43328 Off ch=3 n=64 v=119
43344 On ch=3 n=64 v=119
43344 On ch=3 n=69 v=115
43344 On ch=3 n=73 v=112
43344 On ch=3 n=76 v=117
43344 On ch=3 n=81 v=112
43368 Off ch=3 n=69 v=115
43370 Off ch=3 n=81 v=112
43378 Off ch=3 n=73 v=112
43380 Off ch=3 n=76 v=117
43388 Off ch=3 n=64 v=119
43392 On ch=3 n=62 v=119
43392 On ch=3 n=66 v=110
43392 On ch=3 n=69 v=121
43392 On ch=3 n=74 v=121
43392 On ch=3 n=78 v=118
43392 On ch=3 n=81 v=118
43456 Off ch=3 n=74 v=121
43466 Off ch=3 n=62 v=119
43478 Off ch=3 n=78 v=118
43482 Off ch=3 n=81 v=118
43482 Off ch=3 n=66 v=110
43484 Off ch=3 n=69 v=121
43488 On ch=3 n=61 v=108
43488 On ch=3 n=64 v=112
43488 On ch=3 n=69 v=114
43488 On ch=3 n=73 v=115
43488 On ch=3 n=76 v=116
43488 On ch=3 n=81 v=18
43494 Off ch=3 n=81 v=18
43508 Off ch=3 n=73 v=115
43508 Off ch=3 n=69 v=114
43508 Off ch=3 n=64 v=112
43512 Off ch=3 n=76 v=116
43520 Off ch=3 n=61 v=108
43536 On ch=3 n=61 v=118
43536 On ch=3 n=64 v=108
43536 On ch=3 n=69 v=117
43536 On ch=3 n=73 v=115
43536 On ch=3 n=76 v=108
43536 On ch=3 n=81 v=114
43560 Off ch=3 n=81 v=114
43562 Off ch=3 n=69 v=117
43568 Off ch=3 n=76 v=108
43568 Off ch=3 n=73 v=115
43572 Off ch=3 n=61 v=118
43584 On ch=3 n=62 v=123
43584 On ch=3 n=66 v=119
43584 On ch=3 n=69 v=119
43584 On ch=3 n=74 v=120
43584 On ch=3 n=78 v=119
43584 On ch=3 n=81 v=119
43590 Off ch=3 n=64 v=108
43634 Off ch=3 n=74 v=120
43664 Off ch=3 n=81 v=119
43664 Off ch=3 n=78 v=119
43666 Off ch=3 n=62 v=123
43668 Off ch=3 n=66 v=119
43680 On ch=3 n=61 v=113
43680 On ch=3 n=64 v=117
43680 On ch=3 n=73 v=114
43680 On ch=3 n=76 v=112
43700 Off ch=3 n=76 v=112
43700 Off ch=3 n=69 v=119
43704 Off ch=3 n=61 v=113
43706 Off ch=3 n=73 v=114
43710 Off ch=3 n=64 v=117
43728 On ch=3 n=61 v=107
43728 On ch=3 n=64 v=120
43728 On ch=3 n=69 v=115
43728 On ch=3 n=73 v=116
43728 On ch=3 n=76 v=114
43728 On ch=3 n=81 v=101
43736 Off ch=3 n=81 v=101
43746 Off ch=3 n=76 v=114
43746 Off ch=3 n=69 v=115
43754 Off ch=3 n=73 v=116
43754 Off ch=3 n=64 v=120
43756 Off ch=3 n=61 v=107
43776 On ch=3 n=60 v=113
43776 On ch=3 n=63 v=116
43776 On ch=3 n=69 v=111
43776 On ch=3 n=72 v=118
43776 On ch=3 n=75 v=118
43794 Off ch=3 n=69 v=111
43798 Off ch=3 n=75 v=118
43800 Off ch=3 n=72 v=118
43800 Off ch=3 n=63 v=116
43802 Off ch=3 n=60 v=113
43824 On ch=3 n=60 v=112
43824 On ch=3 n=63 v=115
43824 On ch=3 n=69 v=113
43824 On ch=3 n=72 v=115
43824 On ch=3 n=75 v=114
43838 Off ch=3 n=69 v=113
43844 Off ch=3 n=72 v=115
43848 Off ch=3 n=75 v=114
43854 Off ch=3 n=60 v=112
43858 Off ch=3 n=63 v=115
43872 On ch=3 n=61 v=116
43872 On ch=3 n=64 v=112
43872 On ch=3 n=69 v=119
43872 On ch=3 n=73 v=116
43872 On ch=3 n=76 v=118
43906 Off ch=3 n=69 v=119
43912 Off ch=3 n=76 v=118
43914 Off ch=3 n=73 v=116
43924 Off ch=3 n=61 v=116
43928 Off ch=3 n=64 v=112
43968 On ch=3 n=62 v=119
43968 On ch=3 n=66 v=111
43968 On ch=3 n=69 v=120
43968 On ch=3 n=74 v=119
43968 On ch=3 n=78 v=119
43992 Off ch=3 n=69 v=120
44000 Off ch=3 n=74 v=119
44010 Off ch=3 n=78 v=119
44012 Off ch=3 n=66 v=111
44018 Off ch=3 n=62 v=119
44064 On ch=3 n=61 v=119
44064 On ch=3 n=64 v=120
44064 On ch=3 n=69 v=122
44064 On ch=3 n=73 v=118
44064 On ch=3 n=76 v=122
44096 Off ch=3 n=69 v=122
44102 Off ch=3 n=73 v=118
44108 Off ch=3 n=76 v=122
44112 Off ch=3 n=64 v=120
44114 Off ch=3 n=61 v=119
44160 On ch=3 n=60 v=120
44160 On ch=3 n=64 v=119
44160 On ch=3 n=67 v=119
44160 On ch=3 n=72 v=120
44160 On ch=3 n=76 v=118
44176 Off ch=3 n=72 v=120
44176 Off ch=3 n=67 v=119
44176 Off ch=3 n=60 v=120
44178 Off ch=3 n=76 v=118
44178 Off ch=3 n=64 v=119
44208 On ch=3 n=60 v=116
44208 On ch=3 n=64 v=108
44208 On ch=3 n=67 v=116
44208 On ch=3 n=72 v=114
44208 On ch=3 n=76 v=116
44226 Off ch=3 n=72 v=114
44228 Off ch=3 n=67 v=116
44230 Off ch=3 n=76 v=116
44232 Off ch=3 n=60 v=116
44234 Off ch=3 n=64 v=108
44256 On ch=3 n=60 v=115
44256 On ch=3 n=64 v=117
44256 On ch=3 n=67 v=113
44256 On ch=3 n=72 v=116
44256 On ch=3 n=76 v=113
44274 Off ch=3 n=72 v=116
44276 Off ch=3 n=67 v=113
44278 Off ch=3 n=76 v=113
44284 Off ch=3 n=64 v=117
44284 Off ch=3 n=60 v=115
44304 On ch=3 n=60 v=115
44304 On ch=3 n=64 v=118
44304 On ch=3 n=67 v=119
44304 On ch=3 n=72 v=120
44304 On ch=3 n=76 v=117
44330 Off ch=3 n=67 v=119
44336 Off ch=3 n=72 v=120
44338 Off ch=3 n=76 v=117
44338 Off ch=3 n=64 v=118
44342 Off ch=3 n=60 v=115
44352 On ch=3 n=59 v=118
44352 On ch=3 n=62 v=119
44352 On ch=3 n=67 v=119
44352 On ch=3 n=71 v=121
44352 On ch=3 n=74 v=119
44386 Off ch=3 n=67 v=119
44388 Off ch=3 n=71 v=121
44394 Off ch=3 n=74 v=119
44396 Off ch=3 n=62 v=119
44398 Off ch=3 n=59 v=118
44448 On ch=3 n=59 v=115
44448 On ch=3 n=62 v=119
44448 On ch=3 n=67 v=117
44448 On ch=3 n=71 v=121
44448 On ch=3 n=74 v=119
44472 Off ch=3 n=71 v=121
44480 Off ch=3 n=62 v=119
44484 Off ch=3 n=67 v=117
44484 Off ch=3 n=59 v=115
44492 Off ch=3 n=74 v=119
44544 On ch=3 n=58 v=121
44544 On ch=3 n=65 v=114
44544 On ch=3 n=70 v=118
44544 On ch=3 n=74 v=122
44544 On ch=3 n=77 v=116
44566 Off ch=3 n=70 v=118
44568 Off ch=3 n=77 v=116
44570 Off ch=3 n=74 v=122
44570 Off ch=3 n=65 v=114
44576 Off ch=3 n=58 v=121
44592 On ch=3 n=58 v=115
44592 On ch=3 n=65 v=114
44592 On ch=3 n=70 v=120
44592 On ch=3 n=74 v=104
44592 On ch=3 n=77 v=117
44612 Off ch=3 n=74 v=104
44616 Off ch=3 n=70 v=120
44622 Off ch=3 n=77 v=117
44624 Off ch=3 n=65 v=114
44626 Off ch=3 n=58 v=115
44640 On ch=3 n=65 v=105
44640 On ch=3 n=70 v=105
44640 On ch=3 n=74 v=105
44640 On ch=3 n=77 v=105
44660 Off ch=3 n=74 v=105
44664 Off ch=3 n=70 v=105
44666 Off ch=3 n=77 v=105
44680 Off ch=3 n=65 v=105
44688 On ch=3 n=58 v=119
44688 On ch=3 n=70 v=116
44688 On ch=3 n=74 v=111
44688 On ch=3 n=77 v=118
44708 Off ch=3 n=74 v=111
44714 Off ch=3 n=70 v=116
44722 Off ch=3 n=77 v=118
44724 Off ch=3 n=58 v=119
44736 On ch=3 n=50 v=122
44736 On ch=3 n=62 v=123
44736 On ch=3 n=72 v=117
44736 On ch=3 n=74 v=117
44736 On ch=3 n=78 v=118
44776 Off ch=3 n=74 v=117
44780 Off ch=3 n=50 v=122
44782 Off ch=3 n=78 v=118
44786 Off ch=3 n=72 v=117
44792 Off ch=3 n=62 v=123
44832 On ch=3 n=50 v=122
44832 On ch=3 n=62 v=120
44832 On ch=3 n=72 v=121
44832 On ch=3 n=74 v=122
44832 On ch=3 n=78 v=119
44868 Off ch=3 n=62 v=120
44872 Off ch=3 n=72 v=121
44874 Off ch=3 n=74 v=122
44876 Off ch=3 n=78 v=119
44880 Off ch=3 n=50 v=122
44928 On ch=3 n=43 v=121
44928 On ch=3 n=55 v=122
44928 On ch=3 n=71 v=122
44928 On ch=3 n=74 v=121
44928 On ch=3 n=79 v=119
44970 Off ch=3 n=71 v=122
44976 Off ch=3 n=74 v=121
44976 Off ch=3 n=43 v=121
44978 Off ch=3 n=79 v=119
44978 Off ch=3 n=55 v=122
45216 On ch=3 n=50 v=116
45216 On ch=3 n=62 v=114
45234 Off ch=3 n=62 v=114
45234 Off ch=3 n=50 v=116
45264 On ch=3 n=50 v=113
45264 On ch=3 n=62 v=114
45276 Off ch=3 n=50 v=113
45278 Off ch=3 n=62 v=114
45312 On ch=3 n=52 v=119
45312 On ch=3 n=64 v=119
45354 Off ch=3 n=52 v=119
45358 Off ch=3 n=64 v=119
45360 On ch=3 n=50 v=115
45360 On ch=3 n=62 v=114
45380 Off ch=3 n=62 v=114
45382 Off ch=3 n=50 v=115
45600 On ch=3 n=50 v=116
45600 On ch=3 n=62 v=118
45614 Off ch=3 n=50 v=116
45616 Off ch=3 n=62 v=118
45648 On ch=3 n=50 v=116
45648 On ch=3 n=62 v=116
45664 Off ch=3 n=50 v=116
45666 Off ch=3 n=62 v=116
45696 On ch=3 n=52 v=119
45696 On ch=3 n=64 v=119
45728 Off ch=3 n=52 v=119
45732 Off ch=3 n=64 v=119
45744 On ch=3 n=50 v=116
45744 On ch=3 n=62 v=119
45762 Off ch=3 n=62 v=119
45764 Off ch=3 n=50 v=116
45792 On ch=3 n=62 v=119
45792 On ch=3 n=74 v=119
45802 Off ch=3 n=62 v=119
45810 Off ch=3 n=74 v=119
45840 On ch=3 n=62 v=119
45840 On ch=3 n=74 v=121
45862 Off ch=3 n=62 v=119
45874 Off ch=3 n=74 v=121
45888 On ch=3 n=64 v=121
45888 On ch=3 n=76 v=116
45930 Off ch=3 n=76 v=116
45936 On ch=3 n=62 v=119
45936 On ch=3 n=74 v=117
45940 Off ch=3 n=64 v=121
45974 Off ch=3 n=62 v=119
45978 Off ch=3 n=74 v=117
45984 On ch=3 n=60 v=119
45984 On ch=3 n=72 v=120
46018 Off ch=3 n=72 v=120
46018 Off ch=3 n=60 v=119
46032 On ch=3 n=59 v=119
46032 On ch=3 n=71 v=119
46062 Off ch=3 n=71 v=119
46068 Off ch=3 n=59 v=119
46080 On ch=3 n=57 v=119
46080 On ch=3 n=69 v=120
46110 Off ch=3 n=69 v=120
46124 Off ch=3 n=57 v=119
46752 On ch=3 n=49 v=116
46752 On ch=3 n=56 v=113
46752 On ch=3 n=61 v=113
46770 Off ch=3 n=49 v=116
46772 Off ch=3 n=61 v=113
46774 Off ch=3 n=56 v=113
46848 On ch=3 n=48 v=103
46848 On ch=3 n=55 v=107
46848 On ch=3 n=60 v=111
46864 Off ch=3 n=55 v=107
46864 Off ch=3 n=48 v=103
46866 Off ch=3 n=60 v=111
46896 On ch=3 n=48 v=113
46896 On ch=3 n=55 v=111
46896 On ch=3 n=60 v=108
46910 Off ch=3 n=55 v=111
46914 Off ch=3 n=60 v=108
46914 Off ch=3 n=48 v=113
46944 On ch=3 n=47 v=117
46944 On ch=3 n=54 v=117
46944 On ch=3 n=59 v=118
46960 Off ch=3 n=59 v=118
46960 Off ch=3 n=54 v=117
46962 Off ch=3 n=47 v=117
47040 On ch=3 n=48 v=114
47040 On ch=3 n=55 v=116
47040 On ch=3 n=60 v=119
47058 Off ch=3 n=55 v=116
47060 Off ch=3 n=60 v=119
47062 Off ch=3 n=48 v=114
47136 On ch=3 n=49 v=116
47136 On ch=3 n=56 v=117
47136 On ch=3 n=61 v=118
47156 Off ch=3 n=61 v=118
47156 Off ch=3 n=56 v=117
47158 Off ch=3 n=49 v=116
47232 On ch=3 n=48 v=113
47232 On ch=3 n=55 v=113
47232 On ch=3 n=60 v=114
47250 Off ch=3 n=55 v=113
47250 Off ch=3 n=48 v=113
47252 Off ch=3 n=60 v=114
47280 On ch=3 n=48 v=104
47280 On ch=3 n=55 v=100
47280 On ch=3 n=60 v=110
47292 Off ch=3 n=55 v=100
47296 Off ch=3 n=60 v=110
47298 Off ch=3 n=48 v=104
47328 On ch=3 n=47 v=118
47328 On ch=3 n=54 v=116
47328 On ch=3 n=59 v=114
47410 Off ch=3 n=54 v=116
47412 Off ch=3 n=59 v=114
47418 Off ch=3 n=47 v=118
47424 On ch=3 n=48 v=118
47424 On ch=3 n=55 v=115
47424 On ch=3 n=60 v=117
47470 Off ch=3 n=55 v=115
47482 Off ch=3 n=60 v=117
47510 Off ch=3 n=48 v=118
47520 On ch=3 n=53 v=119
47520 On ch=3 n=65 v=117
47520 On ch=3 n=70 v=118
47520 On ch=3 n=74 v=120
47582 Off ch=3 n=65 v=117
47584 Off ch=3 n=53 v=119
47586 Off ch=3 n=74 v=120
47592 Off ch=3 n=70 v=118
47616 On ch=3 n=53 v=117
47616 On ch=3 n=65 v=117
47616 On ch=3 n=69 v=119
47616 On ch=3 n=72 v=119
47630 Off ch=3 n=69 v=119
47632 Off ch=3 n=72 v=119
47632 Off ch=3 n=65 v=117
47634 Off ch=3 n=53 v=117
47664 On ch=3 n=53 v=116
47664 On ch=3 n=65 v=114
47664 On ch=3 n=69 v=118
47664 On ch=3 n=72 v=113
47676 Off ch=3 n=65 v=114
47678 Off ch=3 n=69 v=118
47678 Off ch=3 n=53 v=116
47686 Off ch=3 n=72 v=113
47712 On ch=3 n=53 v=117
47712 On ch=3 n=65 v=119
47712 On ch=3 n=68 v=117
47712 On ch=3 n=71 v=119
47774 Off ch=3 n=65 v=119
47774 Off ch=3 n=53 v=117
47776 Off ch=3 n=68 v=117
47782 Off ch=3 n=71 v=119
47808 On ch=3 n=53 v=117
47808 On ch=3 n=65 v=114
47808 On ch=3 n=69 v=118
47808 On ch=3 n=72 v=115
47874 Off ch=3 n=65 v=114
47882 Off ch=3 n=69 v=118
47882 Off ch=3 n=53 v=117
47884 Off ch=3 n=72 v=115
47904 On ch=3 n=53 v=120
47904 On ch=3 n=65 v=115
47904 On ch=3 n=70 v=119
47904 On ch=3 n=74 v=112
47918 Off ch=3 n=70 v=119
47918 Off ch=3 n=65 v=115
47920 Off ch=3 n=74 v=112
47920 Off ch=3 n=53 v=120
47952 On ch=3 n=53 v=118
47952 On ch=3 n=65 v=113
47952 On ch=3 n=70 v=118
47952 On ch=3 n=74 v=117
47962 Off ch=3 n=65 v=113
47968 Off ch=3 n=74 v=117
47968 Off ch=3 n=53 v=118
47970 Off ch=3 n=70 v=118
48000 On ch=3 n=53 v=121
48000 On ch=3 n=65 v=117
48000 On ch=3 n=69 v=121
48000 On ch=3 n=72 v=116
48066 Off ch=3 n=69 v=121
48068 Off ch=3 n=65 v=117
48072 Off ch=3 n=53 v=121
48078 Off ch=3 n=72 v=116
48096 On ch=3 n=53 v=119
48096 On ch=3 n=65 v=104
48096 On ch=3 n=68 v=117
48096 On ch=3 n=71 v=114
48112 Off ch=3 n=71 v=114
48114 Off ch=3 n=65 v=104
48118 Off ch=3 n=53 v=119
48120 Off ch=3 n=68 v=117
48144 On ch=3 n=53 v=118
48144 On ch=3 n=65 v=113
48144 On ch=3 n=68 v=114
48144 On ch=3 n=71 v=116
48166 Off ch=3 n=65 v=113
48168 Off ch=3 n=53 v=118
48174 Off ch=3 n=68 v=114
48178 Off ch=3 n=71 v=116
48192 On ch=3 n=53 v=119
48192 On ch=3 n=65 v=117
48192 On ch=3 n=69 v=121
48192 On ch=3 n=72 v=119
48258 Off ch=3 n=53 v=119
48262 Off ch=3 n=69 v=121
48262 Off ch=3 n=65 v=117
48266 Off ch=3 n=72 v=119
48288 On ch=3 n=58 v=118
48288 On ch=3 n=65 v=111
48288 On ch=3 n=70 v=118
48288 On ch=3 n=74 v=117
48354 Off ch=3 n=65 v=111
48358 Off ch=3 n=70 v=118
48360 Off ch=3 n=74 v=117
48364 Off ch=3 n=58 v=118
48384 On ch=3 n=58 v=119
48384 On ch=3 n=65 v=112
48384 On ch=3 n=70 v=117
48384 On ch=3 n=74 v=119
48408 Off ch=3 n=65 v=112
48414 Off ch=3 n=58 v=119
48418 Off ch=3 n=74 v=119
48420 Off ch=3 n=70 v=117
48432 On ch=3 n=58 v=117
48432 On ch=3 n=65 v=107
48432 On ch=3 n=76 v=104
48450 Off ch=3 n=65 v=107
48454 Off ch=3 n=76 v=104
48466 Off ch=3 n=58 v=117
48480 On ch=3 n=57 v=119
48480 On ch=3 n=65 v=121
48480 On ch=3 n=69 v=120
48480 On ch=3 n=72 v=117
48506 Off ch=3 n=65 v=121
48508 Off ch=3 n=69 v=120
48512 Off ch=3 n=57 v=119
48514 Off ch=3 n=72 v=117
48576 On ch=3 n=57 v=119
48576 On ch=3 n=69 v=119
48576 On ch=3 n=72 v=119
48598 Off ch=3 n=57 v=119
48612 Off ch=3 n=72 v=119
48614 Off ch=3 n=69 v=119
48624 On ch=3 n=57 v=119
48624 On ch=3 n=65 v=118
48654 Off ch=3 n=65 v=118
48662 Off ch=3 n=57 v=119
48672 On ch=3 n=55 v=121
48672 On ch=3 n=65 v=116
48672 On ch=3 n=67 v=118
48672 On ch=3 n=71 v=119
48700 Off ch=3 n=65 v=116
48702 Off ch=3 n=67 v=118
48704 Off ch=3 n=71 v=119
48710 Off ch=3 n=55 v=121
48768 On ch=3 n=55 v=117
48768 On ch=3 n=65 v=117
48768 On ch=3 n=67 v=119
48768 On ch=3 n=71 v=121
48792 Off ch=3 n=65 v=117
48796 Off ch=3 n=67 v=119
48798 Off ch=3 n=71 v=121
48800 Off ch=3 n=55 v=117
48816 On ch=3 n=55 v=115
48816 On ch=3 n=65 v=115
48816 On ch=3 n=67 v=115
48816 On ch=3 n=71 v=116
48848 Off ch=3 n=67 v=115
48848 Off ch=3 n=65 v=115
48862 Off ch=3 n=71 v=116
48864 On ch=3 n=48 v=119
48864 On ch=3 n=60 v=121
48864 On ch=3 n=64 v=119
48864 On ch=3 n=67 v=121
48864 On ch=3 n=72 v=119
48872 Off ch=3 n=55 v=115
48910 Off ch=3 n=48 v=119
48912 Off ch=3 n=60 v=121
48914 Off ch=3 n=64 v=119
48916 Off ch=3 n=67 v=121
48922 Off ch=3 n=72 v=119
49440 On ch=3 n=49 v=113
49440 On ch=3 n=56 v=113
49440 On ch=3 n=61 v=113
49446 Off ch=3 n=49 v=113
49452 Off ch=3 n=61 v=113
49452 Off ch=3 n=56 v=113
49488 On ch=3 n=49 v=113
49488 On ch=3 n=56 v=115
49502 Off ch=3 n=56 v=115
49504 Off ch=3 n=49 v=113
49536 On ch=3 n=36 v=114
49536 On ch=3 n=43 v=116
49536 On ch=3 n=48 v=118
49548 Off ch=3 n=36 v=114
49550 Off ch=3 n=48 v=118
49550 Off ch=3 n=43 v=116
49632 On ch=3 n=35 v=103
49632 On ch=3 n=42 v=113
49632 On ch=3 n=47 v=112
49640 Off ch=3 n=35 v=103
49642 Off ch=3 n=47 v=112
49644 Off ch=3 n=42 v=113
49680 On ch=3 n=35 v=108
49680 On ch=3 n=42 v=112
49680 On ch=3 n=47 v=100
49690 Off ch=3 n=47 v=100
49690 Off ch=3 n=35 v=108
49692 Off ch=3 n=42 v=112
49728 On ch=3 n=36 v=118
49728 On ch=3 n=43 v=112
49728 On ch=3 n=48 v=113
49746 Off ch=3 n=43 v=112
49748 Off ch=3 n=48 v=113
49748 Off ch=3 n=36 v=118
49824 On ch=3 n=37 v=115
49824 On ch=3 n=44 v=117
49824 On ch=3 n=49 v=112
49836 Off ch=3 n=44 v=117
49840 Off ch=3 n=49 v=112
49840 Off ch=3 n=37 v=115
49872 On ch=3 n=37 v=115
49872 On ch=3 n=44 v=112
49872 On ch=3 n=49 v=104
49888 Off ch=3 n=49 v=104
49888 Off ch=3 n=44 v=112
49888 Off ch=3 n=37 v=115
49920 On ch=3 n=36 v=111
49920 On ch=3 n=43 v=112
49920 On ch=3 n=48 v=111
49934 Off ch=3 n=43 v=112
49936 Off ch=3 n=48 v=111
49938 Off ch=3 n=36 v=111
49968 On ch=3 n=36 v=104
49968 On ch=3 n=48 v=100
49986 Off ch=3 n=48 v=100
49990 Off ch=3 n=36 v=104
50016 On ch=3 n=35 v=115
50016 On ch=3 n=42 v=114
50016 On ch=3 n=47 v=115
50032 Off ch=3 n=42 v=114
50038 Off ch=3 n=47 v=115
50056 Off ch=3 n=35 v=115
50112 On ch=3 n=48 v=116
50112 On ch=3 n=60 v=116
50112 On ch=3 n=64 v=116
50112 On ch=3 n=67 v=116
50112 On ch=3 n=72 v=116
50138 Off ch=3 n=60 v=116
50140 Off ch=3 n=48 v=116
50144 Off ch=3 n=64 v=116
50146 Off ch=3 n=67 v=116
50160 Off ch=3 n=72 v=116
50208 On ch=3 n=41 v=116
50208 On ch=3 n=60 v=116
50208 On ch=3 n=65 v=116
50208 On ch=3 n=69 v=116
50208 On ch=3 n=72 v=116
50208 On ch=3 n=77 v=116
50232 Off ch=3 n=60 v=116
50238 Off ch=3 n=65 v=116
50238 Off ch=3 n=41 v=116
50240 Off ch=3 n=72 v=116
50240 Off ch=3 n=69 v=116
50256 Off ch=3 n=77 v=116
50304 On ch=3 n=48 v=117
50304 On ch=3 n=60 v=119
50304 On ch=3 n=64 v=118
50304 On ch=3 n=67 v=120
50324 Off ch=3 n=60 v=119
50332 Off ch=3 n=64 v=118
50336 Off ch=3 n=67 v=120
50340 Off ch=3 n=48 v=117
50400 On ch=3 n=41 v=114
50400 On ch=3 n=65 v=119
50400 On ch=3 n=69 v=121
50400 On ch=3 n=72 v=119
50400 On ch=3 n=77 v=122
50490 Off ch=3 n=65 v=119
50496 Off ch=3 n=77 v=122
50498 Off ch=3 n=72 v=119
50498 Off ch=3 n=69 v=121
50498 Off ch=3 n=41 v=114
50832 On ch=3 n=29 v=118
50832 On ch=3 n=41 v=123
50832 On ch=3 n=65 v=119
50832 On ch=3 n=72 v=119
50832 On ch=3 n=77 v=118
50854 Off ch=3 n=41 v=123
50858 Off ch=3 n=65 v=119
50860 Off ch=3 n=29 v=118
50864 Off ch=3 n=77 v=118
50864 Off ch=3 n=72 v=119
50880 On ch=3 n=29 v=116
50880 On ch=3 n=41 v=116
50880 On ch=3 n=65 v=119
50880 On ch=3 n=72 v=119
50880 On ch=3 n=77 v=117
50908 Off ch=3 n=65 v=119
50910 Off ch=3 n=77 v=117
50912 Off ch=3 n=41 v=116
50912 Off ch=3 n=29 v=116
50914 Off ch=3 n=72 v=119
50928 On ch=3 n=29 v=113
50928 On ch=3 n=41 v=122
50928 On ch=3 n=65 v=123
50928 On ch=3 n=72 v=116
50928 On ch=3 n=77 v=119
51032 Off ch=3 n=77 v=119
51036 Off ch=3 n=72 v=116
51036 Off ch=3 n=65 v=123
51064 Off ch=3 n=41 v=122
51064 Off ch=3 n=29 v=113
51072 On ch=3 n=36 v=120
51072 On ch=3 n=60 v=119
51072 On ch=3 n=72 v=120
51090 Off ch=3 n=60 v=119
51110 Off ch=3 n=72 v=120
51122 Off ch=3 n=36 v=120
51168 On ch=3 n=29 v=119
51168 On ch=3 n=41 v=120
51168 On ch=3 n=65 v=120
51168 On ch=3 n=69 v=120
51168 On ch=3 n=72 v=118
51168 On ch=3 n=77 v=122
51198 Off ch=3 n=65 v=120
51202 Off ch=3 n=77 v=122
51204 Off ch=3 n=72 v=118
51204 Off ch=3 n=69 v=120
51210 Off ch=3 n=41 v=120
51210 Off ch=3 n=29 v=119
51264 On ch=3 n=36 v=118
51264 On ch=3 n=60 v=121
51264 On ch=3 n=64 v=119
51264 On ch=3 n=67 v=122
51264 On ch=3 n=72 v=121
51286 Off ch=3 n=60 v=121
51290 Off ch=3 n=64 v=119
51292 Off ch=3 n=67 v=122
51298 Off ch=3 n=72 v=121
51316 Off ch=3 n=36 v=118
51360 On ch=3 n=29 v=117
51360 On ch=3 n=41 v=123
51360 On ch=3 n=65 v=119
51360 On ch=3 n=69 v=121
51360 On ch=3 n=72 v=122
51360 On ch=3 n=77 v=123
51486 Off ch=3 n=72 v=122
51486 Off ch=3 n=65 v=119
51488 Off ch=3 n=77 v=123
51488 Off ch=3 n=69 v=121
51492 Off ch=3 n=41 v=123
51492 Off ch=3 n=29 v=117
51792 On ch=3 n=65 v=119
51792 On ch=3 n=72 v=118
51792 On ch=3 n=77 v=111
51824 Off ch=3 n=77 v=111
51824 Off ch=3 n=72 v=118
51824 Off ch=3 n=65 v=119
51840 On ch=3 n=65 v=117
51840 On ch=3 n=72 v=117
51840 On ch=3 n=77 v=117
51874 Off ch=3 n=65 v=117
51878 Off ch=3 n=77 v=117
51880 Off ch=3 n=72 v=117
51888 On ch=3 n=65 v=117
51888 On ch=3 n=72 v=117
51888 On ch=3 n=77 v=117
51912 Off ch=3 n=77 v=117
51936 Off ch=3 n=72 v=117
51936 Off ch=3 n=65 v=117
51936 On ch=3 n=77 v=98
52166 Off ch=3 n=77 v=98
52176 On ch=3 n=65 v=119
52176 On ch=3 n=72 v=119
52176 On ch=3 n=77 v=114
52204 Off ch=3 n=65 v=119
52208 Off ch=3 n=77 v=114
52208 Off ch=3 n=72 v=119
52224 On ch=3 n=65 v=118
52224 On ch=3 n=72 v=118
52224 On ch=3 n=77 v=117
52270 Off ch=3 n=77 v=117
52272 Off ch=3 n=72 v=117
52272 Off ch=3 n=65 v=117
52272 On ch=3 n=65 v=117
52272 On ch=3 n=72 v=117
52272 On ch=3 n=77 v=117
52296 Off ch=3 n=77 v=117
52320 Off ch=3 n=72 v=118
52320 Off ch=3 n=65 v=118
52320 On ch=3 n=77 v=94
52560 Off ch=3 n=77 v=94
52608 On ch=3 n=77 v=116
52638 Off ch=3 n=77 v=116
52656 On ch=3 n=77 v=116
52704 On ch=3 n=75 v=116
52752 On ch=3 n=72 v=107
52848 On ch=3 n=68 v=118
52850 Off ch=3 n=77 v=116
52944 On ch=3 n=65 v=118
53040 On ch=3 n=63 v=117
53046 Off ch=3 n=63 v=117
53048 Off ch=3 n=72 v=107
53160 Off ch=3 n=68 v=118
53162 Off ch=3 n=75 v=116
53166 Off ch=3 n=65 v=118
53232 On ch=3 n=60 v=116
53232 On ch=3 n=67 v=116
53232 On ch=3 n=72 v=116
53272 Off ch=3 n=60 v=116
53278 Off ch=3 n=72 v=116
53280 Off ch=3 n=67 v=116
53328 On ch=3 n=59 v=114
53328 On ch=3 n=65 v=114
53328 On ch=3 n=71 v=114
53328 On ch=3 n=74 v=114
53364 Off ch=3 n=59 v=114
53376 Off ch=3 n=74 v=114
53376 Off ch=3 n=71 v=114
53376 Off ch=3 n=65 v=114
53424 On ch=3 n=63 v=115
53424 On ch=3 n=71 v=115
53424 On ch=3 n=75 v=115
53470 Off ch=3 n=75 v=115
53470 Off ch=3 n=63 v=115
53472 Off ch=3 n=71 v=115
53520 On ch=3 n=62 v=116
53520 On ch=3 n=67 v=116
53520 On ch=3 n=74 v=116
53520 On ch=3 n=77 v=116
53558 Off ch=3 n=62 v=116
53568 Off ch=3 n=77 v=116
53568 Off ch=3 n=74 v=116
53568 Off ch=3 n=67 v=116
53616 On ch=3 n=59 v=120
53616 On ch=3 n=68 v=120
53616 On ch=3 n=74 v=120
53616 On ch=3 n=80 v=120
53658 Off ch=3 n=80 v=120
53658 Off ch=3 n=68 v=120
53664 Off ch=3 n=74 v=120
53664 Off ch=3 n=59 v=120
53712 On ch=3 n=55 v=120
53712 On ch=3 n=67 v=120
53712 On ch=3 n=77 v=120
53712 On ch=3 n=83 v=120
53754 Off ch=3 n=67 v=120
53760 Off ch=3 n=83 v=120
53760 Off ch=3 n=77 v=120
53760 Off ch=3 n=55 v=120
53808 On ch=3 n=24 v=120
53808 On ch=3 n=48 v=120
53808 On ch=3 n=60 v=120
53808 On ch=3 n=72 v=120
53856 Off ch=3 n=48 v=120
53858 Off ch=3 n=60 v=120
53862 Off ch=3 n=72 v=120
53862 Off ch=3 n=24 v=120
54096 On ch=3 n=67 v=113
54116 Off ch=3 n=67 v=113
54144 On ch=3 n=67 v=108
54190 Off ch=3 n=67 v=108
54192 On ch=3 n=69 v=118
54234 Off ch=3 n=69 v=118
54240 On ch=3 n=67 v=118
54288 On ch=3 n=48 v=120
54288 On ch=3 n=55 v=120
54288 On ch=3 n=64 v=119
54308 Off ch=3 n=55 v=120
54312 Off ch=3 n=48 v=120
54318 Off ch=3 n=64 v=119
54336 On ch=3 n=48 v=113
54336 On ch=3 n=55 v=116
54336 On ch=3 n=64 v=118
54342 Off ch=3 n=67 v=118
54356 Off ch=3 n=64 v=118
54356 Off ch=3 n=55 v=116
54356 Off ch=3 n=48 v=113
54384 On ch=3 n=50 v=122
54384 On ch=3 n=57 v=119
54384 On ch=3 n=65 v=115
54404 Off ch=3 n=65 v=115
54404 Off ch=3 n=57 v=119
54404 Off ch=3 n=50 v=122
54432 On ch=3 n=48 v=108
54432 On ch=3 n=55 v=121
54432 On ch=3 n=64 v=120
54452 Off ch=3 n=64 v=120
54452 Off ch=3 n=55 v=121
54452 Off ch=3 n=48 v=108
54480 On ch=3 n=47 v=119
54480 On ch=3 n=53 v=118
54480 On ch=3 n=62 v=119
54500 Off ch=3 n=62 v=119
54500 Off ch=3 n=53 v=118
54500 Off ch=3 n=47 v=119
54528 On ch=3 n=45 v=119
54528 On ch=3 n=52 v=121
54528 On ch=3 n=60 v=119
54546 Off ch=3 n=60 v=119
54548 Off ch=3 n=52 v=121
54548 Off ch=3 n=45 v=119
54576 On ch=3 n=43 v=123
54576 On ch=3 n=50 v=123
54576 On ch=3 n=59 v=122
54632 Off ch=3 n=50 v=123
54636 Off ch=3 n=59 v=122
54636 Off ch=3 n=43 v=123
54768 On ch=3 n=55 v=119
54768 On ch=3 n=60 v=119
54880 Off ch=3 n=55 v=119
54882 Off ch=3 n=60 v=119
54912 On ch=3 n=55 v=117
54912 On ch=3 n=60 v=110
54936 Off ch=3 n=55 v=117
54940 Off ch=3 n=60 v=110
54960 On ch=3 n=53 v=119
54960 On ch=3 n=57 v=119
54960 On ch=3 n=60 v=117
54980 Off ch=3 n=53 v=119
54982 Off ch=3 n=57 v=119
54992 Off ch=3 n=60 v=117
55056 On ch=3 n=53 v=119
55056 On ch=3 n=57 v=119
55056 On ch=3 n=60 v=119
55074 Off ch=3 n=53 v=119
55078 Off ch=3 n=57 v=119
55082 Off ch=3 n=60 v=119
55104 On ch=3 n=53 v=114
55104 On ch=3 n=57 v=114
55104 On ch=3 n=60 v=111
55120 Off ch=3 n=57 v=114
55124 Off ch=3 n=53 v=114
55132 Off ch=3 n=60 v=111
55152 On ch=3 n=52 v=118
55152 On ch=3 n=56 v=118
55152 On ch=3 n=59 v=118
55170 Off ch=3 n=52 v=118
55174 Off ch=3 n=56 v=118
55180 Off ch=3 n=59 v=118
55200 On ch=3 n=52 v=106
55200 On ch=3 n=56 v=107
55200 On ch=3 n=59 v=110
55216 Off ch=3 n=52 v=106
55224 Off ch=3 n=59 v=110
55224 Off ch=3 n=56 v=107
55248 On ch=3 n=52 v=116
55248 On ch=3 n=56 v=116
55248 On ch=3 n=59 v=117
55268 Off ch=3 n=52 v=116
55272 Off ch=3 n=56 v=116
55274 Off ch=3 n=59 v=117
55296 On ch=3 n=52 v=116
55296 On ch=3 n=56 v=116
55296 On ch=3 n=59 v=115
55316 Off ch=3 n=52 v=116
55326 Off ch=3 n=56 v=116
55328 Off ch=3 n=59 v=115
55344 On ch=3 n=52 v=118
55344 On ch=3 n=57 v=119
55344 On ch=3 n=60 v=116
55378 Off ch=3 n=52 v=118
55382 Off ch=3 n=57 v=119
55386 Off ch=3 n=60 v=116
55440 On ch=3 n=52 v=120
55440 On ch=3 n=57 v=122
55440 On ch=3 n=60 v=118
55478 Off ch=3 n=52 v=120
55482 Off ch=3 n=60 v=118
55484 Off ch=3 n=57 v=122
55536 On ch=3 n=52 v=118
55536 On ch=3 n=55 v=119
55536 On ch=3 n=58 v=103
55910 Off ch=3 n=52 v=118
55920 On ch=3 n=60 v=107
55920 On ch=3 n=64 v=116
56304 On ch=3 n=67 v=113
56308 Off ch=3 n=64 v=116
56590 Off ch=3 n=58 v=103
56602 Off ch=3 n=55 v=119
56612 Off ch=3 n=60 v=107
56688 On ch=3 n=60 v=119
56688 On ch=3 n=72 v=113
56688 On ch=3 n=84 v=115
56698 Off ch=3 n=67 v=113
57002 Off ch=3 n=84 v=115
57012 Off ch=3 n=72 v=113
57012 Off ch=3 n=60 v=119
79872 On ch=3 n=43 v=116
79872 On ch=3 n=55 v=115
79872 On ch=3 n=67 v=104
79872 On ch=3 n=71 v=103
79872 On ch=3 n=74 v=101
79872 On ch=3 n=79 v=113
80046 Off ch=3 n=71 v=103
80064 Off ch=3 n=43 v=116
80064 On ch=3 n=48 v=117
80064 On ch=3 n=72 v=116
80064 On ch=3 n=75 v=101
80066 Off ch=3 n=74 v=101
80070 Off ch=3 n=55 v=115
80142 Off ch=3 n=48 v=117
80144 Off ch=3 n=79 v=113
80150 Off ch=3 n=67 v=104
80152 Off ch=3 n=75 v=101
80154 Off ch=3 n=72 v=116
80256 On ch=3 n=43 v=116
80256 On ch=3 n=55 v=118
80256 On ch=3 n=67 v=111
80256 On ch=3 n=71 v=111
80256 On ch=3 n=74 v=112
80256 On ch=3 n=79 v=115
80414 Off ch=3 n=71 v=111
80438 Off ch=3 n=43 v=116
80444 Off ch=3 n=74 v=112
80446 Off ch=3 n=55 v=118
80448 On ch=3 n=48 v=119
80448 On ch=3 n=72 v=115
80448 On ch=3 n=75 v=114
80510 Off ch=3 n=79 v=115
80524 Off ch=3 n=48 v=119
80548 Off ch=3 n=67 v=111
80552 Off ch=3 n=72 v=115
80570 Off ch=3 n=75 v=114
80640 On ch=3 n=46 v=110
80640 On ch=3 n=58 v=118
80640 On ch=3 n=65 v=118
80640 On ch=3 n=70 v=115
80640 On ch=3 n=74 v=116
80640 On ch=3 n=77 v=119
80748 Off ch=3 n=46 v=110
80768 Off ch=3 n=58 v=118
80804 Off ch=3 n=65 v=118
80832 Off ch=3 n=74 v=116
80832 On ch=3 n=51 v=116
80832 On ch=3 n=58 v=115
80832 On ch=3 n=63 v=117
80832 On ch=3 n=67 v=114
80832 On ch=3 n=75 v=112
80844 Off ch=3 n=77 v=119
80928 On ch=3 n=79 v=112
80974 Off ch=3 n=58 v=115
80978 Off ch=3 n=67 v=114
80990 Off ch=3 n=70 v=115
81018 Off ch=3 n=63 v=117
81024 On ch=3 n=62 v=114
81024 On ch=3 n=72 v=114
81024 On ch=3 n=74 v=114
81024 On ch=3 n=78 v=110
81026 Off ch=3 n=75 v=112
81028 Off ch=3 n=51 v=116
81042 Off ch=3 n=79 v=112
81216 On ch=3 n=79 v=111
81224 Off ch=3 n=78 v=110
81312 On ch=3 n=81 v=112
81322 Off ch=3 n=72 v=114
81360 Off ch=3 n=81 v=112
81408 On ch=3 n=82 v=116
81792 Off ch=3 n=82 v=116
81792 Off ch=3 n=79 v=111
81792 Off ch=3 n=74 v=114
81792 Off ch=3 n=62 v=114
81792 On ch=3 n=60 v=112
81792 On ch=3 n=63 v=112
81792 On ch=3 n=68 v=112
81792 On ch=3 n=72 v=112
81984 Off ch=3 n=72 v=113
81984 On ch=3 n=72 v=113
82080 On ch=3 n=74 v=110
82096 Off ch=3 n=63 v=112
82114 Off ch=3 n=60 v=112
82172 Off ch=3 n=74 v=110
82176 Off ch=3 n=72 v=112
82176 On ch=3 n=63 v=114
82176 On ch=3 n=67 v=114
82176 On ch=3 n=70 v=114
82182 Off ch=3 n=68 v=112
82560 Off ch=3 n=70 v=114
82560 Off ch=3 n=67 v=114
82560 Off ch=3 n=63 v=114
85248 On ch=3 n=79 v=104
85344 On ch=3 n=77 v=110
85356 Off ch=3 n=79 v=104
85426 Off ch=3 n=77 v=110
85440 On ch=3 n=77 v=116
85536 On ch=3 n=75 v=112
85552 Off ch=3 n=77 v=116
85630 Off ch=3 n=75 v=112
85632 On ch=3 n=75 v=111
85728 On ch=3 n=72 v=114
85732 Off ch=3 n=75 v=111
85920 On ch=3 n=74 v=112
85924 Off ch=3 n=72 v=114
86014 Off ch=3 n=74 v=112
86016 On ch=3 n=63 v=96
86016 On ch=3 n=67 v=65
86016 On ch=3 n=75 v=103
86350 Off ch=3 n=67 v=65
86394 Off ch=3 n=75 v=103
86400 On ch=3 n=68 v=111
86400 On ch=3 n=72 v=111
86496 On ch=3 n=74 v=110
86516 Off ch=3 n=72 v=111
86592 On ch=3 n=72 v=110
86642 Off ch=3 n=74 v=110
86688 On ch=3 n=74 v=89
86694 Off ch=3 n=72 v=110
86768 Off ch=3 n=68 v=111
86782 Off ch=3 n=74 v=89
86784 On ch=3 n=67 v=96
86784 On ch=3 n=70 v=101
87168 Off ch=3 n=70 v=101
87168 On ch=3 n=66 v=110
87168 On ch=3 n=72 v=103
87180 Off ch=3 n=67 v=96
87264 On ch=3 n=74 v=112
87286 Off ch=3 n=72 v=103
87352 Off ch=3 n=74 v=112
87360 On ch=3 n=72 v=108
87456 On ch=3 n=74 v=100
87490 Off ch=3 n=72 v=108
87550 Off ch=3 n=63 v=96
87552 On ch=3 n=62 v=113
87552 On ch=3 n=65 v=71
87552 On ch=3 n=70 v=106
87562 Off ch=3 n=62 v=113
87574 Off ch=3 n=66 v=110
87918 Off ch=3 n=70 v=106
87936 On ch=3 n=61 v=116
87936 On ch=3 n=70 v=110
87946 Off ch=3 n=74 v=100
88032 On ch=3 n=68 v=112
88046 Off ch=3 n=70 v=110
88120 Off ch=3 n=68 v=112
88128 On ch=3 n=68 v=116
88206 Off ch=3 n=68 v=116
88224 On ch=3 n=67 v=114
88274 Off ch=3 n=65 v=71
88320 On ch=3 n=60 v=111
88320 On ch=3 n=64 v=106
88334 Off ch=3 n=61 v=116
88704 On ch=3 n=70 v=101
88718 Off ch=3 n=64 v=106
88800 On ch=3 n=68 v=113
88804 Off ch=3 n=67 v=114
88812 Off ch=3 n=70 v=101
88892 Off ch=3 n=68 v=113
88896 On ch=3 n=68 v=117
88990 Off ch=3 n=68 v=117
88992 On ch=3 n=67 v=117
89072 Off ch=3 n=67 v=117
89088 On ch=3 n=67 v=116
89184 On ch=3 n=64 v=114
89194 Off ch=3 n=60 v=111
89280 On ch=3 n=60 v=108
89300 Off ch=3 n=64 v=114
89376 On ch=3 n=58 v=108
89472 On ch=3 n=57 v=111
89472 On ch=3 n=65 v=106
89480 Off ch=3 n=58 v=108
89484 Off ch=3 n=67 v=116
89854 Off ch=3 n=60 v=108
89856 On ch=3 n=58 v=107
89856 On ch=3 n=60 v=18
89880 Off ch=3 n=57 v=111
89882 Off ch=3 n=60 v=18
90028 Off ch=3 n=58 v=107
90048 On ch=3 n=57 v=110
90288 On ch=3 n=56 v=106
90298 Off ch=3 n=57 v=110
90624 On ch=3 n=55 v=89
90624 On ch=3 n=62 v=76
90628 Off ch=3 n=56 v=106
91180 Off ch=3 n=55 v=89
91248 On ch=3 n=41 v=18
91248 On ch=3 n=53 v=18
91248 On ch=3 n=57 v=18
91342 Off ch=3 n=62 v=76
92282 Off ch=3 n=41 v=18
92298 Off ch=3 n=53 v=18
92300 Off ch=3 n=65 v=106
92308 Off ch=3 n=57 v=18
92928 Par ch=3 c=120 v=0
92930 Par ch=3 c=123 v=0
92930 Meta TrkEnd
TrkEnd
MTrk
0 Meta Text "Choir"
166 Par ch=4 c=121 v=0
222 Par ch=4 c=0 v=0
224 Par ch=4 c=32 v=0
226 PrCh ch=4 p=52
228 Par ch=4 c=7 v=123
228 Par ch=4 c=10 v=20
228 Par ch=4 c=11 v=95
230 Par ch=4 c=91 v=127
230 Par ch=4 c=93 v=0
672 On ch=4 n=65 v=113
672 On ch=4 n=68 v=113
672 On ch=4 n=70 v=113
672 On ch=4 n=73 v=113
748 Off ch=4 n=73 v=113
752 Off ch=4 n=65 v=113
766 Off ch=4 n=70 v=113
766 Off ch=4 n=68 v=113
768 On ch=4 n=65 v=113
768 On ch=4 n=68 v=113
768 On ch=4 n=70 v=113
768 On ch=4 n=73 v=113
822 Off ch=4 n=68 v=113
824 Off ch=4 n=70 v=113
838 Off ch=4 n=73 v=113
844 Off ch=4 n=65 v=113
864 On ch=4 n=65 v=113
864 On ch=4 n=68 v=113
864 On ch=4 n=70 v=113
864 On ch=4 n=73 v=113
946 Off ch=4 n=73 v=113
950 Off ch=4 n=68 v=113
950 Off ch=4 n=65 v=113
954 Off ch=4 n=70 v=113
960 On ch=4 n=65 v=113
960 On ch=4 n=68 v=113
960 On ch=4 n=70 v=113
960 On ch=4 n=73 v=113
1124 Off ch=4 n=73 v=113
1130 Off ch=4 n=65 v=113
1136 Off ch=4 n=68 v=113
1140 Off ch=4 n=70 v=113
1152 On ch=4 n=65 v=113
1152 On ch=4 n=68 v=113
1152 On ch=4 n=70 v=113
1152 On ch=4 n=73 v=113
1310 Off ch=4 n=68 v=113
1314 Off ch=4 n=70 v=113
1320 Off ch=4 n=73 v=113
1324 Off ch=4 n=65 v=113
1440 On ch=4 n=63 v=113
1440 On ch=4 n=67 v=113
1440 On ch=4 n=70 v=113
1440 On ch=4 n=73 v=113
1514 Off ch=4 n=70 v=113
1514 Off ch=4 n=67 v=113
1516 Off ch=4 n=73 v=113
1520 Off ch=4 n=63 v=113
1536 On ch=4 n=63 v=113
1536 On ch=4 n=67 v=113
1536 On ch=4 n=70 v=113
1536 On ch=4 n=73 v=113
1618 Off ch=4 n=67 v=113
1622 Off ch=4 n=70 v=113
1630 Off ch=4 n=73 v=113
1630 Off ch=4 n=63 v=113
1632 On ch=4 n=65 v=113
1632 On ch=4 n=68 v=113
1632 On ch=4 n=70 v=113
1712 Off ch=4 n=70 v=113
1720 Off ch=4 n=68 v=113
1726 Off ch=4 n=65 v=113
1728 On ch=4 n=67 v=113
1728 On ch=4 n=70 v=113
1728 On ch=4 n=73 v=113
1822 Off ch=4 n=73 v=113
1822 Off ch=4 n=70 v=113
1822 Off ch=4 n=67 v=113
1824 On ch=4 n=65 v=113
1824 On ch=4 n=68 v=113
1870 Off ch=4 n=68 v=113
1870 Off ch=4 n=65 v=113
1872 On ch=4 n=63 v=113
1872 On ch=4 n=67 v=113
2044 Off ch=4 n=67 v=113
2072 Off ch=4 n=63 v=113
2112 On ch=4 n=63 v=113
2112 On ch=4 n=66 v=113
2112 On ch=4 n=68 v=113
2112 On ch=4 n=72 v=113
2184 Off ch=4 n=66 v=113
2192 Off ch=4 n=72 v=113
2200 Off ch=4 n=63 v=113
2202 Off ch=4 n=68 v=113
2208 On ch=4 n=63 v=113
2208 On ch=4 n=66 v=113
2208 On ch=4 n=68 v=113
2208 On ch=4 n=72 v=113
2280 Off ch=4 n=66 v=113
2288 Off ch=4 n=63 v=113
2290 Off ch=4 n=68 v=113
2292 Off ch=4 n=72 v=113
2304 On ch=4 n=63 v=113
2304 On ch=4 n=66 v=113
2304 On ch=4 n=68 v=113
2304 On ch=4 n=72 v=113
2378 Off ch=4 n=66 v=113
2392 Off ch=4 n=72 v=113
2392 Off ch=4 n=63 v=113
2398 Off ch=4 n=68 v=113
2400 On ch=4 n=63 v=113
2400 On ch=4 n=66 v=113
2400 On ch=4 n=70 v=113
2400 On ch=4 n=73 v=113
2590 Off ch=4 n=73 v=113
2590 Off ch=4 n=70 v=113
2590 Off ch=4 n=66 v=113
2590 Off ch=4 n=63 v=113
2592 On ch=4 n=63 v=113
2592 On ch=4 n=66 v=113
2592 On ch=4 n=68 v=113
2592 On ch=4 n=72 v=113
2640 Off ch=4 n=66 v=113
2646 Off ch=4 n=63 v=113
2758 Off ch=4 n=68 v=113
2782 Off ch=4 n=72 v=113
2784 On ch=4 n=68 v=113
2862 Off ch=4 n=68 v=113
2880 On ch=4 n=61 v=113
2880 On ch=4 n=65 v=113
2880 On ch=4 n=68 v=113
2880 On ch=4 n=73 v=113
2922 Off ch=4 n=65 v=113
2924 Off ch=4 n=68 v=113
2924 Off ch=4 n=61 v=113
2932 Off ch=4 n=73 v=113
2976 On ch=4 n=61 v=113
2976 On ch=4 n=65 v=113
2976 On ch=4 n=68 v=113
2976 On ch=4 n=73 v=113
3022 Off ch=4 n=65 v=113
3062 Off ch=4 n=68 v=113
3070 Off ch=4 n=73 v=113
3070 Off ch=4 n=61 v=113
3072 On ch=4 n=66 v=113
3072 On ch=4 n=70 v=113
3146 Off ch=4 n=66 v=113
3166 Off ch=4 n=70 v=113
3168 On ch=4 n=65 v=113
3168 On ch=4 n=68 v=113
3262 Off ch=4 n=68 v=113
3262 Off ch=4 n=65 v=113
3264 On ch=4 n=63 v=113
3264 On ch=4 n=66 v=113
3358 Off ch=4 n=66 v=113
3358 Off ch=4 n=63 v=113
3360 On ch=4 n=61 v=113
3360 On ch=4 n=65 v=113
3712 Off ch=4 n=65 v=113
3724 Off ch=4 n=61 v=113
3840 On ch=4 n=46 v=113
3840 On ch=4 n=53 v=113
3840 On ch=4 n=58 v=113
3840 On ch=4 n=61 v=113
3840 On ch=4 n=65 v=113
4578 Off ch=4 n=58 v=113
4598 Off ch=4 n=53 v=113
4598 Off ch=4 n=46 v=113
4606 Off ch=4 n=65 v=113
4606 Off ch=4 n=61 v=113
4608 On ch=4 n=59 v=113
4798 Off ch=4 n=59 v=113
4800 On ch=4 n=66 v=113
4894 Off ch=4 n=66 v=113
4896 On ch=4 n=68 v=113
5086 Off ch=4 n=68 v=113
5088 On ch=4 n=61 v=113
5278 Off ch=4 n=61 v=113
5280 On ch=4 n=66 v=113
5280 On ch=4 n=70 v=113
6142 Off ch=4 n=70 v=113
6142 Off ch=4 n=66 v=113
6144 On ch=4 n=58 v=113
6144 On ch=4 n=63 v=113
6910 Off ch=4 n=63 v=113
6910 Off ch=4 n=58 v=113
6912 On ch=4 n=56 v=113
6912 On ch=4 n=60 v=113
6912 On ch=4 n=68 v=113
7102 Off ch=4 n=68 v=113
7102 Off ch=4 n=60 v=113
7102 Off ch=4 n=56 v=113
7104 On ch=4 n=58 v=113
7104 On ch=4 n=70 v=113
7198 Off ch=4 n=70 v=113
7198 Off ch=4 n=58 v=113
7200 On ch=4 n=56 v=113
7200 On ch=4 n=68 v=113
7246 Off ch=4 n=68 v=113
7246 Off ch=4 n=56 v=113
7248 On ch=4 n=66 v=113
7294 Off ch=4 n=66 v=113
7296 On ch=4 n=63 v=113
7336 Off ch=4 n=63 v=113
7488 On ch=4 n=65 v=113
7582 Off ch=4 n=65 v=113
7584 On ch=4 n=66 v=113
7678 Off ch=4 n=66 v=113
7680 On ch=4 n=59 v=113
7680 On ch=4 n=63 v=113
7680 On ch=4 n=71 v=113
7744 Off ch=4 n=59 v=113
7750 Off ch=4 n=71 v=113
7750 Off ch=4 n=63 v=113
7776 On ch=4 n=59 v=113
7776 On ch=4 n=63 v=113
7776 On ch=4 n=71 v=113
7846 Off ch=4 n=63 v=113
7862 Off ch=4 n=71 v=113
7870 Off ch=4 n=59 v=113
7872 On ch=4 n=58 v=113
7872 On ch=4 n=65 v=113
7872 On ch=4 n=70 v=113
7938 Off ch=4 n=70 v=113
7952 Off ch=4 n=65 v=113
7960 Off ch=4 n=58 v=113
8064 On ch=4 n=57 v=113
8064 On ch=4 n=64 v=113
8064 On ch=4 n=69 v=113
8128 Off ch=4 n=69 v=113
8130 Off ch=4 n=57 v=113
8138 Off ch=4 n=64 v=113
8160 On ch=4 n=57 v=113
8160 On ch=4 n=64 v=113
8160 On ch=4 n=69 v=113
8250 Off ch=4 n=69 v=113
8250 Off ch=4 n=57 v=113
8254 Off ch=4 n=64 v=113
8256 On ch=4 n=58 v=113
8256 On ch=4 n=65 v=113
8256 On ch=4 n=70 v=113
8336 Off ch=4 n=65 v=113
8342 Off ch=4 n=58 v=113
8354 Off ch=4 n=70 v=113
8448 On ch=4 n=59 v=113
8448 On ch=4 n=66 v=113
8448 On ch=4 n=71 v=113
8508 Off ch=4 n=59 v=113
8520 Off ch=4 n=71 v=113
8524 Off ch=4 n=66 v=113
8544 On ch=4 n=59 v=113
8544 On ch=4 n=66 v=113
8544 On ch=4 n=71 v=113
8634 Off ch=4 n=66 v=113
8638 Off ch=4 n=71 v=113
8638 Off ch=4 n=59 v=113
8640 On ch=4 n=58 v=113
8640 On ch=4 n=65 v=113
8640 On ch=4 n=70 v=113
8732 Off ch=4 n=70 v=113
8738 Off ch=4 n=65 v=113
8740 Off ch=4 n=58 v=113
8832 On ch=4 n=57 v=113
8832 On ch=4 n=64 v=113
8832 On ch=4 n=69 v=113
8904 Off ch=4 n=57 v=113
8926 Off ch=4 n=69 v=113
8926 Off ch=4 n=64 v=113
8928 On ch=4 n=57 v=113
9022 Off ch=4 n=57 v=113
9024 On ch=4 n=58 v=113
9024 On ch=4 n=65 v=113
9024 On ch=4 n=70 v=113
9102 Off ch=4 n=70 v=113
9122 Off ch=4 n=65 v=113
9132 Off ch=4 n=58 v=113
9216 On ch=4 n=63 v=113
9216 On ch=4 n=67 v=113
9216 On ch=4 n=70 v=113
9592 Off ch=4 n=63 v=113
9594 Off ch=4 n=67 v=113
9598 Off ch=4 n=70 v=113
9600 On ch=4 n=62 v=113
9600 On ch=4 n=65 v=113
9838 Off ch=4 n=65 v=113
9838 Off ch=4 n=62 v=113
9840 On ch=4 n=70 v=113
9982 Off ch=4 n=70 v=113
9984 On ch=4 n=61 v=113
9984 On ch=4 n=64 v=113
10078 Off ch=4 n=64 v=113
10078 Off ch=4 n=61 v=113
10080 On ch=4 n=67 v=113
10174 Off ch=4 n=67 v=113
10176 On ch=4 n=70 v=113
10366 Off ch=4 n=70 v=113
10368 On ch=4 n=60 v=113
10368 On ch=4 n=65 v=113
10368 On ch=4 n=69 v=113
10558 Off ch=4 n=69 v=113
10558 Off ch=4 n=65 v=113
10558 Off ch=4 n=60 v=113
10560 On ch=4 n=63 v=113
10750 Off ch=4 n=63 v=113
10752 On ch=4 n=72 v=113
11160 Off ch=4 n=72 v=113
11328 On ch=4 n=57 v=113
11518 Off ch=4 n=57 v=113
11520 On ch=4 n=58 v=113
12948 Off ch=4 n=58 v=113
44168 On ch=4 n=88 v=113
44172 Off ch=4 n=88 v=113
44172 On ch=4 n=76 v=113
44194 Off ch=4 n=76 v=113
44214 On ch=4 n=76 v=113
44214 On ch=4 n=88 v=113
44232 Off ch=4 n=88 v=113
44236 Off ch=4 n=76 v=113
44256 On ch=4 n=88 v=113
44258 Off ch=4 n=88 v=113
44260 On ch=4 n=76 v=113
44278 Off ch=4 n=76 v=113
44300 On ch=4 n=76 v=113
44300 On ch=4 n=88 v=113
44324 Off ch=4 n=88 v=113
44324 Off ch=4 n=76 v=113
44354 On ch=4 n=74 v=113
44354 On ch=4 n=86 v=113
44382 Off ch=4 n=86 v=113
44382 Off ch=4 n=74 v=113
44450 On ch=4 n=74 v=113
44450 On ch=4 n=86 v=113
44482 Off ch=4 n=86 v=113
44486 Off ch=4 n=74 v=113
44544 On ch=4 n=86 v=113
44546 Off ch=4 n=86 v=113
44548 On ch=4 n=74 v=113
44568 Off ch=4 n=74 v=113
44592 On ch=4 n=74 v=113
44592 On ch=4 n=86 v=113
44610 Off ch=4 n=86 v=113
44612 Off ch=4 n=74 v=113
44636 On ch=4 n=86 v=113
44640 Off ch=4 n=86 v=113
44640 On ch=4 n=74 v=113
44658 Off ch=4 n=74 v=113
44684 On ch=4 n=74 v=113
44684 On ch=4 n=86 v=113
44702 Off ch=4 n=74 v=113
44706 Off ch=4 n=86 v=113
44736 On ch=4 n=78 v=113
44738 Off ch=4 n=78 v=113
44740 On ch=4 n=90 v=113
44764 Off ch=4 n=90 v=113
44834 On ch=4 n=78 v=113
44834 On ch=4 n=90 v=113
44862 Off ch=4 n=90 v=113
44862 Off ch=4 n=78 v=113
44930 On ch=4 n=79 v=113
44930 On ch=4 n=91 v=113
44932 Off ch=4 n=79 v=113
44962 Off ch=4 n=91 v=113
45216 On ch=4 n=62 v=113
45216 On ch=4 n=74 v=113
45234 Off ch=4 n=62 v=113
45240 Off ch=4 n=74 v=113
45264 On ch=4 n=62 v=113
45264 On ch=4 n=74 v=113
45290 Off ch=4 n=74 v=113
45290 Off ch=4 n=62 v=113
45312 On ch=4 n=64 v=113
45312 On ch=4 n=76 v=113
45358 Off ch=4 n=76 v=113
45358 Off ch=4 n=64 v=113
45360 On ch=4 n=62 v=113
45360 On ch=4 n=74 v=113
45402 Off ch=4 n=74 v=113
45408 Off ch=4 n=62 v=113
45600 On ch=4 n=60 v=113
45600 On ch=4 n=74 v=113
45622 Off ch=4 n=74 v=113
45628 Off ch=4 n=60 v=113
45648 On ch=4 n=74 v=113
45674 Off ch=4 n=74 v=113
45696 On ch=4 n=64 v=113
45696 On ch=4 n=76 v=113
45742 Off ch=4 n=76 v=113
45742 Off ch=4 n=64 v=113
45744 On ch=4 n=62 v=113
45744 On ch=4 n=74 v=113
45776 Off ch=4 n=74 v=113
45776 Off ch=4 n=62 v=113
46176 On ch=4 n=72 v=113
46208 Off ch=4 n=72 v=113
46224 On ch=4 n=72 v=113
46260 Off ch=4 n=72 v=113
46272 On ch=4 n=72 v=113
46318 Off ch=4 n=72 v=113
46320 On ch=4 n=69 v=113
46414 Off ch=4 n=69 v=113
46416 On ch=4 n=65 v=113
46510 Off ch=4 n=65 v=113
46512 On ch=4 n=62 v=113
46606 Off ch=4 n=62 v=113
46608 On ch=4 n=60 v=113
46706 Off ch=4 n=60 v=113
47520 On ch=4 n=74 v=113
47520 On ch=4 n=86 v=113
47610 Off ch=4 n=86 v=113
47614 Off ch=4 n=74 v=113
47616 On ch=4 n=72 v=113
47616 On ch=4 n=84 v=113
47634 Off ch=4 n=84 v=113
47638 Off ch=4 n=72 v=113
47664 On ch=4 n=72 v=113
47664 On ch=4 n=84 v=113
47684 Off ch=4 n=84 v=113
47688 Off ch=4 n=72 v=113
47712 On ch=4 n=71 v=113
47712 On ch=4 n=83 v=113
47784 Off ch=4 n=71 v=113
47788 Off ch=4 n=83 v=113
47808 On ch=4 n=72 v=113
47808 On ch=4 n=84 v=113
47890 Off ch=4 n=84 v=113
47894 Off ch=4 n=72 v=113
47904 On ch=4 n=74 v=113
47904 On ch=4 n=86 v=113
47924 Off ch=4 n=86 v=113
47926 Off ch=4 n=74 v=113
47952 On ch=4 n=74 v=113
47952 On ch=4 n=86 v=113
47976 Off ch=4 n=86 v=113
47976 Off ch=4 n=74 v=113
48000 On ch=4 n=72 v=113
48000 On ch=4 n=84 v=113
48086 Off ch=4 n=72 v=113
48090 Off ch=4 n=84 v=113
48096 On ch=4 n=71 v=113
48096 On ch=4 n=83 v=113
48114 Off ch=4 n=83 v=113
48114 Off ch=4 n=71 v=113
48144 On ch=4 n=71 v=113
48144 On ch=4 n=83 v=113
48164 Off ch=4 n=83 v=113
48166 Off ch=4 n=71 v=113
48192 On ch=4 n=72 v=113
48192 On ch=4 n=84 v=113
48252 Off ch=4 n=84 v=113
48256 Off ch=4 n=72 v=113
48288 On ch=4 n=74 v=113
48288 On ch=4 n=86 v=113
48348 Off ch=4 n=74 v=113
48352 Off ch=4 n=86 v=113
48384 On ch=4 n=74 v=113
48384 On ch=4 n=86 v=113
48414 Off ch=4 n=86 v=113
48428 Off ch=4 n=74 v=113
48432 On ch=4 n=76 v=113
48432 On ch=4 n=88 v=113
48466 Off ch=4 n=76 v=113
48468 Off ch=4 n=88 v=113
48480 On ch=4 n=72 v=113
48480 On ch=4 n=84 v=113
48532 Off ch=4 n=84 v=113
48534 Off ch=4 n=72 v=113
48576 On ch=4 n=72 v=113
48576 On ch=4 n=84 v=113
48594 Off ch=4 n=84 v=113
48598 Off ch=4 n=72 v=113
48624 On ch=4 n=72 v=113
48624 On ch=4 n=84 v=113
48648 Off ch=4 n=84 v=113
48652 Off ch=4 n=72 v=113
48672 On ch=4 n=71 v=113
48672 On ch=4 n=83 v=113
48718 Off ch=4 n=83 v=113
48722 Off ch=4 n=71 v=113
48768 On ch=4 n=71 v=113
48768 On ch=4 n=83 v=113
48788 Off ch=4 n=83 v=113
48788 Off ch=4 n=71 v=113
48816 On ch=4 n=71 v=113
48816 On ch=4 n=83 v=113
48842 Off ch=4 n=83 v=113
48848 Off ch=4 n=71 v=113
48864 On ch=4 n=72 v=113
48864 On ch=4 n=84 v=113
48900 Off ch=4 n=84 v=113
48912 Off ch=4 n=72 v=113
54672 On ch=4 n=55 v=113
54766 Off ch=4 n=55 v=113
54768 On ch=4 n=48 v=113
54768 On ch=4 n=52 v=113
54768 On ch=4 n=60 v=113
54940 Off ch=4 n=52 v=113
54958 Off ch=4 n=60 v=113
54958 Off ch=4 n=48 v=113
54960 On ch=4 n=53 v=113
54960 On ch=4 n=57 v=113
55148 Off ch=4 n=53 v=113
55150 Off ch=4 n=57 v=113
55152 On ch=4 n=52 v=113
55152 On ch=4 n=56 v=113
55152 On ch=4 n=59 v=113
55342 Off ch=4 n=59 v=113
55342 Off ch=4 n=56 v=113
55342 Off ch=4 n=52 v=113
55344 On ch=4 n=57 v=113
55344 On ch=4 n=60 v=113
55500 Off ch=4 n=57 v=113
55534 Off ch=4 n=60 v=113
55536 On ch=4 n=48 v=113
55536 On ch=4 n=55 v=113
55536 On ch=4 n=58 v=113
55542 Off ch=4 n=55 v=113
55914 Off ch=4 n=48 v=113
55918 Off ch=4 n=58 v=113
55920 On ch=4 n=52 v=113
55920 On ch=4 n=64 v=113
55920 On ch=4 n=67 v=113
56268 Off ch=4 n=64 v=113
56292 Off ch=4 n=67 v=113
56302 Off ch=4 n=52 v=113
56304 On ch=4 n=55 v=113
56304 On ch=4 n=67 v=113
56686 Off ch=4 n=67 v=113
56686 Off ch=4 n=55 v=113
56688 On ch=4 n=64 v=113
56688 On ch=4 n=70 v=113
56688 On ch=4 n=72 v=113
57072 Off ch=4 n=72 v=113
57072 Off ch=4 n=64 v=113
57076 Off ch=4 n=70 v=113
92928 Par ch=4 c=120 v=0
92930 Par ch=4 c=123 v=0
92930 Meta TrkEnd
TrkEnd
MTrk
0 Meta Text "Brass"
172 Par ch=7 c=121 v=0
252 Par ch=7 c=0 v=0
254 Par ch=7 c=32 v=0
256 PrCh ch=7 p=62
258 Par ch=7 c=7 v=123
258 Par ch=7 c=10 v=110
258 Par ch=7 c=11 v=110
260 Par ch=7 c=91 v=127
260 Par ch=7 c=93 v=60
43296 On ch=7 n=76 v=120
43314 Off ch=7 n=76 v=120
43344 On ch=7 n=76 v=119
43364 Off ch=7 n=76 v=119
43392 On ch=7 n=81 v=121
43472 Off ch=7 n=81 v=121
43488 On ch=7 n=76 v=119
43508 Off ch=7 n=76 v=119
43536 On ch=7 n=76 v=120
43558 Off ch=7 n=76 v=120
43584 On ch=7 n=81 v=121
43670 Off ch=7 n=81 v=121
43680 On ch=7 n=76 v=120
43702 Off ch=7 n=76 v=120
43728 On ch=7 n=76 v=119
43756 Off ch=7 n=76 v=119
43776 On ch=7 n=75 v=120
43800 Off ch=7 n=75 v=120
43824 On ch=7 n=75 v=118
43852 Off ch=7 n=75 v=118
43872 On ch=7 n=76 v=119
43910 Off ch=7 n=76 v=119
43968 On ch=7 n=78 v=120
44016 Off ch=7 n=78 v=120
44064 On ch=7 n=76 v=121
44104 Off ch=7 n=76 v=121
46176 On ch=7 n=72 v=117
46206 Off ch=7 n=72 v=117
46224 On ch=7 n=72 v=117
46248 Off ch=7 n=72 v=117
46272 On ch=7 n=72 v=117
46320 On ch=7 n=69 v=117
46416 On ch=7 n=65 v=117
46512 On ch=7 n=62 v=119
46574 Off ch=7 n=72 v=117
46608 On ch=7 n=60 v=118
46704 Off ch=7 n=69 v=117
46714 Off ch=7 n=65 v=117
46718 Off ch=7 n=62 v=119
46734 Off ch=7 n=60 v=118
50544 On ch=7 n=60 v=121
50544 On ch=7 n=64 v=119
50544 On ch=7 n=67 v=121
50564 Off ch=7 n=67 v=121
50564 Off ch=7 n=60 v=121
50566 Off ch=7 n=64 v=119
50592 On ch=7 n=60 v=120
50592 On ch=7 n=64 v=119
50592 On ch=7 n=67 v=120
50610 Off ch=7 n=64 v=119
50610 Off ch=7 n=60 v=120
50614 Off ch=7 n=67 v=120
50640 On ch=7 n=60 v=119
50640 On ch=7 n=65 v=118
50640 On ch=7 n=69 v=119
50654 Off ch=7 n=65 v=118
50656 Off ch=7 n=69 v=119
50656 Off ch=7 n=60 v=119
50688 On ch=7 n=60 v=117
50688 On ch=7 n=67 v=119
50688 On ch=7 n=70 v=120
50702 Off ch=7 n=67 v=119
50704 Off ch=7 n=60 v=117
50712 Off ch=7 n=70 v=120
50736 On ch=7 n=60 v=119
50736 On ch=7 n=65 v=120
50736 On ch=7 n=69 v=119
50754 Off ch=7 n=69 v=119
50754 Off ch=7 n=65 v=120
50756 Off ch=7 n=60 v=119
50784 On ch=7 n=60 v=121
50784 On ch=7 n=64 v=121
50784 On ch=7 n=67 v=122
50810 Off ch=7 n=67 v=122
50810 Off ch=7 n=64 v=121
50812 Off ch=7 n=60 v=121
51504 On ch=7 n=60 v=116
51504 On ch=7 n=64 v=115
51504 On ch=7 n=67 v=117
51526 Off ch=7 n=60 v=116
51528 Off ch=7 n=67 v=117
51528 Off ch=7 n=64 v=115
51552 On ch=7 n=60 v=115
51552 On ch=7 n=64 v=113
51552 On ch=7 n=67 v=116
51574 Off ch=7 n=64 v=113
51578 Off ch=7 n=60 v=115
51588 Off ch=7 n=67 v=116
51600 On ch=7 n=60 v=119
51600 On ch=7 n=65 v=117
51600 On ch=7 n=69 v=117
51620 Off ch=7 n=65 v=117
51622 Off ch=7 n=60 v=119
51630 Off ch=7 n=69 v=117
51648 On ch=7 n=60 v=114
51648 On ch=7 n=67 v=119
51648 On ch=7 n=70 v=119
51674 Off ch=7 n=60 v=114
51680 Off ch=7 n=67 v=119
51684 Off ch=7 n=70 v=119
51696 On ch=7 n=60 v=119
51696 On ch=7 n=65 v=117
51696 On ch=7 n=69 v=119
51718 Off ch=7 n=65 v=117
51720 Off ch=7 n=60 v=119
51724 Off ch=7 n=69 v=119
51744 On ch=7 n=60 v=119
51744 On ch=7 n=64 v=119
51744 On ch=7 n=67 v=119
51772 Off ch=7 n=60 v=119
51774 Off ch=7 n=64 v=119
51780 Off ch=7 n=67 v=119
51888 On ch=7 n=60 v=119
51888 On ch=7 n=64 v=117
51888 On ch=7 n=67 v=118
51908 Off ch=7 n=67 v=118
51912 Off ch=7 n=60 v=119
51914 Off ch=7 n=64 v=117
51936 On ch=7 n=60 v=116
51936 On ch=7 n=64 v=115
51936 On ch=7 n=67 v=119
51956 Off ch=7 n=64 v=115
51958 Off ch=7 n=60 v=116
51966 Off ch=7 n=67 v=119
51984 On ch=7 n=60 v=121
51984 On ch=7 n=65 v=118
51984 On ch=7 n=69 v=120
52002 Off ch=7 n=65 v=118
52006 Off ch=7 n=60 v=121
52010 Off ch=7 n=69 v=120
52032 On ch=7 n=60 v=121
52032 On ch=7 n=67 v=120
52032 On ch=7 n=70 v=119
52052 Off ch=7 n=60 v=121
52062 Off ch=7 n=67 v=120
52068 Off ch=7 n=70 v=119
52080 On ch=7 n=60 v=117
52080 On ch=7 n=65 v=120
52080 On ch=7 n=69 v=119
52102 Off ch=7 n=65 v=120
52106 Off ch=7 n=60 v=117
52110 Off ch=7 n=69 v=119
52128 On ch=7 n=60 v=121
52128 On ch=7 n=64 v=120
52128 On ch=7 n=67 v=121
52160 Off ch=7 n=67 v=121
52160 Off ch=7 n=64 v=120
52160 Off ch=7 n=60 v=121
52272 On ch=7 n=60 v=120
52272 On ch=7 n=64 v=121
52272 On ch=7 n=67 v=121
52294 Off ch=7 n=67 v=121
52294 Off ch=7 n=64 v=121
52296 Off ch=7 n=60 v=120
52320 On ch=7 n=60 v=117
52320 On ch=7 n=64 v=119
52320 On ch=7 n=67 v=120
52340 Off ch=7 n=64 v=119
52346 Off ch=7 n=60 v=117
52352 Off ch=7 n=67 v=120
52368 On ch=7 n=60 v=119
52368 On ch=7 n=65 v=120
52368 On ch=7 n=69 v=120
52388 Off ch=7 n=65 v=120
52390 Off ch=7 n=60 v=119
52396 Off ch=7 n=69 v=120
52416 On ch=7 n=60 v=120
52416 On ch=7 n=67 v=120
52416 On ch=7 n=70 v=119
52440 Off ch=7 n=60 v=120
52446 Off ch=7 n=67 v=120
52452 Off ch=7 n=70 v=119
52464 On ch=7 n=60 v=121
52464 On ch=7 n=65 v=120
52464 On ch=7 n=69 v=120
52482 Off ch=7 n=65 v=120
52488 Off ch=7 n=60 v=121
52492 Off ch=7 n=69 v=120
52512 On ch=7 n=60 v=122
52512 On ch=7 n=64 v=119
52512 On ch=7 n=67 v=121
52544 Off ch=7 n=64 v=119
52546 Off ch=7 n=67 v=121
52546 Off ch=7 n=60 v=122
52752 On ch=7 n=72 v=119
52848 On ch=7 n=68 v=119
52944 On ch=7 n=65 v=119
53040 On ch=7 n=63 v=119
53144 Off ch=7 n=72 v=119
53150 Off ch=7 n=68 v=119
53160 Off ch=7 n=65 v=119
53170 Off ch=7 n=63 v=119
53232 On ch=7 n=48 v=120
53298 Off ch=7 n=48 v=120
53328 On ch=7 n=47 v=121
53388 Off ch=7 n=47 v=121
53424 On ch=7 n=44 v=122
53424 On ch=7 n=53 v=122
53472 Off ch=7 n=53 v=122
53496 Off ch=7 n=44 v=122
53520 On ch=7 n=43 v=122
53520 On ch=7 n=50 v=122
53582 Off ch=7 n=43 v=122
53616 Off ch=7 n=50 v=122
53616 On ch=7 n=41 v=122
53616 On ch=7 n=56 v=122
53664 Off ch=7 n=56 v=122
53676 Off ch=7 n=41 v=122
53712 On ch=7 n=38 v=122
53712 On ch=7 n=55 v=122
53760 Off ch=7 n=55 v=122
53774 Off ch=7 n=38 v=122
53808 On ch=7 n=12 v=121
53808 On ch=7 n=36 v=122
53904 Off ch=7 n=36 v=122
53906 Off ch=7 n=12 v=121
54096 On ch=7 n=43 v=112
54096 On ch=7 n=55 v=111
54112 Off ch=7 n=43 v=112
54116 Off ch=7 n=55 v=111
54144 On ch=7 n=43 v=113
54144 On ch=7 n=55 v=113
54164 Off ch=7 n=55 v=113
54164 Off ch=7 n=43 v=113
54192 On ch=7 n=45 v=117
54192 On ch=7 n=57 v=116
54238 Off ch=7 n=57 v=116
54240 On ch=7 n=43 v=116
54240 On ch=7 n=55 v=115
54242 Off ch=7 n=45 v=117
54286 Off ch=7 n=55 v=115
54288 On ch=7 n=52 v=121
54288 On ch=7 n=55 v=120
54310 Off ch=7 n=55 v=120
54312 Off ch=7 n=43 v=116
54318 Off ch=7 n=52 v=121
54336 On ch=7 n=43 v=101
54336 On ch=7 n=52 v=118
54336 On ch=7 n=55 v=119
54340 Off ch=7 n=43 v=101
54374 Off ch=7 n=52 v=118
54384 On ch=7 n=53 v=119
54420 Off ch=7 n=55 v=119
54422 Off ch=7 n=53 v=119
54432 On ch=7 n=52 v=119
54432 On ch=7 n=55 v=119
54464 Off ch=7 n=55 v=119
54464 Off ch=7 n=52 v=119
54480 On ch=7 n=50 v=120
54480 On ch=7 n=55 v=119
54510 Off ch=7 n=50 v=120
54512 Off ch=7 n=55 v=119
54528 On ch=7 n=48 v=120
54528 On ch=7 n=55 v=119
54554 Off ch=7 n=48 v=120
54558 Off ch=7 n=55 v=119
54576 On ch=7 n=47 v=121
54576 On ch=7 n=55 v=121
54626 Off ch=7 n=47 v=121
54630 Off ch=7 n=55 v=121
54672 On ch=7 n=55 v=119
54744 Off ch=7 n=55 v=119
54768 On ch=7 n=59 v=121
54768 On ch=7 n=60 v=118
54772 Off ch=7 n=59 v=121
54880 Off ch=7 n=60 v=118
54912 On ch=7 n=60 v=120
54940 Off ch=7 n=60 v=120
54960 On ch=7 n=60 v=121
54996 Off ch=7 n=60 v=121
55056 On ch=7 n=60 v=119
55084 Off ch=7 n=60 v=119
55104 On ch=7 n=60 v=117
55140 Off ch=7 n=60 v=117
55152 On ch=7 n=59 v=118
55184 Off ch=7 n=59 v=118
55200 On ch=7 n=59 v=116
55230 Off ch=7 n=59 v=116
55248 On ch=7 n=59 v=119
55278 Off ch=7 n=59 v=119
55296 On ch=7 n=59 v=117
55334 Off ch=7 n=59 v=117
55344 On ch=7 n=52 v=121
55398 Off ch=7 n=52 v=121
55440 On ch=7 n=52 v=121
55512 Off ch=7 n=52 v=121
55536 On ch=7 n=50 v=120
55728 Off ch=7 n=50 v=120
55872 On ch=7 n=48 v=119
55896 Off ch=7 n=48 v=119
85248 On ch=7 n=66 v=115
85248 On ch=7 n=67 v=120
85274 Off ch=7 n=66 v=115
85344 Off ch=7 n=67 v=120
85344 On ch=7 n=65 v=119
85430 Off ch=7 n=65 v=119
85440 On ch=7 n=65 v=120
85536 On ch=7 n=63 v=117
85552 Off ch=7 n=65 v=120
85618 Off ch=7 n=63 v=117
85632 On ch=7 n=63 v=118
85728 Off ch=7 n=63 v=118
85728 On ch=7 n=60 v=116
85920 On ch=7 n=62 v=119
85934 Off ch=7 n=60 v=116
86014 Off ch=7 n=62 v=119
86016 On ch=7 n=63 v=119
87186 Off ch=7 n=63 v=119
92928 Par ch=7 c=120 v=0
92930 Par ch=7 c=123 v=0
92930 Meta TrkEnd
TrkEnd
MTrk
0 Meta Text "Horn"
174 Par ch=8 c=121 v=0
262 Par ch=8 c=0 v=0
264 Par ch=8 c=32 v=0
266 PrCh ch=8 p=69
268 Par ch=8 c=7 v=123
268 Par ch=8 c=10 v=10
268 Par ch=8 c=11 v=90
270 Par ch=8 c=91 v=127
270 Par ch=8 c=93 v=40
42624 On ch=8 n=74 v=119
42702 Off ch=8 n=74 v=119
42720 On ch=8 n=73 v=118
42738 Off ch=8 n=73 v=118
42768 On ch=8 n=73 v=119
42790 Off ch=8 n=73 v=119
42816 On ch=8 n=71 v=113
42816 On ch=8 n=72 v=117
42824 Off ch=8 n=71 v=113
42836 Off ch=8 n=72 v=117
42864 On ch=8 n=72 v=118
42884 Off ch=8 n=72 v=118
42912 On ch=8 n=73 v=119
42930 Off ch=8 n=73 v=119
42960 On ch=8 n=73 v=118
42976 Off ch=8 n=73 v=118
43008 On ch=8 n=74 v=118
43026 Off ch=8 n=74 v=118
43056 On ch=8 n=74 v=119
43078 Off ch=8 n=74 v=119
43104 On ch=8 n=73 v=119
43124 Off ch=8 n=73 v=119
43152 On ch=8 n=73 v=118
43172 Off ch=8 n=73 v=118
43200 On ch=8 n=72 v=118
43276 Off ch=8 n=72 v=118
45024 On ch=8 n=59 v=119
45024 On ch=8 n=67 v=119
45048 Off ch=8 n=67 v=119
45052 Off ch=8 n=59 v=119
45072 On ch=8 n=59 v=119
45072 On ch=8 n=67 v=119
45094 Off ch=8 n=67 v=119
45120 Off ch=8 n=59 v=119
45120 On ch=8 n=60 v=120
45120 On ch=8 n=67 v=120
45168 On ch=8 n=59 v=120
45178 Off ch=8 n=60 v=120
45188 Off ch=8 n=67 v=120
45202 Off ch=8 n=59 v=120
45408 On ch=8 n=59 v=120
45408 On ch=8 n=67 v=120
45428 Off ch=8 n=67 v=120
45432 Off ch=8 n=59 v=120
45456 On ch=8 n=59 v=120
45456 On ch=8 n=67 v=120
45476 Off ch=8 n=67 v=120
45504 Off ch=8 n=59 v=120
45504 On ch=8 n=60 v=120
45504 On ch=8 n=67 v=120
45550 Off ch=8 n=60 v=120
45552 Off ch=8 n=67 v=120
45552 On ch=8 n=59 v=120
45580 Off ch=8 n=59 v=120
45792 On ch=8 n=55 v=120
45792 On ch=8 n=59 v=120
45792 On ch=8 n=67 v=120
45816 Off ch=8 n=67 v=120
45818 Off ch=8 n=59 v=120
45818 Off ch=8 n=55 v=120
45840 On ch=8 n=55 v=120
45840 On ch=8 n=59 v=119
45840 On ch=8 n=67 v=120
45868 Off ch=8 n=67 v=120
45876 Off ch=8 n=55 v=120
45886 Off ch=8 n=59 v=119
45888 On ch=8 n=57 v=120
45888 On ch=8 n=60 v=119
45888 On ch=8 n=67 v=120
45934 Off ch=8 n=60 v=119
45936 Off ch=8 n=57 v=120
45936 On ch=8 n=55 v=119
45936 On ch=8 n=59 v=111
45978 Off ch=8 n=55 v=119
45984 On ch=8 n=54 v=119
45984 On ch=8 n=57 v=119
45990 Off ch=8 n=59 v=111
46012 Off ch=8 n=54 v=119
46032 On ch=8 n=52 v=120
46032 On ch=8 n=55 v=120
46038 Off ch=8 n=57 v=119
46072 Off ch=8 n=55 v=120
46072 Off ch=8 n=67 v=120
46080 Off ch=8 n=52 v=120
46080 On ch=8 n=50 v=120
46080 On ch=8 n=54 v=120
46080 On ch=8 n=62 v=120
46080 On ch=8 n=66 v=120
46122 Off ch=8 n=50 v=120
46128 Off ch=8 n=54 v=120
46132 Off ch=8 n=66 v=120
46138 Off ch=8 n=62 v=120
46176 On ch=8 n=72 v=118
46206 Off ch=8 n=72 v=118
46224 On ch=8 n=72 v=118
46248 Off ch=8 n=72 v=118
46272 On ch=8 n=72 v=118
46320 On ch=8 n=69 v=118
46416 On ch=8 n=65 v=118
46512 On ch=8 n=62 v=119
46574 Off ch=8 n=72 v=118
46608 On ch=8 n=60 v=119
46704 Off ch=8 n=69 v=118
46714 Off ch=8 n=65 v=118
46718 Off ch=8 n=62 v=119
46734 Off ch=8 n=60 v=119
52752 On ch=8 n=72 v=119
52848 On ch=8 n=68 v=119
52944 On ch=8 n=65 v=119
53040 On ch=8 n=63 v=119
53144 Off ch=8 n=72 v=119
53150 Off ch=8 n=68 v=119
53160 Off ch=8 n=65 v=119
53170 Off ch=8 n=63 v=119
53232 On ch=8 n=48 v=120
53298 Off ch=8 n=48 v=120
53328 On ch=8 n=47 v=120
53388 Off ch=8 n=47 v=120
53424 On ch=8 n=44 v=120
53424 On ch=8 n=53 v=120
53472 Off ch=8 n=53 v=120
53496 Off ch=8 n=44 v=120
53520 On ch=8 n=43 v=121
53520 On ch=8 n=50 v=121
53582 Off ch=8 n=43 v=121
53616 Off ch=8 n=50 v=121
53616 On ch=8 n=41 v=121
53616 On ch=8 n=56 v=121
53664 Off ch=8 n=56 v=121
53676 Off ch=8 n=41 v=121
53712 On ch=8 n=38 v=121
53712 On ch=8 n=55 v=121
53760 Off ch=8 n=55 v=121
53774 Off ch=8 n=38 v=121
53808 On ch=8 n=36 v=120
53808 On ch=8 n=60 v=121
53904 Off ch=8 n=60 v=121
53904 On ch=8 n=79 v=119
53906 Off ch=8 n=36 v=120
53932 Off ch=8 n=79 v=119
53952 On ch=8 n=79 v=120
53990 Off ch=8 n=79 v=120
54000 On ch=8 n=81 v=120
54042 Off ch=8 n=81 v=120
54048 On ch=8 n=79 v=120
54270 Off ch=8 n=79 v=120
54288 On ch=8 n=76 v=120
54288 On ch=8 n=79 v=120
54312 Off ch=8 n=79 v=120
54318 Off ch=8 n=76 v=120
54336 On ch=8 n=76 v=118
54336 On ch=8 n=79 v=119
54374 Off ch=8 n=76 v=118
54384 On ch=8 n=77 v=119
54420 Off ch=8 n=79 v=119
54422 Off ch=8 n=77 v=119
54432 On ch=8 n=76 v=119
54432 On ch=8 n=79 v=119
54464 Off ch=8 n=79 v=119
54464 Off ch=8 n=76 v=119
54480 On ch=8 n=74 v=120
54480 On ch=8 n=79 v=119
54510 Off ch=8 n=74 v=120
54512 Off ch=8 n=79 v=119
54528 On ch=8 n=72 v=120
54528 On ch=8 n=79 v=119
54554 Off ch=8 n=72 v=120
54558 Off ch=8 n=79 v=119
54576 On ch=8 n=71 v=120
54576 On ch=8 n=79 v=120
54626 Off ch=8 n=71 v=120
54630 Off ch=8 n=79 v=120
54674 On ch=8 n=79 v=119
54746 Off ch=8 n=79 v=119
54772 On ch=8 n=84 v=119
54774 On ch=8 n=83 v=120
54778 Off ch=8 n=83 v=120
54884 Off ch=8 n=84 v=119
54906 On ch=8 n=84 v=120
54936 Off ch=8 n=84 v=120
54960 On ch=8 n=84 v=120
54996 Off ch=8 n=84 v=120
55054 On ch=8 n=84 v=119
55082 Off ch=8 n=84 v=119
55098 On ch=8 n=84 v=118
55136 Off ch=8 n=84 v=118
55148 On ch=8 n=83 v=119
55180 Off ch=8 n=83 v=119
55198 On ch=8 n=83 v=118
55228 Off ch=8 n=83 v=118
55248 On ch=8 n=83 v=119
55278 Off ch=8 n=83 v=119
55296 On ch=8 n=83 v=118
55334 Off ch=8 n=83 v=118
55346 On ch=8 n=76 v=120
55400 Off ch=8 n=76 v=120
55442 On ch=8 n=76 v=120
55514 Off ch=8 n=76 v=120
55538 On ch=8 n=74 v=120
55870 Off ch=8 n=74 v=120
55872 On ch=8 n=72 v=119
55896 Off ch=8 n=72 v=119
55898 On ch=8 n=74 v=118
55920 Off ch=8 n=74 v=118
55920 On ch=8 n=72 v=118
55940 Off ch=8 n=72 v=118
55944 On ch=8 n=74 v=119
55962 Off ch=8 n=74 v=119
55964 On ch=8 n=72 v=118
55986 On ch=8 n=74 v=119
55988 Off ch=8 n=74 v=119
55988 Off ch=8 n=72 v=118
56008 On ch=8 n=72 v=117
56030 On ch=8 n=74 v=119
56032 Off ch=8 n=72 v=117
56046 Off ch=8 n=74 v=119
56052 On ch=8 n=72 v=117
56072 On ch=8 n=74 v=119
56074 Off ch=8 n=72 v=117
56092 Off ch=8 n=74 v=119
56096 On ch=8 n=72 v=118
56118 Off ch=8 n=72 v=118
56118 On ch=8 n=74 v=119
56138 Off ch=8 n=74 v=119
56142 On ch=8 n=72 v=118
56162 On ch=8 n=74 v=119
56164 Off ch=8 n=72 v=118
56182 Off ch=8 n=74 v=119
56188 On ch=8 n=72 v=119
56208 On ch=8 n=74 v=118
56210 Off ch=8 n=72 v=119
56224 Off ch=8 n=74 v=118
56230 On ch=8 n=72 v=118
56252 Off ch=8 n=72 v=118
56252 On ch=8 n=74 v=119
56272 Off ch=8 n=74 v=119
56278 On ch=8 n=72 v=119
56300 On ch=8 n=74 v=119
56302 Off ch=8 n=72 v=119
56318 Off ch=8 n=74 v=119
56324 On ch=8 n=72 v=118
56344 Off ch=8 n=72 v=118
56344 On ch=8 n=74 v=119
56360 Off ch=8 n=74 v=119
56368 On ch=8 n=72 v=118
56388 Off ch=8 n=72 v=118
56388 On ch=8 n=74 v=119
56408 Off ch=8 n=74 v=119
56414 On ch=8 n=72 v=118
56434 Off ch=8 n=72 v=118
56434 On ch=8 n=74 v=119
56454 Off ch=8 n=74 v=119
56460 On ch=8 n=72 v=118
56462 Off ch=8 n=72 v=118
56480 On ch=8 n=74 v=119
56500 Off ch=8 n=74 v=119
56506 On ch=8 n=72 v=119
56526 Off ch=8 n=72 v=119
56528 On ch=8 n=74 v=118
56546 Off ch=8 n=74 v=118
56550 On ch=8 n=72 v=119
56574 Off ch=8 n=72 v=119
56574 On ch=8 n=74 v=118
56590 Off ch=8 n=74 v=118
56590 On ch=8 n=72 v=117
56612 Off ch=8 n=72 v=117
56612 On ch=8 n=74 v=117
56626 On ch=8 n=72 v=117
56630 Off ch=8 n=74 v=117
56650 Off ch=8 n=72 v=117
56654 On ch=8 n=71 v=111
56674 On ch=8 n=72 v=119
56676 Off ch=8 n=71 v=111
57096 Off ch=8 n=72 v=119
92928 Par ch=8 c=120 v=0
92928 Meta TrkEnd
TrkEnd
MTrk
0 Meta Text "Lead Guitr"
176 Par ch=9 c=121 v=0
272 Par ch=9 c=0 v=0
274 Par ch=9 c=32 v=0
276 PrCh ch=9 p=30
278 Par ch=9 c=7 v=123
278 Par ch=9 c=10 v=127
278 Par ch=9 c=11 v=90
280 Par ch=9 c=91 v=127
280 Par ch=9 c=93 v=50
35898 On ch=9 n=67 v=122
35992 On ch=9 n=65 v=124
35998 Off ch=9 n=67 v=122
36042 Off ch=9 n=65 v=124
36044 On ch=9 n=63 v=124
36084 Off ch=9 n=63 v=124
36090 On ch=9 n=70 v=124
36206 Par ch=9 c=1 v=14
36222 Par ch=9 c=1 v=52
36238 Par ch=9 c=1 v=84
36254 Par ch=9 c=1 v=95
36270 Par ch=9 c=1 v=101
36288 Par ch=9 c=1 v=114
36304 Par ch=9 c=1 v=127
36334 Par ch=9 c=1 v=111
36350 Par ch=9 c=1 v=75
36366 Par ch=9 c=1 v=0
36382 Off ch=9 n=70 v=124
36382 On ch=9 n=67 v=124
36476 Off ch=9 n=67 v=124
36478 On ch=9 n=72 v=124
36594 Par ch=9 c=1 v=5
36610 Par ch=9 c=1 v=14
36626 Par ch=9 c=1 v=23
36642 Par ch=9 c=1 v=31
36658 Par ch=9 c=1 v=41
36674 Par ch=9 c=1 v=51
36690 Par ch=9 c=1 v=60
36706 Par ch=9 c=1 v=72
36722 Par ch=9 c=1 v=86
36738 Par ch=9 c=1 v=100
36756 Par ch=9 c=1 v=98
36772 Par ch=9 c=1 v=66
36788 Par ch=9 c=1 v=0
36826 Off ch=9 n=72 v=124
36858 On ch=9 n=72 v=124
36960 On ch=9 n=74 v=124
36972 Off ch=9 n=72 v=124
37006 On ch=9 n=75 v=124
37008 Off ch=9 n=74 v=124
37066 On ch=9 n=72 v=124
37070 Off ch=9 n=75 v=124
37154 On ch=9 n=74 v=124
37162 Off ch=9 n=72 v=124
37200 On ch=9 n=75 v=124
37206 Off ch=9 n=74 v=124
37254 Off ch=9 n=75 v=124
37258 On ch=9 n=77 v=124
37336 Par ch=9 c=1 v=1
37352 Par ch=9 c=1 v=13
37368 Par ch=9 c=1 v=31
37384 Par ch=9 c=1 v=43
37402 Par ch=9 c=1 v=47
37418 Par ch=9 c=1 v=52
37436 Par ch=9 c=1 v=59
37452 Par ch=9 c=1 v=69
37468 Par ch=9 c=1 v=80
37484 Par ch=9 c=1 v=86
37506 Par ch=9 c=1 v=83
37522 Par ch=9 c=1 v=50
37538 Par ch=9 c=1 v=0
37540 Off ch=9 n=77 v=124
37542 On ch=9 n=72 v=124
37612 Off ch=9 n=72 v=124
37622 On ch=9 n=77 v=124
37680 Off ch=9 n=77 v=124
37680 On ch=9 n=79 v=123
37716 Off ch=9 n=79 v=123
37736 On ch=9 n=80 v=124
37764 Off ch=9 n=80 v=124
37776 On ch=9 n=82 v=124
37798 Off ch=9 n=82 v=124
37820 On ch=9 n=82 v=124
37838 Pb ch=9 v=9492
37846 Pb ch=9 v=12482
37854 Pb ch=9 v=16382
38070 Pb ch=9 v=16122
38078 Pb ch=9 v=11832
38086 Pb ch=9 v=8192
38128 On ch=9 n=80 v=124
38132 Off ch=9 n=82 v=124
38160 Off ch=9 n=80 v=124
38162 On ch=9 n=82 v=124
38196 On ch=9 n=80 v=124
38204 Off ch=9 n=82 v=124
38226 Off ch=9 n=80 v=124
38226 On ch=9 n=79 v=124
38260 Off ch=9 n=79 v=124
38260 On ch=9 n=80 v=124
38286 On ch=9 n=79 v=124
38290 Off ch=9 n=80 v=124
38318 On ch=9 n=77 v=124
38320 Off ch=9 n=79 v=124
38340 On ch=9 n=79 v=124
38346 Off ch=9 n=77 v=124
38366 On ch=9 n=77 v=124
38378 Off ch=9 n=79 v=124
38398 On ch=9 n=75 v=124
38400 Off ch=9 n=77 v=124
38432 Off ch=9 n=75 v=124
38432 On ch=9 n=77 v=124
38454 On ch=9 n=75 v=124
38458 Off ch=9 n=77 v=124
38482 On ch=9 n=74 v=124
38486 Off ch=9 n=75 v=124
38502 Off ch=9 n=74 v=124
38502 On ch=9 n=75 v=124
38526 On ch=9 n=74 v=124
38530 Off ch=9 n=75 v=124
38550 Off ch=9 n=74 v=124
38552 On ch=9 n=72 v=124
38584 On ch=9 n=70 v=124
38592 Off ch=9 n=72 v=124
38656 Par ch=9 c=1 v=4
38672 Par ch=9 c=1 v=38
38688 Par ch=9 c=1 v=59
38704 Par ch=9 c=1 v=84
38720 Par ch=9 c=1 v=107
38736 Par ch=9 c=1 v=120
38752 Par ch=9 c=1 v=117
38768 Par ch=9 c=1 v=85
38774 Off ch=9 n=70 v=124
38786 Par ch=9 c=1 v=0
38846 On ch=9 n=70 v=124
38886 Off ch=9 n=70 v=124
38890 On ch=9 n=72 v=124
38930 On ch=9 n=74 v=124
38940 Off ch=9 n=72 v=124
38962 Off ch=9 n=74 v=124
38970 On ch=9 n=75 v=124
38998 Off ch=9 n=75 v=124
39006 On ch=9 n=77 v=124
39038 On ch=9 n=79 v=124
39044 Off ch=9 n=77 v=124
39068 Off ch=9 n=79 v=124
39072 On ch=9 n=80 v=124
39102 On ch=9 n=82 v=124
39104 Off ch=9 n=80 v=124
39142 Par ch=9 c=1 v=6
39158 Par ch=9 c=1 v=18
39174 Par ch=9 c=1 v=38
39190 Par ch=9 c=1 v=65
39206 Par ch=9 c=1 v=84
39222 Par ch=9 c=1 v=68
39230 On ch=9 n=70 v=124
39232 Off ch=9 n=82 v=124
39238 Par ch=9 c=1 v=0
39256 Off ch=9 n=70 v=124
39262 On ch=9 n=72 v=124
39300 On ch=9 n=74 v=124
39308 Off ch=9 n=72 v=124
39332 Off ch=9 n=74 v=124
39336 On ch=9 n=75 v=124
39366 Off ch=9 n=75 v=124
39370 On ch=9 n=77 v=124
39408 On ch=9 n=79 v=124
39416 Off ch=9 n=77 v=124
39440 Off ch=9 n=79 v=124
39446 On ch=9 n=80 v=124
39476 Off ch=9 n=80 v=124
39480 On ch=9 n=82 v=124
39536 Pb ch=9 v=8842
39544 Pb ch=9 v=10792
39552 Pb ch=9 v=13652
39560 Pb ch=9 v=16382
39758 Par ch=9 c=1 v=6
39774 Par ch=9 c=1 v=28
39790 Par ch=9 c=1 v=79
39806 Par ch=9 c=1 v=100
39822 Par ch=9 c=1 v=112
39840 Off ch=9 n=82 v=124
39840 Pb ch=9 v=8192
39840 On ch=9 n=74 v=124
39844 Par ch=9 c=1 v=82
39860 Par ch=9 c=1 v=0
39884 Off ch=9 n=74 v=124
39888 On ch=9 n=75 v=124
39888 Pb ch=9 v=8564
39936 Off ch=9 n=75 v=124
39936 On ch=9 n=72 v=124
40026 Off ch=9 n=72 v=124
40032 On ch=9 n=74 v=124
40074 On ch=9 n=75 v=124
40080 Off ch=9 n=74 v=124
40132 On ch=9 n=72 v=124
40134 Off ch=9 n=75 v=124
40222 On ch=9 n=74 v=124
40236 Off ch=9 n=72 v=124
40266 On ch=9 n=75 v=124
40270 Off ch=9 n=74 v=124
40318 Off ch=9 n=75 v=124
40324 On ch=9 n=77 v=124
40416 Pb ch=9 v=8564
40494 Pb ch=9 v=8456
40504 Pb ch=9 v=8301
40512 Pb ch=9 v=8192
40546 Pb ch=9 v=8533
40570 Pb ch=9 v=8458
40588 Off ch=9 n=77 v=124
40590 On ch=9 n=65 v=124
40594 Pb ch=9 v=8384
40618 Pb ch=9 v=8309
40642 Pb ch=9 v=8235
40652 On ch=9 n=67 v=124
40668 Off ch=9 n=65 v=124
40714 Off ch=9 n=67 v=124
40716 On ch=9 n=68 v=124
40880 Off ch=9 n=68 v=124
40886 On ch=9 n=77 v=124
41086 On ch=9 n=68 v=124
41088 Off ch=9 n=77 v=124
41342 On ch=9 n=73 v=124
41344 Off ch=9 n=68 v=124
41382 Off ch=9 n=73 v=124
41400 On ch=9 n=73 v=124
41456 Off ch=9 n=73 v=124
41480 On ch=9 n=73 v=124
41656 Off ch=9 n=73 v=124
41660 On ch=9 n=61 v=124
41802 Off ch=9 n=61 v=124
57216 On ch=9 n=53 v=122
57344 On ch=9 n=45 v=122
57354 Off ch=9 n=53 v=122
57472 Off ch=9 n=45 v=122
57472 On ch=9 n=46 v=121
57594 Off ch=9 n=46 v=121
57600 On ch=9 n=47 v=121
57724 Off ch=9 n=47 v=121
57728 On ch=9 n=48 v=121
57792 On ch=9 n=50 v=119
57804 Off ch=9 n=48 v=121
57856 On ch=9 n=52 v=121
57858 Off ch=9 n=50 v=119
57920 On ch=9 n=53 v=121
57944 Off ch=9 n=52 v=121
57962 Off ch=9 n=53 v=121
57984 On ch=9 n=53 v=121
58112 On ch=9 n=45 v=121
58120 Off ch=9 n=53 v=121
58240 On ch=9 n=46 v=121
58262 Off ch=9 n=45 v=121
58362 Off ch=9 n=46 v=121
58368 On ch=9 n=47 v=120
58432 On ch=9 n=48 v=117
58450 Off ch=9 n=47 v=120
58484 Off ch=9 n=48 v=117
58496 On ch=9 n=50 v=121
58560 On ch=9 n=48 v=123
58564 Off ch=9 n=50 v=121
58724 Off ch=9 n=48 v=123
58752 On ch=9 n=53 v=120
58880 On ch=9 n=45 v=120
58890 Off ch=9 n=53 v=120
58998 Off ch=9 n=45 v=120
59008 On ch=9 n=46 v=121
59136 On ch=9 n=47 v=121
59140 Off ch=9 n=46 v=121
59264 On ch=9 n=48 v=119
59274 Off ch=9 n=47 v=121
59328 On ch=9 n=50 v=120
59350 Off ch=9 n=48 v=119
59392 On ch=9 n=52 v=119
59394 Off ch=9 n=50 v=120
59456 On ch=9 n=53 v=118
59482 Off ch=9 n=52 v=119
59504 Off ch=9 n=53 v=118
59520 On ch=9 n=55 v=122
59646 Off ch=9 n=55 v=122
59648 On ch=9 n=47 v=121
59776 On ch=9 n=48 v=116
59806 Off ch=9 n=47 v=121
59884 Off ch=9 n=48 v=116
59904 On ch=9 n=49 v=117
59980 Off ch=9 n=49 v=117
60000 On ch=9 n=50 v=121
60064 On ch=9 n=52 v=118
60084 Off ch=9 n=50 v=121
60096 On ch=9 n=50 v=114
60112 Off ch=9 n=52 v=118
60276 Off ch=9 n=50 v=114
60288 On ch=9 n=43 v=123
60288 On ch=9 n=48 v=121
61440 On ch=9 n=41 v=121
61454 Off ch=9 n=43 v=123
61810 Off ch=9 n=41 v=121
61822 Off ch=9 n=48 v=121
61824 On ch=9 n=43 v=117
61824 On ch=9 n=48 v=122
61834 Off ch=9 n=48 v=122
62570 Off ch=9 n=43 v=117
62592 On ch=9 n=43 v=118
62656 On ch=9 n=46 v=120
62674 Off ch=9 n=43 v=118
62712 Off ch=9 n=46 v=120
62720 On ch=9 n=48 v=121
62768 Off ch=9 n=48 v=121
62784 On ch=9 n=48 v=121
62848 On ch=9 n=46 v=119
62856 Off ch=9 n=48 v=121
62900 Off ch=9 n=46 v=119
62912 On ch=9 n=51 v=121
63360 On ch=9 n=43 v=124
63360 On ch=9 n=48 v=122
63370 Off ch=9 n=51 v=121
64480 Off ch=9 n=43 v=124
64512 On ch=9 n=41 v=121
64872 Off ch=9 n=41 v=121
64896 On ch=9 n=46 v=121
64896 On ch=9 n=53 v=121
64930 Off ch=9 n=48 v=122
65654 Off ch=9 n=46 v=121
65660 Off ch=9 n=53 v=121
65664 On ch=9 n=43 v=120
65664 On ch=9 n=50 v=122
66402 Off ch=9 n=43 v=120
66432 On ch=9 n=48 v=120
66452 Off ch=9 n=50 v=122
67200 On ch=9 n=43 v=122
67200 On ch=9 n=46 v=120
67222 Off ch=9 n=48 v=120
67928 Off ch=9 n=43 v=122
67952 Off ch=9 n=46 v=120
67968 On ch=9 n=43 v=120
67968 On ch=9 n=48 v=118
68716 Off ch=9 n=43 v=120
68736 On ch=9 n=43 v=118
68736 On ch=9 n=46 v=121
68742 Off ch=9 n=48 v=118
69098 Off ch=9 n=43 v=118
69120 Off ch=9 n=46 v=121
69120 On ch=9 n=43 v=122
69120 On ch=9 n=48 v=118
69470 Off ch=9 n=43 v=122
69504 On ch=9 n=43 v=119
69504 On ch=9 n=46 v=121
69514 Off ch=9 n=48 v=118
69888 On ch=9 n=48 v=116
69890 Off ch=9 n=46 v=121
70270 Off ch=9 n=43 v=119
70272 On ch=9 n=53 v=121
70282 Off ch=9 n=48 v=116
70396 Off ch=9 n=53 v=121
70400 On ch=9 n=45 v=121
70524 Off ch=9 n=45 v=121
70528 On ch=9 n=46 v=120
70652 Off ch=9 n=46 v=120
70656 On ch=9 n=47 v=122
70784 On ch=9 n=48 v=117
70800 Off ch=9 n=47 v=122
70848 On ch=9 n=50 v=118
70864 Off ch=9 n=48 v=117
70912 On ch=9 n=52 v=120
70914 Off ch=9 n=50 v=118
70976 On ch=9 n=53 v=121
70998 Off ch=9 n=52 v=120
71022 Off ch=9 n=53 v=121
71040 On ch=9 n=53 v=121
71164 Off ch=9 n=53 v=121
71168 On ch=9 n=45 v=121
71296 On ch=9 n=46 v=120
71302 Off ch=9 n=45 v=121
71414 Off ch=9 n=46 v=120
71424 On ch=9 n=47 v=120
71488 On ch=9 n=48 v=117
71494 Off ch=9 n=47 v=120
71542 Off ch=9 n=48 v=117
71552 On ch=9 n=50 v=122
71616 On ch=9 n=48 v=122
71620 Off ch=9 n=50 v=122
71794 Off ch=9 n=48 v=122
71808 On ch=9 n=53 v=122
71936 On ch=9 n=45 v=122
71944 Off ch=9 n=53 v=122
72064 On ch=9 n=46 v=121
72068 Off ch=9 n=45 v=122
72186 Off ch=9 n=46 v=121
72192 On ch=9 n=47 v=121
72320 On ch=9 n=48 v=116
72326 Off ch=9 n=47 v=121
72384 On ch=9 n=50 v=117
72386 Off ch=9 n=48 v=116
72440 Off ch=9 n=50 v=117
72448 On ch=9 n=52 v=118
72512 On ch=9 n=53 v=118
72546 Off ch=9 n=52 v=118
72556 Off ch=9 n=53 v=118
72576 On ch=9 n=55 v=121
72700 Off ch=9 n=55 v=121
72704 On ch=9 n=47 v=121
72832 On ch=9 n=48 v=119
72866 Off ch=9 n=47 v=121
72956 Off ch=9 n=48 v=119
72960 On ch=9 n=50 v=120
73074 Off ch=9 n=50 v=120
73088 On ch=9 n=51 v=117
73148 Off ch=9 n=51 v=117
73152 On ch=9 n=52 v=121
73216 Off ch=9 n=52 v=121
73216 On ch=9 n=53 v=116
73262 Off ch=9 n=53 v=116
73280 On ch=9 n=55 v=120
73340 Off ch=9 n=55 v=120
73344 On ch=9 n=54 v=120
73408 On ch=9 n=56 v=119
73428 Off ch=9 n=54 v=120
73472 On ch=9 n=58 v=121
73474 Off ch=9 n=56 v=119
73526 Off ch=9 n=58 v=121
73600 On ch=9 n=56 v=120
73664 On ch=9 n=58 v=118
73668 Off ch=9 n=56 v=120
73728 On ch=9 n=60 v=121
73734 Off ch=9 n=58 v=118
73804 Off ch=9 n=60 v=121
73920 On ch=9 n=58 v=120
73978 Off ch=9 n=58 v=120
73984 On ch=9 n=60 v=119
74048 On ch=9 n=62 v=118
74066 Off ch=9 n=60 v=119
74086 Off ch=9 n=62 v=118
74112 On ch=9 n=47 v=121
74144 Off ch=9 n=47 v=121
74144 On ch=9 n=49 v=116
74176 Off ch=9 n=49 v=116
74176 On ch=9 n=51 v=116
74208 Off ch=9 n=51 v=116
74208 On ch=9 n=49 v=117
74240 Off ch=9 n=49 v=117
74240 On ch=9 n=51 v=117
74272 Off ch=9 n=51 v=117
74272 On ch=9 n=54 v=118
74304 Off ch=9 n=54 v=118
74304 On ch=9 n=51 v=118
74336 Off ch=9 n=51 v=118
74336 On ch=9 n=54 v=118
74368 Off ch=9 n=54 v=118
74368 On ch=9 n=52 v=121
74400 Off ch=9 n=52 v=121
74400 On ch=9 n=54 v=118
74432 Off ch=9 n=54 v=119
74432 On ch=9 n=54 v=119
74464 Off ch=9 n=54 v=118
74464 On ch=9 n=56 v=121
74496 On ch=9 n=58 v=120
74512 Off ch=9 n=56 v=121
74528 Off ch=9 n=58 v=119
74528 On ch=9 n=58 v=119
74560 Off ch=9 n=58 v=120
74560 On ch=9 n=56 v=119
74592 On ch=9 n=54 v=119
74602 Off ch=9 n=56 v=119
74624 Off ch=9 n=54 v=119
74624 On ch=9 n=53 v=119
74656 Off ch=9 n=53 v=119
74656 On ch=9 n=56 v=119
74688 On ch=9 n=58 v=120
74702 Off ch=9 n=56 v=119
74720 Off ch=9 n=58 v=120
74720 On ch=9 n=59 v=121
74752 On ch=9 n=61 v=121
74756 Off ch=9 n=59 v=121
74784 On ch=9 n=62 v=120
74790 Off ch=9 n=61 v=121
74816 Off ch=9 n=62 v=120
74816 On ch=9 n=63 v=118
74880 Off ch=9 n=63 v=118
74880 On ch=9 n=44 v=120
74912 Off ch=9 n=44 v=120
74912 On ch=9 n=46 v=124
74944 Off ch=9 n=46 v=124
74944 On ch=9 n=48 v=125
74976 Off ch=9 n=48 v=125
74976 On ch=9 n=46 v=125
75008 Off ch=9 n=46 v=125
75008 On ch=9 n=44 v=125
75040 Off ch=9 n=44 v=125
75040 On ch=9 n=46 v=125
75072 Off ch=9 n=46 v=125
75072 On ch=9 n=48 v=125
75104 Off ch=9 n=48 v=125
75104 On ch=9 n=50 v=125
75136 Off ch=9 n=50 v=125
75136 On ch=9 n=51 v=125
75168 Off ch=9 n=51 v=125
75168 On ch=9 n=53 v=125
75200 Off ch=9 n=53 v=125
75200 On ch=9 n=56 v=125
75232 Off ch=9 n=56 v=125
75232 On ch=9 n=55 v=125
75264 Off ch=9 n=55 v=125
75264 On ch=9 n=56 v=125
75296 Off ch=9 n=56 v=125
75296 On ch=9 n=58 v=125
75328 Off ch=9 n=58 v=125
75328 On ch=9 n=60 v=125
75360 Off ch=9 n=60 v=125
75360 On ch=9 n=62 v=125
75392 Off ch=9 n=62 v=125
75392 On ch=9 n=63 v=125
75424 Off ch=9 n=63 v=125
75424 On ch=9 n=60 v=122
75456 Off ch=9 n=60 v=122
75456 On ch=9 n=63 v=125
75648 Off ch=9 n=63 v=125
75648 On ch=9 n=46 v=118
75680 On ch=9 n=48 v=119
75686 Off ch=9 n=46 v=118
75712 Off ch=9 n=48 v=119
75712 On ch=9 n=50 v=119
75744 On ch=9 n=48 v=119
75756 Off ch=9 n=50 v=119
75776 On ch=9 n=50 v=119
75792 Off ch=9 n=48 v=119
75808 On ch=9 n=51 v=119
75812 Off ch=9 n=50 v=119
75840 Off ch=9 n=51 v=119
75840 On ch=9 n=50 v=119
75872 Off ch=9 n=50 v=119
75872 On ch=9 n=51 v=119
75904 Off ch=9 n=51 v=119
75904 On ch=9 n=53 v=120
75936 Off ch=9 n=53 v=120
75936 On ch=9 n=52 v=120
75968 Off ch=9 n=52 v=120
75968 On ch=9 n=53 v=120
76000 On ch=9 n=55 v=120
76006 Off ch=9 n=53 v=120
76032 Off ch=9 n=55 v=120
76032 On ch=9 n=53 v=120
76064 Off ch=9 n=53 v=120
76064 On ch=9 n=56 v=121
76096 On ch=9 n=55 v=121
76104 Off ch=9 n=56 v=121
76128 On ch=9 n=53 v=121
76130 Off ch=9 n=55 v=121
76160 On ch=9 n=55 v=121
76162 Off ch=9 n=53 v=121
76190 Off ch=9 n=55 v=121
76192 On ch=9 n=56 v=121
76224 On ch=9 n=58 v=121
76232 Off ch=9 n=56 v=121
76244 Off ch=9 n=58 v=121
76256 On ch=9 n=60 v=121
76282 Off ch=9 n=60 v=121
76288 On ch=9 n=62 v=122
76320 On ch=9 n=63 v=122
76322 Off ch=9 n=62 v=122
76352 On ch=9 n=62 v=122
76354 Off ch=9 n=63 v=122
76374 Off ch=9 n=62 v=122
76384 On ch=9 n=60 v=122
76416 Off ch=9 n=60 v=122
76416 On ch=9 n=62 v=122
76448 Off ch=9 n=62 v=122
76448 On ch=9 n=63 v=122
76478 Off ch=9 n=63 v=122
76480 On ch=9 n=65 v=122
76508 Off ch=9 n=65 v=122
76512 On ch=9 n=67 v=123
76544 On ch=9 n=68 v=123
76550 Off ch=9 n=67 v=123
76576 On ch=9 n=70 v=123
76580 Off ch=9 n=68 v=123
76608 On ch=9 n=68 v=123
76618 Off ch=9 n=70 v=123
76632 Off ch=9 n=68 v=123
76640 On ch=9 n=65 v=123
76668 Off ch=9 n=65 v=123
76672 On ch=9 n=67 v=123
76700 Off ch=9 n=67 v=123
76704 On ch=9 n=70 v=123
76722 Off ch=9 n=70 v=123
76736 On ch=9 n=72 v=124
76768 Off ch=9 n=72 v=124
76768 On ch=9 n=74 v=124
76800 On ch=9 n=75 v=124
76804 Off ch=9 n=74 v=124
76832 Pb ch=9 v=9681
76864 Pb ch=9 v=10946
76896 Pb ch=9 v=12212
76928 Pb ch=9 v=13478
76960 Pb ch=9 v=16383
78334 Off ch=9 n=75 v=124
78368 Pb ch=9 v=8192
78768 On ch=9 n=55 v=111
78768 On ch=9 n=58 v=115
78814 Off ch=9 n=58 v=115
78816 On ch=9 n=58 v=108
78822 On ch=9 n=63 v=110
78844 Off ch=9 n=55 v=111
78846 Off ch=9 n=58 v=108
78862 Off ch=9 n=63 v=110
78864 On ch=9 n=63 v=105
78866 On ch=9 n=67 v=113
78874 Off ch=9 n=63 v=105
78910 Off ch=9 n=67 v=113
78912 On ch=9 n=67 v=112
78916 On ch=9 n=70 v=114
78922 Pb ch=9 v=4736
78926 Off ch=9 n=67 v=112
78930 Pb ch=9 v=8192
78938 Pb ch=9 v=8192
79152 On ch=9 n=53 v=111
79156 On ch=9 n=58 v=114
79190 Off ch=9 n=70 v=114
79198 Off ch=9 n=58 v=114
79200 On ch=9 n=58 v=110
79208 On ch=9 n=62 v=113
79216 Off ch=9 n=53 v=111
79230 Off ch=9 n=58 v=110
79246 Off ch=9 n=62 v=113
79248 On ch=9 n=62 v=110
79252 On ch=9 n=65 v=112
79260 Off ch=9 n=62 v=110
79294 Off ch=9 n=65 v=112
79294 Pb ch=9 v=6400
79296 On ch=9 n=65 v=113
79296 On ch=9 n=70 v=112
79302 Pb ch=9 v=4480
79306 Off ch=9 n=65 v=113
79310 Pb ch=9 v=6784
79318 Pb ch=9 v=8192
79530 On ch=9 n=60 v=112
79532 Off ch=9 n=70 v=112
79536 On ch=9 n=55 v=111
79580 On ch=9 n=63 v=109
79582 Off ch=9 n=60 v=112
79584 On ch=9 n=60 v=114
79602 Off ch=9 n=60 v=114
79612 Off ch=9 n=55 v=111
79630 Off ch=9 n=63 v=109
79632 On ch=9 n=63 v=108
79632 On ch=9 n=67 v=111
79638 Off ch=9 n=63 v=108
79678 Off ch=9 n=67 v=111
79678 On ch=9 n=70 v=114
79680 On ch=9 n=65 v=117
79688 Pb ch=9 v=8842
79696 Pb ch=9 v=11962
79704 Pb ch=9 v=9492
79712 Pb ch=9 v=12092
79720 Pb ch=9 v=14822
79728 Pb ch=9 v=16382
79980 Off ch=9 n=70 v=114
80016 Off ch=9 n=65 v=117
80068 Pb ch=9 v=15602
80076 Pb ch=9 v=12742
80084 Pb ch=9 v=10272
80092 Pb ch=9 v=8192
80178 Pb ch=9 v=15992
80186 Pb ch=9 v=14562
80194 Pb ch=9 v=12092
80202 Pb ch=9 v=9752
80210 Pb ch=9 v=8192
92928 Par ch=9 c=120 v=0
92928 Meta TrkEnd
TrkEnd
MTrk
0 Meta Text "Lead GtEko"
182 Par ch=12 c=121 v=0
302 Par ch=12 c=0 v=0
304 Par ch=12 c=32 v=0
306 PrCh ch=12 p=30
308 Par ch=12 c=7 v=123
308 Par ch=12 c=10 v=0
308 Par ch=12 c=11 v=90
310 Par ch=12 c=91 v=127
310 Par ch=12 c=93 v=0
35994 On ch=12 n=67 v=117
36088 On ch=12 n=65 v=119
36094 Off ch=12 n=67 v=117
36138 Off ch=12 n=65 v=119
36140 On ch=12 n=63 v=119
36180 Off ch=12 n=63 v=119
36186 On ch=12 n=70 v=119
36302 Par ch=12 c=1 v=14
36318 Par ch=12 c=1 v=52
36334 Par ch=12 c=1 v=84
36350 Par ch=12 c=1 v=95
36366 Par ch=12 c=1 v=101
36384 Par ch=12 c=1 v=114
36400 Par ch=12 c=1 v=127
36430 Par ch=12 c=1 v=111
36446 Par ch=12 c=1 v=75
36462 Par ch=12 c=1 v=0
36478 Off ch=12 n=70 v=119
36478 On ch=12 n=67 v=119
36572 Off ch=12 n=67 v=119
36574 On ch=12 n=72 v=119
36690 Par ch=12 c=1 v=5
36706 Par ch=12 c=1 v=14
36722 Par ch=12 c=1 v=23
36738 Par ch=12 c=1 v=31
36754 Par ch=12 c=1 v=41
36770 Par ch=12 c=1 v=51
36786 Par ch=12 c=1 v=60
36802 Par ch=12 c=1 v=72
36818 Par ch=12 c=1 v=86
36834 Par ch=12 c=1 v=100
36852 Par ch=12 c=1 v=98
36868 Par ch=12 c=1 v=66
36884 Par ch=12 c=1 v=0
36922 Off ch=12 n=72 v=119
36954 On ch=12 n=72 v=119
37056 On ch=12 n=74 v=119
37068 Off ch=12 n=72 v=119
37102 On ch=12 n=75 v=119
37104 Off ch=12 n=74 v=119
37162 On ch=12 n=72 v=119
37166 Off ch=12 n=75 v=119
37250 On ch=12 n=74 v=119
37258 Off ch=12 n=72 v=119
37296 On ch=12 n=75 v=119
37302 Off ch=12 n=74 v=119
37350 Off ch=12 n=75 v=119
37354 On ch=12 n=77 v=119
37432 Par ch=12 c=1 v=1
37448 Par ch=12 c=1 v=13
37464 Par ch=12 c=1 v=31
37480 Par ch=12 c=1 v=43
37498 Par ch=12 c=1 v=47
37514 Par ch=12 c=1 v=52
37532 Par ch=12 c=1 v=59
37548 Par ch=12 c=1 v=69
37564 Par ch=12 c=1 v=80
37580 Par ch=12 c=1 v=86
37602 Par ch=12 c=1 v=83
37618 Par ch=12 c=1 v=50
37634 Par ch=12 c=1 v=0
37636 Off ch=12 n=77 v=119
37638 On ch=12 n=72 v=119
37708 Off ch=12 n=72 v=119
37718 On ch=12 n=77 v=119
37776 Off ch=12 n=77 v=119
37776 On ch=12 n=79 v=118
37812 Off ch=12 n=79 v=118
37832 On ch=12 n=80 v=119
37860 Off ch=12 n=80 v=119
37872 On ch=12 n=82 v=119
37894 Off ch=12 n=82 v=119
37916 On ch=12 n=82 v=119
37934 Pb ch=12 v=9492
37942 Pb ch=12 v=12482
37950 Pb ch=12 v=16382
38166 Pb ch=12 v=16122
38174 Pb ch=12 v=11832
38182 Pb ch=12 v=8192
38224 On ch=12 n=80 v=119
38228 Off ch=12 n=82 v=119
38256 Off ch=12 n=80 v=119
38258 On ch=12 n=82 v=119
38292 On ch=12 n=80 v=119
38300 Off ch=12 n=82 v=119
38322 Off ch=12 n=80 v=119
38322 On ch=12 n=79 v=119
38356 Off ch=12 n=79 v=119
38356 On ch=12 n=80 v=119
38382 On ch=12 n=79 v=119
38386 Off ch=12 n=80 v=119
38414 On ch=12 n=77 v=119
38416 Off ch=12 n=79 v=119
38436 On ch=12 n=79 v=119
38442 Off ch=12 n=77 v=119
38462 On ch=12 n=77 v=119
38474 Off ch=12 n=79 v=119
38494 On ch=12 n=75 v=119
38496 Off ch=12 n=77 v=119
38528 Off ch=12 n=75 v=119
38528 On ch=12 n=77 v=119
38550 On ch=12 n=75 v=119
38554 Off ch=12 n=77 v=119
38578 On ch=12 n=74 v=119
38582 Off ch=12 n=75 v=119
38598 Off ch=12 n=74 v=119
38598 On ch=12 n=75 v=119
38622 On ch=12 n=74 v=119
38626 Off ch=12 n=75 v=119
38646 Off ch=12 n=74 v=119
38648 On ch=12 n=72 v=119
38680 On ch=12 n=70 v=119
38688 Off ch=12 n=72 v=119
38752 Par ch=12 c=1 v=4
38768 Par ch=12 c=1 v=38
38784 Par ch=12 c=1 v=59
38800 Par ch=12 c=1 v=84
38816 Par ch=12 c=1 v=107
38832 Par ch=12 c=1 v=120
38850 Par ch=12 c=1 v=114
38866 Par ch=12 c=1 v=80
38870 Off ch=12 n=70 v=119
38882 Par ch=12 c=1 v=0
38942 On ch=12 n=70 v=119
38982 Off ch=12 n=70 v=119
38986 On ch=12 n=72 v=119
39026 On ch=12 n=74 v=119
39036 Off ch=12 n=72 v=119
39058 Off ch=12 n=74 v=119
39066 On ch=12 n=75 v=119
39094 Off ch=12 n=75 v=119
39102 On ch=12 n=77 v=119
39134 On ch=12 n=79 v=119
39140 Off ch=12 n=77 v=119
39164 Off ch=12 n=79 v=119
39168 On ch=12 n=80 v=119
39198 On ch=12 n=82 v=119
39200 Off ch=12 n=80 v=119
39238 Par ch=12 c=1 v=6
39254 Par ch=12 c=1 v=18
39270 Par ch=12 c=1 v=38
39286 Par ch=12 c=1 v=65
39302 Par ch=12 c=1 v=84
39318 Par ch=12 c=1 v=68
39326 On ch=12 n=70 v=119
39328 Off ch=12 n=82 v=119
39334 Par ch=12 c=1 v=0
39352 Off ch=12 n=70 v=119
39358 On ch=12 n=72 v=119
39396 On ch=12 n=74 v=119
39404 Off ch=12 n=72 v=119
39428 Off ch=12 n=74 v=119
39432 On ch=12 n=75 v=119
39462 Off ch=12 n=75 v=119
39466 On ch=12 n=77 v=119
39504 On ch=12 n=79 v=119
39512 Off ch=12 n=77 v=119
39536 Off ch=12 n=79 v=119
39542 On ch=12 n=80 v=119
39572 Off ch=12 n=80 v=119
39576 On ch=12 n=82 v=119
39632 Pb ch=12 v=8842
39640 Pb ch=12 v=10792
39648 Pb ch=12 v=13652
39656 Pb ch=12 v=16382
39854 Par ch=12 c=1 v=6
39870 Par ch=12 c=1 v=28
39886 Par ch=12 c=1 v=79
39902 Par ch=12 c=1 v=100
39918 Par ch=12 c=1 v=112
39936 Off ch=12 n=82 v=119
39936 Pb ch=12 v=8192
39936 On ch=12 n=74 v=119
39940 Par ch=12 c=1 v=82
39956 Par ch=12 c=1 v=0
39980 Off ch=12 n=74 v=119
39984 On ch=12 n=75 v=119
39984 Pb ch=12 v=8564
40032 Off ch=12 n=75 v=119
40032 On ch=12 n=72 v=119
40122 Off ch=12 n=72 v=119
40128 On ch=12 n=74 v=119
40170 On ch=12 n=75 v=119
40176 Off ch=12 n=74 v=119
40228 On ch=12 n=72 v=119
40230 Off ch=12 n=75 v=119
40318 On ch=12 n=74 v=119
40332 Off ch=12 n=72 v=119
40362 On ch=12 n=75 v=119
40366 Off ch=12 n=74 v=119
40414 Off ch=12 n=75 v=119
40420 On ch=12 n=77 v=119
40512 Pb ch=12 v=8564
40590 Pb ch=12 v=8456
40600 Pb ch=12 v=8301
40608 Pb ch=12 v=8192
40642 Pb ch=12 v=8533
40666 Pb ch=12 v=8458
40684 Off ch=12 n=77 v=119
40686 On ch=12 n=65 v=119
40690 Pb ch=12 v=8384
40714 Pb ch=12 v=8309
40738 Pb ch=12 v=8235
40748 On ch=12 n=67 v=119
40764 Off ch=12 n=65 v=119
40810 Off ch=12 n=67 v=119
40812 On ch=12 n=68 v=119
40976 Off ch=12 n=68 v=119
40982 On ch=12 n=77 v=119
41182 On ch=12 n=68 v=119
41184 Off ch=12 n=77 v=119
41438 On ch=12 n=73 v=119
41440 Off ch=12 n=68 v=119
41478 Off ch=12 n=73 v=119
41496 On ch=12 n=73 v=119
41552 Off ch=12 n=73 v=119
41576 On ch=12 n=73 v=119
41752 Off ch=12 n=73 v=119
41756 On ch=12 n=61 v=119
41898 Off ch=12 n=61 v=119
57312 On ch=12 n=53 v=117
57440 On ch=12 n=45 v=117
57450 Off ch=12 n=53 v=117
57568 Off ch=12 n=45 v=117
57568 On ch=12 n=46 v=115
57690 Off ch=12 n=46 v=115
57696 On ch=12 n=47 v=116
57820 Off ch=12 n=47 v=116
57824 On ch=12 n=48 v=115
57888 On ch=12 n=50 v=113
57900 Off ch=12 n=48 v=115
57952 On ch=12 n=52 v=116
57954 Off ch=12 n=50 v=113
58016 On ch=12 n=53 v=115
58040 Off ch=12 n=52 v=116
58058 Off ch=12 n=53 v=115
58080 On ch=12 n=53 v=115
58208 On ch=12 n=45 v=115
58216 Off ch=12 n=53 v=115
58336 On ch=12 n=46 v=115
58358 Off ch=12 n=45 v=115
58458 Off ch=12 n=46 v=115
58464 On ch=12 n=47 v=114
58528 On ch=12 n=48 v=110
58546 Off ch=12 n=47 v=114
58580 Off ch=12 n=48 v=110
58592 On ch=12 n=50 v=116
58656 On ch=12 n=48 v=117
58660 Off ch=12 n=50 v=116
58820 Off ch=12 n=48 v=117
58848 On ch=12 n=53 v=114
58976 On ch=12 n=45 v=114
58986 Off ch=12 n=53 v=114
59094 Off ch=12 n=45 v=114
59104 On ch=12 n=46 v=115
59232 On ch=12 n=47 v=115
59236 Off ch=12 n=46 v=115
59360 On ch=12 n=48 v=113
59370 Off ch=12 n=47 v=115
59424 On ch=12 n=50 v=114
59446 Off ch=12 n=48 v=113
59488 On ch=12 n=52 v=113
59490 Off ch=12 n=50 v=114
59552 On ch=12 n=53 v=112
59578 Off ch=12 n=52 v=113
59600 Off ch=12 n=53 v=112
59616 On ch=12 n=55 v=117
59742 Off ch=12 n=55 v=117
59744 On ch=12 n=47 v=115
59872 On ch=12 n=48 v=109
59902 Off ch=12 n=47 v=115
59980 Off ch=12 n=48 v=109
60000 On ch=12 n=49 v=110
60076 Off ch=12 n=49 v=110
60096 On ch=12 n=50 v=116
60160 On ch=12 n=52 v=112
60180 Off ch=12 n=50 v=116
60192 On ch=12 n=50 v=107
60208 Off ch=12 n=52 v=112
60372 Off ch=12 n=50 v=107
60384 On ch=12 n=43 v=117
60384 On ch=12 n=48 v=115
61536 On ch=12 n=41 v=115
61550 Off ch=12 n=43 v=117
61906 Off ch=12 n=41 v=115
61918 Off ch=12 n=48 v=115
61920 On ch=12 n=43 v=110
61920 On ch=12 n=48 v=117
61930 Off ch=12 n=48 v=117
62666 Off ch=12 n=43 v=110
62688 On ch=12 n=43 v=112
62752 On ch=12 n=46 v=114
62770 Off ch=12 n=43 v=112
62808 Off ch=12 n=46 v=114
62816 On ch=12 n=48 v=115
62864 Off ch=12 n=48 v=115
62880 On ch=12 n=48 v=115
62944 On ch=12 n=46 v=113
62952 Off ch=12 n=48 v=115
62996 Off ch=12 n=46 v=113
63008 On ch=12 n=51 v=115
63456 On ch=12 n=43 v=119
63456 On ch=12 n=48 v=117
63466 Off ch=12 n=51 v=115
64576 Off ch=12 n=43 v=119
64608 On ch=12 n=41 v=115
64968 Off ch=12 n=41 v=115
64992 On ch=12 n=46 v=116
64992 On ch=12 n=53 v=116
65026 Off ch=12 n=48 v=117
65750 Off ch=12 n=46 v=116
65756 Off ch=12 n=53 v=116
65760 On ch=12 n=43 v=114
65760 On ch=12 n=50 v=117
66498 Off ch=12 n=43 v=114
66528 On ch=12 n=48 v=114
66548 Off ch=12 n=50 v=117
67296 On ch=12 n=43 v=117
67296 On ch=12 n=46 v=114
67318 Off ch=12 n=48 v=114
68024 Off ch=12 n=43 v=117
68048 Off ch=12 n=46 v=114
68064 On ch=12 n=43 v=114
68064 On ch=12 n=48 v=112
68812 Off ch=12 n=43 v=114
68832 On ch=12 n=43 v=112
68832 On ch=12 n=46 v=115
68838 Off ch=12 n=48 v=112
69194 Off ch=12 n=43 v=112
69216 Off ch=12 n=46 v=115
69216 On ch=12 n=43 v=117
69216 On ch=12 n=48 v=112
69566 Off ch=12 n=43 v=117
69600 On ch=12 n=43 v=113
69600 On ch=12 n=46 v=115
69610 Off ch=12 n=48 v=112
69984 On ch=12 n=48 v=109
69986 Off ch=12 n=46 v=115
70366 Off ch=12 n=43 v=113
70368 On ch=12 n=53 v=115
70378 Off ch=12 n=48 v=109
70492 Off ch=12 n=53 v=115
70496 On ch=12 n=45 v=116
70620 Off ch=12 n=45 v=116
70624 On ch=12 n=46 v=114
70748 Off ch=12 n=46 v=114
70752 On ch=12 n=47 v=117
70880 On ch=12 n=48 v=110
70896 Off ch=12 n=47 v=117
70944 On ch=12 n=50 v=112
70960 Off ch=12 n=48 v=110
71008 On ch=12 n=52 v=114
71010 Off ch=12 n=50 v=112
71072 On ch=12 n=53 v=115
71094 Off ch=12 n=52 v=114
71118 Off ch=12 n=53 v=115
71136 On ch=12 n=53 v=115
71260 Off ch=12 n=53 v=115
71264 On ch=12 n=45 v=116
71392 On ch=12 n=46 v=114
71398 Off ch=12 n=45 v=116
71510 Off ch=12 n=46 v=114
71520 On ch=12 n=47 v=114
71584 On ch=12 n=48 v=110
71590 Off ch=12 n=47 v=114
71638 Off ch=12 n=48 v=110
71648 On ch=12 n=50 v=117
71712 On ch=12 n=48 v=117
71716 Off ch=12 n=50 v=117
71890 Off ch=12 n=48 v=117
71904 On ch=12 n=53 v=117
72032 On ch=12 n=45 v=117
72040 Off ch=12 n=53 v=117
72160 On ch=12 n=46 v=115
72164 Off ch=12 n=45 v=117
72282 Off ch=12 n=46 v=115
72288 On ch=12 n=47 v=115
72416 On ch=12 n=48 v=109
72422 Off ch=12 n=47 v=115
72480 On ch=12 n=50 v=110
72482 Off ch=12 n=48 v=109
72536 Off ch=12 n=50 v=110
72544 On ch=12 n=52 v=112
72608 On ch=12 n=53 v=112
72642 Off ch=12 n=52 v=112
72652 Off ch=12 n=53 v=112
72672 On ch=12 n=55 v=116
72796 Off ch=12 n=55 v=116
72800 On ch=12 n=47 v=116
72928 On ch=12 n=48 v=113
72962 Off ch=12 n=47 v=116
73052 Off ch=12 n=48 v=113
73056 On ch=12 n=50 v=114
73170 Off ch=12 n=50 v=114
73184 On ch=12 n=51 v=110
73244 Off ch=12 n=51 v=110
73248 On ch=12 n=52 v=115
73312 Off ch=12 n=52 v=115
73312 On ch=12 n=53 v=109
73358 Off ch=12 n=53 v=109
73376 On ch=12 n=55 v=114
73436 Off ch=12 n=55 v=114
73440 On ch=12 n=54 v=114
73504 On ch=12 n=56 v=113
73524 Off ch=12 n=54 v=114
73568 On ch=12 n=58 v=115
73570 Off ch=12 n=56 v=113
73622 Off ch=12 n=58 v=115
73696 On ch=12 n=56 v=114
73760 On ch=12 n=58 v=112
73764 Off ch=12 n=56 v=114
73824 On ch=12 n=60 v=116
73830 Off ch=12 n=58 v=112
73900 Off ch=12 n=60 v=116
74016 On ch=12 n=58 v=114
74074 Off ch=12 n=58 v=114
74080 On ch=12 n=60 v=113
74144 On ch=12 n=62 v=112
74162 Off ch=12 n=60 v=113
74182 Off ch=12 n=62 v=112
74208 On ch=12 n=47 v=115
74240 Off ch=12 n=47 v=115
74240 On ch=12 n=49 v=109
74272 Off ch=12 n=49 v=109
74272 On ch=12 n=51 v=109
74304 Off ch=12 n=51 v=109
74304 On ch=12 n=49 v=110
74336 Off ch=12 n=49 v=110
74336 On ch=12 n=51 v=111
74368 Off ch=12 n=51 v=111
74368 On ch=12 n=54 v=112
74400 Off ch=12 n=54 v=112
74400 On ch=12 n=51 v=112
74432 Off ch=12 n=51 v=112
74432 On ch=12 n=54 v=112
74464 Off ch=12 n=54 v=112
74464 On ch=12 n=52 v=115
74496 Off ch=12 n=52 v=115
74496 On ch=12 n=54 v=112
74528 Off ch=12 n=54 v=113
74528 On ch=12 n=54 v=113
74560 Off ch=12 n=54 v=112
74560 On ch=12 n=56 v=115
74592 On ch=12 n=58 v=114
74608 Off ch=12 n=56 v=115
74624 Off ch=12 n=58 v=113
74624 On ch=12 n=58 v=113
74656 Off ch=12 n=58 v=114
74656 On ch=12 n=56 v=113
74688 On ch=12 n=54 v=113
74698 Off ch=12 n=56 v=113
74720 Off ch=12 n=54 v=113
74720 On ch=12 n=53 v=113
74752 Off ch=12 n=53 v=113
74752 On ch=12 n=56 v=113
74784 On ch=12 n=58 v=114
74798 Off ch=12 n=56 v=113
74816 Off ch=12 n=58 v=114
74816 On ch=12 n=59 v=115
74848 On ch=12 n=61 v=115
74852 Off ch=12 n=59 v=115
74880 On ch=12 n=62 v=114
74886 Off ch=12 n=61 v=115
74912 Off ch=12 n=62 v=114
74912 On ch=12 n=63 v=112
74976 Off ch=12 n=63 v=112
74976 On ch=12 n=44 v=114
75008 Off ch=12 n=44 v=114
75008 On ch=12 n=46 v=119
75040 Off ch=12 n=46 v=119
75040 On ch=12 n=48 v=120
75072 Off ch=12 n=48 v=120
75072 On ch=12 n=46 v=120
75104 Off ch=12 n=46 v=120
75104 On ch=12 n=44 v=120
75136 Off ch=12 n=44 v=120
75136 On ch=12 n=46 v=120
75168 Off ch=12 n=46 v=120
75168 On ch=12 n=48 v=120
75200 Off ch=12 n=48 v=120
75200 On ch=12 n=50 v=120
75232 Off ch=12 n=50 v=120
75232 On ch=12 n=51 v=120
75264 Off ch=12 n=51 v=120
75264 On ch=12 n=53 v=120
75296 Off ch=12 n=53 v=120
75296 On ch=12 n=56 v=120
75328 Off ch=12 n=56 v=120
75328 On ch=12 n=55 v=120
75360 Off ch=12 n=55 v=120
75360 On ch=12 n=56 v=120
75392 Off ch=12 n=56 v=120
75392 On ch=12 n=58 v=120
75424 Off ch=12 n=58 v=120
75424 On ch=12 n=60 v=120
75456 Off ch=12 n=60 v=120
75456 On ch=12 n=62 v=120
75488 Off ch=12 n=62 v=120
75488 On ch=12 n=63 v=120
75520 Off ch=12 n=63 v=120
75520 On ch=12 n=60 v=116
75552 Off ch=12 n=60 v=116
75552 On ch=12 n=63 v=120
75744 Off ch=12 n=63 v=120
75744 On ch=12 n=46 v=112
75776 On ch=12 n=48 v=112
75782 Off ch=12 n=46 v=112
75808 Off ch=12 n=48 v=112
75808 On ch=12 n=50 v=112
75840 On ch=12 n=48 v=113
75852 Off ch=12 n=50 v=112
75872 On ch=12 n=50 v=113
75888 Off ch=12 n=48 v=113
75904 On ch=12 n=51 v=113
75908 Off ch=12 n=50 v=113
75936 Off ch=12 n=51 v=113
75936 On ch=12 n=50 v=113
75968 Off ch=12 n=50 v=113
75968 On ch=12 n=51 v=113
76000 Off ch=12 n=51 v=113
76000 On ch=12 n=53 v=114
76032 Off ch=12 n=53 v=114
76032 On ch=12 n=52 v=114
76064 Off ch=12 n=52 v=114
76064 On ch=12 n=53 v=114
76096 On ch=12 n=55 v=114
76102 Off ch=12 n=53 v=114
76128 Off ch=12 n=55 v=114
76128 On ch=12 n=53 v=114
76160 Off ch=12 n=53 v=114
76160 On ch=12 n=56 v=115
76192 On ch=12 n=55 v=115
76200 Off ch=12 n=56 v=115
76224 On ch=12 n=53 v=115
76226 Off ch=12 n=55 v=115
76256 On ch=12 n=55 v=115
76258 Off ch=12 n=53 v=115
76286 Off ch=12 n=55 v=115
76288 On ch=12 n=56 v=115
76320 On ch=12 n=58 v=115
76328 Off ch=12 n=56 v=115
76340 Off ch=12 n=58 v=115
76352 On ch=12 n=60 v=116
76378 Off ch=12 n=60 v=116
76384 On ch=12 n=62 v=116
76416 On ch=12 n=63 v=116
76418 Off ch=12 n=62 v=116
76448 On ch=12 n=62 v=116
76450 Off ch=12 n=63 v=116
76470 Off ch=12 n=62 v=116
76480 On ch=12 n=60 v=116
76512 Off ch=12 n=60 v=116
76512 On ch=12 n=62 v=117
76544 Off ch=12 n=62 v=117
76544 On ch=12 n=63 v=117
76574 Off ch=12 n=63 v=117
76576 On ch=12 n=65 v=117
76604 Off ch=12 n=65 v=117
76608 On ch=12 n=67 v=117
76640 On ch=12 n=68 v=117
76646 Off ch=12 n=67 v=117
76672 On ch=12 n=70 v=117
76676 Off ch=12 n=68 v=117
76704 On ch=12 n=68 v=117
76714 Off ch=12 n=70 v=117
76728 Off ch=12 n=68 v=117
76736 On ch=12 n=65 v=118
76764 Off ch=12 n=65 v=118
76768 On ch=12 n=67 v=118
76796 Off ch=12 n=67 v=118
76800 On ch=12 n=70 v=118
76818 Off ch=12 n=70 v=118
76832 On ch=12 n=72 v=118
76864 Off ch=12 n=72 v=118
76864 On ch=12 n=74 v=118
76896 On ch=12 n=75 v=119
76900 Off ch=12 n=74 v=118
76928 Pb ch=12 v=9681
76960 Pb ch=12 v=10946
76992 Pb ch=12 v=12212
77024 Pb ch=12 v=13478
77056 Pb ch=12 v=16383
78430 Off ch=12 n=75 v=119
78464 Pb ch=12 v=8192
78864 On ch=12 n=55 v=102
78864 On ch=12 n=58 v=108
78910 Off ch=12 n=58 v=108
78912 On ch=12 n=58 v=98
78918 On ch=12 n=63 v=100
78940 Off ch=12 n=55 v=102
78942 Off ch=12 n=58 v=98
78958 Off ch=12 n=63 v=100
78960 On ch=12 n=63 v=94
78962 On ch=12 n=67 v=105
78970 Off ch=12 n=63 v=94
79006 Off ch=12 n=67 v=105
79008 On ch=12 n=67 v=104
79012 On ch=12 n=70 v=106
79018 Pb ch=12 v=4736
79022 Off ch=12 n=67 v=104
79026 Pb ch=12 v=8192
79034 Pb ch=12 v=8192
79248 On ch=12 n=53 v=102
79252 On ch=12 n=58 v=107
79286 Off ch=12 n=70 v=106
79294 Off ch=12 n=58 v=107
79296 On ch=12 n=58 v=101
79304 On ch=12 n=62 v=105
79312 Off ch=12 n=53 v=102
79326 Off ch=12 n=58 v=101
79342 Off ch=12 n=62 v=105
79344 On ch=12 n=62 v=101
79348 On ch=12 n=65 v=104
79356 Off ch=12 n=62 v=101
79390 Off ch=12 n=65 v=104
79390 Pb ch=12 v=6400
79392 On ch=12 n=65 v=105
79392 On ch=12 n=70 v=104
79398 Pb ch=12 v=4480
79402 Off ch=12 n=65 v=105
79406 Pb ch=12 v=6784
79414 Pb ch=12 v=8192
79626 On ch=12 n=60 v=104
79628 Off ch=12 n=70 v=104
79632 On ch=12 n=55 v=102
79676 On ch=12 n=63 v=99
79678 Off ch=12 n=60 v=104
79680 On ch=12 n=60 v=106
79698 Off ch=12 n=60 v=106
79708 Off ch=12 n=55 v=102
79726 Off ch=12 n=63 v=99
79728 On ch=12 n=63 v=97
79728 On ch=12 n=67 v=102
79734 Off ch=12 n=63 v=97
79774 Off ch=12 n=67 v=102
79774 On ch=12 n=70 v=107
79776 On ch=12 n=65 v=110
79784 Pb ch=12 v=8842
79792 Pb ch=12 v=11962
79800 Pb ch=12 v=9492
79808 Pb ch=12 v=12092
79816 Pb ch=12 v=14822
79824 Pb ch=12 v=16382
80076 Off ch=12 n=70 v=107
80112 Off ch=12 n=65 v=110
80164 Pb ch=12 v=15602
80172 Pb ch=12 v=12742
80180 Pb ch=12 v=10272
80188 Pb ch=12 v=8192
80274 Pb ch=12 v=15992
80282 Pb ch=12 v=14562
80290 Pb ch=12 v=12092
80298 Pb ch=12 v=9752
80306 Pb ch=12 v=8192
92928 Par ch=12 c=120 v=0
92930 Par ch=12 c=123 v=0
92930 Meta TrkEnd
TrkEnd
MTrk
0 Meta Text "Orc Hit"
184 Par ch=13 c=121 v=0
312 Par ch=13 c=0 v=0
314 Par ch=13 c=32 v=0
316 PrCh ch=13 p=55
318 Par ch=13 c=7 v=123
318 Par ch=13 c=10 v=64
318 Par ch=13 c=11 v=110
320 Par ch=13 c=91 v=126
320 Par ch=13 c=93 v=0
47520 On ch=13 n=74 v=123
47598 Off ch=13 n=74 v=123
47616 On ch=13 n=72 v=123
47634 Off ch=13 n=72 v=123
47664 On ch=13 n=72 v=122
47682 Off ch=13 n=72 v=122
47712 On ch=13 n=71 v=123
47744 Off ch=13 n=71 v=123
47808 On ch=13 n=72 v=123
47858 Off ch=13 n=72 v=123
47904 On ch=13 n=74 v=123
47926 Off ch=13 n=74 v=123
47952 On ch=13 n=74 v=121
47974 Off ch=13 n=74 v=121
48000 On ch=13 n=72 v=124
48040 Off ch=13 n=72 v=124
48096 On ch=13 n=71 v=124
48114 Off ch=13 n=71 v=124
48144 On ch=13 n=71 v=124
48166 Off ch=13 n=71 v=124
48192 On ch=13 n=72 v=123
48232 Off ch=13 n=72 v=123
48288 On ch=13 n=74 v=122
48320 Off ch=13 n=74 v=122
48384 On ch=13 n=74 v=123
48406 Off ch=13 n=74 v=123
48432 On ch=13 n=76 v=122
48456 Off ch=13 n=76 v=122
48480 On ch=13 n=72 v=124
48512 Off ch=13 n=72 v=124
48576 On ch=13 n=72 v=123
48594 Off ch=13 n=72 v=123
48624 On ch=13 n=72 v=121
48646 Off ch=13 n=72 v=121
48672 On ch=13 n=71 v=123
48700 Off ch=13 n=71 v=123
48768 On ch=13 n=71 v=123
48786 Off ch=13 n=71 v=123
48816 On ch=13 n=71 v=124
48838 Off ch=13 n=71 v=124
48864 On ch=13 n=72 v=123
48890 Off ch=13 n=72 v=123
50112 On ch=13 n=60 v=122
50112 On ch=13 n=72 v=124
50178 Off ch=13 n=72 v=124
50178 Off ch=13 n=60 v=122
50210 On ch=13 n=65 v=124
50210 On ch=13 n=77 v=122
50272 Off ch=13 n=77 v=122
50280 Off ch=13 n=65 v=124
50308 On ch=13 n=60 v=120
50312 On ch=13 n=72 v=121
50364 Off ch=13 n=72 v=121
50368 Off ch=13 n=60 v=120
50408 On ch=13 n=65 v=124
50408 On ch=13 n=77 v=123
50538 Off ch=13 n=65 v=124
50544 Off ch=13 n=77 v=123
50838 On ch=13 n=65 v=123
50838 On ch=13 n=77 v=120
50864 Off ch=13 n=77 v=120
50866 Off ch=13 n=65 v=123
50886 On ch=13 n=77 v=120
50888 On ch=13 n=65 v=121
50914 Off ch=13 n=65 v=121
50914 Off ch=13 n=77 v=120
50936 On ch=13 n=77 v=123
50942 On ch=13 n=65 v=123
51046 Off ch=13 n=65 v=123
51046 Off ch=13 n=77 v=123
51072 On ch=13 n=60 v=121
51078 On ch=13 n=72 v=123
51132 Off ch=13 n=72 v=123
51140 Off ch=13 n=60 v=121
51178 On ch=13 n=65 v=124
51178 On ch=13 n=77 v=123
51228 Off ch=13 n=77 v=123
51236 Off ch=13 n=65 v=124
51268 On ch=13 n=60 v=122
51268 On ch=13 n=72 v=124
51322 Off ch=13 n=72 v=124
51330 Off ch=13 n=60 v=122
51366 On ch=13 n=65 v=123
51366 On ch=13 n=77 v=123
51478 Off ch=13 n=77 v=123
51482 Off ch=13 n=65 v=123
51794 On ch=13 n=65 v=124
51800 On ch=13 n=77 v=123
51818 Off ch=13 n=77 v=123
51822 Off ch=13 n=65 v=124
51848 On ch=13 n=65 v=123
51848 On ch=13 n=77 v=123
51868 Off ch=13 n=77 v=123
51872 Off ch=13 n=65 v=123
51894 On ch=13 n=65 v=122
51894 On ch=13 n=77 v=124
51982 Off ch=13 n=77 v=124
51982 Off ch=13 n=65 v=122
52182 On ch=13 n=65 v=124
52186 On ch=13 n=77 v=123
52206 Off ch=13 n=77 v=123
52206 Off ch=13 n=65 v=124
52234 On ch=13 n=65 v=124
52236 On ch=13 n=77 v=124
52256 Off ch=13 n=77 v=124
52256 Off ch=13 n=65 v=124
52282 On ch=13 n=65 v=123
52282 On ch=13 n=77 v=124
52318 Off ch=13 n=77 v=124
52318 Off ch=13 n=65 v=123
52566 On ch=13 n=65 v=124
52566 On ch=13 n=77 v=123
52588 Off ch=13 n=65 v=124
52590 Off ch=13 n=77 v=123
52614 On ch=13 n=77 v=122
52616 On ch=13 n=65 v=124
52636 Off ch=13 n=65 v=124
52636 Off ch=13 n=77 v=122
52662 On ch=13 n=65 v=124
52662 On ch=13 n=77 v=124
52698 Off ch=13 n=65 v=124
52702 Off ch=13 n=77 v=124
53232 On ch=13 n=60 v=123
53292 Off ch=13 n=60 v=123
53328 On ch=13 n=59 v=121
53388 Off ch=13 n=59 v=121
53424 On ch=13 n=63 v=122
53478 Off ch=13 n=63 v=122
53520 On ch=13 n=62 v=123
53570 Off ch=13 n=62 v=123
53616 On ch=13 n=68 v=121
53666 Off ch=13 n=68 v=121
53712 On ch=13 n=67 v=123
53764 Off ch=13 n=67 v=123
53808 On ch=13 n=72 v=123
53864 Off ch=13 n=72 v=123
54288 On ch=13 n=76 v=122
54306 Off ch=13 n=76 v=122
54336 On ch=13 n=76 v=123
54354 Off ch=13 n=76 v=123
54384 On ch=13 n=77 v=124
54410 Off ch=13 n=77 v=124
54432 On ch=13 n=76 v=122
54454 Off ch=13 n=76 v=122
54480 On ch=13 n=74 v=123
54506 Off ch=13 n=74 v=123
54528 On ch=13 n=72 v=122
54550 Off ch=13 n=72 v=122
54576 On ch=13 n=71 v=122
54628 Off ch=13 n=71 v=122
92928 Par ch=13 c=120 v=0
92930 Par ch=13 c=123 v=0
92930 Meta TrkEnd
TrkEnd
MTrk
0 Meta Text "Drums"
178 Par ch=10 c=121 v=0
282 Par ch=10 c=0 v=0
284 Par ch=10 c=32 v=0
286 PrCh ch=10 p=0
288 Par ch=10 c=7 v=123
288 Par ch=10 c=10 v=64
288 Par ch=10 c=11 v=110
290 Par ch=10 c=91 v=127
290 Par ch=10 c=93 v=0
18622 On ch=10 n=35 v=111
18622 On ch=10 n=45 v=111
18634 Off ch=10 n=35 v=111
18642 Off ch=10 n=45 v=111
18670 On ch=10 n=35 v=113
18670 On ch=10 n=45 v=113
18682 Off ch=10 n=35 v=113
18688 Off ch=10 n=45 v=113
18718 On ch=10 n=35 v=114
18718 On ch=10 n=45 v=114
18730 Off ch=10 n=35 v=114
18738 Off ch=10 n=45 v=114
18766 On ch=10 n=35 v=115
18766 On ch=10 n=45 v=115
18786 Off ch=10 n=45 v=115
18788 Off ch=10 n=35 v=115
18814 On ch=10 n=35 v=116
18814 On ch=10 n=45 v=116
18834 Off ch=10 n=45 v=116
18836 Off ch=10 n=35 v=116
18862 On ch=10 n=35 v=117
18862 On ch=10 n=45 v=117
18880 Off ch=10 n=45 v=117
18880 Off ch=10 n=35 v=117
18910 On ch=10 n=35 v=118
18910 On ch=10 n=45 v=118
18930 Off ch=10 n=45 v=118
18930 Off ch=10 n=35 v=118
18958 On ch=10 n=35 v=119
18958 On ch=10 n=45 v=119
18978 Off ch=10 n=45 v=119
18978 Off ch=10 n=35 v=119
19006 On ch=10 n=35 v=121
19006 On ch=10 n=43 v=121
19026 Off ch=10 n=43 v=121
19026 Off ch=10 n=35 v=121
19054 On ch=10 n=35 v=122
19054 On ch=10 n=43 v=122
19074 Off ch=10 n=43 v=122
19074 Off ch=10 n=35 v=122
19102 On ch=10 n=35 v=123
19102 On ch=10 n=43 v=123
19120 Off ch=10 n=43 v=123
19122 Off ch=10 n=35 v=123
19150 On ch=10 n=35 v=123
19150 On ch=10 n=43 v=123
19174 Off ch=10 n=43 v=123
19174 Off ch=10 n=35 v=123
19198 On ch=10 n=35 v=124
19198 On ch=10 n=49 v=124
19294 On ch=10 n=51 v=120
19340 Off ch=10 n=51 v=120
19390 On ch=10 n=40 v=124
19390 On ch=10 n=42 v=122
19390 On ch=10 n=51 v=122
19436 Off ch=10 n=51 v=122
19456 Off ch=10 n=42 v=122
19456 Off ch=10 n=35 v=124
19486 On ch=10 n=35 v=117
19486 On ch=10 n=51 v=120
19512 Off ch=10 n=51 v=120
19516 Off ch=10 n=35 v=117
19582 On ch=10 n=35 v=123
19582 On ch=10 n=51 v=122
19628 Off ch=10 n=51 v=122
19678 On ch=10 n=51 v=117
19698 Off ch=10 n=51 v=117
19704 Off ch=10 n=40 v=124
19774 On ch=10 n=40 v=124
19774 On ch=10 n=42 v=123
19774 On ch=10 n=51 v=123
19820 Off ch=10 n=51 v=123
19826 Off ch=10 n=42 v=123
19870 On ch=10 n=51 v=118
19890 Off ch=10 n=35 v=123
19904 Off ch=10 n=51 v=118
19966 On ch=10 n=35 v=124
19966 On ch=10 n=51 v=122
19994 Off ch=10 n=51 v=122
20062 On ch=10 n=51 v=119
20066 Off ch=10 n=40 v=124
20082 Off ch=10 n=51 v=119
20158 On ch=10 n=40 v=124
20158 On ch=10 n=42 v=123
20158 On ch=10 n=51 v=123
20186 Off ch=10 n=35 v=124
20204 Off ch=10 n=51 v=123
20214 Off ch=10 n=42 v=123
20254 On ch=10 n=35 v=121
20254 On ch=10 n=51 v=120
20272 Off ch=10 n=35 v=121
20288 Off ch=10 n=51 v=120
20350 Off ch=10 n=49 v=124
20350 On ch=10 n=35 v=124
20350 On ch=10 n=51 v=122
20382 Off ch=10 n=51 v=122
20446 On ch=10 n=51 v=120
20454 Off ch=10 n=40 v=124
20472 Off ch=10 n=51 v=120
20542 On ch=10 n=40 v=124
20542 On ch=10 n=42 v=124
20542 On ch=10 n=51 v=123
20572 Off ch=10 n=51 v=123
20576 Off ch=10 n=35 v=124
20604 Off ch=10 n=42 v=124
20638 On ch=10 n=35 v=116
20638 On ch=10 n=51 v=113
20656 Off ch=10 n=35 v=116
20672 Off ch=10 n=51 v=113
20734 On ch=10 n=35 v=124
20734 On ch=10 n=49 v=122
20830 Off ch=10 n=49 v=122
20830 On ch=10 n=51 v=118
20836 Off ch=10 n=40 v=124
20856 Off ch=10 n=51 v=118
20926 On ch=10 n=40 v=124
20926 On ch=10 n=42 v=123
20926 On ch=10 n=51 v=123
20956 Off ch=10 n=35 v=124
20962 Off ch=10 n=51 v=123
20984 Off ch=10 n=42 v=123
21022 On ch=10 n=35 v=118
21022 On ch=10 n=49 v=120
21044 Off ch=10 n=35 v=118
21118 Off ch=10 n=49 v=123
21118 On ch=10 n=35 v=123
21118 On ch=10 n=49 v=123
21188 Off ch=10 n=40 v=124
21214 Off ch=10 n=49 v=120
21214 On ch=10 n=51 v=119
21236 Off ch=10 n=51 v=119
21310 On ch=10 n=40 v=124
21310 On ch=10 n=42 v=123
21310 On ch=10 n=51 v=123
21312 Off ch=10 n=35 v=123
21350 Off ch=10 n=51 v=123
21368 Off ch=10 n=42 v=123
21406 On ch=10 n=35 v=117
21406 On ch=10 n=51 v=120
21426 Off ch=10 n=35 v=117
21432 Off ch=10 n=51 v=120
21502 On ch=10 n=35 v=123
21502 On ch=10 n=51 v=123
21534 Off ch=10 n=51 v=123
21598 On ch=10 n=51 v=119
21612 Off ch=10 n=40 v=124
21620 Off ch=10 n=51 v=119
21694 On ch=10 n=40 v=124
21694 On ch=10 n=42 v=121
21694 On ch=10 n=51 v=124
21722 Off ch=10 n=35 v=123
21728 Off ch=10 n=51 v=124
21738 Off ch=10 n=42 v=121
21790 On ch=10 n=35 v=122
21790 On ch=10 n=51 v=120
21808 Off ch=10 n=35 v=122
21820 Off ch=10 n=51 v=120
21886 On ch=10 n=35 v=124
21886 On ch=10 n=51 v=122
21904 Off ch=10 n=40 v=124
21914 Off ch=10 n=51 v=122
21982 On ch=10 n=40 v=124
21982 On ch=10 n=51 v=120
22000 Off ch=10 n=51 v=120
22010 Off ch=10 n=40 v=124
22078 On ch=10 n=40 v=124
22078 On ch=10 n=42 v=121
22100 Off ch=10 n=35 v=124
22104 Off ch=10 n=40 v=124
22116 Off ch=10 n=42 v=121
22126 On ch=10 n=43 v=123
22170 Off ch=10 n=43 v=123
22174 On ch=10 n=35 v=124
22174 On ch=10 n=45 v=122
22206 Off ch=10 n=45 v=122
22206 Off ch=10 n=35 v=124
22270 On ch=10 n=35 v=123
22270 On ch=10 n=49 v=124
22366 On ch=10 n=51 v=122
22388 Off ch=10 n=51 v=122
22462 On ch=10 n=40 v=124
22462 On ch=10 n=42 v=123
22462 On ch=10 n=51 v=123
22494 Off ch=10 n=51 v=123
22496 Off ch=10 n=35 v=123
22512 Off ch=10 n=42 v=123
22558 On ch=10 n=35 v=120
22558 On ch=10 n=51 v=119
22586 Off ch=10 n=35 v=120
22590 Off ch=10 n=51 v=119
22654 On ch=10 n=35 v=124
22654 On ch=10 n=51 v=122
22690 Off ch=10 n=51 v=122
22750 Off ch=10 n=49 v=124
22750 On ch=10 n=51 v=117
22768 Off ch=10 n=51 v=117
22770 Off ch=10 n=40 v=124
22846 On ch=10 n=40 v=124
22846 On ch=10 n=42 v=122
22846 On ch=10 n=51 v=123
22866 Off ch=10 n=35 v=124
22884 Off ch=10 n=51 v=123
22894 Off ch=10 n=42 v=122
22942 On ch=10 n=35 v=122
22942 On ch=10 n=51 v=115
22972 Off ch=10 n=51 v=115
22978 Off ch=10 n=35 v=122
23038 On ch=10 n=35 v=124
23038 On ch=10 n=51 v=122
23076 Off ch=10 n=51 v=122
23134 On ch=10 n=51 v=119
23160 Off ch=10 n=51 v=119
23162 Off ch=10 n=40 v=124
23230 On ch=10 n=40 v=124
23230 On ch=10 n=42 v=121
23230 On ch=10 n=51 v=124
23256 Off ch=10 n=35 v=124
23258 Off ch=10 n=51 v=124
23264 Off ch=10 n=42 v=121
23326 On ch=10 n=35 v=121
23326 On ch=10 n=42 v=120
23350 Off ch=10 n=42 v=120
23352 Off ch=10 n=35 v=121
23378 Off ch=10 n=40 v=124
23422 On ch=10 n=35 v=124
23422 On ch=10 n=49 v=123
23694 Off ch=10 n=35 v=124
23762 Off ch=10 n=49 v=123
23806 On ch=10 n=35 v=124
23806 On ch=10 n=49 v=123
24670 On ch=10 n=42 v=121
24692 Off ch=10 n=49 v=123
24766 On ch=10 n=40 v=122
24814 Off ch=10 n=40 v=122
24814 On ch=10 n=43 v=119
24854 Off ch=10 n=35 v=124
24860 Off ch=10 n=43 v=119
24862 On ch=10 n=45 v=117
24940 Off ch=10 n=45 v=117
24958 On ch=10 n=35 v=124
24958 On ch=10 n=49 v=124
25044 Off ch=10 n=42 v=121
25140 Off ch=10 n=35 v=124
25148 On ch=10 n=42 v=122
25150 On ch=10 n=40 v=124
25194 Off ch=10 n=42 v=122
25244 On ch=10 n=35 v=119
25246 On ch=10 n=42 v=116
25266 Off ch=10 n=35 v=119
25272 Off ch=10 n=42 v=116
25342 On ch=10 n=35 v=124
25342 On ch=10 n=42 v=122
25378 Off ch=10 n=42 v=122
25438 On ch=10 n=42 v=114
25454 Off ch=10 n=40 v=124
25464 Off ch=10 n=42 v=114
25534 On ch=10 n=40 v=124
25534 On ch=10 n=42 v=123
25582 Off ch=10 n=42 v=123
25630 On ch=10 n=42 v=114
25658 Off ch=10 n=42 v=114
25660 Off ch=10 n=35 v=124
25726 On ch=10 n=35 v=123
25726 On ch=10 n=42 v=122
25750 Off ch=10 n=49 v=124
25768 Off ch=10 n=42 v=122
25822 On ch=10 n=42 v=113
25844 Off ch=10 n=40 v=124
25852 Off ch=10 n=42 v=113
25918 On ch=10 n=40 v=124
25918 On ch=10 n=42 v=122
25952 Off ch=10 n=35 v=123
25958 Off ch=10 n=42 v=122
26014 On ch=10 n=35 v=121
26014 On ch=10 n=42 v=116
26040 Off ch=10 n=42 v=116
26042 Off ch=10 n=35 v=121
26110 On ch=10 n=35 v=123
26110 On ch=10 n=42 v=120
26146 Off ch=10 n=42 v=120
26206 On ch=10 n=42 v=115
26210 Off ch=10 n=40 v=124
26236 Off ch=10 n=42 v=115
26302 On ch=10 n=40 v=124
26302 On ch=10 n=42 v=121
26324 Off ch=10 n=42 v=121
26350 On ch=10 n=42 v=120
26398 Off ch=10 n=42 v=120
26398 On ch=10 n=46 v=120
26418 Off ch=10 n=35 v=123
26494 On ch=10 n=35 v=123
26494 On ch=10 n=49 v=123
26500 Off ch=10 n=46 v=120
26590 On ch=10 n=42 v=113
26600 Off ch=10 n=40 v=124
26620 Off ch=10 n=42 v=113
26686 On ch=10 n=40 v=124
26686 On ch=10 n=42 v=123
26718 Off ch=10 n=35 v=123
26734 Off ch=10 n=42 v=123
26782 On ch=10 n=35 v=120
26782 On ch=10 n=42 v=117
26810 Off ch=10 n=35 v=120
26816 Off ch=10 n=42 v=117
26878 On ch=10 n=35 v=123
26878 On ch=10 n=42 v=115
26922 Off ch=10 n=42 v=115
26926 Off ch=10 n=49 v=123
26974 On ch=10 n=42 v=114
26980 Off ch=10 n=40 v=124
27004 Off ch=10 n=42 v=114
27070 On ch=10 n=40 v=124
27070 On ch=10 n=42 v=123
27116 Off ch=10 n=42 v=123
27166 On ch=10 n=42 v=114
27184 Off ch=10 n=35 v=123
27200 Off ch=10 n=42 v=114
27262 On ch=10 n=35 v=123
27262 On ch=10 n=42 v=120
27298 Off ch=10 n=42 v=120
27352 Off ch=10 n=40 v=124
27358 On ch=10 n=42 v=115
27384 Off ch=10 n=42 v=115
27454 On ch=10 n=40 v=124
27454 On ch=10 n=42 v=123
27480 Off ch=10 n=35 v=123
27502 Off ch=10 n=42 v=123
27550 On ch=10 n=35 v=121
27550 On ch=10 n=42 v=116
27576 Off ch=10 n=35 v=121
27584 Off ch=10 n=42 v=116
27646 On ch=10 n=35 v=123
27646 On ch=10 n=42 v=121
27676 Off ch=10 n=42 v=121
27742 On ch=10 n=42 v=116
27756 Off ch=10 n=40 v=124
27760 Off ch=10 n=42 v=116
27838 On ch=10 n=40 v=124
27838 On ch=10 n=42 v=123
27878 Off ch=10 n=42 v=123
27934 On ch=10 n=42 v=116
27954 Off ch=10 n=35 v=123
27966 Off ch=10 n=42 v=116
28030 On ch=10 n=35 v=124
28030 On ch=10 n=42 v=120
28068 Off ch=10 n=42 v=120
28126 On ch=10 n=42 v=116
28132 Off ch=10 n=40 v=124
28152 Off ch=10 n=42 v=116
28222 On ch=10 n=40 v=124
28222 On ch=10 n=42 v=123
28260 Off ch=10 n=35 v=124
28268 Off ch=10 n=42 v=123
28318 On ch=10 n=35 v=120
28318 On ch=10 n=42 v=117
28350 Off ch=10 n=42 v=117
28350 Off ch=10 n=35 v=120
28414 On ch=10 n=35 v=123
28414 On ch=10 n=42 v=120
28446 Off ch=10 n=42 v=120
28510 On ch=10 n=42 v=113
28526 Off ch=10 n=40 v=124
28536 Off ch=10 n=42 v=113
28606 On ch=10 n=40 v=124
28606 On ch=10 n=42 v=122
28648 Off ch=10 n=42 v=122
28702 On ch=10 n=42 v=118
28728 Off ch=10 n=35 v=123
28730 Off ch=10 n=42 v=118
28798 On ch=10 n=35 v=123
28798 On ch=10 n=42 v=120
28836 Off ch=10 n=42 v=120
28894 On ch=10 n=42 v=113
28896 Off ch=10 n=40 v=124
28914 Off ch=10 n=42 v=113
28990 On ch=10 n=40 v=124
28990 On ch=10 n=42 v=122
29020 Off ch=10 n=35 v=123
29022 Off ch=10 n=42 v=122
29086 On ch=10 n=35 v=121
29086 On ch=10 n=46 v=120
29116 Off ch=10 n=35 v=121
29176 Off ch=10 n=46 v=120
29182 On ch=10 n=35 v=123
29182 On ch=10 n=42 v=121
29196 Off ch=10 n=40 v=124
29212 Off ch=10 n=42 v=121
29278 On ch=10 n=40 v=124
29318 Off ch=10 n=40 v=124
29374 On ch=10 n=42 v=116
29374 On ch=10 n=43 v=124
29412 Off ch=10 n=35 v=123
29414 Off ch=10 n=43 v=124
29422 Off ch=10 n=42 v=116
29422 On ch=10 n=45 v=122
29470 On ch=10 n=35 v=123
29492 Off ch=10 n=45 v=122
29524 Off ch=10 n=35 v=123
29566 On ch=10 n=35 v=123
29566 On ch=10 n=49 v=122
29662 On ch=10 n=42 v=111
29710 Off ch=10 n=42 v=111
29758 On ch=10 n=40 v=123
29758 On ch=10 n=42 v=122
29782 Off ch=10 n=35 v=123
29798 Off ch=10 n=42 v=122
29854 On ch=10 n=35 v=121
29854 On ch=10 n=42 v=113
29882 Off ch=10 n=42 v=113
29890 Off ch=10 n=35 v=121
29950 On ch=10 n=35 v=124
29950 On ch=10 n=42 v=120
29986 Off ch=10 n=42 v=120
30046 On ch=10 n=42 v=115
30062 Off ch=10 n=40 v=123
30078 Off ch=10 n=42 v=115
30142 On ch=10 n=40 v=124
30142 On ch=10 n=42 v=123
30182 Off ch=10 n=42 v=123
30190 Off ch=10 n=49 v=122
30238 On ch=10 n=42 v=116
30266 Off ch=10 n=42 v=116
30266 Off ch=10 n=35 v=124
30334 On ch=10 n=35 v=124
30334 On ch=10 n=42 v=121
30372 Off ch=10 n=42 v=121
30430 On ch=10 n=42 v=116
30440 Off ch=10 n=40 v=124
30460 Off ch=10 n=42 v=116
30526 On ch=10 n=40 v=124
30526 On ch=10 n=42 v=122
30552 Off ch=10 n=35 v=124
30566 Off ch=10 n=42 v=122
30622 On ch=10 n=35 v=118
30622 On ch=10 n=42 v=115
30656 Off ch=10 n=42 v=115
30658 Off ch=10 n=35 v=118
30718 On ch=10 n=35 v=124
30718 On ch=10 n=42 v=121
30754 Off ch=10 n=42 v=121
30814 On ch=10 n=42 v=113
30838 Off ch=10 n=40 v=124
30840 Off ch=10 n=42 v=113
30910 On ch=10 n=40 v=124
30910 On ch=10 n=42 v=122
30950 Off ch=10 n=42 v=122
30966 Off ch=10 n=35 v=124
31006 On ch=10 n=35 v=120
31006 On ch=10 n=43 v=121
31036 Off ch=10 n=43 v=121
31040 Off ch=10 n=35 v=120
31102 On ch=10 n=35 v=123
31102 On ch=10 n=49 v=123
31198 On ch=10 n=46 v=120
31210 Off ch=10 n=40 v=124
31294 Off ch=10 n=46 v=121
31294 On ch=10 n=40 v=124
31294 On ch=10 n=46 v=121
31320 Off ch=10 n=35 v=123
31390 Off ch=10 n=49 v=124
31390 Off ch=10 n=46 v=120
31390 On ch=10 n=35 v=123
31390 On ch=10 n=49 v=124
31426 Off ch=10 n=35 v=123
31486 Off ch=10 n=49 v=124
31486 On ch=10 n=35 v=124
31486 On ch=10 n=49 v=124
31570 Off ch=10 n=35 v=124
31582 On ch=10 n=46 v=119
31622 Off ch=10 n=40 v=124
31630 On ch=10 n=35 v=120
31678 Off ch=10 n=49 v=124
31678 Off ch=10 n=46 v=119
31678 Off ch=10 n=49 v=123
31678 On ch=10 n=40 v=124
31678 On ch=10 n=49 v=124
31758 Off ch=10 n=35 v=120
31774 On ch=10 n=35 v=123
31774 On ch=10 n=46 v=119
31822 Off ch=10 n=35 v=123
31870 Off ch=10 n=46 v=119
31870 On ch=10 n=35 v=124
31870 On ch=10 n=49 v=124
31966 On ch=10 n=46 v=121
31996 Off ch=10 n=35 v=124
32020 Off ch=10 n=40 v=124
32062 Off ch=10 n=46 v=120
32062 On ch=10 n=40 v=124
32062 On ch=10 n=46 v=120
32158 Off ch=10 n=46 v=120
32158 Off ch=10 n=46 v=121
32158 On ch=10 n=35 v=124
32158 On ch=10 n=46 v=120
32172 Off ch=10 n=40 v=124
32254 Off ch=10 n=46 v=123
32254 Off ch=10 n=49 v=124
32254 On ch=10 n=40 v=124
32254 On ch=10 n=46 v=123
32260 Off ch=10 n=35 v=124
32350 On ch=10 n=35 v=124
32364 Off ch=10 n=40 v=124
32440 Off ch=10 n=35 v=124
32446 On ch=10 n=40 v=124
32446 On ch=10 n=42 v=120
32476 Off ch=10 n=40 v=124
32494 Off ch=10 n=42 v=120
32494 On ch=10 n=43 v=123
32526 Off ch=10 n=43 v=123
32542 On ch=10 n=35 v=123
32542 On ch=10 n=45 v=124
32582 Off ch=10 n=35 v=123
32590 Off ch=10 n=45 v=124
32638 On ch=10 n=35 v=124
32638 On ch=10 n=49 v=123
32734 Off ch=10 n=49 v=123
32734 On ch=10 n=51 v=120
32780 Off ch=10 n=51 v=120
32830 On ch=10 n=40 v=124
32830 On ch=10 n=42 v=122
32830 On ch=10 n=51 v=122
32876 Off ch=10 n=51 v=122
32896 Off ch=10 n=42 v=122
32896 Off ch=10 n=35 v=124
32926 On ch=10 n=35 v=117
32926 On ch=10 n=51 v=120
32952 Off ch=10 n=51 v=120
32956 Off ch=10 n=35 v=117
33022 On ch=10 n=35 v=123
33022 On ch=10 n=51 v=122
33068 Off ch=10 n=51 v=122
33118 On ch=10 n=51 v=117
33138 Off ch=10 n=51 v=117
33144 Off ch=10 n=40 v=124
33214 On ch=10 n=40 v=124
33214 On ch=10 n=42 v=123
33214 On ch=10 n=51 v=123
33260 Off ch=10 n=51 v=123
33266 Off ch=10 n=42 v=123
33310 On ch=10 n=51 v=118
33330 Off ch=10 n=35 v=123
33344 Off ch=10 n=51 v=118
33406 On ch=10 n=35 v=124
33406 On ch=10 n=51 v=122
33434 Off ch=10 n=51 v=122
33502 On ch=10 n=51 v=119
33506 Off ch=10 n=40 v=124
33522 Off ch=10 n=51 v=119
33598 On ch=10 n=40 v=124
33598 On ch=10 n=42 v=123
33598 On ch=10 n=51 v=123
33626 Off ch=10 n=35 v=124
33644 Off ch=10 n=51 v=123
33654 Off ch=10 n=42 v=123
33694 On ch=10 n=35 v=121
33694 On ch=10 n=51 v=120
33712 Off ch=10 n=35 v=121
33728 Off ch=10 n=51 v=120
33790 On ch=10 n=35 v=124
33790 On ch=10 n=51 v=122
33822 Off ch=10 n=51 v=122
33886 On ch=10 n=51 v=120
33894 Off ch=10 n=40 v=124
33912 Off ch=10 n=51 v=120
33982 On ch=10 n=40 v=124
33982 On ch=10 n=42 v=124
33982 On ch=10 n=51 v=123
34012 Off ch=10 n=51 v=123
34016 Off ch=10 n=35 v=124
34044 Off ch=10 n=42 v=124
34078 On ch=10 n=35 v=116
34078 On ch=10 n=51 v=113
34096 Off ch=10 n=35 v=116
34112 Off ch=10 n=51 v=113
34174 On ch=10 n=35 v=124
34174 On ch=10 n=51 v=122
34208 Off ch=10 n=51 v=122
34270 On ch=10 n=51 v=118
34276 Off ch=10 n=40 v=124
34296 Off ch=10 n=51 v=118
34366 On ch=10 n=40 v=124
34366 On ch=10 n=42 v=123
34366 On ch=10 n=51 v=123
34396 Off ch=10 n=35 v=124
34402 Off ch=10 n=51 v=123
34424 Off ch=10 n=42 v=123
34462 On ch=10 n=35 v=118
34462 On ch=10 n=51 v=120
34484 Off ch=10 n=35 v=118
34490 Off ch=10 n=51 v=120
34558 On ch=10 n=35 v=123
34558 On ch=10 n=51 v=123
34596 Off ch=10 n=51 v=123
34628 Off ch=10 n=40 v=124
34654 On ch=10 n=51 v=119
34676 Off ch=10 n=51 v=119
34750 On ch=10 n=40 v=124
34750 On ch=10 n=42 v=123
34750 On ch=10 n=51 v=123
34752 Off ch=10 n=35 v=123
34790 Off ch=10 n=51 v=123
34808 Off ch=10 n=42 v=123
34846 On ch=10 n=35 v=117
34846 On ch=10 n=51 v=120
34866 Off ch=10 n=35 v=117
34872 Off ch=10 n=51 v=120
34942 On ch=10 n=35 v=123
34942 On ch=10 n=51 v=123
34974 Off ch=10 n=51 v=123
35038 On ch=10 n=51 v=119
35052 Off ch=10 n=40 v=124
35060 Off ch=10 n=51 v=119
35134 On ch=10 n=40 v=124
35134 On ch=10 n=42 v=121
35134 On ch=10 n=51 v=124
35162 Off ch=10 n=35 v=123
35168 Off ch=10 n=51 v=124
35178 Off ch=10 n=42 v=121
35230 On ch=10 n=35 v=122
35230 On ch=10 n=51 v=120
35248 Off ch=10 n=35 v=122
35260 Off ch=10 n=51 v=120
35326 On ch=10 n=35 v=124
35326 On ch=10 n=51 v=122
35344 Off ch=10 n=40 v=124
35354 Off ch=10 n=51 v=122
35422 On ch=10 n=40 v=124
35422 On ch=10 n=51 v=120
35440 Off ch=10 n=51 v=120
35450 Off ch=10 n=40 v=124
35518 On ch=10 n=40 v=124
35518 On ch=10 n=42 v=121
35540 Off ch=10 n=35 v=124
35544 Off ch=10 n=40 v=124
35556 Off ch=10 n=42 v=121
35566 On ch=10 n=43 v=123
35610 Off ch=10 n=43 v=123
35614 On ch=10 n=35 v=124
35614 On ch=10 n=45 v=122
35646 Off ch=10 n=45 v=122
35646 Off ch=10 n=35 v=124
35710 On ch=10 n=35 v=123
35710 On ch=10 n=49 v=122
35798 Off ch=10 n=49 v=122
35806 On ch=10 n=51 v=120
35858 Off ch=10 n=51 v=120
35902 On ch=10 n=40 v=124
35902 On ch=10 n=42 v=122
35902 On ch=10 n=51 v=122
35944 Off ch=10 n=51 v=122
35964 Off ch=10 n=35 v=123
35998 On ch=10 n=35 v=118
35998 On ch=10 n=51 v=120
36006 Off ch=10 n=42 v=122
36022 Off ch=10 n=35 v=118
36030 Off ch=10 n=51 v=120
36094 On ch=10 n=35 v=123
36094 On ch=10 n=51 v=123
36118 Off ch=10 n=51 v=123
36190 On ch=10 n=51 v=119
36192 Off ch=10 n=40 v=124
36204 Off ch=10 n=51 v=119
36286 On ch=10 n=40 v=124
36286 On ch=10 n=42 v=123
36286 On ch=10 n=51 v=123
36308 Off ch=10 n=35 v=123
36314 Off ch=10 n=51 v=123
36340 Off ch=10 n=42 v=123
36382 On ch=10 n=35 v=114
36382 On ch=10 n=51 v=118
36412 Off ch=10 n=51 v=118
36416 Off ch=10 n=35 v=114
36478 On ch=10 n=35 v=124
36478 On ch=10 n=51 v=123
36504 Off ch=10 n=51 v=123
36574 On ch=10 n=51 v=114
36580 Off ch=10 n=40 v=124
36598 Off ch=10 n=51 v=114
36670 On ch=10 n=40 v=124
36670 On ch=10 n=42 v=122
36670 On ch=10 n=51 v=123
36700 Off ch=10 n=51 v=123
36704 Off ch=10 n=35 v=124
36726 Off ch=10 n=42 v=122
36766 On ch=10 n=35 v=114
36766 On ch=10 n=51 v=115
36792 Off ch=10 n=51 v=115
36794 Off ch=10 n=35 v=114
36862 On ch=10 n=35 v=124
36862 On ch=10 n=51 v=122
36890 Off ch=10 n=51 v=122
36936 Off ch=10 n=40 v=124
36958 On ch=10 n=51 v=115
36978 Off ch=10 n=51 v=115
37054 On ch=10 n=40 v=123
37054 On ch=10 n=42 v=124
37054 On ch=10 n=51 v=122
37078 Off ch=10 n=35 v=124
37092 Off ch=10 n=51 v=122
37122 Off ch=10 n=42 v=124
37150 On ch=10 n=35 v=118
37150 On ch=10 n=51 v=121
37182 Off ch=10 n=35 v=118
37184 Off ch=10 n=51 v=121
37246 On ch=10 n=35 v=124
37246 On ch=10 n=49 v=123
37338 Off ch=10 n=49 v=123
37342 On ch=10 n=51 v=120
37356 Off ch=10 n=40 v=123
37370 Off ch=10 n=51 v=120
37438 On ch=10 n=40 v=124
37438 On ch=10 n=42 v=123
37438 On ch=10 n=51 v=124
37470 Off ch=10 n=35 v=124
37510 Off ch=10 n=42 v=123
37534 On ch=10 n=35 v=120
37540 Off ch=10 n=51 v=124
37560 Off ch=10 n=35 v=120
37630 On ch=10 n=35 v=123
37630 On ch=10 n=51 v=123
37650 Off ch=10 n=51 v=123
37708 Off ch=10 n=40 v=124
37822 On ch=10 n=40 v=124
37822 On ch=10 n=42 v=123
37822 On ch=10 n=51 v=123
37864 Off ch=10 n=51 v=123
37896 Off ch=10 n=42 v=123
37916 Off ch=10 n=35 v=123
37918 On ch=10 n=51 v=120
37944 Off ch=10 n=51 v=120
38014 On ch=10 n=35 v=124
38014 On ch=10 n=49 v=123
38060 Off ch=10 n=49 v=123
38110 On ch=10 n=51 v=117
38116 Off ch=10 n=40 v=124
38142 Off ch=10 n=51 v=117
38206 On ch=10 n=40 v=123
38206 On ch=10 n=42 v=124
38206 On ch=10 n=51 v=123
38230 Off ch=10 n=35 v=124
38246 Off ch=10 n=51 v=123
38274 Off ch=10 n=42 v=124
38302 On ch=10 n=35 v=119
38302 On ch=10 n=51 v=120
38328 Off ch=10 n=51 v=120
38344 Off ch=10 n=35 v=119
38398 On ch=10 n=35 v=122
38398 On ch=10 n=51 v=123
38430 Off ch=10 n=51 v=123
38460 Off ch=10 n=40 v=123
38494 On ch=10 n=40 v=123
38494 On ch=10 n=42 v=123
38494 On ch=10 n=51 v=122
38518 Off ch=10 n=40 v=123
38524 Off ch=10 n=51 v=122
38552 Off ch=10 n=42 v=123
38590 On ch=10 n=40 v=123
38602 Off ch=10 n=35 v=122
38624 Off ch=10 n=40 v=123
38638 On ch=10 n=43 v=122
38638 On ch=10 n=51 v=123
38666 Off ch=10 n=51 v=123
38684 Off ch=10 n=43 v=122
38686 On ch=10 n=35 v=123
38686 On ch=10 n=42 v=123
38686 On ch=10 n=45 v=122
38708 Off ch=10 n=42 v=123
38724 Off ch=10 n=35 v=123
38776 Off ch=10 n=45 v=122
38782 On ch=10 n=35 v=123
38782 On ch=10 n=49 v=123
38910 Off ch=10 n=49 v=123
38974 On ch=10 n=40 v=124
38974 On ch=10 n=42 v=123
38974 On ch=10 n=51 v=123
38996 Off ch=10 n=35 v=123
39030 Off ch=10 n=51 v=123
39062 Off ch=10 n=42 v=123
39070 On ch=10 n=35 v=116
39070 On ch=10 n=51 v=121
39096 Off ch=10 n=51 v=121
39108 Off ch=10 n=35 v=116
39166 On ch=10 n=35 v=123
39166 On ch=10 n=49 v=123
39214 Off ch=10 n=49 v=123
39262 On ch=10 n=51 v=120
39270 Off ch=10 n=40 v=124
39292 Off ch=10 n=51 v=120
39358 On ch=10 n=40 v=124
39358 On ch=10 n=42 v=123
39358 On ch=10 n=51 v=123
39386 Off ch=10 n=35 v=123
39396 Off ch=10 n=51 v=123
39438 Off ch=10 n=42 v=123
39454 On ch=10 n=35 v=121
39454 On ch=10 n=51 v=122
39478 Off ch=10 n=51 v=122
39498 Off ch=10 n=35 v=121
39550 On ch=10 n=35 v=124
39550 On ch=10 n=49 v=123
39606 Off ch=10 n=49 v=123
39646 On ch=10 n=51 v=118
39654 Off ch=10 n=40 v=124
39674 Off ch=10 n=51 v=118
39742 On ch=10 n=40 v=124
39742 On ch=10 n=42 v=123
39742 On ch=10 n=51 v=123
39778 Off ch=10 n=35 v=124
39782 Off ch=10 n=51 v=123
39812 Off ch=10 n=42 v=123
39838 On ch=10 n=35 v=121
39838 On ch=10 n=51 v=120
39868 Off ch=10 n=51 v=120
39872 Off ch=10 n=35 v=121
39934 On ch=10 n=35 v=124
39934 On ch=10 n=51 v=123
39976 Off ch=10 n=51 v=123
40024 Off ch=10 n=40 v=124
40030 On ch=10 n=51 v=120
40058 Off ch=10 n=51 v=120
40126 On ch=10 n=40 v=124
40126 On ch=10 n=42 v=123
40126 On ch=10 n=51 v=124
40158 Off ch=10 n=35 v=124
40166 Off ch=10 n=51 v=124
40222 On ch=10 n=35 v=123
40222 On ch=10 n=51 v=122
40226 Off ch=10 n=42 v=123
40256 Off ch=10 n=51 v=122
40260 Off ch=10 n=35 v=123
40318 On ch=10 n=35 v=123
40318 On ch=10 n=49 v=123
40368 Off ch=10 n=49 v=123
40414 On ch=10 n=51 v=121
40426 Off ch=10 n=40 v=124
40442 Off ch=10 n=51 v=121
40510 On ch=10 n=40 v=123
40510 On ch=10 n=42 v=123
40510 On ch=10 n=51 v=123
40536 Off ch=10 n=35 v=123
40568 Off ch=10 n=51 v=123
40590 Off ch=10 n=42 v=123
40606 Off ch=10 n=40 v=122
40606 On ch=10 n=40 v=122
40654 On ch=10 n=40 v=124
40680 Off ch=10 n=40 v=124
40702 Off ch=10 n=40 v=123
40702 On ch=10 n=35 v=124
40702 On ch=10 n=49 v=120
40778 Off ch=10 n=49 v=120
40894 On ch=10 n=40 v=124
40894 On ch=10 n=57 v=121
40938 Off ch=10 n=57 v=121
41010 Off ch=10 n=35 v=124
41086 On ch=10 n=35 v=124
41086 On ch=10 n=49 v=121
41138 Off ch=10 n=49 v=121
41222 Off ch=10 n=40 v=124
41278 On ch=10 n=40 v=124
41278 On ch=10 n=51 v=122
41296 Off ch=10 n=35 v=124
41312 Off ch=10 n=51 v=122
41326 On ch=10 n=35 v=123
41326 On ch=10 n=52 v=122
41336 Off ch=10 n=40 v=124
41358 Off ch=10 n=52 v=122
41368 Off ch=10 n=35 v=123
41398 On ch=10 n=35 v=124
41398 On ch=10 n=49 v=120
41438 Off ch=10 n=35 v=124
41440 Off ch=10 n=49 v=120
41470 On ch=10 n=35 v=124
41470 On ch=10 n=57 v=121
41544 Off ch=10 n=57 v=121
41662 On ch=10 n=40 v=124
41662 On ch=10 n=43 v=124
41662 On ch=10 n=49 v=123
41702 Off ch=10 n=49 v=123
41766 Off ch=10 n=35 v=124
41780 Off ch=10 n=40 v=124
41782 Off ch=10 n=43 v=124
41856 On ch=10 n=40 v=124
41864 Off ch=10 n=40 v=124
41866 On ch=10 n=40 v=123
41952 Off ch=10 n=40 v=123
41956 On ch=10 n=81 v=103
41984 Off ch=10 n=81 v=103
42046 On ch=10 n=81 v=103
42070 Off ch=10 n=81 v=103
42138 On ch=10 n=81 v=104
42162 Off ch=10 n=81 v=104
42232 On ch=10 n=81 v=103
42258 Off ch=10 n=81 v=103
42330 On ch=10 n=81 v=104
42358 Off ch=10 n=81 v=104
42426 On ch=10 n=81 v=104
42454 Off ch=10 n=81 v=104
42522 On ch=10 n=81 v=104
42550 Off ch=10 n=81 v=104
42622 On ch=10 n=81 v=104
42646 Off ch=10 n=81 v=104
42714 On ch=10 n=81 v=104
42738 Off ch=10 n=81 v=104
42810 On ch=10 n=81 v=104
42838 Off ch=10 n=81 v=104
42908 On ch=10 n=81 v=106
42932 Off ch=10 n=81 v=106
43002 On ch=10 n=81 v=102
43030 Off ch=10 n=81 v=102
43096 On ch=10 n=81 v=104
43120 Off ch=10 n=81 v=104
43196 On ch=10 n=81 v=102
43220 Off ch=10 n=81 v=102
43292 On ch=10 n=81 v=103
43316 Off ch=10 n=81 v=103
43390 On ch=10 n=81 v=103
43412 Off ch=10 n=81 v=103
43494 On ch=10 n=81 v=104
43514 Off ch=10 n=81 v=104
43592 On ch=10 n=81 v=103
43614 Off ch=10 n=81 v=103
43688 On ch=10 n=81 v=105
43710 Off ch=10 n=81 v=105
43784 On ch=10 n=81 v=103
43810 Off ch=10 n=81 v=103
43878 On ch=10 n=81 v=102
43902 Off ch=10 n=81 v=102
43974 On ch=10 n=81 v=103
43998 Off ch=10 n=81 v=103
44072 On ch=10 n=81 v=104
44100 Off ch=10 n=81 v=104
44158 On ch=10 n=35 v=123
44158 On ch=10 n=45 v=123
44158 On ch=10 n=47 v=118
44166 Off ch=10 n=47 v=118
44166 On ch=10 n=81 v=102
44174 Off ch=10 n=45 v=123
44174 Off ch=10 n=35 v=123
44186 Off ch=10 n=81 v=102
44206 On ch=10 n=35 v=123
44206 On ch=10 n=45 v=123
44214 On ch=10 n=81 v=99
44228 Off ch=10 n=35 v=123
44230 Off ch=10 n=45 v=123
44232 Off ch=10 n=81 v=99
44254 On ch=10 n=35 v=123
44254 On ch=10 n=45 v=124
44254 On ch=10 n=81 v=104
44276 Off ch=10 n=81 v=104
44276 Off ch=10 n=45 v=124
44276 Off ch=10 n=35 v=123
44298 On ch=10 n=81 v=110
44302 On ch=10 n=35 v=123
44302 On ch=10 n=45 v=122
44320 Off ch=10 n=81 v=110
44326 Off ch=10 n=35 v=123
44334 Off ch=10 n=45 v=122
44350 On ch=10 n=35 v=124
44350 On ch=10 n=43 v=124
44352 On ch=10 n=81 v=114
44374 Off ch=10 n=81 v=114
44392 Off ch=10 n=35 v=124
44396 Off ch=10 n=43 v=124
44446 On ch=10 n=35 v=124
44446 On ch=10 n=43 v=123
44446 On ch=10 n=45 v=121
44448 On ch=10 n=81 v=109
44460 Off ch=10 n=45 v=121
44472 Off ch=10 n=81 v=109
44490 Off ch=10 n=35 v=124
44492 Off ch=10 n=43 v=123
44542 On ch=10 n=35 v=124
44542 On ch=10 n=43 v=123
44542 On ch=10 n=81 v=108
44558 Off ch=10 n=35 v=124
44560 Off ch=10 n=81 v=108
44564 Off ch=10 n=43 v=123
44586 On ch=10 n=81 v=106
44590 On ch=10 n=35 v=123
44590 On ch=10 n=43 v=123
44606 Off ch=10 n=81 v=106
44610 Off ch=10 n=35 v=123
44612 Off ch=10 n=43 v=123
44630 On ch=10 n=81 v=108
44638 On ch=10 n=35 v=123
44638 On ch=10 n=43 v=123
44652 Off ch=10 n=81 v=108
44660 Off ch=10 n=43 v=123
44660 Off ch=10 n=35 v=123
44678 On ch=10 n=81 v=111
44686 On ch=10 n=35 v=122
44686 On ch=10 n=43 v=123
44700 Off ch=10 n=81 v=111
44712 Off ch=10 n=35 v=122
44714 Off ch=10 n=43 v=123
44728 On ch=10 n=81 v=112
44734 On ch=10 n=35 v=123
44734 On ch=10 n=45 v=124
44754 Off ch=10 n=81 v=112
44776 Off ch=10 n=35 v=123
44782 Off ch=10 n=45 v=124
44824 On ch=10 n=81 v=112
44830 On ch=10 n=35 v=124
44830 On ch=10 n=43 v=124
44850 Off ch=10 n=81 v=112
44872 Off ch=10 n=43 v=124
44872 Off ch=10 n=35 v=124
44926 On ch=10 n=35 v=124
44926 On ch=10 n=40 v=124
44928 On ch=10 n=81 v=117
44946 Off ch=10 n=81 v=117
45006 Off ch=10 n=40 v=124
45006 Off ch=10 n=35 v=124
47518 On ch=10 n=35 v=123
47518 On ch=10 n=43 v=123
47530 On ch=10 n=81 v=114
47554 Off ch=10 n=81 v=114
47568 Off ch=10 n=35 v=123
47572 Off ch=10 n=43 v=123
47614 On ch=10 n=35 v=122
47614 On ch=10 n=43 v=122
47622 On ch=10 n=81 v=108
47634 Off ch=10 n=43 v=122
47634 Off ch=10 n=35 v=122
47644 Off ch=10 n=81 v=108
47662 On ch=10 n=35 v=121
47662 On ch=10 n=43 v=121
47670 On ch=10 n=81 v=108
47678 Off ch=10 n=43 v=121
47680 Off ch=10 n=35 v=121
47690 Off ch=10 n=81 v=108
47710 On ch=10 n=35 v=122
47710 On ch=10 n=43 v=121
47720 On ch=10 n=81 v=111
47744 Off ch=10 n=81 v=111
47760 Off ch=10 n=35 v=122
47766 Off ch=10 n=43 v=121
47806 On ch=10 n=35 v=123
47806 On ch=10 n=43 v=123
47816 On ch=10 n=81 v=113
47838 Off ch=10 n=81 v=113
47868 Off ch=10 n=43 v=123
47868 Off ch=10 n=35 v=123
47902 On ch=10 n=35 v=123
47902 On ch=10 n=45 v=122
47910 On ch=10 n=81 v=111
47924 Off ch=10 n=45 v=122
47924 Off ch=10 n=35 v=123
47926 Off ch=10 n=81 v=111
47950 On ch=10 n=35 v=121
47950 On ch=10 n=45 v=120
47956 On ch=10 n=81 v=109
47972 Off ch=10 n=45 v=120
47976 Off ch=10 n=35 v=121
47978 Off ch=10 n=81 v=109
47998 On ch=10 n=35 v=124
47998 On ch=10 n=43 v=123
48004 On ch=10 n=81 v=110
48028 Off ch=10 n=81 v=110
48066 Off ch=10 n=43 v=123
48068 Off ch=10 n=35 v=124
48094 On ch=10 n=35 v=122
48094 On ch=10 n=41 v=123
48094 On ch=10 n=81 v=113
48114 Off ch=10 n=81 v=113
48118 Off ch=10 n=41 v=123
48118 Off ch=10 n=35 v=122
48142 On ch=10 n=35 v=122
48142 On ch=10 n=41 v=121
48142 On ch=10 n=81 v=107
48162 Off ch=10 n=81 v=107
48166 Off ch=10 n=41 v=121
48170 Off ch=10 n=35 v=122
48190 On ch=10 n=35 v=124
48190 On ch=10 n=43 v=123
48192 On ch=10 n=81 v=109
48216 Off ch=10 n=81 v=109
48250 Off ch=10 n=43 v=123
48258 Off ch=10 n=35 v=124
48286 On ch=10 n=35 v=124
48286 On ch=10 n=49 v=123
48288 On ch=10 n=81 v=114
48312 Off ch=10 n=81 v=114
48382 Off ch=10 n=35 v=121
48382 On ch=10 n=35 v=121
48382 On ch=10 n=43 v=121
48388 On ch=10 n=81 v=108
48402 Off ch=10 n=81 v=108
48430 Off ch=10 n=43 v=124
48430 Off ch=10 n=35 v=124
48430 On ch=10 n=35 v=124
48430 On ch=10 n=43 v=124
48430 On ch=10 n=81 v=106
48440 Off ch=10 n=49 v=123
48450 Off ch=10 n=81 v=106
48478 Off ch=10 n=43 v=121
48478 Off ch=10 n=35 v=124
48478 On ch=10 n=35 v=124
48478 On ch=10 n=57 v=123
48480 On ch=10 n=81 v=113
48504 Off ch=10 n=81 v=113
48574 Off ch=10 n=35 v=120
48574 On ch=10 n=35 v=120
48574 On ch=10 n=43 v=120
48582 On ch=10 n=81 v=114
48600 Off ch=10 n=81 v=114
48602 Off ch=10 n=57 v=123
48622 Off ch=10 n=43 v=123
48622 Off ch=10 n=35 v=123
48622 On ch=10 n=35 v=123
48622 On ch=10 n=43 v=123
48624 On ch=10 n=81 v=111
48648 Off ch=10 n=81 v=111
48670 Off ch=10 n=43 v=120
48670 Off ch=10 n=35 v=124
48670 On ch=10 n=35 v=124
48670 On ch=10 n=49 v=124
48674 On ch=10 n=81 v=116
48694 Off ch=10 n=81 v=116
48730 Off ch=10 n=35 v=124
48766 On ch=10 n=35 v=123
48766 On ch=10 n=43 v=123
48776 On ch=10 n=81 v=115
48778 Off ch=10 n=49 v=124
48784 Off ch=10 n=35 v=123
48786 Off ch=10 n=43 v=123
48798 Off ch=10 n=81 v=115
48814 On ch=10 n=35 v=124
48814 On ch=10 n=43 v=123
48822 On ch=10 n=81 v=112
48832 Off ch=10 n=43 v=123
48838 Off ch=10 n=35 v=124
48842 Off ch=10 n=81 v=112
48862 On ch=10 n=35 v=124
48862 On ch=10 n=46 v=123
48866 On ch=10 n=81 v=117
48890 Off ch=10 n=81 v=117
48958 Off ch=10 n=46 v=123
49016 Off ch=10 n=35 v=124
50110 On ch=10 n=35 v=124
50110 On ch=10 n=49 v=123
50114 On ch=10 n=81 v=111
50134 Off ch=10 n=81 v=111
50138 Off ch=10 n=35 v=124
50150 Off ch=10 n=49 v=123
50206 On ch=10 n=35 v=124
50206 On ch=10 n=52 v=123
50212 On ch=10 n=81 v=117
50234 Off ch=10 n=81 v=117
50250 Off ch=10 n=35 v=124
50252 Off ch=10 n=52 v=123
50302 On ch=10 n=35 v=124
50302 On ch=10 n=49 v=122
50312 On ch=10 n=81 v=117
50330 Off ch=10 n=35 v=124
50332 Off ch=10 n=81 v=117
50348 Off ch=10 n=49 v=122
50398 On ch=10 n=35 v=124
50398 On ch=10 n=57 v=123
50408 On ch=10 n=81 v=119
50432 Off ch=10 n=81 v=119
50494 Off ch=10 n=35 v=124
50516 Off ch=10 n=57 v=123
50546 On ch=10 n=81 v=104
50566 Off ch=10 n=81 v=104
50590 On ch=10 n=81 v=108
50610 Off ch=10 n=81 v=108
50640 On ch=10 n=81 v=113
50658 Off ch=10 n=81 v=113
50686 On ch=10 n=81 v=116
50706 Off ch=10 n=81 v=116
50732 On ch=10 n=81 v=118
50754 Off ch=10 n=81 v=118
50784 On ch=10 n=81 v=120
50808 Off ch=10 n=81 v=120
50830 On ch=10 n=35 v=122
50830 On ch=10 n=49 v=123
50848 Off ch=10 n=49 v=123
50850 Off ch=10 n=35 v=122
50878 On ch=10 n=35 v=124
50878 On ch=10 n=57 v=122
50900 Off ch=10 n=57 v=122
50900 Off ch=10 n=35 v=124
50926 On ch=10 n=35 v=124
50926 On ch=10 n=49 v=123
51024 Off ch=10 n=49 v=123
51024 Off ch=10 n=35 v=124
51070 On ch=10 n=35 v=124
51070 On ch=10 n=43 v=124
51076 On ch=10 n=81 v=122
51102 Off ch=10 n=81 v=122
51112 Off ch=10 n=35 v=124
51116 Off ch=10 n=43 v=124
51166 On ch=10 n=35 v=124
51166 On ch=10 n=43 v=124
51174 On ch=10 n=81 v=118
51198 Off ch=10 n=81 v=118
51202 Off ch=10 n=35 v=124
51208 Off ch=10 n=43 v=124
51262 On ch=10 n=35 v=124
51262 On ch=10 n=43 v=124
51268 On ch=10 n=81 v=116
51294 Off ch=10 n=81 v=116
51300 Off ch=10 n=43 v=124
51302 Off ch=10 n=35 v=124
51358 On ch=10 n=35 v=124
51358 On ch=10 n=49 v=123
51366 On ch=10 n=81 v=118
51390 Off ch=10 n=81 v=118
51496 On ch=10 n=81 v=100
51518 Off ch=10 n=81 v=100
51548 On ch=10 n=81 v=107
51560 Off ch=10 n=49 v=123
51568 Off ch=10 n=81 v=107
51568 Off ch=10 n=35 v=124
51594 On ch=10 n=81 v=114
51612 Off ch=10 n=81 v=114
51642 On ch=10 n=81 v=118
51660 Off ch=10 n=81 v=118
51690 On ch=10 n=81 v=118
51710 Off ch=10 n=81 v=118
51740 On ch=10 n=81 v=119
51764 Off ch=10 n=81 v=119
51790 On ch=10 n=35 v=124
51790 On ch=10 n=43 v=123
51812 Off ch=10 n=43 v=123
51812 Off ch=10 n=35 v=124
51838 On ch=10 n=35 v=124
51838 On ch=10 n=43 v=124
51862 Off ch=10 n=43 v=124
51862 Off ch=10 n=35 v=124
51886 On ch=10 n=35 v=124
51886 On ch=10 n=43 v=124
51946 Off ch=10 n=43 v=124
51946 Off ch=10 n=35 v=124
51950 On ch=10 n=81 v=102
51974 Off ch=10 n=81 v=102
51992 On ch=10 n=81 v=106
52012 Off ch=10 n=81 v=106
52038 On ch=10 n=81 v=117
52060 Off ch=10 n=81 v=117
52086 On ch=10 n=81 v=118
52106 Off ch=10 n=81 v=118
52134 On ch=10 n=81 v=121
52154 Off ch=10 n=81 v=121
52174 On ch=10 n=35 v=123
52174 On ch=10 n=43 v=124
52194 Off ch=10 n=35 v=123
52196 Off ch=10 n=43 v=124
52222 On ch=10 n=35 v=124
52222 On ch=10 n=43 v=124
52246 Off ch=10 n=43 v=124
52246 Off ch=10 n=35 v=124
52270 On ch=10 n=35 v=124
52270 On ch=10 n=43 v=124
52310 Off ch=10 n=35 v=124
52312 Off ch=10 n=43 v=124
52330 On ch=10 n=81 v=104
52352 Off ch=10 n=81 v=104
52374 On ch=10 n=81 v=110
52396 Off ch=10 n=81 v=110
52422 On ch=10 n=81 v=118
52440 Off ch=10 n=81 v=118
52466 On ch=10 n=81 v=118
52484 Off ch=10 n=81 v=118
52514 On ch=10 n=81 v=121
52538 Off ch=10 n=81 v=121
53230 On ch=10 n=35 v=123
53230 On ch=10 n=43 v=124
53230 On ch=10 n=81 v=118
53254 Off ch=10 n=81 v=118
53286 Off ch=10 n=43 v=124
53286 Off ch=10 n=35 v=123
53326 On ch=10 n=35 v=124
53326 On ch=10 n=43 v=124
53326 On ch=10 n=45 v=124
53328 On ch=10 n=81 v=121
53354 Off ch=10 n=81 v=121
53376 Off ch=10 n=43 v=124
53384 Off ch=10 n=45 v=124
53386 Off ch=10 n=35 v=124
53422 On ch=10 n=35 v=124
53422 On ch=10 n=45 v=124
53426 On ch=10 n=81 v=121
53452 Off ch=10 n=81 v=121
53476 Off ch=10 n=35 v=124
53478 Off ch=10 n=45 v=124
53518 On ch=10 n=35 v=124
53518 On ch=10 n=43 v=124
53518 On ch=10 n=81 v=119
53546 Off ch=10 n=81 v=119
53566 Off ch=10 n=35 v=124
53568 Off ch=10 n=43 v=124
53614 On ch=10 n=35 v=124
53614 On ch=10 n=45 v=124
53614 On ch=10 n=81 v=120
53644 Off ch=10 n=81 v=120
53662 Off ch=10 n=35 v=124
53664 Off ch=10 n=45 v=124
53710 On ch=10 n=35 v=124
53710 On ch=10 n=43 v=124
53714 On ch=10 n=81 v=120
53744 Off ch=10 n=81 v=120
53750 Off ch=10 n=43 v=124
53766 Off ch=10 n=35 v=124
53804 On ch=10 n=81 v=120
53806 On ch=10 n=35 v=124
53806 On ch=10 n=49 v=123
53840 Off ch=10 n=81 v=120
53866 Off ch=10 n=35 v=124
53868 Off ch=10 n=49 v=123
54296 On ch=10 n=81 v=103
54320 Off ch=10 n=81 v=103
54340 On ch=10 n=81 v=103
54362 Off ch=10 n=81 v=103
54390 On ch=10 n=81 v=114
54412 Off ch=10 n=81 v=114
54438 On ch=10 n=81 v=117
54460 Off ch=10 n=81 v=117
54486 On ch=10 n=81 v=117
54506 Off ch=10 n=81 v=117
54534 On ch=10 n=81 v=118
54558 Off ch=10 n=81 v=118
54584 On ch=10 n=81 v=120
54608 Off ch=10 n=81 v=120
54766 On ch=10 n=35 v=123
54766 On ch=10 n=49 v=123
54774 On ch=10 n=81 v=120
54798 Off ch=10 n=81 v=120
54864 On ch=10 n=81 v=106
54892 Off ch=10 n=81 v=106
54902 Off ch=10 n=49 v=123
54902 Off ch=10 n=35 v=123
54910 On ch=10 n=35 v=119
54910 On ch=10 n=57 v=119
54958 Off ch=10 n=35 v=122
54958 Off ch=10 n=57 v=119
54958 On ch=10 n=35 v=122
54958 On ch=10 n=52 v=124
54960 On ch=10 n=81 v=117
54984 Off ch=10 n=81 v=117
55006 Off ch=10 n=35 v=119
55066 On ch=10 n=81 v=116
55086 Off ch=10 n=81 v=116
55102 Off ch=10 n=52 v=124
55150 On ch=10 n=35 v=124
55150 On ch=10 n=55 v=127
55158 On ch=10 n=81 v=118
55182 Off ch=10 n=81 v=118
55224 Off ch=10 n=55 v=127
55224 Off ch=10 n=35 v=124
55246 On ch=10 n=35 v=123
55246 On ch=10 n=49 v=123
55252 On ch=10 n=81 v=116
55276 Off ch=10 n=81 v=116
55302 Off ch=10 n=49 v=123
55310 Off ch=10 n=35 v=123
55342 On ch=10 n=35 v=124
55342 On ch=10 n=57 v=123
55348 On ch=10 n=81 v=119
55372 Off ch=10 n=81 v=119
55450 On ch=10 n=81 v=118
55478 Off ch=10 n=81 v=118
55498 Off ch=10 n=57 v=123
55506 Off ch=10 n=35 v=124
55534 On ch=10 n=35 v=124
55534 On ch=10 n=49 v=123
55546 On ch=10 n=81 v=117
55570 Off ch=10 n=81 v=117
55604 Off ch=10 n=35 v=124
55630 On ch=10 n=35 v=123
55636 On ch=10 n=81 v=115
55664 Off ch=10 n=81 v=115
55688 Off ch=10 n=35 v=123
55726 On ch=10 n=35 v=123
55728 On ch=10 n=81 v=117
55756 Off ch=10 n=81 v=117
55798 Off ch=10 n=35 v=123
55822 On ch=10 n=35 v=123
55822 On ch=10 n=81 v=116
55848 Off ch=10 n=81 v=116
55878 Off ch=10 n=49 v=123
55884 Off ch=10 n=35 v=123
55914 On ch=10 n=81 v=107
55918 On ch=10 n=35 v=124
55918 On ch=10 n=57 v=123
55942 Off ch=10 n=81 v=107
55980 Off ch=10 n=35 v=124
56014 On ch=10 n=35 v=123
56014 On ch=10 n=81 v=110
56038 Off ch=10 n=81 v=110
56072 Off ch=10 n=35 v=123
56110 On ch=10 n=35 v=124
56110 On ch=10 n=81 v=111
56134 Off ch=10 n=81 v=111
56178 Off ch=10 n=35 v=124
56206 On ch=10 n=35 v=123
56206 On ch=10 n=81 v=112
56230 Off ch=10 n=81 v=112
56264 Off ch=10 n=57 v=123
56272 Off ch=10 n=35 v=123
56298 On ch=10 n=81 v=113
56302 On ch=10 n=35 v=123
56302 On ch=10 n=49 v=123
56322 Off ch=10 n=81 v=113
56370 Off ch=10 n=35 v=123
56398 On ch=10 n=35 v=122
56398 On ch=10 n=81 v=112
56422 Off ch=10 n=81 v=112
56466 Off ch=10 n=35 v=122
56494 On ch=10 n=35 v=123
56494 On ch=10 n=81 v=111
56518 Off ch=10 n=81 v=111
56562 Off ch=10 n=35 v=123
56590 On ch=10 n=35 v=123
56590 On ch=10 n=81 v=111
56614 Off ch=10 n=81 v=111
56662 Off ch=10 n=35 v=123
56662 Off ch=10 n=49 v=123
56676 On ch=10 n=81 v=115
56686 On ch=10 n=35 v=124
56686 On ch=10 n=49 v=124
56700 Off ch=10 n=81 v=115
56714 On ch=10 n=81 v=102
56716 Off ch=10 n=81 v=102
56740 On ch=10 n=81 v=112
56750 Off ch=10 n=35 v=124
56756 Off ch=10 n=81 v=112
56774 On ch=10 n=81 v=105
56776 Off ch=10 n=81 v=105
56804 On ch=10 n=81 v=115
56812 Off ch=10 n=81 v=115
57022 On ch=10 n=40 v=119
57046 Off ch=10 n=40 v=119
57086 On ch=10 n=40 v=122
57092 Off ch=10 n=49 v=124
57110 Off ch=10 n=40 v=122
57150 On ch=10 n=45 v=122
57174 Off ch=10 n=45 v=122
57214 On ch=10 n=35 v=121
57214 On ch=10 n=49 v=122
57294 Off ch=10 n=35 v=121
57342 On ch=10 n=35 v=120
57406 On ch=10 n=40 v=121
57406 On ch=10 n=42 v=121
57406 On ch=10 n=51 v=122
57504 Off ch=10 n=51 v=122
57540 Off ch=10 n=35 v=120
57598 On ch=10 n=35 v=121
57598 On ch=10 n=51 v=122
57636 Off ch=10 n=42 v=121
57688 Off ch=10 n=35 v=121
57692 Off ch=10 n=51 v=122
57726 On ch=10 n=35 v=120
57732 Off ch=10 n=40 v=121
57790 On ch=10 n=40 v=121
57790 On ch=10 n=42 v=121
57790 On ch=10 n=51 v=121
57888 Off ch=10 n=51 v=121
57934 Off ch=10 n=35 v=120
57982 On ch=10 n=35 v=120
57982 On ch=10 n=51 v=122
58050 Off ch=10 n=42 v=121
58070 Off ch=10 n=35 v=120
58094 Off ch=10 n=51 v=122
58110 On ch=10 n=35 v=121
58128 Off ch=10 n=40 v=121
58174 On ch=10 n=40 v=123
58174 On ch=10 n=42 v=121
58174 On ch=10 n=51 v=122
58284 Off ch=10 n=51 v=122
58320 Off ch=10 n=35 v=121
58366 On ch=10 n=35 v=121
58366 On ch=10 n=51 v=121
58444 Off ch=10 n=35 v=121
58454 Off ch=10 n=42 v=121
58470 Off ch=10 n=51 v=121
58494 On ch=10 n=35 v=121
58504 Off ch=10 n=40 v=123
58558 On ch=10 n=40 v=123
58558 On ch=10 n=42 v=121
58558 On ch=10 n=51 v=122
58586 Off ch=10 n=35 v=121
58678 Off ch=10 n=51 v=122
58686 On ch=10 n=35 v=120
58720 Off ch=10 n=35 v=120
58750 On ch=10 n=35 v=122
58750 On ch=10 n=51 v=122
58826 Off ch=10 n=42 v=121
58852 Off ch=10 n=35 v=122
58858 Off ch=10 n=51 v=122
58878 On ch=10 n=35 v=122
58888 Off ch=10 n=40 v=123
58942 On ch=10 n=40 v=124
58942 On ch=10 n=42 v=122
58942 On ch=10 n=51 v=122
59050 Off ch=10 n=51 v=122
59088 Off ch=10 n=35 v=122
59134 On ch=10 n=35 v=121
59134 On ch=10 n=51 v=122
59160 Off ch=10 n=49 v=122
59206 Off ch=10 n=35 v=121
59248 Off ch=10 n=42 v=122
59254 Off ch=10 n=51 v=122
59262 On ch=10 n=35 v=123
59278 Off ch=10 n=40 v=124
59326 On ch=10 n=40 v=123
59326 On ch=10 n=42 v=121
59326 On ch=10 n=51 v=122
59440 Off ch=10 n=51 v=122
59468 Off ch=10 n=35 v=123
59518 On ch=10 n=35 v=121
59518 On ch=10 n=51 v=122
59592 Off ch=10 n=35 v=121
59604 Off ch=10 n=42 v=121
59638 Off ch=10 n=51 v=122
59646 On ch=10 n=35 v=123
59664 Off ch=10 n=40 v=123
59710 On ch=10 n=40 v=123
59710 On ch=10 n=42 v=121
59710 On ch=10 n=51 v=122
59826 Off ch=10 n=51 v=122
59828 Off ch=10 n=35 v=123
59902 On ch=10 n=35 v=121
59902 On ch=10 n=51 v=122
59914 Off ch=10 n=40 v=123
59944 Off ch=10 n=35 v=121
59966 On ch=10 n=40 v=122
60010 Off ch=10 n=40 v=122
60012 Off ch=10 n=42 v=121
60014 Off ch=10 n=51 v=122
60030 On ch=10 n=40 v=121
60058 Off ch=10 n=40 v=121
60094 On ch=10 n=42 v=121
60094 On ch=10 n=43 v=122
60094 On ch=10 n=51 v=123
60132 Off ch=10 n=43 v=122
60158 On ch=10 n=40 v=121
60182 Off ch=10 n=40 v=121
60222 On ch=10 n=45 v=123
60268 Off ch=10 n=51 v=123
60272 Off ch=10 n=42 v=121
60286 On ch=10 n=35 v=124
60286 On ch=10 n=49 v=123
60290 Off ch=10 n=45 v=123
60374 Off ch=10 n=35 v=124
60414 On ch=10 n=35 v=119
60478 On ch=10 n=40 v=123
60478 On ch=10 n=42 v=122
60478 On ch=10 n=46 v=122
60488 Off ch=10 n=49 v=123
60584 Off ch=10 n=46 v=122
60586 Off ch=10 n=35 v=119
60670 On ch=10 n=35 v=122
60670 On ch=10 n=46 v=122
60694 Off ch=10 n=42 v=122
60740 Off ch=10 n=35 v=122
60798 On ch=10 n=35 v=120
60810 Off ch=10 n=40 v=123
60834 Off ch=10 n=46 v=122
60862 On ch=10 n=40 v=123
60862 On ch=10 n=42 v=122
60862 On ch=10 n=46 v=122
60966 Off ch=10 n=46 v=122
60986 Off ch=10 n=35 v=120
61050 Off ch=10 n=42 v=122
61054 On ch=10 n=35 v=118
61054 On ch=10 n=46 v=122
61122 Off ch=10 n=35 v=118
61156 Off ch=10 n=46 v=122
61182 On ch=10 n=35 v=121
61192 Off ch=10 n=40 v=123
61246 On ch=10 n=40 v=123
61246 On ch=10 n=46 v=123
61368 Off ch=10 n=35 v=121
61380 Off ch=10 n=46 v=123
61438 On ch=10 n=35 v=123
61438 On ch=10 n=46 v=123
61488 Off ch=10 n=35 v=123
61562 Off ch=10 n=40 v=123
61566 On ch=10 n=35 v=122
61574 Off ch=10 n=46 v=123
61630 On ch=10 n=40 v=123
61630 On ch=10 n=46 v=123
61760 Off ch=10 n=35 v=122
61770 Off ch=10 n=46 v=123
61822 On ch=10 n=35 v=123
61822 On ch=10 n=46 v=123
61888 Off ch=10 n=35 v=123
61938 Off ch=10 n=40 v=123
61950 On ch=10 n=35 v=121
61964 Off ch=10 n=46 v=123
62014 On ch=10 n=40 v=123
62014 On ch=10 n=46 v=122
62134 Off ch=10 n=35 v=121
62166 Off ch=10 n=46 v=122
62206 On ch=10 n=35 v=123
62206 On ch=10 n=46 v=122
62268 Off ch=10 n=35 v=123
62334 On ch=10 n=35 v=123
62358 Off ch=10 n=40 v=123
62360 Off ch=10 n=46 v=122
62398 On ch=10 n=40 v=123
62398 On ch=10 n=46 v=122
62466 Off ch=10 n=35 v=123
62526 On ch=10 n=35 v=123
62558 Off ch=10 n=35 v=123
62562 Off ch=10 n=46 v=122
62590 On ch=10 n=35 v=123
62590 On ch=10 n=46 v=122
62594 Off ch=10 n=40 v=123
62630 Off ch=10 n=35 v=123
62654 On ch=10 n=40 v=123
62686 Off ch=10 n=40 v=123
62718 On ch=10 n=40 v=122
62740 Off ch=10 n=46 v=122
62754 Off ch=10 n=40 v=122
62782 On ch=10 n=40 v=122
62782 On ch=10 n=46 v=122
62832 Off ch=10 n=40 v=122
62846 On ch=10 n=35 v=123
62886 Off ch=10 n=46 v=122
62910 On ch=10 n=40 v=124
62910 On ch=10 n=49 v=124
62942 Off ch=10 n=35 v=123
62974 Off ch=10 n=40 v=124
63230 On ch=10 n=40 v=123
63270 Off ch=10 n=40 v=123
63294 On ch=10 n=40 v=123
63328 Off ch=10 n=49 v=124
63336 Off ch=10 n=40 v=123
63358 On ch=10 n=35 v=124
63358 On ch=10 n=49 v=122
63462 Off ch=10 n=35 v=124
63486 On ch=10 n=35 v=122
63550 On ch=10 n=40 v=124
63550 On ch=10 n=46 v=122
63558 Off ch=10 n=49 v=122
63646 Off ch=10 n=35 v=122
63678 On ch=10 n=35 v=121
63706 Off ch=10 n=46 v=122
63708 Off ch=10 n=35 v=121
63742 On ch=10 n=35 v=120
63742 On ch=10 n=46 v=122
63842 Off ch=10 n=35 v=120
63870 On ch=10 n=35 v=121
63896 Off ch=10 n=40 v=124
63904 Off ch=10 n=46 v=122
63934 On ch=10 n=40 v=123
63934 On ch=10 n=46 v=122
64008 Off ch=10 n=35 v=121
64062 On ch=10 n=35 v=116
64100 Off ch=10 n=35 v=116
64100 Off ch=10 n=46 v=122
64126 On ch=10 n=35 v=123
64126 On ch=10 n=46 v=122
64226 Off ch=10 n=35 v=123
64254 On ch=10 n=35 v=121
64262 Off ch=10 n=40 v=123
64290 Off ch=10 n=46 v=122
64318 On ch=10 n=40 v=123
64318 On ch=10 n=46 v=122
64400 Off ch=10 n=35 v=121
64446 On ch=10 n=35 v=121
64480 Off ch=10 n=46 v=122
64482 Off ch=10 n=35 v=121
64510 On ch=10 n=35 v=121
64510 On ch=10 n=46 v=122
64588 Off ch=10 n=35 v=121
64638 On ch=10 n=35 v=122
64650 Off ch=10 n=40 v=123
64670 Off ch=10 n=46 v=122
64700 Off ch=10 n=35 v=122
64702 On ch=10 n=40 v=123
64702 On ch=10 n=46 v=122
64750 Off ch=10 n=40 v=123
64766 On ch=10 n=40 v=122
64812 Off ch=10 n=40 v=122
64830 On ch=10 n=40 v=121
64878 Off ch=10 n=46 v=122
64894 On ch=10 n=35 v=123
64894 On ch=10 n=49 v=122
65000 Off ch=10 n=35 v=123
65022 On ch=10 n=35 v=121
65038 Off ch=10 n=40 v=121
65066 Off ch=10 n=49 v=122
65086 On ch=10 n=40 v=124
65086 On ch=10 n=46 v=123
65160 Off ch=10 n=35 v=121
65214 On ch=10 n=35 v=120
65248 Off ch=10 n=35 v=120
65250 Off ch=10 n=46 v=123
65278 On ch=10 n=35 v=121
65278 On ch=10 n=46 v=122
65356 Off ch=10 n=35 v=121
65406 On ch=10 n=35 v=123
65424 Off ch=10 n=40 v=124
65438 Off ch=10 n=46 v=122
65470 On ch=10 n=40 v=123
65470 On ch=10 n=46 v=123
65508 Off ch=10 n=35 v=123
65534 On ch=10 n=43 v=121
65540 Off ch=10 n=40 v=123
65598 On ch=10 n=45 v=121
65608 Off ch=10 n=43 v=121
65636 Off ch=10 n=46 v=123
65662 On ch=10 n=35 v=124
65662 On ch=10 n=49 v=122
65738 Off ch=10 n=45 v=121
65754 Off ch=10 n=35 v=124
65790 On ch=10 n=35 v=123
65846 Off ch=10 n=49 v=122
65854 On ch=10 n=40 v=124
65854 On ch=10 n=46 v=123
65884 Off ch=10 n=35 v=123
65982 On ch=10 n=35 v=121
66018 Off ch=10 n=46 v=123
66020 Off ch=10 n=35 v=121
66046 On ch=10 n=35 v=121
66046 On ch=10 n=46 v=122
66138 Off ch=10 n=35 v=121
66174 On ch=10 n=35 v=123
66180 Off ch=10 n=46 v=122
66208 Off ch=10 n=40 v=124
66238 On ch=10 n=40 v=124
66238 On ch=10 n=46 v=122
66262 Off ch=10 n=35 v=123
66366 On ch=10 n=35 v=121
66396 Off ch=10 n=46 v=122
66406 Off ch=10 n=35 v=121
66430 On ch=10 n=35 v=122
66430 On ch=10 n=49 v=123
66528 Off ch=10 n=35 v=122
66558 On ch=10 n=35 v=121
66560 Off ch=10 n=40 v=124
66608 Off ch=10 n=49 v=123
66622 On ch=10 n=40 v=123
66622 On ch=10 n=46 v=122
66650 Off ch=10 n=35 v=121
66750 On ch=10 n=35 v=121
66754 Off ch=10 n=46 v=122
66790 Off ch=10 n=35 v=121
66814 On ch=10 n=35 v=121
66814 On ch=10 n=46 v=122
66898 Off ch=10 n=35 v=121
66942 On ch=10 n=35 v=121
66950 Off ch=10 n=46 v=122
66970 Off ch=10 n=40 v=123
67006 On ch=10 n=40 v=124
67006 On ch=10 n=46 v=122
67080 Off ch=10 n=35 v=121
67134 On ch=10 n=35 v=122
67162 Off ch=10 n=46 v=122
67172 Off ch=10 n=35 v=122
67198 On ch=10 n=35 v=121
67198 On ch=10 n=46 v=122
67294 Off ch=10 n=35 v=121
67326 On ch=10 n=35 v=121
67328 Off ch=10 n=46 v=122
67342 Off ch=10 n=40 v=124
67390 On ch=10 n=40 v=123
67390 On ch=10 n=46 v=122
67462 Off ch=10 n=35 v=121
67518 On ch=10 n=35 v=120
67530 Off ch=10 n=46 v=122
67558 Off ch=10 n=35 v=120
67582 On ch=10 n=35 v=121
67582 On ch=10 n=46 v=122
67664 Off ch=10 n=35 v=121
67710 On ch=10 n=35 v=121
67720 Off ch=10 n=46 v=122
67730 Off ch=10 n=40 v=123
67774 On ch=10 n=40 v=124
67774 On ch=10 n=46 v=122
67852 Off ch=10 n=35 v=121
67902 On ch=10 n=35 v=121
67922 Off ch=10 n=46 v=122
67942 Off ch=10 n=35 v=121
67966 On ch=10 n=35 v=123
67966 On ch=10 n=46 v=122
68052 Off ch=10 n=35 v=123
68094 On ch=10 n=35 v=121
68104 Off ch=10 n=46 v=122
68108 Off ch=10 n=40 v=124
68158 On ch=10 n=40 v=123
68158 On ch=10 n=46 v=122
68226 Off ch=10 n=35 v=121
68286 On ch=10 n=35 v=123
68300 Off ch=10 n=46 v=122
68326 Off ch=10 n=35 v=123
68350 On ch=10 n=35 v=122
68350 On ch=10 n=46 v=121
68428 Off ch=10 n=35 v=122
68478 On ch=10 n=35 v=123
68482 Off ch=10 n=46 v=121
68500 Off ch=10 n=40 v=123
68542 On ch=10 n=40 v=123
68542 On ch=10 n=46 v=121
68572 Off ch=10 n=35 v=123
68670 On ch=10 n=35 v=123
68710 Off ch=10 n=35 v=123
68712 Off ch=10 n=46 v=121
68734 On ch=10 n=35 v=124
68734 On ch=10 n=49 v=123
68848 Off ch=10 n=35 v=124
68862 On ch=10 n=35 v=123
68892 Off ch=10 n=40 v=123
68926 On ch=10 n=40 v=123
68926 On ch=10 n=46 v=122
68946 Off ch=10 n=35 v=123
69054 On ch=10 n=35 v=124
69068 Off ch=10 n=46 v=122
69074 Off ch=10 n=49 v=123
69118 On ch=10 n=49 v=123
69244 Off ch=10 n=35 v=124
69246 On ch=10 n=35 v=123
69280 Off ch=10 n=40 v=123
69310 On ch=10 n=40 v=123
69310 On ch=10 n=46 v=122
69402 Off ch=10 n=35 v=123
69426 Off ch=10 n=46 v=122
69432 Off ch=10 n=49 v=123
69438 On ch=10 n=35 v=121
69478 Off ch=10 n=35 v=121
69502 On ch=10 n=35 v=122
69502 On ch=10 n=49 v=123
69618 Off ch=10 n=35 v=122
69630 On ch=10 n=35 v=124
69674 Off ch=10 n=40 v=123
69694 Off ch=10 n=35 v=124
69694 On ch=10 n=40 v=124
69694 On ch=10 n=46 v=122
69790 Off ch=10 n=40 v=124
69810 Off ch=10 n=46 v=122
69826 Off ch=10 n=49 v=123
69886 On ch=10 n=35 v=123
69886 On ch=10 n=49 v=123
69950 Off ch=10 n=35 v=123
70014 On ch=10 n=35 v=123
70058 Off ch=10 n=35 v=123
70078 On ch=10 n=40 v=124
70078 On ch=10 n=46 v=122
70082 Off ch=10 n=49 v=123
70132 Off ch=10 n=46 v=122
70142 On ch=10 n=35 v=124
70142 On ch=10 n=49 v=123
70174 Off ch=10 n=40 v=124
70202 Off ch=10 n=49 v=123
70206 Off ch=10 n=35 v=124
70206 On ch=10 n=40 v=123
70206 On ch=10 n=46 v=123
70270 On ch=10 n=35 v=123
70270 On ch=10 n=49 v=123
70332 Off ch=10 n=46 v=123
70366 Off ch=10 n=35 v=123
70398 On ch=10 n=35 v=121
70412 Off ch=10 n=40 v=123
70462 On ch=10 n=40 v=123
70462 On ch=10 n=46 v=122
70582 Off ch=10 n=35 v=121
70628 Off ch=10 n=46 v=122
70654 On ch=10 n=35 v=123
70654 On ch=10 n=46 v=122
70728 Off ch=10 n=35 v=123
70782 On ch=10 n=35 v=121
70786 Off ch=10 n=40 v=123
70790 Off ch=10 n=46 v=122
70846 On ch=10 n=40 v=123
70846 On ch=10 n=46 v=122
70980 Off ch=10 n=35 v=121
70986 Off ch=10 n=46 v=122
71038 On ch=10 n=35 v=123
71038 On ch=10 n=46 v=123
71118 Off ch=10 n=35 v=123
71166 On ch=10 n=35 v=120
71174 Off ch=10 n=40 v=123
71178 Off ch=10 n=46 v=123
71230 On ch=10 n=40 v=123
71230 On ch=10 n=46 v=123
71344 Off ch=10 n=35 v=120
71376 Off ch=10 n=46 v=123
71422 Off ch=10 n=49 v=123
71422 On ch=10 n=35 v=121
71422 On ch=10 n=46 v=123
71478 Off ch=10 n=35 v=121
71550 On ch=10 n=35 v=122
71558 Off ch=10 n=46 v=123
71568 Off ch=10 n=40 v=123
71614 On ch=10 n=40 v=123
71614 On ch=10 n=46 v=122
71726 Off ch=10 n=35 v=122
71754 Off ch=10 n=46 v=122
71806 On ch=10 n=35 v=123
71806 On ch=10 n=46 v=122
71862 Off ch=10 n=35 v=123
71934 On ch=10 n=35 v=122
71942 Off ch=10 n=40 v=123
71944 Off ch=10 n=46 v=122
71998 On ch=10 n=40 v=123
71998 On ch=10 n=46 v=122
72104 Off ch=10 n=35 v=122
72138 Off ch=10 n=46 v=122
72190 On ch=10 n=35 v=123
72190 On ch=10 n=46 v=122
72250 Off ch=10 n=35 v=123
72318 On ch=10 n=35 v=123
72334 Off ch=10 n=46 v=122
72344 Off ch=10 n=40 v=123
72382 On ch=10 n=40 v=123
72382 On ch=10 n=46 v=123
72494 Off ch=10 n=35 v=123
72538 Off ch=10 n=46 v=123
72574 On ch=10 n=35 v=123
72574 On ch=10 n=49 v=123
72642 Off ch=10 n=35 v=123
72688 Off ch=10 n=49 v=123
72702 On ch=10 n=35 v=123
72708 Off ch=10 n=40 v=123
72766 On ch=10 n=40 v=123
72766 On ch=10 n=46 v=122
72866 Off ch=10 n=35 v=123
72902 Off ch=10 n=46 v=122
72958 On ch=10 n=35 v=122
72958 On ch=10 n=46 v=122
73030 Off ch=10 n=35 v=122
73086 On ch=10 n=35 v=123
73106 Off ch=10 n=46 v=122
73108 Off ch=10 n=40 v=123
73150 On ch=10 n=40 v=123
73150 On ch=10 n=46 v=123
73154 Off ch=10 n=35 v=123
73214 On ch=10 n=43 v=121
73224 Off ch=10 n=40 v=123
73278 On ch=10 n=45 v=122
73290 Off ch=10 n=43 v=121
73340 Off ch=10 n=45 v=122
73342 On ch=10 n=35 v=122
73342 On ch=10 n=49 v=122
73348 Off ch=10 n=46 v=123
73534 On ch=10 n=40 v=124
73552 Off ch=10 n=49 v=122
73588 Off ch=10 n=35 v=122
73596 Off ch=10 n=40 v=124
73598 On ch=10 n=40 v=123
73652 Off ch=10 n=40 v=123
73662 On ch=10 n=43 v=121
73726 On ch=10 n=35 v=121
73726 On ch=10 n=49 v=121
73752 Off ch=10 n=43 v=121
73866 Off ch=10 n=35 v=121
73918 Off ch=10 n=49 v=121
73918 On ch=10 n=40 v=122
73974 Off ch=10 n=40 v=122
73982 On ch=10 n=43 v=121
74046 On ch=10 n=35 v=122
74046 On ch=10 n=57 v=122
74048 Off ch=10 n=43 v=121
74078 Off ch=10 n=35 v=122
74086 Off ch=10 n=57 v=122
74110 On ch=10 n=35 v=122
74110 On ch=10 n=49 v=122
74302 On ch=10 n=46 v=122
74650 Off ch=10 n=46 v=122
74686 On ch=10 n=46 v=123
74738 Off ch=10 n=35 v=122
74782 Off ch=10 n=49 v=122
74878 On ch=10 n=35 v=124
74878 On ch=10 n=43 v=123
74920 Off ch=10 n=46 v=123
75070 On ch=10 n=46 v=122
75392 Off ch=10 n=46 v=122
75454 On ch=10 n=46 v=122
75540 Off ch=10 n=35 v=124
75630 Off ch=10 n=43 v=123
75642 Off ch=10 n=46 v=122
75646 On ch=10 n=35 v=124
75646 On ch=10 n=49 v=123
76912 Off ch=10 n=49 v=123
77166 Off ch=10 n=35 v=124
78718 On ch=10 n=35 v=124
78718 On ch=10 n=52 v=123
78814 On ch=10 n=46 v=120
78842 Off ch=10 n=46 v=120
78910 On ch=10 n=40 v=124
78910 On ch=10 n=46 v=122
78972 Off ch=10 n=35 v=124
78986 Off ch=10 n=46 v=122
79006 On ch=10 n=35 v=121
79006 On ch=10 n=46 v=119
79050 Off ch=10 n=35 v=121
79060 Off ch=10 n=52 v=123
79102 On ch=10 n=35 v=124
79102 On ch=10 n=49 v=123
79124 Off ch=10 n=46 v=119
79198 On ch=10 n=46 v=119
79222 Off ch=10 n=40 v=124
79248 Off ch=10 n=46 v=119
79294 On ch=10 n=40 v=124
79294 On ch=10 n=46 v=122
79336 Off ch=10 n=35 v=124
79362 Off ch=10 n=46 v=122
79390 On ch=10 n=35 v=120
79390 On ch=10 n=46 v=120
79426 Off ch=10 n=35 v=120
79436 Off ch=10 n=49 v=123
79486 On ch=10 n=35 v=124
79486 On ch=10 n=57 v=123
79532 Off ch=10 n=46 v=120
79578 Off ch=10 n=40 v=124
79582 On ch=10 n=46 v=119
79614 Off ch=10 n=46 v=119
79678 On ch=10 n=40 v=124
79678 On ch=10 n=46 v=122
79726 Off ch=10 n=35 v=124
79750 Off ch=10 n=46 v=122
79774 On ch=10 n=35 v=120
79774 On ch=10 n=46 v=122
79800 Off ch=10 n=57 v=123
79806 Off ch=10 n=35 v=120
79824 Off ch=10 n=40 v=124
79870 On ch=10 n=35 v=123
79870 On ch=10 n=49 v=122
79872 Off ch=10 n=46 v=122
80002 Off ch=10 n=35 v=123
80036 Off ch=10 n=49 v=122
80062 On ch=10 n=35 v=124
80062 On ch=10 n=52 v=123
80144 Off ch=10 n=35 v=124
80174 Off ch=10 n=52 v=123
80254 On ch=10 n=35 v=124
80254 On ch=10 n=55 v=127
80394 Off ch=10 n=35 v=124
80422 Off ch=10 n=55 v=127
80446 On ch=10 n=35 v=124
80446 On ch=10 n=57 v=123
80510 Off ch=10 n=57 v=123
80522 Off ch=10 n=35 v=124
80638 On ch=10 n=35 v=124
80638 On ch=10 n=52 v=123
80752 Off ch=10 n=35 v=124
80776 Off ch=10 n=52 v=123
80830 On ch=10 n=35 v=123
80830 On ch=10 n=49 v=123
80940 Off ch=10 n=49 v=123
80950 Off ch=10 n=35 v=123
81022 On ch=10 n=35 v=124
81022 On ch=10 n=57 v=123
81214 On ch=10 n=40 v=124
81214 On ch=10 n=46 v=122
81240 Off ch=10 n=35 v=124
81276 Off ch=10 n=46 v=122
81310 On ch=10 n=35 v=123
81310 On ch=10 n=46 v=112
81344 Off ch=10 n=46 v=112
81354 Off ch=10 n=35 v=123
81406 On ch=10 n=35 v=124
81406 On ch=10 n=46 v=122
81458 Off ch=10 n=46 v=122
81502 On ch=10 n=46 v=112
81528 Off ch=10 n=46 v=112
81542 Off ch=10 n=40 v=124
81598 On ch=10 n=40 v=123
81598 On ch=10 n=46 v=122
81610 Off ch=10 n=35 v=124
81646 On ch=10 n=43 v=122
81652 Off ch=10 n=46 v=122
81654 Off ch=10 n=40 v=123
81694 On ch=10 n=35 v=124
81694 On ch=10 n=45 v=122
81698 Off ch=10 n=43 v=122
81722 Off ch=10 n=57 v=123
81734 Off ch=10 n=35 v=124
81780 Off ch=10 n=45 v=122
81790 On ch=10 n=35 v=124
81790 On ch=10 n=49 v=123
81886 On ch=10 n=46 v=111
81934 Off ch=10 n=46 v=111
81982 On ch=10 n=40 v=122
81982 On ch=10 n=46 v=122
82004 Off ch=10 n=35 v=124
82032 Off ch=10 n=46 v=122
82078 On ch=10 n=35 v=123
82078 On ch=10 n=46 v=114
82100 Off ch=10 n=46 v=114
82122 Off ch=10 n=35 v=123
82174 On ch=10 n=35 v=123
82174 On ch=10 n=46 v=122
82202 Off ch=10 n=46 v=122
82270 On ch=10 n=46 v=111
82300 Off ch=10 n=40 v=122
82318 Off ch=10 n=46 v=111
82366 On ch=10 n=40 v=124
82366 On ch=10 n=46 v=123
82400 Off ch=10 n=46 v=123
82424 Off ch=10 n=35 v=123
82462 On ch=10 n=35 v=123
82462 On ch=10 n=46 v=120
82480 Off ch=10 n=40 v=124
82488 Off ch=10 n=46 v=120
82494 Off ch=10 n=49 v=123
82550 Off ch=10 n=35 v=123
82558 On ch=10 n=35 v=123
82558 On ch=10 n=49 v=122
82738 Off ch=10 n=49 v=122
82750 On ch=10 n=40 v=123
82750 On ch=10 n=42 v=122
82786 Off ch=10 n=35 v=123
82824 Off ch=10 n=42 v=122
82846 On ch=10 n=35 v=118
82846 On ch=10 n=42 v=117
82886 Off ch=10 n=42 v=117
82894 Off ch=10 n=35 v=118
82942 On ch=10 n=35 v=122
82942 On ch=10 n=42 v=121
82996 Off ch=10 n=42 v=121
83038 On ch=10 n=42 v=111
83064 Off ch=10 n=40 v=123
83068 Off ch=10 n=42 v=111
83134 On ch=10 n=40 v=124
83134 On ch=10 n=42 v=123
83198 Off ch=10 n=42 v=123
83230 On ch=10 n=42 v=113
83258 Off ch=10 n=35 v=122
83268 Off ch=10 n=42 v=113
83326 On ch=10 n=35 v=123
83326 On ch=10 n=42 v=122
83380 Off ch=10 n=42 v=122
83422 On ch=10 n=42 v=114
83436 Off ch=10 n=40 v=124
83458 Off ch=10 n=42 v=114
83518 On ch=10 n=40 v=124
83518 On ch=10 n=42 v=122
83554 Off ch=10 n=35 v=123
83580 Off ch=10 n=42 v=122
83614 On ch=10 n=35 v=123
83614 On ch=10 n=42 v=117
83648 Off ch=10 n=42 v=117
83662 Off ch=10 n=35 v=123
83710 On ch=10 n=35 v=123
83710 On ch=10 n=42 v=122
83792 Off ch=10 n=42 v=122
83806 On ch=10 n=46 v=121
83826 Off ch=10 n=40 v=124
83902 On ch=10 n=40 v=124
83902 On ch=10 n=42 v=122
83904 Off ch=10 n=46 v=121
83946 Off ch=10 n=35 v=123
83986 Off ch=10 n=42 v=122
83998 On ch=10 n=35 v=123
83998 On ch=10 n=46 v=122
84040 Off ch=10 n=35 v=123
84094 Off ch=10 n=46 v=122
84094 On ch=10 n=35 v=124
84094 On ch=10 n=49 v=122
84358 Off ch=10 n=49 v=122
84396 Off ch=10 n=35 v=124
84478 On ch=10 n=35 v=124
84478 On ch=10 n=57 v=123
84862 On ch=10 n=51 v=120
84914 Off ch=10 n=51 v=120
84958 On ch=10 n=51 v=119
85070 Off ch=10 n=51 v=119
85102 On ch=10 n=51 v=120
85180 Off ch=10 n=57 v=123
85186 Off ch=10 n=35 v=124
85246 On ch=10 n=35 v=124
85246 On ch=10 n=49 v=123
85980 Off ch=10 n=35 v=124
86006 Off ch=10 n=49 v=123
86014 On ch=10 n=35 v=122
86014 On ch=10 n=52 v=119
86048 Off ch=10 n=51 v=120
86206 On ch=10 n=51 v=119
86286 Off ch=10 n=35 v=122
86302 Off ch=10 n=51 v=119
86302 On ch=10 n=35 v=121
86372 Off ch=10 n=35 v=121
86398 On ch=10 n=35 v=123
86398 On ch=10 n=51 v=119
86494 Off ch=10 n=51 v=119
86590 On ch=10 n=51 v=119
86686 Off ch=10 n=51 v=119
86760 Off ch=10 n=35 v=123
86782 On ch=10 n=35 v=122
86782 On ch=10 n=51 v=119
86878 Off ch=10 n=51 v=119
86974 On ch=10 n=51 v=119
87064 Off ch=10 n=35 v=122
87070 On ch=10 n=35 v=117
87086 Off ch=10 n=51 v=119
87140 Off ch=10 n=35 v=117
87166 On ch=10 n=35 v=122
87166 On ch=10 n=51 v=120
87288 Off ch=10 n=51 v=120
87358 On ch=10 n=51 v=119
87508 Off ch=10 n=51 v=119
87518 Off ch=10 n=35 v=122
87550 On ch=10 n=35 v=121
87550 On ch=10 n=51 v=119
87682 Off ch=10 n=51 v=119
87742 On ch=10 n=51 v=119
87866 Off ch=10 n=51 v=119
87924 Off ch=10 n=35 v=121
87934 On ch=10 n=35 v=120
87934 On ch=10 n=51 v=120
88060 Off ch=10 n=51 v=120
88126 On ch=10 n=51 v=118
88178 Off ch=10 n=35 v=120
88222 On ch=10 n=35 v=118
88238 Off ch=10 n=51 v=118
88294 Off ch=10 n=35 v=118
88318 On ch=10 n=35 v=121
88318 On ch=10 n=51 v=118
88442 Off ch=10 n=51 v=118
88510 On ch=10 n=51 v=118
88630 Off ch=10 n=51 v=118
88702 On ch=10 n=51 v=118
88810 Off ch=10 n=51 v=118
88894 On ch=10 n=51 v=119
88904 Off ch=10 n=52 v=119
89036 Off ch=10 n=51 v=119
89086 On ch=10 n=51 v=118
89242 Off ch=10 n=51 v=118
89278 On ch=10 n=51 v=108
89470 On ch=10 n=49 v=117
89488 Off ch=10 n=51 v=108
89662 Off ch=10 n=40 v=124
89784 Off ch=10 n=35 v=121
89872 Off ch=10 n=49 v=117
92928 Par ch=10 c=120 v=0
92928 Meta TrkEnd
TrkEnd
MTrk
0 Meta Text "Timpani"
180 Par ch=11 c=121 v=0
292 Par ch=11 c=0 v=0
294 Par ch=11 c=32 v=0
296 PrCh ch=11 p=47
298 Par ch=11 c=7 v=123
298 Par ch=11 c=10 v=64
298 Par ch=11 c=11 v=110
300 Par ch=11 c=91 v=127
300 Par ch=11 c=93 v=20
44160 On ch=11 n=36 v=122
44160 On ch=11 n=48 v=118
44176 Off ch=11 n=36 v=122
44178 Off ch=11 n=48 v=118
44208 On ch=11 n=36 v=122
44208 On ch=11 n=48 v=117
44226 Off ch=11 n=48 v=117
44230 Off ch=11 n=36 v=122
44256 On ch=11 n=36 v=120
44256 On ch=11 n=48 v=117
44274 Off ch=11 n=48 v=117
44274 Off ch=11 n=36 v=120
44304 On ch=11 n=36 v=120
44304 On ch=11 n=48 v=118
44322 Off ch=11 n=48 v=118
44322 Off ch=11 n=36 v=120
44352 On ch=11 n=36 v=119
44352 On ch=11 n=48 v=120
44372 Off ch=11 n=48 v=120
44372 Off ch=11 n=36 v=119
44448 On ch=11 n=36 v=122
44448 On ch=11 n=48 v=122
44466 Off ch=11 n=48 v=122
44468 Off ch=11 n=36 v=122
44544 On ch=11 n=36 v=119
44544 On ch=11 n=48 v=120
44562 Off ch=11 n=48 v=120
44564 Off ch=11 n=36 v=119
44592 On ch=11 n=36 v=121
44592 On ch=11 n=48 v=118
44610 Off ch=11 n=48 v=118
44610 Off ch=11 n=36 v=121
44640 On ch=11 n=36 v=122
44640 On ch=11 n=48 v=119
44654 Off ch=11 n=48 v=119
44658 Off ch=11 n=36 v=122
44688 On ch=11 n=36 v=122
44688 On ch=11 n=48 v=119
44706 Off ch=11 n=48 v=119
44708 Off ch=11 n=36 v=122
44736 On ch=11 n=36 v=122
44736 On ch=11 n=48 v=120
44756 Off ch=11 n=48 v=120
44758 Off ch=11 n=36 v=122
44832 On ch=11 n=36 v=120
44832 On ch=11 n=48 v=120
44852 Off ch=11 n=48 v=120
44856 Off ch=11 n=36 v=120
44928 On ch=11 n=36 v=122
44928 On ch=11 n=48 v=120
44948 Off ch=11 n=36 v=122
44950 Off ch=11 n=48 v=120
47520 On ch=11 n=36 v=121
47520 On ch=11 n=48 v=122
47534 Off ch=11 n=48 v=122
47538 Off ch=11 n=36 v=121
47616 On ch=11 n=36 v=122
47616 On ch=11 n=48 v=121
47632 Off ch=11 n=48 v=121
47634 Off ch=11 n=36 v=122
47712 On ch=11 n=36 v=121
47712 On ch=11 n=48 v=121
47726 Off ch=11 n=48 v=121
47726 Off ch=11 n=36 v=121
47808 On ch=11 n=36 v=120
47808 On ch=11 n=48 v=121
47826 Off ch=11 n=48 v=121
47826 Off ch=11 n=36 v=120
47904 On ch=11 n=36 v=120
47904 On ch=11 n=48 v=121
47918 Off ch=11 n=48 v=121
47922 Off ch=11 n=36 v=120
48000 On ch=11 n=36 v=121
48000 On ch=11 n=48 v=119
48014 Off ch=11 n=48 v=119
48014 Off ch=11 n=36 v=121
48096 On ch=11 n=36 v=120
48096 On ch=11 n=48 v=121
48110 Off ch=11 n=48 v=121
48110 Off ch=11 n=36 v=120
48192 On ch=11 n=36 v=121
48192 On ch=11 n=48 v=122
48210 Off ch=11 n=48 v=122
48210 Off ch=11 n=36 v=121
48288 On ch=11 n=36 v=122
48288 On ch=11 n=48 v=122
48302 Off ch=11 n=36 v=122
48306 Off ch=11 n=48 v=122
48480 On ch=11 n=36 v=122
48480 On ch=11 n=48 v=122
48498 Off ch=11 n=48 v=122
48498 Off ch=11 n=36 v=122
48672 On ch=11 n=36 v=122
48672 On ch=11 n=48 v=122
48690 Off ch=11 n=48 v=122
48690 Off ch=11 n=36 v=122
48768 On ch=11 n=36 v=122
48768 On ch=11 n=48 v=121
48784 Off ch=11 n=48 v=121
48788 Off ch=11 n=36 v=122
48864 On ch=11 n=36 v=122
48864 On ch=11 n=48 v=122
48882 Off ch=11 n=48 v=122
48888 Off ch=11 n=36 v=122
50112 On ch=11 n=36 v=122
50112 On ch=11 n=48 v=121
50130 Off ch=11 n=48 v=121
50130 Off ch=11 n=36 v=122
50208 On ch=11 n=36 v=123
50208 On ch=11 n=48 v=121
50226 Off ch=11 n=48 v=121
50226 Off ch=11 n=36 v=123
50304 On ch=11 n=36 v=122
50304 On ch=11 n=48 v=121
50322 Off ch=11 n=48 v=121
50322 Off ch=11 n=36 v=122
50400 On ch=11 n=36 v=122
50400 On ch=11 n=48 v=122
50420 Off ch=11 n=48 v=122
50420 Off ch=11 n=36 v=122
50544 On ch=11 n=36 v=114
50544 On ch=11 n=48 v=111
50558 Off ch=11 n=48 v=111
50562 Off ch=11 n=36 v=114
50592 On ch=11 n=36 v=116
50592 On ch=11 n=48 v=112
50606 Off ch=11 n=48 v=112
50606 Off ch=11 n=36 v=116
50640 On ch=11 n=36 v=122
50640 On ch=11 n=48 v=118
50654 Off ch=11 n=48 v=118
50658 Off ch=11 n=36 v=122
50688 On ch=11 n=36 v=120
50688 On ch=11 n=48 v=117
50706 Off ch=11 n=48 v=117
50706 Off ch=11 n=36 v=120
50736 On ch=11 n=36 v=122
50736 On ch=11 n=48 v=119
50754 Off ch=11 n=48 v=119
50754 Off ch=11 n=36 v=122
50784 On ch=11 n=36 v=120
50784 On ch=11 n=48 v=121
50802 Off ch=11 n=48 v=121
50804 Off ch=11 n=36 v=120
51072 On ch=11 n=36 v=123
51072 On ch=11 n=48 v=121
51090 Off ch=11 n=48 v=121
51090 Off ch=11 n=36 v=123
51168 On ch=11 n=36 v=122
51168 On ch=11 n=48 v=122
51186 Off ch=11 n=48 v=122
51186 Off ch=11 n=36 v=122
51264 On ch=11 n=36 v=122
51264 On ch=11 n=48 v=121
51282 Off ch=11 n=36 v=122
51284 Off ch=11 n=48 v=121
51360 On ch=11 n=36 v=121
51360 On ch=11 n=48 v=120
51378 Off ch=11 n=48 v=120
51382 Off ch=11 n=36 v=121
51504 On ch=11 n=36 v=111
51504 On ch=11 n=48 v=105
51518 Off ch=11 n=36 v=111
51522 Off ch=11 n=48 v=105
51552 On ch=11 n=36 v=113
51552 On ch=11 n=48 v=110
51568 Off ch=11 n=48 v=110
51570 Off ch=11 n=36 v=113
51600 On ch=11 n=36 v=122
51600 On ch=11 n=48 v=120
51618 Off ch=11 n=48 v=120
51620 Off ch=11 n=36 v=122
51648 On ch=11 n=36 v=122
51648 On ch=11 n=48 v=120
51662 Off ch=11 n=48 v=120
51666 Off ch=11 n=36 v=122
51696 On ch=11 n=36 v=120
51696 On ch=11 n=48 v=118
51714 Off ch=11 n=48 v=118
51718 Off ch=11 n=36 v=120
51744 On ch=11 n=36 v=120
51744 On ch=11 n=48 v=122
51766 Off ch=11 n=48 v=122
51766 Off ch=11 n=36 v=120
51936 On ch=11 n=36 v=119
51936 On ch=11 n=48 v=114
51952 Off ch=11 n=36 v=119
51956 Off ch=11 n=48 v=114
51984 On ch=11 n=36 v=121
51984 On ch=11 n=48 v=116
51998 Off ch=11 n=48 v=116
51998 Off ch=11 n=36 v=121
52032 On ch=11 n=36 v=122
52032 On ch=11 n=48 v=118
52048 Off ch=11 n=36 v=122
52050 Off ch=11 n=48 v=118
52080 On ch=11 n=36 v=119
52080 On ch=11 n=48 v=120
52098 Off ch=11 n=48 v=120
52102 Off ch=11 n=36 v=119
52128 On ch=11 n=36 v=121
52128 On ch=11 n=48 v=122
52146 Off ch=11 n=48 v=122
52150 Off ch=11 n=36 v=121
52320 On ch=11 n=36 v=116
52320 On ch=11 n=48 v=118
52334 Off ch=11 n=36 v=116
52338 Off ch=11 n=48 v=118
52368 On ch=11 n=36 v=121
52368 On ch=11 n=48 v=119
52382 Off ch=11 n=48 v=119
52382 Off ch=11 n=36 v=121
52416 On ch=11 n=36 v=122
52416 On ch=11 n=48 v=118
52430 Off ch=11 n=48 v=118
52434 Off ch=11 n=36 v=122
52464 On ch=11 n=36 v=119
52464 On ch=11 n=48 v=120
52480 Off ch=11 n=48 v=120
52486 Off ch=11 n=36 v=119
52512 On ch=11 n=36 v=120
52512 On ch=11 n=48 v=122
52530 Off ch=11 n=36 v=120
52534 Off ch=11 n=48 v=122
53232 On ch=11 n=36 v=108
53252 Off ch=11 n=36 v=108
53328 On ch=11 n=36 v=105
53354 Off ch=11 n=36 v=105
53424 On ch=11 n=36 v=117
53456 Off ch=11 n=36 v=117
53520 On ch=11 n=36 v=122
53550 Off ch=11 n=36 v=122
53616 On ch=11 n=36 v=121
53646 Off ch=11 n=36 v=121
53712 On ch=11 n=36 v=122
53742 Off ch=11 n=36 v=122
53808 On ch=11 n=36 v=123
53834 Off ch=11 n=36 v=123
54288 On ch=11 n=36 v=115
54288 On ch=11 n=48 v=110
54302 Off ch=11 n=48 v=110
54306 Off ch=11 n=36 v=115
54336 On ch=11 n=36 v=111
54336 On ch=11 n=48 v=110
54350 Off ch=11 n=48 v=110
54352 Off ch=11 n=36 v=111
54384 On ch=11 n=36 v=121
54384 On ch=11 n=48 v=119
54402 Off ch=11 n=48 v=119
54402 Off ch=11 n=36 v=121
54432 On ch=11 n=36 v=117
54432 On ch=11 n=48 v=107
54442 Off ch=11 n=48 v=107
54444 Off ch=11 n=36 v=117
54480 On ch=11 n=36 v=122
54480 On ch=11 n=48 v=119
54498 Off ch=11 n=48 v=119
54502 Off ch=11 n=36 v=122
54528 On ch=11 n=36 v=121
54528 On ch=11 n=48 v=119
54546 Off ch=11 n=48 v=119
54546 Off ch=11 n=36 v=121
54576 On ch=11 n=36 v=121
54576 On ch=11 n=48 v=121
54596 Off ch=11 n=36 v=121
54598 Off ch=11 n=48 v=121
54912 On ch=11 n=36 v=117
54912 On ch=11 n=48 v=110
54932 Off ch=11 n=48 v=110
54932 Off ch=11 n=36 v=117
54960 On ch=11 n=36 v=122
54960 On ch=11 n=48 v=122
54978 Off ch=11 n=36 v=122
54982 Off ch=11 n=48 v=122
55152 On ch=11 n=36 v=122
55152 On ch=11 n=48 v=122
55168 Off ch=11 n=48 v=122
55176 Off ch=11 n=36 v=122
55296 On ch=11 n=36 v=118
55296 On ch=11 n=48 v=115
55314 Off ch=11 n=48 v=115
55314 Off ch=11 n=36 v=118
55344 On ch=11 n=36 v=121
55344 On ch=11 n=48 v=122
55362 Off ch=11 n=48 v=122
55362 Off ch=11 n=36 v=121
55536 On ch=11 n=36 v=122
55536 On ch=11 n=48 v=119
55560 Off ch=11 n=48 v=119
55564 Off ch=11 n=36 v=122
55632 On ch=11 n=36 v=107
55632 On ch=11 n=48 v=107
55648 Off ch=11 n=36 v=107
55650 Off ch=11 n=48 v=107
55728 On ch=11 n=36 v=108
55740 Off ch=11 n=36 v=108
55776 On ch=11 n=48 v=80
55784 Off ch=11 n=48 v=80
55824 On ch=11 n=36 v=110
55824 On ch=11 n=48 v=110
55840 Off ch=11 n=36 v=110
55842 Off ch=11 n=48 v=110
55920 On ch=11 n=36 v=110
55920 On ch=11 n=48 v=108
55938 Off ch=11 n=48 v=108
55938 Off ch=11 n=36 v=110
56016 On ch=11 n=36 v=110
56016 On ch=11 n=48 v=105
56034 Off ch=11 n=48 v=105
56034 Off ch=11 n=36 v=110
56112 On ch=11 n=36 v=112
56112 On ch=11 n=48 v=112
56130 Off ch=11 n=48 v=112
56132 Off ch=11 n=36 v=112
56208 On ch=11 n=36 v=116
56208 On ch=11 n=48 v=119
56222 Off ch=11 n=36 v=116
56224 Off ch=11 n=48 v=119
56352 On ch=11 n=47 v=74
56352 On ch=11 n=48 v=107
56356 Off ch=11 n=47 v=74
56366 Off ch=11 n=48 v=107
56400 On ch=11 n=48 v=98
56402 Off ch=11 n=48 v=98
56448 On ch=11 n=48 v=100
56460 Off ch=11 n=48 v=100
56496 On ch=11 n=48 v=91
56510 Off ch=11 n=48 v=91
56544 On ch=11 n=48 v=122
56558 Off ch=11 n=48 v=122
56592 On ch=11 n=48 v=118
56606 Off ch=11 n=48 v=118
56640 On ch=11 n=48 v=117
56654 Off ch=11 n=48 v=117
56736 On ch=11 n=48 v=90
56738 Off ch=11 n=48 v=90
56784 On ch=11 n=48 v=89
56786 Off ch=11 n=48 v=89
56832 On ch=11 n=48 v=86
56846 Off ch=11 n=48 v=86
56880 On ch=11 n=48 v=123
56906 Off ch=11 n=48 v=123
56928 On ch=11 n=48 v=86
56954 Off ch=11 n=48 v=86
56976 On ch=11 n=48 v=91
57000 Off ch=11 n=48 v=91
57024 On ch=11 n=48 v=123
57052 Off ch=11 n=48 v=123
57072 On ch=11 n=48 v=97
57092 Off ch=11 n=48 v=97
57120 On ch=11 n=48 v=123
57144 Off ch=11 n=48 v=123
57168 On ch=11 n=48 v=122
57194 Off ch=11 n=48 v=122
57264 On ch=11 n=48 v=123
57290 Off ch=11 n=48 v=123
92928 Par ch=11 c=120 v=0
92930 Par ch=11 c=123 v=0
92930 Meta TrkEnd
TrkEnd